{
	"header": {
		"keySignatures": [{
			"key": "A",
			"scale": "major",
			"ticks": 0
		}],
		"meta": [],
		"name": "",
		"ppq": 480,
		"tempos": [{
			"bpm": 110.00011000011,
			"ticks": 0
		}],
		"timeSignatures": [{
			"ticks": 0,
			"timeSignature": [2, 4],
			"measures": 0
		}]
	},
	"tracks": [
		{
		"channel": 0,
		"controlChanges": {
			"0": [
			{
				"number": 0,
				"ticks": 605,
				"time": 0.6874993125000001,
				"value": 0
			}
			],
			"32": [
			{
				"number": 32,
				"ticks": 610,
				"time": 0.693181125,
				"value": 0
			}
			]
		},
		"pitchBends": [],
		"instrument": {
			"family": "piano",
			"name": "acoustic grand piano",
			"number": 0
		},
		"name": "",
		"notes": [],
		"endOfTrackTicks": 83400
		},
		{
		"channel": 0,
		"controlChanges": {
			"0": [
			{
				"number": 0,
				"ticks": 605,
				"time": 0.6874993125000001,
				"value": 0
			}
			],
			"7": [
			{
				"number": 7,
				"ticks": 620,
				"time": 0.70454475,
				"value": 0.905511811023622
			}
			],
			"10": [
			{
				"number": 10,
				"ticks": 625,
				"time": 0.7102265624999999,
				"value": 0.5039370078740157
			}
			],
			"32": [
			{
				"number": 32,
				"ticks": 610,
				"time": 0.693181125,
				"value": 0
			}
			]
		},
		"pitchBends": [],
		"instrument": {
			"family": "piano",
			"name": "acoustic grand piano",
			"number": 0
		},
		"name": "",
		"notes": []
		},
		{
		"channel": 0,
		"controlChanges": {
			"0": [
			{
				"number": 0,
				"ticks": 605,
				"time": 0.6874993125000001,
				"value": 1
			}
			],
			"7": [
			{
				"number": 7,
				"ticks": 620,
				"time": 0.70454475,
				"value": 0.905511811023622
			}
			],
			"10": [
			{
				"number": 10,
				"ticks": 625,
				"time": 0.7102265624999999,
				"value": 0.5039370078740157
			}
			],
			"32": [
			{
				"number": 32,
				"ticks": 610,
				"time": 0.693181125,
				"value": 0
			}
			]
		},
		"pitchBends": [],
		"instrument": {
			"family": "piano",
			"name": "acoustic grand piano",
			"number": 0
		},
		"name": "",
		"notes": []
		},
		{
		"channel": 0,
		"controlChanges": {
			"0": [
			{
				"number": 0,
				"ticks": 605,
				"time": 0.6874993125000001,
				"value": 0
			}
			],
			"7": [
			{
				"number": 7,
				"ticks": 620,
				"time": 0.70454475,
				"value": 0.905511811023622
			}
			],
			"10": [
			{
				"number": 10,
				"ticks": 625,
				"time": 0.7102265624999999,
				"value": 0.5039370078740157
			}
			],
			"32": [
			{
				"number": 32,
				"ticks": 610,
				"time": 0.693181125,
				"value": 0
			}
			]
		},
		"pitchBends": [],
		"instrument": {
			"family": "piano",
			"name": "acoustic grand piano",
			"number": 0
		},
		"name": "",
		"notes": []
		},
		{
		"channel": 0,
		"controlChanges": {
			"0": [
			{
				"number": 0,
				"ticks": 605,
				"time": 0.6874993125000001,
				"value": 0
			}
			],
			"7": [
			{
				"number": 7,
				"ticks": 620,
				"time": 0.70454475,
				"value": 0.905511811023622
			}
			],
			"10": [
			{
				"number": 10,
				"ticks": 625,
				"time": 0.7102265624999999,
				"value": 0.5039370078740157
			}
			],
			"32": [
			{
				"number": 32,
				"ticks": 610,
				"time": 0.693181125,
				"value": 0
			}
			]
		},
		"pitchBends": [],
		"instrument": {
			"family": "piano",
			"name": "acoustic grand piano",
			"number": 0
		},
		"name": "",
		"notes": []
		},
		{
		"channel": 0,
		"controlChanges": {
			"0": [
			{
				"number": 0,
				"ticks": 605,
				"time": 0.6874993125000001,
				"value": 0
			}
			],
			"7": [
			{
				"number": 7,
				"ticks": 620,
				"time": 0.70454475,
				"value": 0.905511811023622
			}
			],
			"10": [
			{
				"number": 10,
				"ticks": 625,
				"time": 0.7102265624999999,
				"value": 0.5039370078740157
			}
			],
			"32": [
			{
				"number": 32,
				"ticks": 610,
				"time": 0.693181125,
				"value": 0
			}
			]
		},
		"pitchBends": [],
		"instrument": {
			"family": "piano",
			"name": "acoustic grand piano",
			"number": 0
		},
		"name": "",
		"notes": []
		},
		{
		"channel": 0,
		"controlChanges": {
			"0": [
			{
				"number": 0,
				"ticks": 605,
				"time": 0.6874993125000001,
				"value": 0
			}
			],
			"7": [
			{
				"number": 7,
				"ticks": 620,
				"time": 0.70454475,
				"value": 0.905511811023622
			}
			],
			"10": [
			{
				"number": 10,
				"ticks": 625,
				"time": 0.7102265624999999,
				"value": 0.5039370078740157
			}
			],
			"32": [
			{
				"number": 32,
				"ticks": 610,
				"time": 0.693181125,
				"value": 0
			}
			]
		},
		"pitchBends": [],
		"instrument": {
			"family": "piano",
			"name": "acoustic grand piano",
			"number": 0
		},
		"name": "",
		"notes": []
		},
		{
		"channel": 0,
		"controlChanges": {
			"0": [
			{
				"number": 0,
				"ticks": 605,
				"time": 0.6874993125000001,
				"value": 0
			}
			],
			"7": [
			{
				"number": 7,
				"ticks": 620,
				"time": 0.70454475,
				"value": 0.905511811023622
			}
			],
			"10": [
			{
				"number": 10,
				"ticks": 625,
				"time": 0.7102265624999999,
				"value": 0.5039370078740157
			}
			],
			"32": [
			{
				"number": 32,
				"ticks": 610,
				"time": 0.693181125,
				"value": 0
			}
			]
		},
		"pitchBends": [],
		"instrument": {
			"family": "piano",
			"name": "acoustic grand piano",
			"number": 0
		},
		"name": "",
		"notes": []
		},
		{
		"channel": 0,
		"controlChanges": {
			"0": [
			{
				"number": 0,
				"ticks": 605,
				"time": 0.6874993125000001,
				"value": 0
			}
			],
			"7": [
			{
				"number": 7,
				"ticks": 620,
				"time": 0.70454475,
				"value": 0.905511811023622
			}
			],
			"10": [
			{
				"number": 10,
				"ticks": 625,
				"time": 0.7102265624999999,
				"value": 0.5039370078740157
			}
			],
			"32": [
			{
				"number": 32,
				"ticks": 610,
				"time": 0.693181125,
				"value": 0
			}
			]
		},
		"pitchBends": [],
		"instrument": {
			"family": "piano",
			"name": "acoustic grand piano",
			"number": 0
		},
		"name": "",
		"notes": []
		},
		{
		"channel": 9,
		"controlChanges": {
			"0": [
			{
				"number": 0,
				"ticks": 605,
				"time": 0.6874993125000001,
				"value": 1
			}
			],
			"7": [
			{
				"number": 7,
				"ticks": 620,
				"time": 0.70454475,
				"value": 0.8503937007874016
			}
			],
			"10": [
			{
				"number": 10,
				"ticks": 625,
				"time": 0.7102265624999999,
				"value": 0.5039370078740157
			}
			],
			"32": [
			{
				"number": 32,
				"ticks": 610,
				"time": 0.693181125,
				"value": 0
			}
			]
		},
		"pitchBends": [],
		"instrument": {
			"family": "drums",
			"name": "standard kit",
			"number": 0
		},
		"name": "",
		"notes": [
			{
			"duration": 0.27272699999999994,
			"durationTicks": 240,
			"midi": 36,
			"name": "C2",
			"ticks": 960,
			"time": 1.090908,
			"velocity": 0.6141732283464567
			},
			{
			"duration": 0.13636350000000008,
			"durationTicks": 120,
			"midi": 46,
			"name": "A#2",
			"ticks": 960,
			"time": 1.090908,
			"velocity": 0.48031496062992124
			},
			{
			"duration": 0.13636350000000008,
			"durationTicks": 120,
			"midi": 40,
			"name": "E2",
			"ticks": 1200,
			"time": 1.363635,
			"velocity": 0.5354330708661418
			},
			{
			"duration": 0.27272699999999994,
			"durationTicks": 240,
			"midi": 36,
			"name": "C2",
			"ticks": 1440,
			"time": 1.636362,
			"velocity": 0.6141732283464567
			},
			{
			"duration": 0.13636349999999986,
			"durationTicks": 120,
			"midi": 46,
			"name": "A#2",
			"ticks": 1440,
			"time": 1.636362,
			"velocity": 0.48031496062992124
			},
			{
			"duration": 0.13636350000000008,
			"durationTicks": 120,
			"midi": 40,
			"name": "E2",
			"ticks": 1680,
			"time": 1.909089,
			"velocity": 0.5354330708661418
			},
			{
			"duration": 0.27272700000000016,
			"durationTicks": 240,
			"midi": 36,
			"name": "C2",
			"ticks": 1920,
			"time": 2.181816,
			"velocity": 0.6141732283464567
			},
			{
			"duration": 0.13636349999999986,
			"durationTicks": 120,
			"midi": 46,
			"name": "A#2",
			"ticks": 1920,
			"time": 2.181816,
			"velocity": 0.48031496062992124
			},
			{
			"duration": 0.13636349999999986,
			"durationTicks": 120,
			"midi": 40,
			"name": "E2",
			"ticks": 2160,
			"time": 2.454543,
			"velocity": 0.5354330708661418
			},
			{
			"duration": 0.27272700000000016,
			"durationTicks": 240,
			"midi": 36,
			"name": "C2",
			"ticks": 2400,
			"time": 2.72727,
			"velocity": 0.6141732283464567
			},
			{
			"duration": 0.1363635000000003,
			"durationTicks": 120,
			"midi": 46,
			"name": "A#2",
			"ticks": 2400,
			"time": 2.72727,
			"velocity": 0.48031496062992124
			},
			{
			"duration": 0.13636349999999986,
			"durationTicks": 120,
			"midi": 40,
			"name": "E2",
			"ticks": 2640,
			"time": 2.999997,
			"velocity": 0.5354330708661418
			},
			{
			"duration": 0.2727269999999997,
			"durationTicks": 240,
			"midi": 36,
			"name": "C2",
			"ticks": 2880,
			"time": 3.272724,
			"velocity": 0.6141732283464567
			},
			{
			"duration": 0.13636349999999986,
			"durationTicks": 120,
			"midi": 46,
			"name": "A#2",
			"ticks": 2880,
			"time": 3.272724,
			"velocity": 0.48031496062992124
			},
			{
			"duration": 0.13636349999999986,
			"durationTicks": 120,
			"midi": 40,
			"name": "E2",
			"ticks": 3120,
			"time": 3.545451,
			"velocity": 0.5354330708661418
			},
			{
			"duration": 0.27272700000000016,
			"durationTicks": 240,
			"midi": 36,
			"name": "C2",
			"ticks": 3360,
			"time": 3.818178,
			"velocity": 0.6141732283464567
			},
			{
			"duration": 0.13636349999999986,
			"durationTicks": 120,
			"midi": 46,
			"name": "A#2",
			"ticks": 3360,
			"time": 3.818178,
			"velocity": 0.48031496062992124
			},
			{
			"duration": 0.13636349999999986,
			"durationTicks": 120,
			"midi": 40,
			"name": "E2",
			"ticks": 3600,
			"time": 4.090905,
			"velocity": 0.5354330708661418
			},
			{
			"duration": 0.2727269999999997,
			"durationTicks": 240,
			"midi": 36,
			"name": "C2",
			"ticks": 3840,
			"time": 4.363632,
			"velocity": 0.6141732283464567
			},
			{
			"duration": 0.13636349999999986,
			"durationTicks": 120,
			"midi": 46,
			"name": "A#2",
			"ticks": 3840,
			"time": 4.363632,
			"velocity": 0.48031496062992124
			},
			{
			"duration": 0.13636349999999986,
			"durationTicks": 120,
			"midi": 40,
			"name": "E2",
			"ticks": 4080,
			"time": 4.636359,
			"velocity": 0.5354330708661418
			},
			{
			"duration": 0.2727269999999997,
			"durationTicks": 240,
			"midi": 36,
			"name": "C2",
			"ticks": 4320,
			"time": 4.909086,
			"velocity": 0.6141732283464567
			},
			{
			"duration": 0.13636349999999986,
			"durationTicks": 120,
			"midi": 46,
			"name": "A#2",
			"ticks": 4320,
			"time": 4.909086,
			"velocity": 0.48031496062992124
			},
			{
			"duration": 0.13636349999999986,
			"durationTicks": 120,
			"midi": 40,
			"name": "E2",
			"ticks": 4560,
			"time": 5.181813,
			"velocity": 0.5354330708661418
			},
			{
			"duration": 0.2727270000000006,
			"durationTicks": 240,
			"midi": 36,
			"name": "C2",
			"ticks": 4800,
			"time": 5.45454,
			"velocity": 0.6141732283464567
			},
			{
			"duration": 0.13636349999999986,
			"durationTicks": 120,
			"midi": 46,
			"name": "A#2",
			"ticks": 4800,
			"time": 5.45454,
			"velocity": 0.48031496062992124
			},
			{
			"duration": 0.13636349999999986,
			"durationTicks": 120,
			"midi": 40,
			"name": "E2",
			"ticks": 5040,
			"time": 5.727267,
			"velocity": 0.5354330708661418
			},
			{
			"duration": 0.2727269999999997,
			"durationTicks": 240,
			"midi": 36,
			"name": "C2",
			"ticks": 5280,
			"time": 5.999994,
			"velocity": 0.6141732283464567
			},
			{
			"duration": 0.13636349999999986,
			"durationTicks": 120,
			"midi": 46,
			"name": "A#2",
			"ticks": 5280,
			"time": 5.999994,
			"velocity": 0.48031496062992124
			},
			{
			"duration": 0.13636349999999986,
			"durationTicks": 120,
			"midi": 40,
			"name": "E2",
			"ticks": 5520,
			"time": 6.272721,
			"velocity": 0.5354330708661418
			},
			{
			"duration": 0.2727269999999997,
			"durationTicks": 240,
			"midi": 36,
			"name": "C2",
			"ticks": 5760,
			"time": 6.545448,
			"velocity": 0.6141732283464567
			},
			{
			"duration": 0.13636349999999986,
			"durationTicks": 120,
			"midi": 46,
			"name": "A#2",
			"ticks": 5760,
			"time": 6.545448,
			"velocity": 0.48031496062992124
			},
			{
			"duration": 0.13636349999999986,
			"durationTicks": 120,
			"midi": 40,
			"name": "E2",
			"ticks": 6000,
			"time": 6.818175,
			"velocity": 0.5354330708661418
			},
			{
			"duration": 0.2727269999999997,
			"durationTicks": 240,
			"midi": 36,
			"name": "C2",
			"ticks": 6240,
			"time": 7.090902,
			"velocity": 0.6141732283464567
			},
			{
			"duration": 0.13636349999999986,
			"durationTicks": 120,
			"midi": 46,
			"name": "A#2",
			"ticks": 6240,
			"time": 7.090902,
			"velocity": 0.48031496062992124
			},
			{
			"duration": 0.13636350000000075,
			"durationTicks": 120,
			"midi": 40,
			"name": "E2",
			"ticks": 6480,
			"time": 7.3636289999999995,
			"velocity": 0.5354330708661418
			},
			{
			"duration": 0.2727269999999997,
			"durationTicks": 240,
			"midi": 36,
			"name": "C2",
			"ticks": 6720,
			"time": 7.636356,
			"velocity": 0.6141732283464567
			},
			{
			"duration": 0.13636349999999986,
			"durationTicks": 120,
			"midi": 46,
			"name": "A#2",
			"ticks": 6720,
			"time": 7.636356,
			"velocity": 0.48031496062992124
			},
			{
			"duration": 0.13636350000000075,
			"durationTicks": 120,
			"midi": 40,
			"name": "E2",
			"ticks": 6960,
			"time": 7.909083,
			"velocity": 0.5354330708661418
			},
			{
			"duration": 0.2727269999999997,
			"durationTicks": 240,
			"midi": 36,
			"name": "C2",
			"ticks": 7200,
			"time": 8.18181,
			"velocity": 0.6141732283464567
			},
			{
			"duration": 0.13636349999999986,
			"durationTicks": 120,
			"midi": 46,
			"name": "A#2",
			"ticks": 7200,
			"time": 8.18181,
			"velocity": 0.48031496062992124
			},
			{
			"duration": 0.13636349999999986,
			"durationTicks": 120,
			"midi": 40,
			"name": "E2",
			"ticks": 7440,
			"time": 8.454537,
			"velocity": 0.5354330708661418
			},
			{
			"duration": 0.2727269999999997,
			"durationTicks": 240,
			"midi": 36,
			"name": "C2",
			"ticks": 7680,
			"time": 8.727264,
			"velocity": 0.6141732283464567
			},
			{
			"duration": 0.13636349999999986,
			"durationTicks": 120,
			"midi": 46,
			"name": "A#2",
			"ticks": 7680,
			"time": 8.727264,
			"velocity": 0.48031496062992124
			},
			{
			"duration": 0.13636349999999986,
			"durationTicks": 120,
			"midi": 40,
			"name": "E2",
			"ticks": 7920,
			"time": 8.999991,
			"velocity": 0.5354330708661418
			},
			{
			"duration": 0.2727269999999997,
			"durationTicks": 240,
			"midi": 36,
			"name": "C2",
			"ticks": 8160,
			"time": 9.272718,
			"velocity": 0.6141732283464567
			},
			{
			"duration": 0.13636349999999986,
			"durationTicks": 120,
			"midi": 46,
			"name": "A#2",
			"ticks": 8160,
			"time": 9.272718,
			"velocity": 0.48031496062992124
			},
			{
			"duration": 0.13636350000000164,
			"durationTicks": 120,
			"midi": 40,
			"name": "E2",
			"ticks": 8400,
			"time": 9.545444999999999,
			"velocity": 0.5354330708661418
			},
			{
			"duration": 0.2727269999999997,
			"durationTicks": 240,
			"midi": 36,
			"name": "C2",
			"ticks": 8640,
			"time": 9.818172,
			"velocity": 0.6141732283464567
			},
			{
			"duration": 0.13636349999999986,
			"durationTicks": 120,
			"midi": 46,
			"name": "A#2",
			"ticks": 8640,
			"time": 9.818172,
			"velocity": 0.48031496062992124
			},
			{
			"duration": 0.13636349999999986,
			"durationTicks": 120,
			"midi": 40,
			"name": "E2",
			"ticks": 8880,
			"time": 10.090899,
			"velocity": 0.5354330708661418
			},
			{
			"duration": 0.2727269999999997,
			"durationTicks": 240,
			"midi": 36,
			"name": "C2",
			"ticks": 9120,
			"time": 10.363626,
			"velocity": 0.6141732283464567
			},
			{
			"duration": 0.13636349999999986,
			"durationTicks": 120,
			"midi": 46,
			"name": "A#2",
			"ticks": 9120,
			"time": 10.363626,
			"velocity": 0.48031496062992124
			},
			{
			"duration": 0.13636349999999986,
			"durationTicks": 120,
			"midi": 40,
			"name": "E2",
			"ticks": 9360,
			"time": 10.636353,
			"velocity": 0.5354330708661418
			},
			{
			"duration": 0.2727269999999997,
			"durationTicks": 240,
			"midi": 36,
			"name": "C2",
			"ticks": 9600,
			"time": 10.90908,
			"velocity": 0.6141732283464567
			},
			{
			"duration": 0.13636349999999986,
			"durationTicks": 120,
			"midi": 46,
			"name": "A#2",
			"ticks": 9600,
			"time": 10.90908,
			"velocity": 0.48031496062992124
			},
			{
			"duration": 0.13636349999999986,
			"durationTicks": 120,
			"midi": 40,
			"name": "E2",
			"ticks": 9840,
			"time": 11.181807,
			"velocity": 0.5354330708661418
			},
			{
			"duration": 0.2727269999999997,
			"durationTicks": 240,
			"midi": 36,
			"name": "C2",
			"ticks": 10080,
			"time": 11.454534,
			"velocity": 0.6141732283464567
			},
			{
			"duration": 0.13636349999999986,
			"durationTicks": 120,
			"midi": 46,
			"name": "A#2",
			"ticks": 10080,
			"time": 11.454534,
			"velocity": 0.48031496062992124
			},
			{
			"duration": 0.13636349999999986,
			"durationTicks": 120,
			"midi": 40,
			"name": "E2",
			"ticks": 10320,
			"time": 11.727261,
			"velocity": 0.5354330708661418
			},
			{
			"duration": 0.2727269999999997,
			"durationTicks": 240,
			"midi": 36,
			"name": "C2",
			"ticks": 10560,
			"time": 11.999988,
			"velocity": 0.6141732283464567
			},
			{
			"duration": 0.13636349999999986,
			"durationTicks": 120,
			"midi": 46,
			"name": "A#2",
			"ticks": 10560,
			"time": 11.999988,
			"velocity": 0.48031496062992124
			},
			{
			"duration": 0.13636349999999986,
			"durationTicks": 120,
			"midi": 40,
			"name": "E2",
			"ticks": 10800,
			"time": 12.272715,
			"velocity": 0.5354330708661418
			},
			{
			"duration": 0.2727269999999997,
			"durationTicks": 240,
			"midi": 36,
			"name": "C2",
			"ticks": 11040,
			"time": 12.545442,
			"velocity": 0.6141732283464567
			},
			{
			"duration": 0.13636349999999986,
			"durationTicks": 120,
			"midi": 46,
			"name": "A#2",
			"ticks": 11040,
			"time": 12.545442,
			"velocity": 0.48031496062992124
			},
			{
			"duration": 0.13636349999999986,
			"durationTicks": 120,
			"midi": 40,
			"name": "E2",
			"ticks": 11280,
			"time": 12.818169,
			"velocity": 0.5354330708661418
			},
			{
			"duration": 0.2727269999999997,
			"durationTicks": 240,
			"midi": 36,
			"name": "C2",
			"ticks": 11520,
			"time": 13.090896,
			"velocity": 0.6141732283464567
			},
			{
			"duration": 0.13636349999999986,
			"durationTicks": 120,
			"midi": 46,
			"name": "A#2",
			"ticks": 11520,
			"time": 13.090896,
			"velocity": 0.48031496062992124
			},
			{
			"duration": 0.13636349999999986,
			"durationTicks": 120,
			"midi": 40,
			"name": "E2",
			"ticks": 11760,
			"time": 13.363623,
			"velocity": 0.5354330708661418
			},
			{
			"duration": 0.2727269999999997,
			"durationTicks": 240,
			"midi": 36,
			"name": "C2",
			"ticks": 12000,
			"time": 13.63635,
			"velocity": 0.6141732283464567
			},
			{
			"duration": 0.13636349999999986,
			"durationTicks": 120,
			"midi": 46,
			"name": "A#2",
			"ticks": 12000,
			"time": 13.63635,
			"velocity": 0.48031496062992124
			},
			{
			"duration": 0.13636349999999986,
			"durationTicks": 120,
			"midi": 40,
			"name": "E2",
			"ticks": 12240,
			"time": 13.909077,
			"velocity": 0.5354330708661418
			},
			{
			"duration": 0.2727269999999997,
			"durationTicks": 240,
			"midi": 36,
			"name": "C2",
			"ticks": 12480,
			"time": 14.181804,
			"velocity": 0.6141732283464567
			},
			{
			"duration": 0.13636349999999986,
			"durationTicks": 120,
			"midi": 46,
			"name": "A#2",
			"ticks": 12480,
			"time": 14.181804,
			"velocity": 0.48031496062992124
			},
			{
			"duration": 0.13636349999999986,
			"durationTicks": 120,
			"midi": 40,
			"name": "E2",
			"ticks": 12720,
			"time": 14.454531,
			"velocity": 0.5354330708661418
			},
			{
			"duration": 0.2727270000000015,
			"durationTicks": 240,
			"midi": 36,
			"name": "C2",
			"ticks": 12960,
			"time": 14.727257999999999,
			"velocity": 0.6141732283464567
			},
			{
			"duration": 0.13636350000000164,
			"durationTicks": 120,
			"midi": 46,
			"name": "A#2",
			"ticks": 12960,
			"time": 14.727257999999999,
			"velocity": 0.48031496062992124
			},
			{
			"duration": 0.13636349999999986,
			"durationTicks": 120,
			"midi": 40,
			"name": "E2",
			"ticks": 13200,
			"time": 14.999985,
			"velocity": 0.5354330708661418
			},
			{
			"duration": 0.2727269999999997,
			"durationTicks": 240,
			"midi": 36,
			"name": "C2",
			"ticks": 13440,
			"time": 15.272712,
			"velocity": 0.6141732283464567
			},
			{
			"duration": 0.13636349999999986,
			"durationTicks": 120,
			"midi": 46,
			"name": "A#2",
			"ticks": 13440,
			"time": 15.272712,
			"velocity": 0.48031496062992124
			},
			{
			"duration": 0.13636349999999986,
			"durationTicks": 120,
			"midi": 40,
			"name": "E2",
			"ticks": 13680,
			"time": 15.545439,
			"velocity": 0.5354330708661418
			},
			{
			"duration": 0.2727270000000015,
			"durationTicks": 240,
			"midi": 36,
			"name": "C2",
			"ticks": 13920,
			"time": 15.818166,
			"velocity": 0.6141732283464567
			},
			{
			"duration": 0.13636349999999986,
			"durationTicks": 120,
			"midi": 46,
			"name": "A#2",
			"ticks": 13920,
			"time": 15.818166,
			"velocity": 0.48031496062992124
			},
			{
			"duration": 0.13636349999999808,
			"durationTicks": 120,
			"midi": 40,
			"name": "E2",
			"ticks": 14160,
			"time": 16.090893,
			"velocity": 0.5354330708661418
			},
			{
			"duration": 0.2727269999999997,
			"durationTicks": 240,
			"midi": 36,
			"name": "C2",
			"ticks": 14400,
			"time": 16.36362,
			"velocity": 0.6141732283464567
			},
			{
			"duration": 0.13636349999999808,
			"durationTicks": 120,
			"midi": 46,
			"name": "A#2",
			"ticks": 14400,
			"time": 16.36362,
			"velocity": 0.48031496062992124
			},
			{
			"duration": 0.13636349999999808,
			"durationTicks": 120,
			"midi": 40,
			"name": "E2",
			"ticks": 14640,
			"time": 16.636347,
			"velocity": 0.5354330708661418
			},
			{
			"duration": 0.2727269999999997,
			"durationTicks": 240,
			"midi": 36,
			"name": "C2",
			"ticks": 14880,
			"time": 16.909074,
			"velocity": 0.6141732283464567
			},
			{
			"duration": 0.13636349999999808,
			"durationTicks": 120,
			"midi": 46,
			"name": "A#2",
			"ticks": 14880,
			"time": 16.909074,
			"velocity": 0.48031496062992124
			},
			{
			"duration": 0.13636349999999808,
			"durationTicks": 120,
			"midi": 40,
			"name": "E2",
			"ticks": 15120,
			"time": 17.181801,
			"velocity": 0.5354330708661418
			},
			{
			"duration": 0.2727269999999997,
			"durationTicks": 240,
			"midi": 36,
			"name": "C2",
			"ticks": 15360,
			"time": 17.454528,
			"velocity": 0.6141732283464567
			},
			{
			"duration": 0.13636350000000164,
			"durationTicks": 120,
			"midi": 46,
			"name": "A#2",
			"ticks": 15360,
			"time": 17.454528,
			"velocity": 0.48031496062992124
			},
			{
			"duration": 0.13636350000000164,
			"durationTicks": 120,
			"midi": 40,
			"name": "E2",
			"ticks": 15600,
			"time": 17.727255,
			"velocity": 0.5354330708661418
			},
			{
			"duration": 0.2727269999999997,
			"durationTicks": 240,
			"midi": 36,
			"name": "C2",
			"ticks": 15840,
			"time": 17.999982,
			"velocity": 0.6141732283464567
			},
			{
			"duration": 0.13636350000000164,
			"durationTicks": 120,
			"midi": 46,
			"name": "A#2",
			"ticks": 15840,
			"time": 17.999982,
			"velocity": 0.48031496062992124
			},
			{
			"duration": 0.13636350000000164,
			"durationTicks": 120,
			"midi": 40,
			"name": "E2",
			"ticks": 16080,
			"time": 18.272709,
			"velocity": 0.5354330708661418
			},
			{
			"duration": 0.2727269999999997,
			"durationTicks": 240,
			"midi": 36,
			"name": "C2",
			"ticks": 16320,
			"time": 18.545436,
			"velocity": 0.6141732283464567
			},
			{
			"duration": 0.13636350000000164,
			"durationTicks": 120,
			"midi": 46,
			"name": "A#2",
			"ticks": 16320,
			"time": 18.545436,
			"velocity": 0.48031496062992124
			},
			{
			"duration": 0.13636350000000164,
			"durationTicks": 120,
			"midi": 40,
			"name": "E2",
			"ticks": 16560,
			"time": 18.818163,
			"velocity": 0.5354330708661418
			},
			{
			"duration": 0.2727270000000033,
			"durationTicks": 240,
			"midi": 36,
			"name": "C2",
			"ticks": 16800,
			"time": 19.090889999999998,
			"velocity": 0.6141732283464567
			},
			{
			"duration": 0.13636350000000164,
			"durationTicks": 120,
			"midi": 46,
			"name": "A#2",
			"ticks": 16800,
			"time": 19.090889999999998,
			"velocity": 0.48031496062992124
			},
			{
			"duration": 0.13636349999999808,
			"durationTicks": 120,
			"midi": 40,
			"name": "E2",
			"ticks": 17040,
			"time": 19.363617,
			"velocity": 0.5354330708661418
			},
			{
			"duration": 0.2727269999999997,
			"durationTicks": 240,
			"midi": 36,
			"name": "C2",
			"ticks": 17280,
			"time": 19.636344,
			"velocity": 0.6141732283464567
			},
			{
			"duration": 0.13636349999999808,
			"durationTicks": 120,
			"midi": 46,
			"name": "A#2",
			"ticks": 17280,
			"time": 19.636344,
			"velocity": 0.48031496062992124
			},
			{
			"duration": 0.13636349999999808,
			"durationTicks": 120,
			"midi": 40,
			"name": "E2",
			"ticks": 17520,
			"time": 19.909071,
			"velocity": 0.5354330708661418
			},
			{
			"duration": 0.2727269999999997,
			"durationTicks": 240,
			"midi": 36,
			"name": "C2",
			"ticks": 17760,
			"time": 20.181798,
			"velocity": 0.6141732283464567
			},
			{
			"duration": 0.13636349999999808,
			"durationTicks": 120,
			"midi": 46,
			"name": "A#2",
			"ticks": 17760,
			"time": 20.181798,
			"velocity": 0.48031496062992124
			},
			{
			"duration": 0.13636349999999808,
			"durationTicks": 120,
			"midi": 40,
			"name": "E2",
			"ticks": 18000,
			"time": 20.454525,
			"velocity": 0.5354330708661418
			},
			{
			"duration": 0.2727269999999997,
			"durationTicks": 240,
			"midi": 36,
			"name": "C2",
			"ticks": 18240,
			"time": 20.727252,
			"velocity": 0.6141732283464567
			},
			{
			"duration": 0.13636349999999808,
			"durationTicks": 120,
			"midi": 46,
			"name": "A#2",
			"ticks": 18240,
			"time": 20.727252,
			"velocity": 0.48031496062992124
			},
			{
			"duration": 0.13636350000000164,
			"durationTicks": 120,
			"midi": 40,
			"name": "E2",
			"ticks": 18480,
			"time": 20.999979,
			"velocity": 0.5354330708661418
			},
			{
			"duration": 0.2727269999999997,
			"durationTicks": 240,
			"midi": 36,
			"name": "C2",
			"ticks": 18720,
			"time": 21.272706,
			"velocity": 0.6141732283464567
			},
			{
			"duration": 0.13636350000000164,
			"durationTicks": 120,
			"midi": 46,
			"name": "A#2",
			"ticks": 18720,
			"time": 21.272706,
			"velocity": 0.48031496062992124
			},
			{
			"duration": 0.13636350000000164,
			"durationTicks": 120,
			"midi": 40,
			"name": "E2",
			"ticks": 18960,
			"time": 21.545433,
			"velocity": 0.5354330708661418
			},
			{
			"duration": 0.2727269999999997,
			"durationTicks": 240,
			"midi": 36,
			"name": "C2",
			"ticks": 19200,
			"time": 21.81816,
			"velocity": 0.6141732283464567
			},
			{
			"duration": 0.13636350000000164,
			"durationTicks": 120,
			"midi": 46,
			"name": "A#2",
			"ticks": 19200,
			"time": 21.81816,
			"velocity": 0.48031496062992124
			},
			{
			"duration": 0.13636350000000164,
			"durationTicks": 120,
			"midi": 40,
			"name": "E2",
			"ticks": 19440,
			"time": 22.090887,
			"velocity": 0.5354330708661418
			},
			{
			"duration": 0.2727269999999997,
			"durationTicks": 240,
			"midi": 36,
			"name": "C2",
			"ticks": 19680,
			"time": 22.363614,
			"velocity": 0.6141732283464567
			},
			{
			"duration": 0.13636350000000164,
			"durationTicks": 120,
			"midi": 46,
			"name": "A#2",
			"ticks": 19680,
			"time": 22.363614,
			"velocity": 0.48031496062992124
			},
			{
			"duration": 0.13636350000000164,
			"durationTicks": 120,
			"midi": 40,
			"name": "E2",
			"ticks": 19920,
			"time": 22.636340999999998,
			"velocity": 0.5354330708661418
			},
			{
			"duration": 0.2727269999999997,
			"durationTicks": 240,
			"midi": 36,
			"name": "C2",
			"ticks": 20160,
			"time": 22.909068,
			"velocity": 0.6141732283464567
			},
			{
			"duration": 0.13636349999999808,
			"durationTicks": 120,
			"midi": 46,
			"name": "A#2",
			"ticks": 20160,
			"time": 22.909068,
			"velocity": 0.48031496062992124
			},
			{
			"duration": 0.13636349999999808,
			"durationTicks": 120,
			"midi": 40,
			"name": "E2",
			"ticks": 20400,
			"time": 23.181795,
			"velocity": 0.5354330708661418
			},
			{
			"duration": 0.2727269999999997,
			"durationTicks": 240,
			"midi": 36,
			"name": "C2",
			"ticks": 20640,
			"time": 23.454522,
			"velocity": 0.6141732283464567
			},
			{
			"duration": 0.13636349999999808,
			"durationTicks": 120,
			"midi": 46,
			"name": "A#2",
			"ticks": 20640,
			"time": 23.454522,
			"velocity": 0.48031496062992124
			},
			{
			"duration": 0.13636349999999808,
			"durationTicks": 120,
			"midi": 40,
			"name": "E2",
			"ticks": 20880,
			"time": 23.727249,
			"velocity": 0.5354330708661418
			},
			{
			"duration": 0.2727269999999997,
			"durationTicks": 240,
			"midi": 36,
			"name": "C2",
			"ticks": 21120,
			"time": 23.999976,
			"velocity": 0.6141732283464567
			},
			{
			"duration": 0.13636349999999808,
			"durationTicks": 120,
			"midi": 46,
			"name": "A#2",
			"ticks": 21120,
			"time": 23.999976,
			"velocity": 0.48031496062992124
			},
			{
			"duration": 0.13636349999999808,
			"durationTicks": 120,
			"midi": 40,
			"name": "E2",
			"ticks": 21360,
			"time": 24.272703,
			"velocity": 0.5354330708661418
			},
			{
			"duration": 0.2727269999999997,
			"durationTicks": 240,
			"midi": 36,
			"name": "C2",
			"ticks": 21600,
			"time": 24.54543,
			"velocity": 0.6141732283464567
			},
			{
			"duration": 0.13636350000000164,
			"durationTicks": 120,
			"midi": 46,
			"name": "A#2",
			"ticks": 21600,
			"time": 24.54543,
			"velocity": 0.48031496062992124
			},
			{
			"duration": 0.13636350000000164,
			"durationTicks": 120,
			"midi": 40,
			"name": "E2",
			"ticks": 21840,
			"time": 24.818157,
			"velocity": 0.5354330708661418
			},
			{
			"duration": 0.2727269999999997,
			"durationTicks": 240,
			"midi": 36,
			"name": "C2",
			"ticks": 22080,
			"time": 25.090884,
			"velocity": 0.6141732283464567
			},
			{
			"duration": 0.13636350000000164,
			"durationTicks": 120,
			"midi": 46,
			"name": "A#2",
			"ticks": 22080,
			"time": 25.090884,
			"velocity": 0.48031496062992124
			},
			{
			"duration": 0.13636350000000164,
			"durationTicks": 120,
			"midi": 40,
			"name": "E2",
			"ticks": 22320,
			"time": 25.363611,
			"velocity": 0.5354330708661418
			},
			{
			"duration": 0.2727269999999997,
			"durationTicks": 240,
			"midi": 36,
			"name": "C2",
			"ticks": 22560,
			"time": 25.636338,
			"velocity": 0.6141732283464567
			},
			{
			"duration": 0.13636350000000164,
			"durationTicks": 120,
			"midi": 46,
			"name": "A#2",
			"ticks": 22560,
			"time": 25.636338,
			"velocity": 0.48031496062992124
			},
			{
			"duration": 0.13636350000000164,
			"durationTicks": 120,
			"midi": 40,
			"name": "E2",
			"ticks": 22800,
			"time": 25.909065,
			"velocity": 0.5354330708661418
			},
			{
			"duration": 0.2727269999999997,
			"durationTicks": 240,
			"midi": 36,
			"name": "C2",
			"ticks": 23040,
			"time": 26.181792,
			"velocity": 0.6141732283464567
			},
			{
			"duration": 0.13636349999999808,
			"durationTicks": 120,
			"midi": 46,
			"name": "A#2",
			"ticks": 23040,
			"time": 26.181792,
			"velocity": 0.48031496062992124
			},
			{
			"duration": 0.13636349999999808,
			"durationTicks": 120,
			"midi": 40,
			"name": "E2",
			"ticks": 23280,
			"time": 26.454519,
			"velocity": 0.5354330708661418
			},
			{
			"duration": 0.2727269999999997,
			"durationTicks": 240,
			"midi": 36,
			"name": "C2",
			"ticks": 23520,
			"time": 26.727246,
			"velocity": 0.6141732283464567
			},
			{
			"duration": 0.13636349999999808,
			"durationTicks": 120,
			"midi": 46,
			"name": "A#2",
			"ticks": 23520,
			"time": 26.727246,
			"velocity": 0.48031496062992124
			},
			{
			"duration": 0.13636349999999808,
			"durationTicks": 120,
			"midi": 40,
			"name": "E2",
			"ticks": 23760,
			"time": 26.999973,
			"velocity": 0.5354330708661418
			},
			{
			"duration": 0.2727269999999997,
			"durationTicks": 240,
			"midi": 36,
			"name": "C2",
			"ticks": 24000,
			"time": 27.2727,
			"velocity": 0.6141732283464567
			},
			{
			"duration": 0.13636349999999808,
			"durationTicks": 120,
			"midi": 46,
			"name": "A#2",
			"ticks": 24000,
			"time": 27.2727,
			"velocity": 0.48031496062992124
			},
			{
			"duration": 0.13636349999999808,
			"durationTicks": 120,
			"midi": 40,
			"name": "E2",
			"ticks": 24240,
			"time": 27.545427,
			"velocity": 0.5354330708661418
			},
			{
			"duration": 0.2727269999999997,
			"durationTicks": 240,
			"midi": 36,
			"name": "C2",
			"ticks": 24480,
			"time": 27.818154,
			"velocity": 0.6141732283464567
			},
			{
			"duration": 0.13636350000000164,
			"durationTicks": 120,
			"midi": 46,
			"name": "A#2",
			"ticks": 24480,
			"time": 27.818154,
			"velocity": 0.48031496062992124
			},
			{
			"duration": 0.13636350000000164,
			"durationTicks": 120,
			"midi": 40,
			"name": "E2",
			"ticks": 24720,
			"time": 28.090881,
			"velocity": 0.5354330708661418
			},
			{
			"duration": 0.2727269999999997,
			"durationTicks": 240,
			"midi": 36,
			"name": "C2",
			"ticks": 24960,
			"time": 28.363608,
			"velocity": 0.6141732283464567
			},
			{
			"duration": 0.13636350000000164,
			"durationTicks": 120,
			"midi": 46,
			"name": "A#2",
			"ticks": 24960,
			"time": 28.363608,
			"velocity": 0.48031496062992124
			},
			{
			"duration": 0.13636350000000164,
			"durationTicks": 120,
			"midi": 40,
			"name": "E2",
			"ticks": 25200,
			"time": 28.636335,
			"velocity": 0.5354330708661418
			},
			{
			"duration": 0.2727269999999997,
			"durationTicks": 240,
			"midi": 36,
			"name": "C2",
			"ticks": 25440,
			"time": 28.909062,
			"velocity": 0.6141732283464567
			},
			{
			"duration": 0.13636350000000164,
			"durationTicks": 120,
			"midi": 46,
			"name": "A#2",
			"ticks": 25440,
			"time": 28.909062,
			"velocity": 0.48031496062992124
			},
			{
			"duration": 0.13636350000000164,
			"durationTicks": 120,
			"midi": 40,
			"name": "E2",
			"ticks": 25680,
			"time": 29.181789,
			"velocity": 0.5354330708661418
			},
			{
			"duration": 0.2727270000000033,
			"durationTicks": 240,
			"midi": 36,
			"name": "C2",
			"ticks": 25920,
			"time": 29.454515999999998,
			"velocity": 0.6141732283464567
			},
			{
			"duration": 0.13636350000000164,
			"durationTicks": 120,
			"midi": 46,
			"name": "A#2",
			"ticks": 25920,
			"time": 29.454515999999998,
			"velocity": 0.48031496062992124
			},
			{
			"duration": 0.13636349999999808,
			"durationTicks": 120,
			"midi": 40,
			"name": "E2",
			"ticks": 26160,
			"time": 29.727243,
			"velocity": 0.5354330708661418
			},
			{
			"duration": 0.2727269999999997,
			"durationTicks": 240,
			"midi": 36,
			"name": "C2",
			"ticks": 26400,
			"time": 29.99997,
			"velocity": 0.6141732283464567
			},
			{
			"duration": 0.13636349999999808,
			"durationTicks": 120,
			"midi": 46,
			"name": "A#2",
			"ticks": 26400,
			"time": 29.99997,
			"velocity": 0.48031496062992124
			},
			{
			"duration": 0.13636349999999808,
			"durationTicks": 120,
			"midi": 40,
			"name": "E2",
			"ticks": 26640,
			"time": 30.272697,
			"velocity": 0.5354330708661418
			},
			{
			"duration": 0.2727269999999997,
			"durationTicks": 240,
			"midi": 36,
			"name": "C2",
			"ticks": 26880,
			"time": 30.545424,
			"velocity": 0.6141732283464567
			},
			{
			"duration": 0.13636349999999808,
			"durationTicks": 120,
			"midi": 46,
			"name": "A#2",
			"ticks": 26880,
			"time": 30.545424,
			"velocity": 0.48031496062992124
			},
			{
			"duration": 0.13636349999999808,
			"durationTicks": 120,
			"midi": 40,
			"name": "E2",
			"ticks": 27120,
			"time": 30.818151,
			"velocity": 0.5354330708661418
			},
			{
			"duration": 0.2727269999999997,
			"durationTicks": 240,
			"midi": 36,
			"name": "C2",
			"ticks": 27360,
			"time": 31.090878,
			"velocity": 0.6141732283464567
			},
			{
			"duration": 0.13636349999999808,
			"durationTicks": 120,
			"midi": 46,
			"name": "A#2",
			"ticks": 27360,
			"time": 31.090878,
			"velocity": 0.48031496062992124
			},
			{
			"duration": 0.13636350000000164,
			"durationTicks": 120,
			"midi": 40,
			"name": "E2",
			"ticks": 27600,
			"time": 31.363605,
			"velocity": 0.5354330708661418
			},
			{
			"duration": 0.2727269999999997,
			"durationTicks": 240,
			"midi": 36,
			"name": "C2",
			"ticks": 27840,
			"time": 31.636332,
			"velocity": 0.6141732283464567
			},
			{
			"duration": 0.13636350000000164,
			"durationTicks": 120,
			"midi": 46,
			"name": "A#2",
			"ticks": 27840,
			"time": 31.636332,
			"velocity": 0.48031496062992124
			},
			{
			"duration": 0.13636350000000164,
			"durationTicks": 120,
			"midi": 40,
			"name": "E2",
			"ticks": 28080,
			"time": 31.909059,
			"velocity": 0.5354330708661418
			},
			{
			"duration": 0.27272699999999617,
			"durationTicks": 240,
			"midi": 36,
			"name": "C2",
			"ticks": 28320,
			"time": 32.181786,
			"velocity": 0.6141732283464567
			},
			{
			"duration": 0.13636349999999453,
			"durationTicks": 120,
			"midi": 46,
			"name": "A#2",
			"ticks": 28320,
			"time": 32.181786,
			"velocity": 0.48031496062992124
			},
			{
			"duration": 0.13636350000000164,
			"durationTicks": 120,
			"midi": 40,
			"name": "E2",
			"ticks": 28560,
			"time": 32.454513,
			"velocity": 0.5354330708661418
			},
			{
			"duration": 0.27272699999999617,
			"durationTicks": 240,
			"midi": 36,
			"name": "C2",
			"ticks": 28800,
			"time": 32.72724,
			"velocity": 0.6141732283464567
			},
			{
			"duration": 0.13636349999999453,
			"durationTicks": 120,
			"midi": 46,
			"name": "A#2",
			"ticks": 28800,
			"time": 32.72724,
			"velocity": 0.48031496062992124
			},
			{
			"duration": 0.13636350000000164,
			"durationTicks": 120,
			"midi": 40,
			"name": "E2",
			"ticks": 29040,
			"time": 32.999967,
			"velocity": 0.5354330708661418
			},
			{
			"duration": 0.27272699999999617,
			"durationTicks": 240,
			"midi": 36,
			"name": "C2",
			"ticks": 29280,
			"time": 33.272694,
			"velocity": 0.6141732283464567
			},
			{
			"duration": 0.13636350000000164,
			"durationTicks": 120,
			"midi": 46,
			"name": "A#2",
			"ticks": 29280,
			"time": 33.272694,
			"velocity": 0.48031496062992124
			},
			{
			"duration": 0.13636350000000164,
			"durationTicks": 120,
			"midi": 40,
			"name": "E2",
			"ticks": 29520,
			"time": 33.545421,
			"velocity": 0.5354330708661418
			},
			{
			"duration": 0.27272699999999617,
			"durationTicks": 240,
			"midi": 36,
			"name": "C2",
			"ticks": 29760,
			"time": 33.818148,
			"velocity": 0.6141732283464567
			},
			{
			"duration": 0.13636350000000164,
			"durationTicks": 120,
			"midi": 46,
			"name": "A#2",
			"ticks": 29760,
			"time": 33.818148,
			"velocity": 0.48031496062992124
			},
			{
			"duration": 0.13636350000000164,
			"durationTicks": 120,
			"midi": 40,
			"name": "E2",
			"ticks": 30000,
			"time": 34.090875,
			"velocity": 0.5354330708661418
			},
			{
			"duration": 0.27272699999999617,
			"durationTicks": 240,
			"midi": 36,
			"name": "C2",
			"ticks": 30240,
			"time": 34.363602,
			"velocity": 0.6141732283464567
			},
			{
			"duration": 0.13636350000000164,
			"durationTicks": 120,
			"midi": 46,
			"name": "A#2",
			"ticks": 30240,
			"time": 34.363602,
			"velocity": 0.48031496062992124
			},
			{
			"duration": 0.13636350000000164,
			"durationTicks": 120,
			"midi": 40,
			"name": "E2",
			"ticks": 30480,
			"time": 34.636328999999996,
			"velocity": 0.5354330708661418
			},
			{
			"duration": 0.2727270000000033,
			"durationTicks": 240,
			"midi": 36,
			"name": "C2",
			"ticks": 30720,
			"time": 34.909056,
			"velocity": 0.6141732283464567
			},
			{
			"duration": 0.13636350000000164,
			"durationTicks": 120,
			"midi": 46,
			"name": "A#2",
			"ticks": 30720,
			"time": 34.909056,
			"velocity": 0.48031496062992124
			},
			{
			"duration": 0.13636349999999453,
			"durationTicks": 120,
			"midi": 40,
			"name": "E2",
			"ticks": 30960,
			"time": 35.181783,
			"velocity": 0.5354330708661418
			},
			{
			"duration": 0.2727270000000033,
			"durationTicks": 240,
			"midi": 36,
			"name": "C2",
			"ticks": 31200,
			"time": 35.45451,
			"velocity": 0.6141732283464567
			},
			{
			"duration": 0.13636350000000164,
			"durationTicks": 120,
			"midi": 46,
			"name": "A#2",
			"ticks": 31200,
			"time": 35.45451,
			"velocity": 0.48031496062992124
			},
			{
			"duration": 0.13636349999999453,
			"durationTicks": 120,
			"midi": 40,
			"name": "E2",
			"ticks": 31440,
			"time": 35.727237,
			"velocity": 0.5354330708661418
			},
			{
			"duration": 0.2727270000000033,
			"durationTicks": 240,
			"midi": 36,
			"name": "C2",
			"ticks": 31680,
			"time": 35.999964,
			"velocity": 0.6141732283464567
			},
			{
			"duration": 0.13636350000000164,
			"durationTicks": 120,
			"midi": 46,
			"name": "A#2",
			"ticks": 31680,
			"time": 35.999964,
			"velocity": 0.48031496062992124
			},
			{
			"duration": 0.13636349999999453,
			"durationTicks": 120,
			"midi": 40,
			"name": "E2",
			"ticks": 31920,
			"time": 36.272691,
			"velocity": 0.5354330708661418
			},
			{
			"duration": 0.2727270000000033,
			"durationTicks": 240,
			"midi": 36,
			"name": "C2",
			"ticks": 32160,
			"time": 36.545418,
			"velocity": 0.6141732283464567
			},
			{
			"duration": 0.13636350000000164,
			"durationTicks": 120,
			"midi": 46,
			"name": "A#2",
			"ticks": 32160,
			"time": 36.545418,
			"velocity": 0.48031496062992124
			},
			{
			"duration": 0.13636350000000164,
			"durationTicks": 120,
			"midi": 40,
			"name": "E2",
			"ticks": 32400,
			"time": 36.818145,
			"velocity": 0.5354330708661418
			},
			{
			"duration": 0.2727270000000033,
			"durationTicks": 240,
			"midi": 36,
			"name": "C2",
			"ticks": 32640,
			"time": 37.090872,
			"velocity": 0.6141732283464567
			},
			{
			"duration": 0.13636350000000164,
			"durationTicks": 120,
			"midi": 46,
			"name": "A#2",
			"ticks": 32640,
			"time": 37.090872,
			"velocity": 0.48031496062992124
			},
			{
			"duration": 0.13636350000000164,
			"durationTicks": 120,
			"midi": 40,
			"name": "E2",
			"ticks": 32880,
			"time": 37.363599,
			"velocity": 0.5354330708661418
			},
			{
			"duration": 0.2727270000000033,
			"durationTicks": 240,
			"midi": 36,
			"name": "C2",
			"ticks": 33120,
			"time": 37.636326,
			"velocity": 0.6141732283464567
			},
			{
			"duration": 0.13636350000000164,
			"durationTicks": 120,
			"midi": 46,
			"name": "A#2",
			"ticks": 33120,
			"time": 37.636326,
			"velocity": 0.48031496062992124
			},
			{
			"duration": 0.13636350000000164,
			"durationTicks": 120,
			"midi": 40,
			"name": "E2",
			"ticks": 33360,
			"time": 37.909053,
			"velocity": 0.5354330708661418
			},
			{
			"duration": 0.2727270000000033,
			"durationTicks": 240,
			"midi": 36,
			"name": "C2",
			"ticks": 33600,
			"time": 38.181779999999996,
			"velocity": 0.6141732283464567
			},
			{
			"duration": 0.13636350000000164,
			"durationTicks": 120,
			"midi": 46,
			"name": "A#2",
			"ticks": 33600,
			"time": 38.181779999999996,
			"velocity": 0.48031496062992124
			},
			{
			"duration": 0.13636350000000164,
			"durationTicks": 120,
			"midi": 40,
			"name": "E2",
			"ticks": 33840,
			"time": 38.454507,
			"velocity": 0.5354330708661418
			},
			{
			"duration": 0.27272699999999617,
			"durationTicks": 240,
			"midi": 36,
			"name": "C2",
			"ticks": 34080,
			"time": 38.727234,
			"velocity": 0.6141732283464567
			},
			{
			"duration": 0.13636349999999453,
			"durationTicks": 120,
			"midi": 46,
			"name": "A#2",
			"ticks": 34080,
			"time": 38.727234,
			"velocity": 0.48031496062992124
			},
			{
			"duration": 0.13636350000000164,
			"durationTicks": 120,
			"midi": 40,
			"name": "E2",
			"ticks": 34320,
			"time": 38.999961,
			"velocity": 0.5354330708661418
			},
			{
			"duration": 0.27272699999999617,
			"durationTicks": 240,
			"midi": 36,
			"name": "C2",
			"ticks": 34560,
			"time": 39.272688,
			"velocity": 0.6141732283464567
			},
			{
			"duration": 0.13636349999999453,
			"durationTicks": 120,
			"midi": 46,
			"name": "A#2",
			"ticks": 34560,
			"time": 39.272688,
			"velocity": 0.48031496062992124
			},
			{
			"duration": 0.13636350000000164,
			"durationTicks": 120,
			"midi": 40,
			"name": "E2",
			"ticks": 34800,
			"time": 39.545415,
			"velocity": 0.5354330708661418
			},
			{
			"duration": 0.27272699999999617,
			"durationTicks": 240,
			"midi": 36,
			"name": "C2",
			"ticks": 35040,
			"time": 39.818142,
			"velocity": 0.6141732283464567
			},
			{
			"duration": 0.13636349999999453,
			"durationTicks": 120,
			"midi": 46,
			"name": "A#2",
			"ticks": 35040,
			"time": 39.818142,
			"velocity": 0.48031496062992124
			},
			{
			"duration": 0.13636350000000164,
			"durationTicks": 120,
			"midi": 40,
			"name": "E2",
			"ticks": 35280,
			"time": 40.090869,
			"velocity": 0.5354330708661418
			},
			{
			"duration": 0.27272699999999617,
			"durationTicks": 240,
			"midi": 36,
			"name": "C2",
			"ticks": 35520,
			"time": 40.363596,
			"velocity": 0.6141732283464567
			},
			{
			"duration": 0.13636350000000164,
			"durationTicks": 120,
			"midi": 46,
			"name": "A#2",
			"ticks": 35520,
			"time": 40.363596,
			"velocity": 0.48031496062992124
			},
			{
			"duration": 0.13636350000000164,
			"durationTicks": 120,
			"midi": 40,
			"name": "E2",
			"ticks": 35760,
			"time": 40.636323,
			"velocity": 0.5354330708661418
			},
			{
			"duration": 0.27272699999999617,
			"durationTicks": 240,
			"midi": 36,
			"name": "C2",
			"ticks": 36000,
			"time": 40.90905,
			"velocity": 0.6141732283464567
			},
			{
			"duration": 0.13636350000000164,
			"durationTicks": 120,
			"midi": 46,
			"name": "A#2",
			"ticks": 36000,
			"time": 40.90905,
			"velocity": 0.48031496062992124
			},
			{
			"duration": 0.13636350000000164,
			"durationTicks": 120,
			"midi": 40,
			"name": "E2",
			"ticks": 36240,
			"time": 41.181777,
			"velocity": 0.5354330708661418
			},
			{
			"duration": 0.27272699999999617,
			"durationTicks": 240,
			"midi": 36,
			"name": "C2",
			"ticks": 36480,
			"time": 41.454504,
			"velocity": 0.6141732283464567
			},
			{
			"duration": 0.13636350000000164,
			"durationTicks": 120,
			"midi": 46,
			"name": "A#2",
			"ticks": 36480,
			"time": 41.454504,
			"velocity": 0.48031496062992124
			},
			{
			"duration": 0.13636350000000164,
			"durationTicks": 120,
			"midi": 40,
			"name": "E2",
			"ticks": 36720,
			"time": 41.727230999999996,
			"velocity": 0.5354330708661418
			},
			{
			"duration": 0.2727270000000033,
			"durationTicks": 240,
			"midi": 36,
			"name": "C2",
			"ticks": 36960,
			"time": 41.999958,
			"velocity": 0.6141732283464567
			},
			{
			"duration": 0.13636350000000164,
			"durationTicks": 120,
			"midi": 46,
			"name": "A#2",
			"ticks": 36960,
			"time": 41.999958,
			"velocity": 0.48031496062992124
			},
			{
			"duration": 0.13636349999999453,
			"durationTicks": 120,
			"midi": 40,
			"name": "E2",
			"ticks": 37200,
			"time": 42.272685,
			"velocity": 0.5354330708661418
			},
			{
			"duration": 0.2727270000000033,
			"durationTicks": 240,
			"midi": 36,
			"name": "C2",
			"ticks": 37440,
			"time": 42.545412,
			"velocity": 0.6141732283464567
			},
			{
			"duration": 0.13636350000000164,
			"durationTicks": 120,
			"midi": 46,
			"name": "A#2",
			"ticks": 37440,
			"time": 42.545412,
			"velocity": 0.48031496062992124
			},
			{
			"duration": 0.13636349999999453,
			"durationTicks": 120,
			"midi": 40,
			"name": "E2",
			"ticks": 37680,
			"time": 42.818139,
			"velocity": 0.5354330708661418
			},
			{
			"duration": 0.2727270000000033,
			"durationTicks": 240,
			"midi": 36,
			"name": "C2",
			"ticks": 37920,
			"time": 43.090866,
			"velocity": 0.6141732283464567
			},
			{
			"duration": 0.13636350000000164,
			"durationTicks": 120,
			"midi": 46,
			"name": "A#2",
			"ticks": 37920,
			"time": 43.090866,
			"velocity": 0.48031496062992124
			},
			{
			"duration": 0.13636349999999453,
			"durationTicks": 120,
			"midi": 40,
			"name": "E2",
			"ticks": 38160,
			"time": 43.363593,
			"velocity": 0.5354330708661418
			},
			{
			"duration": 0.2727270000000033,
			"durationTicks": 240,
			"midi": 36,
			"name": "C2",
			"ticks": 38400,
			"time": 43.63632,
			"velocity": 0.6141732283464567
			},
			{
			"duration": 0.13636350000000164,
			"durationTicks": 120,
			"midi": 46,
			"name": "A#2",
			"ticks": 38400,
			"time": 43.63632,
			"velocity": 0.48031496062992124
			},
			{
			"duration": 0.13636350000000164,
			"durationTicks": 120,
			"midi": 40,
			"name": "E2",
			"ticks": 38640,
			"time": 43.909047,
			"velocity": 0.5354330708661418
			},
			{
			"duration": 0.2727270000000033,
			"durationTicks": 240,
			"midi": 36,
			"name": "C2",
			"ticks": 38880,
			"time": 44.181774,
			"velocity": 0.6141732283464567
			},
			{
			"duration": 0.13636350000000164,
			"durationTicks": 120,
			"midi": 46,
			"name": "A#2",
			"ticks": 38880,
			"time": 44.181774,
			"velocity": 0.48031496062992124
			},
			{
			"duration": 0.13636350000000164,
			"durationTicks": 120,
			"midi": 40,
			"name": "E2",
			"ticks": 39120,
			"time": 44.454501,
			"velocity": 0.5354330708661418
			},
			{
			"duration": 0.2727270000000033,
			"durationTicks": 240,
			"midi": 36,
			"name": "C2",
			"ticks": 39360,
			"time": 44.727228,
			"velocity": 0.6141732283464567
			},
			{
			"duration": 0.13636350000000164,
			"durationTicks": 120,
			"midi": 46,
			"name": "A#2",
			"ticks": 39360,
			"time": 44.727228,
			"velocity": 0.48031496062992124
			},
			{
			"duration": 0.13636350000000164,
			"durationTicks": 120,
			"midi": 40,
			"name": "E2",
			"ticks": 39600,
			"time": 44.999955,
			"velocity": 0.5354330708661418
			},
			{
			"duration": 0.2727270000000033,
			"durationTicks": 240,
			"midi": 36,
			"name": "C2",
			"ticks": 39840,
			"time": 45.272681999999996,
			"velocity": 0.6141732283464567
			},
			{
			"duration": 0.13636350000000164,
			"durationTicks": 120,
			"midi": 46,
			"name": "A#2",
			"ticks": 39840,
			"time": 45.272681999999996,
			"velocity": 0.48031496062992124
			},
			{
			"duration": 0.13636350000000164,
			"durationTicks": 120,
			"midi": 40,
			"name": "E2",
			"ticks": 40080,
			"time": 45.545409,
			"velocity": 0.5354330708661418
			},
			{
			"duration": 0.27272699999999617,
			"durationTicks": 240,
			"midi": 36,
			"name": "C2",
			"ticks": 40320,
			"time": 45.818136,
			"velocity": 0.6141732283464567
			},
			{
			"duration": 0.13636349999999453,
			"durationTicks": 120,
			"midi": 46,
			"name": "A#2",
			"ticks": 40320,
			"time": 45.818136,
			"velocity": 0.48031496062992124
			},
			{
			"duration": 0.13636350000000164,
			"durationTicks": 120,
			"midi": 40,
			"name": "E2",
			"ticks": 40560,
			"time": 46.090863,
			"velocity": 0.5354330708661418
			},
			{
			"duration": 0.27272699999999617,
			"durationTicks": 240,
			"midi": 36,
			"name": "C2",
			"ticks": 40800,
			"time": 46.36359,
			"velocity": 0.6141732283464567
			},
			{
			"duration": 0.13636349999999453,
			"durationTicks": 120,
			"midi": 46,
			"name": "A#2",
			"ticks": 40800,
			"time": 46.36359,
			"velocity": 0.48031496062992124
			},
			{
			"duration": 0.13636350000000164,
			"durationTicks": 120,
			"midi": 40,
			"name": "E2",
			"ticks": 41040,
			"time": 46.636317,
			"velocity": 0.5354330708661418
			},
			{
			"duration": 0.27272699999999617,
			"durationTicks": 240,
			"midi": 36,
			"name": "C2",
			"ticks": 41280,
			"time": 46.909044,
			"velocity": 0.6141732283464567
			},
			{
			"duration": 0.13636349999999453,
			"durationTicks": 120,
			"midi": 46,
			"name": "A#2",
			"ticks": 41280,
			"time": 46.909044,
			"velocity": 0.48031496062992124
			},
			{
			"duration": 0.13636350000000164,
			"durationTicks": 120,
			"midi": 40,
			"name": "E2",
			"ticks": 41520,
			"time": 47.181771,
			"velocity": 0.5354330708661418
			},
			{
			"duration": 0.27272699999999617,
			"durationTicks": 240,
			"midi": 36,
			"name": "C2",
			"ticks": 41760,
			"time": 47.454498,
			"velocity": 0.6141732283464567
			},
			{
			"duration": 0.13636350000000164,
			"durationTicks": 120,
			"midi": 46,
			"name": "A#2",
			"ticks": 41760,
			"time": 47.454498,
			"velocity": 0.48031496062992124
			},
			{
			"duration": 0.13636350000000164,
			"durationTicks": 120,
			"midi": 40,
			"name": "E2",
			"ticks": 42000,
			"time": 47.727225,
			"velocity": 0.5354330708661418
			},
			{
			"duration": 0.27272699999999617,
			"durationTicks": 240,
			"midi": 36,
			"name": "C2",
			"ticks": 42240,
			"time": 47.999952,
			"velocity": 0.6141732283464567
			},
			{
			"duration": 0.13636350000000164,
			"durationTicks": 120,
			"midi": 46,
			"name": "A#2",
			"ticks": 42240,
			"time": 47.999952,
			"velocity": 0.48031496062992124
			},
			{
			"duration": 0.13636350000000164,
			"durationTicks": 120,
			"midi": 40,
			"name": "E2",
			"ticks": 42480,
			"time": 48.272679,
			"velocity": 0.5354330708661418
			},
			{
			"duration": 0.27272699999999617,
			"durationTicks": 240,
			"midi": 36,
			"name": "C2",
			"ticks": 42720,
			"time": 48.545406,
			"velocity": 0.6141732283464567
			},
			{
			"duration": 0.13636350000000164,
			"durationTicks": 120,
			"midi": 46,
			"name": "A#2",
			"ticks": 42720,
			"time": 48.545406,
			"velocity": 0.48031496062992124
			},
			{
			"duration": 0.13636350000000164,
			"durationTicks": 120,
			"midi": 40,
			"name": "E2",
			"ticks": 42960,
			"time": 48.818132999999996,
			"velocity": 0.5354330708661418
			},
			{
			"duration": 0.2727270000000033,
			"durationTicks": 240,
			"midi": 36,
			"name": "C2",
			"ticks": 43200,
			"time": 49.09086,
			"velocity": 0.6141732283464567
			},
			{
			"duration": 0.13636350000000164,
			"durationTicks": 120,
			"midi": 46,
			"name": "A#2",
			"ticks": 43200,
			"time": 49.09086,
			"velocity": 0.48031496062992124
			},
			{
			"duration": 0.13636349999999453,
			"durationTicks": 120,
			"midi": 40,
			"name": "E2",
			"ticks": 43440,
			"time": 49.363587,
			"velocity": 0.5354330708661418
			},
			{
			"duration": 0.2727270000000033,
			"durationTicks": 240,
			"midi": 36,
			"name": "C2",
			"ticks": 43680,
			"time": 49.636314,
			"velocity": 0.6141732283464567
			},
			{
			"duration": 0.13636350000000164,
			"durationTicks": 120,
			"midi": 46,
			"name": "A#2",
			"ticks": 43680,
			"time": 49.636314,
			"velocity": 0.48031496062992124
			},
			{
			"duration": 0.13636349999999453,
			"durationTicks": 120,
			"midi": 40,
			"name": "E2",
			"ticks": 43920,
			"time": 49.909041,
			"velocity": 0.5354330708661418
			},
			{
			"duration": 0.2727270000000033,
			"durationTicks": 240,
			"midi": 36,
			"name": "C2",
			"ticks": 44160,
			"time": 50.181768,
			"velocity": 0.6141732283464567
			},
			{
			"duration": 0.13636350000000164,
			"durationTicks": 120,
			"midi": 46,
			"name": "A#2",
			"ticks": 44160,
			"time": 50.181768,
			"velocity": 0.48031496062992124
			},
			{
			"duration": 0.13636349999999453,
			"durationTicks": 120,
			"midi": 40,
			"name": "E2",
			"ticks": 44400,
			"time": 50.454495,
			"velocity": 0.5354330708661418
			},
			{
			"duration": 0.2727270000000033,
			"durationTicks": 240,
			"midi": 36,
			"name": "C2",
			"ticks": 44640,
			"time": 50.727222,
			"velocity": 0.6141732283464567
			},
			{
			"duration": 0.13636350000000164,
			"durationTicks": 120,
			"midi": 46,
			"name": "A#2",
			"ticks": 44640,
			"time": 50.727222,
			"velocity": 0.48031496062992124
			},
			{
			"duration": 0.13636350000000164,
			"durationTicks": 120,
			"midi": 40,
			"name": "E2",
			"ticks": 44880,
			"time": 50.999949,
			"velocity": 0.5354330708661418
			},
			{
			"duration": 0.2727270000000033,
			"durationTicks": 240,
			"midi": 36,
			"name": "C2",
			"ticks": 45120,
			"time": 51.272676,
			"velocity": 0.6141732283464567
			},
			{
			"duration": 0.13636350000000164,
			"durationTicks": 120,
			"midi": 46,
			"name": "A#2",
			"ticks": 45120,
			"time": 51.272676,
			"velocity": 0.48031496062992124
			},
			{
			"duration": 0.13636350000000164,
			"durationTicks": 120,
			"midi": 40,
			"name": "E2",
			"ticks": 45360,
			"time": 51.545403,
			"velocity": 0.5354330708661418
			},
			{
			"duration": 0.2727270000000033,
			"durationTicks": 240,
			"midi": 36,
			"name": "C2",
			"ticks": 45600,
			"time": 51.81813,
			"velocity": 0.6141732283464567
			},
			{
			"duration": 0.13636350000000164,
			"durationTicks": 120,
			"midi": 46,
			"name": "A#2",
			"ticks": 45600,
			"time": 51.81813,
			"velocity": 0.48031496062992124
			},
			{
			"duration": 0.13636350000000164,
			"durationTicks": 120,
			"midi": 40,
			"name": "E2",
			"ticks": 45840,
			"time": 52.090857,
			"velocity": 0.5354330708661418
			},
			{
			"duration": 0.27272699999999617,
			"durationTicks": 240,
			"midi": 36,
			"name": "C2",
			"ticks": 46080,
			"time": 52.363584,
			"velocity": 0.6141732283464567
			},
			{
			"duration": 0.13636349999999453,
			"durationTicks": 120,
			"midi": 46,
			"name": "A#2",
			"ticks": 46080,
			"time": 52.363584,
			"velocity": 0.48031496062992124
			},
			{
			"duration": 0.13636350000000164,
			"durationTicks": 120,
			"midi": 40,
			"name": "E2",
			"ticks": 46320,
			"time": 52.636311,
			"velocity": 0.5354330708661418
			},
			{
			"duration": 0.27272699999999617,
			"durationTicks": 240,
			"midi": 36,
			"name": "C2",
			"ticks": 46560,
			"time": 52.909038,
			"velocity": 0.6141732283464567
			},
			{
			"duration": 0.13636349999999453,
			"durationTicks": 120,
			"midi": 46,
			"name": "A#2",
			"ticks": 46560,
			"time": 52.909038,
			"velocity": 0.48031496062992124
			},
			{
			"duration": 0.13636350000000164,
			"durationTicks": 120,
			"midi": 40,
			"name": "E2",
			"ticks": 46800,
			"time": 53.181765,
			"velocity": 0.5354330708661418
			},
			{
			"duration": 0.27272699999999617,
			"durationTicks": 240,
			"midi": 36,
			"name": "C2",
			"ticks": 47040,
			"time": 53.454492,
			"velocity": 0.6141732283464567
			},
			{
			"duration": 0.13636349999999453,
			"durationTicks": 120,
			"midi": 46,
			"name": "A#2",
			"ticks": 47040,
			"time": 53.454492,
			"velocity": 0.48031496062992124
			},
			{
			"duration": 0.13636350000000164,
			"durationTicks": 120,
			"midi": 40,
			"name": "E2",
			"ticks": 47280,
			"time": 53.727219,
			"velocity": 0.5354330708661418
			},
			{
			"duration": 0.27272699999999617,
			"durationTicks": 240,
			"midi": 36,
			"name": "C2",
			"ticks": 47520,
			"time": 53.999946,
			"velocity": 0.6141732283464567
			},
			{
			"duration": 0.13636350000000164,
			"durationTicks": 120,
			"midi": 46,
			"name": "A#2",
			"ticks": 47520,
			"time": 53.999946,
			"velocity": 0.48031496062992124
			},
			{
			"duration": 0.13636350000000164,
			"durationTicks": 120,
			"midi": 40,
			"name": "E2",
			"ticks": 47760,
			"time": 54.272673,
			"velocity": 0.5354330708661418
			},
			{
			"duration": 0.27272699999999617,
			"durationTicks": 240,
			"midi": 36,
			"name": "C2",
			"ticks": 48000,
			"time": 54.5454,
			"velocity": 0.6141732283464567
			},
			{
			"duration": 0.13636350000000164,
			"durationTicks": 120,
			"midi": 46,
			"name": "A#2",
			"ticks": 48000,
			"time": 54.5454,
			"velocity": 0.48031496062992124
			},
			{
			"duration": 0.13636350000000164,
			"durationTicks": 120,
			"midi": 40,
			"name": "E2",
			"ticks": 48240,
			"time": 54.818127,
			"velocity": 0.5354330708661418
			},
			{
			"duration": 0.27272699999999617,
			"durationTicks": 240,
			"midi": 36,
			"name": "C2",
			"ticks": 48480,
			"time": 55.090854,
			"velocity": 0.6141732283464567
			},
			{
			"duration": 0.13636350000000164,
			"durationTicks": 120,
			"midi": 46,
			"name": "A#2",
			"ticks": 48480,
			"time": 55.090854,
			"velocity": 0.48031496062992124
			},
			{
			"duration": 0.13636350000000164,
			"durationTicks": 120,
			"midi": 40,
			"name": "E2",
			"ticks": 48720,
			"time": 55.363580999999996,
			"velocity": 0.5354330708661418
			},
			{
			"duration": 0.2727270000000033,
			"durationTicks": 240,
			"midi": 36,
			"name": "C2",
			"ticks": 48960,
			"time": 55.636308,
			"velocity": 0.6141732283464567
			},
			{
			"duration": 0.13636350000000164,
			"durationTicks": 120,
			"midi": 46,
			"name": "A#2",
			"ticks": 48960,
			"time": 55.636308,
			"velocity": 0.48031496062992124
			},
			{
			"duration": 0.13636349999999453,
			"durationTicks": 120,
			"midi": 40,
			"name": "E2",
			"ticks": 49200,
			"time": 55.909035,
			"velocity": 0.5354330708661418
			},
			{
			"duration": 0.2727270000000033,
			"durationTicks": 240,
			"midi": 36,
			"name": "C2",
			"ticks": 49440,
			"time": 56.181762,
			"velocity": 0.6141732283464567
			},
			{
			"duration": 0.13636350000000164,
			"durationTicks": 120,
			"midi": 46,
			"name": "A#2",
			"ticks": 49440,
			"time": 56.181762,
			"velocity": 0.48031496062992124
			},
			{
			"duration": 0.13636349999999453,
			"durationTicks": 120,
			"midi": 40,
			"name": "E2",
			"ticks": 49680,
			"time": 56.454489,
			"velocity": 0.5354330708661418
			},
			{
			"duration": 0.2727270000000033,
			"durationTicks": 240,
			"midi": 36,
			"name": "C2",
			"ticks": 49920,
			"time": 56.727216,
			"velocity": 0.6141732283464567
			},
			{
			"duration": 0.13636350000000164,
			"durationTicks": 120,
			"midi": 46,
			"name": "A#2",
			"ticks": 49920,
			"time": 56.727216,
			"velocity": 0.48031496062992124
			},
			{
			"duration": 0.13636349999999453,
			"durationTicks": 120,
			"midi": 40,
			"name": "E2",
			"ticks": 50160,
			"time": 56.999943,
			"velocity": 0.5354330708661418
			},
			{
			"duration": 0.2727270000000033,
			"durationTicks": 240,
			"midi": 36,
			"name": "C2",
			"ticks": 50400,
			"time": 57.27267,
			"velocity": 0.6141732283464567
			},
			{
			"duration": 0.13636350000000164,
			"durationTicks": 120,
			"midi": 46,
			"name": "A#2",
			"ticks": 50400,
			"time": 57.27267,
			"velocity": 0.48031496062992124
			},
			{
			"duration": 0.13636350000000164,
			"durationTicks": 120,
			"midi": 40,
			"name": "E2",
			"ticks": 50640,
			"time": 57.545397,
			"velocity": 0.5354330708661418
			},
			{
			"duration": 0.2727270000000033,
			"durationTicks": 240,
			"midi": 36,
			"name": "C2",
			"ticks": 50880,
			"time": 57.818124,
			"velocity": 0.6141732283464567
			},
			{
			"duration": 0.13636350000000164,
			"durationTicks": 120,
			"midi": 46,
			"name": "A#2",
			"ticks": 50880,
			"time": 57.818124,
			"velocity": 0.48031496062992124
			},
			{
			"duration": 0.13636350000000164,
			"durationTicks": 120,
			"midi": 40,
			"name": "E2",
			"ticks": 51120,
			"time": 58.090851,
			"velocity": 0.5354330708661418
			},
			{
			"duration": 0.2727270000000033,
			"durationTicks": 240,
			"midi": 36,
			"name": "C2",
			"ticks": 51360,
			"time": 58.363578,
			"velocity": 0.6141732283464567
			},
			{
			"duration": 0.13636350000000164,
			"durationTicks": 120,
			"midi": 46,
			"name": "A#2",
			"ticks": 51360,
			"time": 58.363578,
			"velocity": 0.48031496062992124
			},
			{
			"duration": 0.13636350000000164,
			"durationTicks": 120,
			"midi": 40,
			"name": "E2",
			"ticks": 51600,
			"time": 58.636305,
      "velocity": 0.5354330708661418
      },
      {
      "duration": 0.2727270000000033,
      "durationTicks": 240,
      "midi": 36,
      "name": "C2",
      "ticks": 51840,
      "time": 58.909031999999996,
      "velocity": 0.6141732283464567
      },
      {
      "duration": 0.13636350000000164,
      "durationTicks": 120,
      "midi": 46,
      "name": "A#2",
      "ticks": 51840,
      "time": 58.909031999999996,
      "velocity": 0.48031496062992124
      },
      {
      "duration": 0.13636350000000164,
      "durationTicks": 120,
      "midi": 40,
      "name": "E2",
      "ticks": 52080,
      "time": 59.181759,
      "velocity": 0.5354330708661418
      },
      {
      "duration": 0.27272699999999617,
      "durationTicks": 240,
      "midi": 36,
      "name": "C2",
      "ticks": 52320,
      "time": 59.454486,
      "velocity": 0.6141732283464567
      },
      {
      "duration": 0.13636349999999453,
      "durationTicks": 120,
      "midi": 46,
      "name": "A#2",
      "ticks": 52320,
      "time": 59.454486,
      "velocity": 0.48031496062992124
      },
      {
      "duration": 0.13636350000000164,
      "durationTicks": 120,
      "midi": 40,
      "name": "E2",
      "ticks": 52560,
      "time": 59.727213,
      "velocity": 0.5354330708661418
      },
      {
      "duration": 0.27272699999999617,
      "durationTicks": 240,
      "midi": 36,
      "name": "C2",
      "ticks": 52800,
      "time": 59.99994,
      "velocity": 0.6141732283464567
      },
      {
      "duration": 0.13636349999999453,
      "durationTicks": 120,
      "midi": 46,
      "name": "A#2",
      "ticks": 52800,
      "time": 59.99994,
      "velocity": 0.48031496062992124
      },
      {
      "duration": 0.13636350000000164,
      "durationTicks": 120,
      "midi": 40,
      "name": "E2",
      "ticks": 53040,
      "time": 60.272667,
      "velocity": 0.5354330708661418
      },
      {
      "duration": 0.27272699999999617,
      "durationTicks": 240,
      "midi": 36,
      "name": "C2",
      "ticks": 53280,
      "time": 60.545394,
      "velocity": 0.6141732283464567
      },
      {
      "duration": 0.13636349999999453,
      "durationTicks": 120,
      "midi": 46,
      "name": "A#2",
      "ticks": 53280,
      "time": 60.545394,
      "velocity": 0.48031496062992124
      },
      {
      "duration": 0.13636350000000164,
      "durationTicks": 120,
      "midi": 40,
      "name": "E2",
      "ticks": 53520,
      "time": 60.818121,
      "velocity": 0.5354330708661418
      },
      {
      "duration": 0.27272699999999617,
      "durationTicks": 240,
      "midi": 36,
      "name": "C2",
      "ticks": 53760,
      "time": 61.090848,
      "velocity": 0.6141732283464567
      },
      {
      "duration": 0.13636350000000164,
      "durationTicks": 120,
      "midi": 46,
      "name": "A#2",
      "ticks": 53760,
      "time": 61.090848,
      "velocity": 0.48031496062992124
      },
      {
      "duration": 0.13636350000000164,
      "durationTicks": 120,
      "midi": 40,
      "name": "E2",
      "ticks": 54000,
      "time": 61.363575,
      "velocity": 0.5354330708661418
      },
      {
      "duration": 0.27272699999999617,
      "durationTicks": 240,
      "midi": 36,
      "name": "C2",
      "ticks": 54240,
      "time": 61.636302,
      "velocity": 0.6141732283464567
      },
      {
      "duration": 0.13636350000000164,
      "durationTicks": 120,
      "midi": 46,
      "name": "A#2",
      "ticks": 54240,
      "time": 61.636302,
      "velocity": 0.48031496062992124
      },
      {
      "duration": 0.13636350000000164,
      "durationTicks": 120,
      "midi": 40,
      "name": "E2",
      "ticks": 54480,
      "time": 61.909029,
      "velocity": 0.5354330708661418
      },
      {
      "duration": 0.27272699999999617,
      "durationTicks": 240,
      "midi": 36,
      "name": "C2",
      "ticks": 54720,
      "time": 62.181756,
      "velocity": 0.6141732283464567
      },
      {
      "duration": 0.13636350000000164,
      "durationTicks": 120,
      "midi": 46,
      "name": "A#2",
      "ticks": 54720,
      "time": 62.181756,
      "velocity": 0.48031496062992124
      },
      {
      "duration": 0.13636350000000164,
      "durationTicks": 120,
      "midi": 40,
      "name": "E2",
      "ticks": 54960,
      "time": 62.454482999999996,
      "velocity": 0.5354330708661418
      },
      {
      "duration": 0.2727270000000033,
      "durationTicks": 240,
      "midi": 36,
      "name": "C2",
      "ticks": 55200,
      "time": 62.72721,
      "velocity": 0.6141732283464567
      },
      {
      "duration": 0.13636350000000164,
      "durationTicks": 120,
      "midi": 46,
      "name": "A#2",
      "ticks": 55200,
      "time": 62.72721,
      "velocity": 0.48031496062992124
      },
      {
      "duration": 0.13636349999999453,
      "durationTicks": 120,
      "midi": 40,
      "name": "E2",
      "ticks": 55440,
      "time": 62.999937,
      "velocity": 0.5354330708661418
      },
      {
      "duration": 0.2727270000000033,
      "durationTicks": 240,
      "midi": 36,
      "name": "C2",
      "ticks": 55680,
      "time": 63.272664,
      "velocity": 0.6141732283464567
      },
      {
      "duration": 0.13636350000000164,
      "durationTicks": 120,
      "midi": 46,
      "name": "A#2",
      "ticks": 55680,
      "time": 63.272664,
      "velocity": 0.48031496062992124
      },
      {
      "duration": 0.13636349999999453,
      "durationTicks": 120,
      "midi": 40,
      "name": "E2",
      "ticks": 55920,
      "time": 63.545391,
      "velocity": 0.5354330708661418
      },
      {
      "duration": 0.2727270000000033,
      "durationTicks": 240,
      "midi": 36,
      "name": "C2",
      "ticks": 56160,
      "time": 63.818118,
      "velocity": 0.6141732283464567
      },
      {
      "duration": 0.13636350000000164,
      "durationTicks": 120,
      "midi": 46,
      "name": "A#2",
      "ticks": 56160,
      "time": 63.818118,
      "velocity": 0.48031496062992124
      },
      {
      "duration": 0.13636350000000164,
      "durationTicks": 120,
      "midi": 40,
      "name": "E2",
      "ticks": 56400,
      "time": 64.090845,
      "velocity": 0.5354330708661418
      },
      {
      "duration": 0.27272699999998906,
      "durationTicks": 240,
      "midi": 36,
      "name": "C2",
      "ticks": 56640,
      "time": 64.363572,
      "velocity": 0.6141732283464567
      },
      {
      "duration": 0.13636349999998743,
      "durationTicks": 120,
      "midi": 46,
      "name": "A#2",
      "ticks": 56640,
      "time": 64.363572,
      "velocity": 0.48031496062992124
      },
      {
      "duration": 0.13636350000000164,
      "durationTicks": 120,
      "midi": 40,
      "name": "E2",
      "ticks": 56880,
      "time": 64.636299,
      "velocity": 0.5354330708661418
      },
      {
      "duration": 0.2727270000000033,
      "durationTicks": 240,
      "midi": 36,
      "name": "C2",
      "ticks": 57120,
      "time": 64.909026,
      "velocity": 0.6141732283464567
      },
      {
      "duration": 0.13636350000000164,
      "durationTicks": 120,
      "midi": 46,
      "name": "A#2",
      "ticks": 57120,
      "time": 64.909026,
      "velocity": 0.48031496062992124
      },
      {
      "duration": 0.13636350000000164,
      "durationTicks": 120,
      "midi": 40,
      "name": "E2",
      "ticks": 57360,
      "time": 65.181753,
      "velocity": 0.5354330708661418
      },
      {
      "duration": 0.27272699999998906,
      "durationTicks": 240,
      "midi": 36,
      "name": "C2",
      "ticks": 57600,
      "time": 65.45448,
      "velocity": 0.6141732283464567
      },
		  {
			"duration": 0.13636350000000164,
			"durationTicks": 120,
			"midi": 46,
			"name": "A#2",
			"ticks": 57600,
			"time": 65.45448,
			"velocity": 0.48031496062992124
		  },
		  {
			"duration": 0.13636350000000164,
			"durationTicks": 120,
			"midi": 40,
			"name": "E2",
			"ticks": 57840,
			"time": 65.72720699999999,
			"velocity": 0.5354330708661418
		  },
		  {
			"duration": 0.2727270000000033,
			"durationTicks": 240,
			"midi": 36,
			"name": "C2",
			"ticks": 58080,
			"time": 65.999934,
			"velocity": 0.6141732283464567
		  },
		  {
			"duration": 0.13636350000000164,
			"durationTicks": 120,
			"midi": 46,
			"name": "A#2",
			"ticks": 58080,
			"time": 65.999934,
			"velocity": 0.48031496062992124
		  },
		  {
			"duration": 0.13636350000000164,
			"durationTicks": 120,
			"midi": 40,
			"name": "E2",
			"ticks": 58320,
			"time": 66.272661,
			"velocity": 0.5354330708661418
		  },
		  {
			"duration": 0.2727270000000033,
			"durationTicks": 240,
			"midi": 36,
			"name": "C2",
			"ticks": 58560,
			"time": 66.545388,
			"velocity": 0.6141732283464567
		  },
		  {
			"duration": 0.13636350000000164,
			"durationTicks": 120,
			"midi": 46,
			"name": "A#2",
			"ticks": 58560,
			"time": 66.545388,
			"velocity": 0.48031496062992124
		  },
		  {
			"duration": 0.13636349999998743,
			"durationTicks": 120,
			"midi": 40,
			"name": "E2",
			"ticks": 58800,
			"time": 66.818115,
			"velocity": 0.5354330708661418
		  },
		  {
			"duration": 0.2727270000000033,
			"durationTicks": 240,
			"midi": 36,
			"name": "C2",
			"ticks": 59040,
			"time": 67.090842,
			"velocity": 0.6141732283464567
		  },
		  {
			"duration": 0.13636350000000164,
			"durationTicks": 120,
			"midi": 46,
			"name": "A#2",
			"ticks": 59040,
			"time": 67.090842,
			"velocity": 0.48031496062992124
		  },
		  {
			"duration": 0.13636350000000164,
			"durationTicks": 120,
			"midi": 40,
			"name": "E2",
			"ticks": 59280,
			"time": 67.363569,
			"velocity": 0.5354330708661418
		  },
		  {
			"duration": 0.2727270000000033,
			"durationTicks": 240,
			"midi": 36,
			"name": "C2",
			"ticks": 59520,
			"time": 67.636296,
			"velocity": 0.6141732283464567
		  },
		  {
			"duration": 0.13636350000000164,
			"durationTicks": 120,
			"midi": 46,
			"name": "A#2",
			"ticks": 59520,
			"time": 67.636296,
			"velocity": 0.48031496062992124
		  },
		  {
			"duration": 0.13636349999998743,
			"durationTicks": 120,
			"midi": 40,
			"name": "E2",
			"ticks": 59760,
			"time": 67.909023,
			"velocity": 0.5354330708661418
		  },
		  {
			"duration": 0.2727270000000033,
			"durationTicks": 240,
			"midi": 36,
			"name": "C2",
			"ticks": 60000,
			"time": 68.18175,
			"velocity": 0.6141732283464567
		  },
		  {
			"duration": 0.13636350000000164,
			"durationTicks": 120,
			"midi": 46,
			"name": "A#2",
			"ticks": 60000,
			"time": 68.18175,
			"velocity": 0.48031496062992124
		  },
		  {
			"duration": 0.13636350000000164,
			"durationTicks": 120,
			"midi": 40,
			"name": "E2",
			"ticks": 60240,
			"time": 68.454477,
			"velocity": 0.5354330708661418
		  },
		  {
			"duration": 0.2727270000000033,
			"durationTicks": 240,
			"midi": 36,
			"name": "C2",
			"ticks": 60480,
			"time": 68.727204,
			"velocity": 0.6141732283464567
		  },
		  {
			"duration": 0.13636350000000164,
			"durationTicks": 120,
			"midi": 46,
			"name": "A#2",
			"ticks": 60480,
			"time": 68.727204,
			"velocity": 0.48031496062992124
		  },
		  {
			"duration": 0.13636350000000164,
			"durationTicks": 120,
			"midi": 40,
			"name": "E2",
			"ticks": 60720,
			"time": 68.999931,
			"velocity": 0.5354330708661418
		  },
		  {
			"duration": 0.2727270000000033,
			"durationTicks": 240,
			"midi": 36,
			"name": "C2",
			"ticks": 60960,
			"time": 69.27265799999999,
			"velocity": 0.6141732283464567
		  },
		  {
			"duration": 0.13636350000000164,
			"durationTicks": 120,
			"midi": 46,
			"name": "A#2",
			"ticks": 60960,
			"time": 69.27265799999999,
			"velocity": 0.48031496062992124
		  },
		  {
			"duration": 0.13636350000000164,
			"durationTicks": 120,
			"midi": 40,
			"name": "E2",
			"ticks": 61200,
			"time": 69.545385,
			"velocity": 0.5354330708661418
		  },
		  {
			"duration": 0.2727270000000033,
			"durationTicks": 240,
			"midi": 36,
			"name": "C2",
			"ticks": 61440,
			"time": 69.818112,
			"velocity": 0.6141732283464567
		  },
		  {
			"duration": 0.13636350000000164,
			"durationTicks": 120,
			"midi": 46,
			"name": "A#2",
			"ticks": 61440,
			"time": 69.818112,
			"velocity": 0.48031496062992124
		  },
		  {
			"duration": 0.13636350000000164,
			"durationTicks": 120,
			"midi": 40,
			"name": "E2",
			"ticks": 61680,
			"time": 70.090839,
			"velocity": 0.5354330708661418
		  },
		  {
			"duration": 0.27272699999998906,
			"durationTicks": 240,
			"midi": 36,
			"name": "C2",
			"ticks": 61920,
			"time": 70.363566,
			"velocity": 0.6141732283464567
		  },
		  {
			"duration": 0.13636349999998743,
			"durationTicks": 120,
			"midi": 46,
			"name": "A#2",
			"ticks": 61920,
			"time": 70.363566,
			"velocity": 0.48031496062992124
		  },
		  {
			"duration": 0.13636350000000164,
			"durationTicks": 120,
			"midi": 40,
			"name": "E2",
			"ticks": 62160,
			"time": 70.636293,
			"velocity": 0.5354330708661418
		  },
		  {
			"duration": 0.2727270000000033,
			"durationTicks": 240,
			"midi": 36,
			"name": "C2",
			"ticks": 62400,
			"time": 70.90902,
			"velocity": 0.6141732283464567
		  },
		  {
			"duration": 0.13636350000000164,
			"durationTicks": 120,
			"midi": 46,
			"name": "A#2",
			"ticks": 62400,
			"time": 70.90902,
			"velocity": 0.48031496062992124
		  },
		  {
			"duration": 0.13636350000000164,
			"durationTicks": 120,
			"midi": 40,
			"name": "E2",
			"ticks": 62640,
			"time": 71.181747,
			"velocity": 0.5354330708661418
		  },
		  {
			"duration": 0.27272699999998906,
			"durationTicks": 240,
			"midi": 36,
			"name": "C2",
			"ticks": 62880,
			"time": 71.454474,
			"velocity": 0.6141732283464567
		  },
		  {
			"duration": 0.13636350000000164,
			"durationTicks": 120,
			"midi": 46,
			"name": "A#2",
			"ticks": 62880,
			"time": 71.454474,
			"velocity": 0.48031496062992124
		  },
		  {
			"duration": 0.13636350000000164,
			"durationTicks": 120,
			"midi": 40,
			"name": "E2",
			"ticks": 63120,
			"time": 71.727201,
			"velocity": 0.5354330708661418
		  },
		  {
			"duration": 0.2727270000000033,
			"durationTicks": 240,
			"midi": 36,
			"name": "C2",
			"ticks": 63360,
			"time": 71.999928,
			"velocity": 0.6141732283464567
		  },
		  {
			"duration": 0.13636350000000164,
			"durationTicks": 120,
			"midi": 46,
			"name": "A#2",
			"ticks": 63360,
			"time": 71.999928,
			"velocity": 0.48031496062992124
		  },
		  {
			"duration": 0.13636350000000164,
			"durationTicks": 120,
			"midi": 40,
			"name": "E2",
			"ticks": 63600,
			"time": 72.272655,
			"velocity": 0.5354330708661418
		  },
		  {
			"duration": 0.27272699999998906,
			"durationTicks": 240,
			"midi": 36,
			"name": "C2",
			"ticks": 63840,
			"time": 72.545382,
			"velocity": 0.6141732283464567
		  },
		  {
			"duration": 0.13636350000000164,
			"durationTicks": 120,
			"midi": 46,
			"name": "A#2",
			"ticks": 63840,
			"time": 72.545382,
			"velocity": 0.48031496062992124
		  },
		  {
			"duration": 0.13636350000000164,
			"durationTicks": 120,
			"midi": 40,
			"name": "E2",
			"ticks": 64080,
			"time": 72.81810899999999,
			"velocity": 0.5354330708661418
		  },
		  {
			"duration": 0.2727270000000033,
			"durationTicks": 240,
			"midi": 36,
			"name": "C2",
			"ticks": 64320,
			"time": 73.090836,
			"velocity": 0.6141732283464567
		  },
		  {
			"duration": 0.13636350000000164,
			"durationTicks": 120,
			"midi": 46,
			"name": "A#2",
			"ticks": 64320,
			"time": 73.090836,
			"velocity": 0.48031496062992124
		  },
		  {
			"duration": 0.13636350000000164,
			"durationTicks": 120,
			"midi": 40,
			"name": "E2",
			"ticks": 64560,
			"time": 73.363563,
			"velocity": 0.5354330708661418
		  },
		  {
			"duration": 0.2727270000000033,
			"durationTicks": 240,
			"midi": 36,
			"name": "C2",
			"ticks": 64800,
			"time": 73.63629,
			"velocity": 0.6141732283464567
		  },
		  {
			"duration": 0.13636350000000164,
			"durationTicks": 120,
			"midi": 46,
			"name": "A#2",
			"ticks": 64800,
			"time": 73.63629,
			"velocity": 0.48031496062992124
		  },
		  {
			"duration": 0.13636349999998743,
			"durationTicks": 120,
			"midi": 40,
			"name": "E2",
			"ticks": 65040,
			"time": 73.909017,
			"velocity": 0.5354330708661418
		  },
		  {
			"duration": 0.2727270000000033,
			"durationTicks": 240,
			"midi": 36,
			"name": "C2",
			"ticks": 65280,
			"time": 74.181744,
			"velocity": 0.6141732283464567
		  },
		  {
			"duration": 0.13636350000000164,
			"durationTicks": 120,
			"midi": 46,
			"name": "A#2",
			"ticks": 65280,
			"time": 74.181744,
			"velocity": 0.48031496062992124
		  },
		  {
			"duration": 0.13636350000000164,
			"durationTicks": 120,
			"midi": 40,
			"name": "E2",
			"ticks": 65520,
			"time": 74.454471,
			"velocity": 0.5354330708661418
		  },
		  {
			"duration": 0.2727270000000033,
			"durationTicks": 240,
			"midi": 36,
			"name": "C2",
			"ticks": 65760,
			"time": 74.727198,
			"velocity": 0.6141732283464567
		  },
		  {
			"duration": 0.13636350000000164,
			"durationTicks": 120,
			"midi": 46,
			"name": "A#2",
			"ticks": 65760,
			"time": 74.727198,
			"velocity": 0.48031496062992124
		  },
		  {
			"duration": 0.13636350000000164,
			"durationTicks": 120,
			"midi": 40,
			"name": "E2",
			"ticks": 66000,
			"time": 74.999925,
			"velocity": 0.5354330708661418
		  },
		  {
			"duration": 0.2727270000000033,
			"durationTicks": 240,
			"midi": 36,
			"name": "C2",
			"ticks": 66240,
			"time": 75.272652,
			"velocity": 0.6141732283464567
		  },
		  {
			"duration": 0.13636350000000164,
			"durationTicks": 120,
			"midi": 46,
			"name": "A#2",
			"ticks": 66240,
			"time": 75.272652,
			"velocity": 0.48031496062992124
		  },
		  {
			"duration": 0.13636350000000164,
			"durationTicks": 120,
			"midi": 40,
			"name": "E2",
			"ticks": 66480,
			"time": 75.545379,
			"velocity": 0.5354330708661418
		  },
		  {
			"duration": 0.2727270000000033,
			"durationTicks": 240,
			"midi": 36,
			"name": "C2",
			"ticks": 66720,
			"time": 75.818106,
			"velocity": 0.6141732283464567
		  },
		  {
			"duration": 0.13636350000000164,
			"durationTicks": 120,
			"midi": 46,
			"name": "A#2",
			"ticks": 66720,
			"time": 75.818106,
			"velocity": 0.48031496062992124
		  },
		  {
			"duration": 0.13636350000000164,
			"durationTicks": 120,
			"midi": 40,
			"name": "E2",
			"ticks": 66960,
			"time": 76.090833,
			"velocity": 0.5354330708661418
		  },
		  {
			"duration": 0.2727270000000033,
			"durationTicks": 240,
			"midi": 36,
			"name": "C2",
			"ticks": 67200,
			"time": 76.36355999999999,
			"velocity": 0.6141732283464567
		  },
		  {
			"duration": 0.13636350000000164,
			"durationTicks": 120,
			"midi": 46,
			"name": "A#2",
			"ticks": 67200,
			"time": 76.36355999999999,
			"velocity": 0.48031496062992124
		  },
		  {
			"duration": 0.13636350000000164,
			"durationTicks": 120,
			"midi": 40,
			"name": "E2",
			"ticks": 67440,
			"time": 76.636287,
			"velocity": 0.5354330708661418
		  },
		  {
			"duration": 0.2727270000000033,
			"durationTicks": 240,
			"midi": 36,
			"name": "C2",
			"ticks": 67680,
			"time": 76.909014,
			"velocity": 0.6141732283464567
		  },
		  {
			"duration": 0.13636350000000164,
			"durationTicks": 120,
			"midi": 46,
			"name": "A#2",
			"ticks": 67680,
			"time": 76.909014,
			"velocity": 0.48031496062992124
		  },
		  {
			"duration": 0.13636350000000164,
			"durationTicks": 120,
			"midi": 40,
			"name": "E2",
			"ticks": 67920,
			"time": 77.181741,
			"velocity": 0.5354330708661418
		  },
		  {
			"duration": 0.27272699999998906,
			"durationTicks": 240,
			"midi": 36,
			"name": "C2",
			"ticks": 68160,
			"time": 77.454468,
			"velocity": 0.6141732283464567
		  },
		  {
			"duration": 0.13636349999998743,
			"durationTicks": 120,
			"midi": 46,
			"name": "A#2",
			"ticks": 68160,
			"time": 77.454468,
			"velocity": 0.48031496062992124
		  },
		  {
			"duration": 0.13636350000000164,
			"durationTicks": 120,
			"midi": 40,
			"name": "E2",
			"ticks": 68400,
			"time": 77.727195,
			"velocity": 0.5354330708661418
		  },
		  {
			"duration": 0.2727270000000033,
			"durationTicks": 240,
			"midi": 36,
			"name": "C2",
			"ticks": 68640,
			"time": 77.999922,
			"velocity": 0.6141732283464567
		  },
		  {
			"duration": 0.13636350000000164,
			"durationTicks": 120,
			"midi": 46,
			"name": "A#2",
			"ticks": 68640,
			"time": 77.999922,
			"velocity": 0.48031496062992124
		  },
		  {
			"duration": 0.13636350000000164,
			"durationTicks": 120,
			"midi": 40,
			"name": "E2",
			"ticks": 68880,
			"time": 78.272649,
			"velocity": 0.5354330708661418
		  },
		  {
			"duration": 0.27272699999998906,
			"durationTicks": 240,
			"midi": 36,
			"name": "C2",
			"ticks": 69120,
			"time": 78.545376,
			"velocity": 0.6141732283464567
		  },
		  {
			"duration": 0.13636350000000164,
			"durationTicks": 120,
			"midi": 46,
			"name": "A#2",
			"ticks": 69120,
			"time": 78.545376,
			"velocity": 0.48031496062992124
		  },
		  {
			"duration": 0.13636350000000164,
			"durationTicks": 120,
			"midi": 40,
			"name": "E2",
			"ticks": 69360,
			"time": 78.818103,
			"velocity": 0.5354330708661418
		  },
		  {
			"duration": 0.2727270000000033,
			"durationTicks": 240,
			"midi": 36,
			"name": "C2",
			"ticks": 69600,
			"time": 79.09083,
			"velocity": 0.6141732283464567
		  },
		  {
			"duration": 0.13636350000000164,
			"durationTicks": 120,
			"midi": 46,
			"name": "A#2",
			"ticks": 69600,
			"time": 79.09083,
			"velocity": 0.48031496062992124
		  },
		  {
			"duration": 0.13636350000000164,
			"durationTicks": 120,
			"midi": 40,
			"name": "E2",
			"ticks": 69840,
			"time": 79.363557,
			"velocity": 0.5354330708661418
		  },
		  {
			"duration": 0.27272699999998906,
			"durationTicks": 240,
			"midi": 36,
			"name": "C2",
			"ticks": 70080,
			"time": 79.636284,
			"velocity": 0.6141732283464567
		  },
		  {
			"duration": 0.13636350000000164,
			"durationTicks": 120,
			"midi": 46,
			"name": "A#2",
			"ticks": 70080,
			"time": 79.636284,
			"velocity": 0.48031496062992124
		  },
		  {
			"duration": 0.13636350000000164,
			"durationTicks": 120,
			"midi": 40,
			"name": "E2",
			"ticks": 70320,
			"time": 79.90901099999999,
			"velocity": 0.5354330708661418
		  },
		  {
			"duration": 0.2727270000000033,
			"durationTicks": 240,
			"midi": 36,
			"name": "C2",
			"ticks": 70560,
			"time": 80.181738,
			"velocity": 0.6141732283464567
		  },
		  {
			"duration": 0.13636350000000164,
			"durationTicks": 120,
			"midi": 46,
			"name": "A#2",
			"ticks": 70560,
			"time": 80.181738,
			"velocity": 0.48031496062992124
		  },
		  {
			"duration": 0.13636350000000164,
			"durationTicks": 120,
			"midi": 40,
			"name": "E2",
			"ticks": 70800,
			"time": 80.454465,
			"velocity": 0.5354330708661418
		  },
		  {
			"duration": 0.2727270000000033,
			"durationTicks": 240,
			"midi": 36,
			"name": "C2",
			"ticks": 71040,
			"time": 80.727192,
			"velocity": 0.6141732283464567
		  },
		  {
			"duration": 0.13636350000000164,
			"durationTicks": 120,
			"midi": 46,
			"name": "A#2",
			"ticks": 71040,
			"time": 80.727192,
			"velocity": 0.48031496062992124
		  },
		  {
			"duration": 0.13636349999998743,
			"durationTicks": 120,
			"midi": 40,
			"name": "E2",
			"ticks": 71280,
			"time": 80.999919,
			"velocity": 0.5354330708661418
		  },
		  {
			"duration": 0.2727270000000033,
			"durationTicks": 240,
			"midi": 36,
			"name": "C2",
			"ticks": 71520,
			"time": 81.272646,
			"velocity": 0.6141732283464567
		  },
		  {
			"duration": 0.13636350000000164,
			"durationTicks": 120,
			"midi": 46,
			"name": "A#2",
			"ticks": 71520,
			"time": 81.272646,
			"velocity": 0.48031496062992124
		  },
		  {
			"duration": 0.13636350000000164,
			"durationTicks": 120,
			"midi": 40,
			"name": "E2",
			"ticks": 71760,
			"time": 81.545373,
			"velocity": 0.5354330708661418
		  },
		  {
			"duration": 0.2727270000000033,
			"durationTicks": 240,
			"midi": 36,
			"name": "C2",
			"ticks": 72000,
			"time": 81.8181,
			"velocity": 0.6141732283464567
		  },
		  {
			"duration": 0.13636350000000164,
			"durationTicks": 120,
			"midi": 46,
			"name": "A#2",
			"ticks": 72000,
			"time": 81.8181,
			"velocity": 0.48031496062992124
		  },
		  {
			"duration": 0.13636350000000164,
			"durationTicks": 120,
			"midi": 40,
			"name": "E2",
			"ticks": 72240,
			"time": 82.090827,
			"velocity": 0.5354330708661418
		  },
		  {
			"duration": 0.2727270000000033,
			"durationTicks": 240,
			"midi": 36,
			"name": "C2",
			"ticks": 72480,
			"time": 82.363554,
			"velocity": 0.6141732283464567
		  },
		  {
			"duration": 0.13636350000000164,
			"durationTicks": 120,
			"midi": 46,
			"name": "A#2",
			"ticks": 72480,
			"time": 82.363554,
			"velocity": 0.48031496062992124
		  },
		  {
			"duration": 0.13636350000000164,
			"durationTicks": 120,
			"midi": 40,
			"name": "E2",
			"ticks": 72720,
			"time": 82.636281,
			"velocity": 0.5354330708661418
		  },
		  {
			"duration": 0.2727270000000033,
			"durationTicks": 240,
			"midi": 36,
			"name": "C2",
			"ticks": 72960,
			"time": 82.909008,
			"velocity": 0.6141732283464567
		  },
		  {
			"duration": 0.13636350000000164,
			"durationTicks": 120,
			"midi": 46,
			"name": "A#2",
			"ticks": 72960,
			"time": 82.909008,
			"velocity": 0.48031496062992124
		  },
		  {
			"duration": 0.13636350000000164,
			"durationTicks": 120,
			"midi": 40,
			"name": "E2",
			"ticks": 73200,
			"time": 83.181735,
			"velocity": 0.5354330708661418
		  },
		  {
			"duration": 0.2727270000000033,
			"durationTicks": 240,
			"midi": 36,
			"name": "C2",
			"ticks": 73440,
			"time": 83.45446199999999,
			"velocity": 0.6141732283464567
		  },
		  {
			"duration": 0.13636350000000164,
			"durationTicks": 120,
			"midi": 46,
			"name": "A#2",
			"ticks": 73440,
			"time": 83.45446199999999,
			"velocity": 0.48031496062992124
		  },
		  {
			"duration": 0.13636350000000164,
			"durationTicks": 120,
			"midi": 40,
			"name": "E2",
			"ticks": 73680,
			"time": 83.727189,
			"velocity": 0.5354330708661418
		  },
		  {
			"duration": 0.2727270000000033,
			"durationTicks": 240,
			"midi": 36,
			"name": "C2",
			"ticks": 73920,
			"time": 83.999916,
			"velocity": 0.6141732283464567
		  },
		  {
			"duration": 0.13636350000000164,
			"durationTicks": 120,
			"midi": 46,
			"name": "A#2",
			"ticks": 73920,
			"time": 83.999916,
			"velocity": 0.48031496062992124
		  },
		  {
			"duration": 0.13636350000000164,
			"durationTicks": 120,
			"midi": 40,
			"name": "E2",
			"ticks": 74160,
			"time": 84.272643,
			"velocity": 0.5354330708661418
		  },
		  {
			"duration": 0.27272699999998906,
			"durationTicks": 240,
			"midi": 36,
			"name": "C2",
			"ticks": 74400,
			"time": 84.54537,
			"velocity": 0.6141732283464567
		  },
		  {
			"duration": 0.13636349999998743,
			"durationTicks": 120,
			"midi": 46,
			"name": "A#2",
			"ticks": 74400,
			"time": 84.54537,
			"velocity": 0.48031496062992124
		  },
		  {
			"duration": 0.13636350000000164,
			"durationTicks": 120,
			"midi": 40,
			"name": "E2",
			"ticks": 74640,
			"time": 84.818097,
			"velocity": 0.5354330708661418
		  },
		  {
			"duration": 0.2727270000000033,
			"durationTicks": 240,
			"midi": 36,
			"name": "C2",
			"ticks": 74880,
			"time": 85.090824,
			"velocity": 0.6141732283464567
		  },
		  {
			"duration": 0.13636350000000164,
			"durationTicks": 120,
			"midi": 46,
			"name": "A#2",
			"ticks": 74880,
			"time": 85.090824,
			"velocity": 0.48031496062992124
		  },
		  {
			"duration": 0.13636350000000164,
			"durationTicks": 120,
			"midi": 40,
			"name": "E2",
			"ticks": 75120,
			"time": 85.363551,
			"velocity": 0.5354330708661418
		  },
		  {
			"duration": 0.27272699999998906,
			"durationTicks": 240,
			"midi": 36,
			"name": "C2",
			"ticks": 75360,
			"time": 85.636278,
			"velocity": 0.6141732283464567
		  },
		  {
			"duration": 0.13636350000000164,
			"durationTicks": 120,
			"midi": 46,
			"name": "A#2",
			"ticks": 75360,
			"time": 85.636278,
			"velocity": 0.48031496062992124
		  },
		  {
			"duration": 0.13636350000000164,
			"durationTicks": 120,
			"midi": 40,
			"name": "E2",
			"ticks": 75600,
			"time": 85.909005,
			"velocity": 0.5354330708661418
		  },
		  {
			"duration": 0.2727270000000033,
			"durationTicks": 240,
			"midi": 36,
			"name": "C2",
			"ticks": 75840,
			"time": 86.181732,
			"velocity": 0.6141732283464567
		  },
		  {
			"duration": 0.13636350000000164,
			"durationTicks": 120,
			"midi": 46,
			"name": "A#2",
			"ticks": 75840,
			"time": 86.181732,
			"velocity": 0.48031496062992124
		  },
		  {
			"duration": 0.13636350000000164,
			"durationTicks": 120,
			"midi": 40,
			"name": "E2",
			"ticks": 76080,
			"time": 86.454459,
			"velocity": 0.5354330708661418
		  },
		  {
			"duration": 0.27272699999998906,
			"durationTicks": 240,
			"midi": 36,
			"name": "C2",
			"ticks": 76320,
			"time": 86.727186,
			"velocity": 0.6141732283464567
		  },
		  {
			"duration": 0.13636350000000164,
			"durationTicks": 120,
			"midi": 46,
			"name": "A#2",
			"ticks": 76320,
			"time": 86.727186,
			"velocity": 0.48031496062992124
		  },
		  {
			"duration": 0.13636350000000164,
			"durationTicks": 120,
			"midi": 40,
			"name": "E2",
			"ticks": 76560,
			"time": 86.99991299999999,
			"velocity": 0.5354330708661418
		  },
		  {
			"duration": 0.2727270000000033,
			"durationTicks": 240,
			"midi": 36,
			"name": "C2",
			"ticks": 76800,
			"time": 87.27264,
			"velocity": 0.6141732283464567
		  },
		  {
			"duration": 0.13636350000000164,
			"durationTicks": 120,
			"midi": 46,
			"name": "A#2",
			"ticks": 76800,
			"time": 87.27264,
			"velocity": 0.48031496062992124
		  },
		  {
			"duration": 0.13636350000000164,
			"durationTicks": 120,
			"midi": 40,
			"name": "E2",
			"ticks": 77040,
			"time": 87.545367,
			"velocity": 0.5354330708661418
		  },
		  {
			"duration": 0.2727270000000033,
			"durationTicks": 240,
			"midi": 36,
			"name": "C2",
			"ticks": 77280,
			"time": 87.818094,
			"velocity": 0.6141732283464567
		  },
		  {
			"duration": 0.13636350000000164,
			"durationTicks": 120,
			"midi": 46,
			"name": "A#2",
			"ticks": 77280,
			"time": 87.818094,
			"velocity": 0.48031496062992124
		  },
		  {
			"duration": 0.13636349999998743,
			"durationTicks": 120,
			"midi": 40,
			"name": "E2",
			"ticks": 77520,
			"time": 88.090821,
			"velocity": 0.5354330708661418
		  },
		  {
			"duration": 0.2727270000000033,
			"durationTicks": 240,
			"midi": 36,
			"name": "C2",
			"ticks": 77760,
			"time": 88.363548,
			"velocity": 0.6141732283464567
		  },
		  {
			"duration": 0.13636350000000164,
			"durationTicks": 120,
			"midi": 46,
			"name": "A#2",
			"ticks": 77760,
			"time": 88.363548,
			"velocity": 0.48031496062992124
		  },
		  {
			"duration": 0.13636350000000164,
			"durationTicks": 120,
			"midi": 40,
			"name": "E2",
			"ticks": 78000,
			"time": 88.636275,
			"velocity": 0.5354330708661418
		  },
		  {
			"duration": 0.2727270000000033,
			"durationTicks": 240,
			"midi": 36,
			"name": "C2",
			"ticks": 78240,
			"time": 88.909002,
			"velocity": 0.6141732283464567
		  },
		  {
			"duration": 0.13636350000000164,
			"durationTicks": 120,
			"midi": 46,
			"name": "A#2",
			"ticks": 78240,
			"time": 88.909002,
			"velocity": 0.48031496062992124
		  },
		  {
			"duration": 0.13636350000000164,
			"durationTicks": 120,
			"midi": 40,
			"name": "E2",
			"ticks": 78480,
			"time": 89.181729,
			"velocity": 0.5354330708661418
		  },
		  {
			"duration": 0.2727270000000033,
			"durationTicks": 240,
			"midi": 36,
			"name": "C2",
			"ticks": 78720,
			"time": 89.454456,
			"velocity": 0.6141732283464567
		  },
		  {
			"duration": 0.13636350000000164,
			"durationTicks": 120,
			"midi": 46,
			"name": "A#2",
			"ticks": 78720,
			"time": 89.454456,
			"velocity": 0.48031496062992124
		  },
		  {
			"duration": 0.13636350000000164,
			"durationTicks": 120,
			"midi": 40,
			"name": "E2",
			"ticks": 78960,
			"time": 89.727183,
			"velocity": 0.5354330708661418
		  },
		  {
			"duration": 0.2727270000000033,
			"durationTicks": 240,
			"midi": 36,
			"name": "C2",
			"ticks": 79200,
			"time": 89.99991,
			"velocity": 0.6141732283464567
		  },
		  {
			"duration": 0.13636350000000164,
			"durationTicks": 120,
			"midi": 46,
			"name": "A#2",
			"ticks": 79200,
			"time": 89.99991,
			"velocity": 0.48031496062992124
		  },
		  {
			"duration": 0.13636350000000164,
			"durationTicks": 120,
			"midi": 40,
			"name": "E2",
			"ticks": 79440,
			"time": 90.272637,
			"velocity": 0.5354330708661418
		  },
		  {
			"duration": 0.2727270000000033,
			"durationTicks": 240,
			"midi": 36,
			"name": "C2",
			"ticks": 79680,
			"time": 90.54536399999999,
			"velocity": 0.6141732283464567
		  },
		  {
			"duration": 0.13636350000000164,
			"durationTicks": 120,
			"midi": 46,
			"name": "A#2",
			"ticks": 79680,
			"time": 90.54536399999999,
			"velocity": 0.48031496062992124
		  },
		  {
			"duration": 0.13636350000000164,
			"durationTicks": 120,
			"midi": 40,
			"name": "E2",
			"ticks": 79920,
			"time": 90.818091,
			"velocity": 0.5354330708661418
		  },
		  {
			"duration": 0.2727270000000033,
			"durationTicks": 240,
			"midi": 36,
			"name": "C2",
			"ticks": 80160,
			"time": 91.090818,
			"velocity": 0.6141732283464567
		  },
		  {
			"duration": 0.13636350000000164,
			"durationTicks": 120,
			"midi": 46,
			"name": "A#2",
			"ticks": 80160,
			"time": 91.090818,
			"velocity": 0.48031496062992124
		  },
		  {
			"duration": 0.13636350000000164,
			"durationTicks": 120,
			"midi": 40,
			"name": "E2",
			"ticks": 80400,
			"time": 91.363545,
			"velocity": 0.5354330708661418
		  },
		  {
			"duration": 0.27272699999998906,
			"durationTicks": 240,
			"midi": 36,
			"name": "C2",
			"ticks": 80640,
			"time": 91.636272,
			"velocity": 0.6141732283464567
		  },
		  {
			"duration": 0.13636349999998743,
			"durationTicks": 120,
			"midi": 46,
			"name": "A#2",
			"ticks": 80640,
			"time": 91.636272,
			"velocity": 0.48031496062992124
		  },
		  {
			"duration": 0.13636350000000164,
			"durationTicks": 120,
			"midi": 40,
			"name": "E2",
			"ticks": 80880,
			"time": 91.908999,
			"velocity": 0.5354330708661418
		  },
		  {
			"duration": 0.2727270000000033,
			"durationTicks": 240,
			"midi": 36,
			"name": "C2",
			"ticks": 81120,
			"time": 92.181726,
			"velocity": 0.6141732283464567
		  },
		  {
			"duration": 0.13636350000000164,
			"durationTicks": 120,
			"midi": 46,
			"name": "A#2",
			"ticks": 81120,
			"time": 92.181726,
			"velocity": 0.48031496062992124
		  },
		  {
			"duration": 0.13636350000000164,
			"durationTicks": 120,
			"midi": 40,
			"name": "E2",
			"ticks": 81360,
			"time": 92.454453,
			"velocity": 0.5354330708661418
		  },
		  {
			"duration": 0.27272699999998906,
			"durationTicks": 240,
			"midi": 36,
			"name": "C2",
			"ticks": 81600,
			"time": 92.72718,
			"velocity": 0.6141732283464567
		  },
		  {
			"duration": 0.13636350000000164,
			"durationTicks": 120,
			"midi": 46,
			"name": "A#2",
			"ticks": 81600,
			"time": 92.72718,
			"velocity": 0.48031496062992124
		  },
		  {
			"duration": 0.13636350000000164,
			"durationTicks": 120,
			"midi": 40,
			"name": "E2",
			"ticks": 81840,
			"time": 92.999907,
			"velocity": 0.5354330708661418
		  },
		  {
			"duration": 0.2727270000000033,
			"durationTicks": 240,
			"midi": 36,
			"name": "C2",
			"ticks": 82080,
			"time": 93.272634,
			"velocity": 0.6141732283464567
		  },
		  {
			"duration": 0.13636350000000164,
			"durationTicks": 120,
			"midi": 46,
			"name": "A#2",
			"ticks": 82080,
			"time": 93.272634,
			"velocity": 0.48031496062992124
		  },
		  {
			"duration": 0.13636350000000164,
			"durationTicks": 120,
			"midi": 40,
			"name": "E2",
			"ticks": 82320,
			"time": 93.545361,
			"velocity": 0.5354330708661418
		  },
		  {
			"duration": 0.27272699999998906,
			"durationTicks": 240,
			"midi": 36,
			"name": "C2",
			"ticks": 82560,
			"time": 93.818088,
			"velocity": 0.6141732283464567
		  },
		  {
			"duration": 0.13636350000000164,
			"durationTicks": 120,
			"midi": 46,
			"name": "A#2",
			"ticks": 82560,
			"time": 93.818088,
			"velocity": 0.48031496062992124
		  },
		  {
			"duration": 0.13636350000000164,
			"durationTicks": 120,
			"midi": 40,
			"name": "E2",
			"ticks": 82800,
			"time": 94.09081499999999,
			"velocity": 0.5354330708661418
		  },
		  {
			"duration": 0.2727270000000033,
			"durationTicks": 240,
			"midi": 36,
			"name": "C2",
			"ticks": 83040,
			"time": 94.363542,
			"velocity": 0.6141732283464567
		  },
		  {
			"duration": 0.13636350000000164,
			"durationTicks": 120,
			"midi": 46,
			"name": "A#2",
			"ticks": 83040,
			"time": 94.363542,
			"velocity": 0.48031496062992124
		  },
		  {
			"duration": 0.13636350000000164,
			"durationTicks": 120,
			"midi": 40,
			"name": "E2",
			"ticks": 83280,
			"time": 94.636269,
			"velocity": 0.5354330708661418
		  }
		]
	  },
	  {
		"channel": 0,
		"controlChanges": {
		  "0": [
			{
			  "number": 0,
			  "ticks": 605,
			  "time": 0.6874993125000001,
			  "value": 0
			}
		  ],
		  "32": [
			{
			  "number": 32,
			  "ticks": 610,
			  "time": 0.693181125,
			  "value": 0
			}
		  ]
		},
		"pitchBends": [],
		"instrument": {
		  "family": "piano",
		  "name": "acoustic grand piano",
		  "number": 0
		},
		"name": "",
		"notes": []
	  },
	  {
		"channel": 0,
		"controlChanges": {
		  "0": [
			{
			  "number": 0,
			  "ticks": 605,
			  "time": 0.6874993125000001,
			  "value": 0
			}
		  ],
		  "32": [
			{
			  "number": 32,
			  "ticks": 610,
			  "time": 0.693181125,
			  "value": 0
			}
		  ]
		},
		"pitchBends": [],
		"instrument": {
		  "family": "piano",
		  "name": "acoustic grand piano",
		  "number": 0
		},
		"name": "",
		"notes": []
	  },
	  {
		"channel": 0,
		"controlChanges": {
		  "0": [
			{
			  "number": 0,
			  "ticks": 605,
			  "time": 0.6874993125000001,
			  "value": 0
			}
		  ],
		  "32": [
			{
			  "number": 32,
			  "ticks": 610,
			  "time": 0.693181125,
			  "value": 0
			}
		  ]
		},
		"pitchBends": [],
		"instrument": {
		  "family": "piano",
		  "name": "acoustic grand piano",
		  "number": 0
		},
		"name": "",
		"notes": []
	  },
	  {
		"channel": 0,
		"controlChanges": {
		  "0": [
			{
			  "number": 0,
			  "ticks": 605,
			  "time": 0.6874993125000001,
			  "value": 0
			}
		  ],
		  "7": [
			{
			  "number": 7,
			  "ticks": 620,
			  "time": 0.70454475,
			  "value": 0.905511811023622
			}
		  ],
		  "10": [
			{
			  "number": 10,
			  "ticks": 625,
			  "time": 0.7102265624999999,
			  "value": 0.5039370078740157
			}
		  ],
		  "32": [
			{
			  "number": 32,
			  "ticks": 610,
			  "time": 0.693181125,
			  "value": 0
			}
		  ]
		},
		"pitchBends": [],
		"instrument": {
		  "family": "piano",
		  "name": "acoustic grand piano",
		  "number": 0
		},
		"name": "",
		"notes": []
	  },
	  {
		"channel": 0,
		"controlChanges": {
		  "0": [
			{
			  "number": 0,
			  "ticks": 605,
			  "time": 0.6874993125000001,
			  "value": 0
			}
		  ],
		  "7": [
			{
			  "number": 7,
			  "ticks": 620,
			  "time": 0.70454475,
			  "value": 0.905511811023622
			}
		  ],
		  "10": [
			{
			  "number": 10,
			  "ticks": 625,
			  "time": 0.7102265624999999,
			  "value": 0.5039370078740157
			}
		  ],
		  "32": [
			{
			  "number": 32,
			  "ticks": 610,
			  "time": 0.693181125,
			  "value": 0
			}
		  ]
		},
		"pitchBends": [],
		"instrument": {
		  "family": "piano",
		  "name": "acoustic grand piano",
		  "number": 0
		},
		"name": "",
		"notes": []
	  },
	  {
		"channel": 0,
		"controlChanges": {
		  "0": [
			{
			  "number": 0,
			  "ticks": 605,
			  "time": 0.6874993125000001,
			  "value": 0
			}
		  ],
		  "7": [
			{
			  "number": 7,
			  "ticks": 620,
			  "time": 0.70454475,
			  "value": 0.905511811023622
			}
		  ],
		  "10": [
			{
			  "number": 10,
			  "ticks": 625,
			  "time": 0.7102265624999999,
			  "value": 0.5039370078740157
			}
		  ],
		  "32": [
			{
			  "number": 32,
			  "ticks": 610,
			  "time": 0.693181125,
			  "value": 0
			}
		  ]
		},
		"pitchBends": [],
		"instrument": {
		  "family": "piano",
		  "name": "acoustic grand piano",
		  "number": 0
		},
		"name": "",
		"notes": []
	  },
	  {
		"channel": 0,
		"controlChanges": {
		  "7": [
			{
			  "number": 7,
			  "ticks": 620,
			  "time": 0.70454475,
			  "value": 0.8503937007874016
			}
		  ],
		  "10": [
			{
			  "number": 10,
			  "ticks": 625,
			  "time": 0.7102265624999999,
			  "value": 0.5039370078740157
			}
		  ]
		},
		"pitchBends": [],
		"instrument": {
		  "family": "guitar",
		  "name": "acoustic guitar (steel)",
		  "number": 25
		},
		"name": "",
		"notes": [
		  {
			"duration": 0.3681814499999998,
			"durationTicks": 324,
			"midi": 66,
			"name": "F#4",
			"ticks": 960,
			"time": 1.090908,
			"velocity": 1
		  },
		  {
			"duration": 0.12272715000000001,
			"durationTicks": 108,
			"midi": 68,
			"name": "G#4",
			"ticks": 1320,
			"time": 1.4999985,
			"velocity": 1
		  },
		  {
			"duration": 0.24545430000000001,
			"durationTicks": 216,
			"midi": 66,
			"name": "F#4",
			"ticks": 1440,
			"time": 1.636362,
			"velocity": 1
		  },
		  {
			"duration": 0.24545430000000024,
			"durationTicks": 216,
			"midi": 64,
			"name": "E4",
			"ticks": 1680,
			"time": 1.909089,
			"velocity": 1
		  },
		  {
			"duration": 0.24545430000000001,
			"durationTicks": 216,
			"midi": 66,
			"name": "F#4",
			"ticks": 1920,
			"time": 2.181816,
			"velocity": 1
		  },
		  {
			"duration": 0.24545430000000001,
			"durationTicks": 216,
			"midi": 68,
			"name": "G#4",
			"ticks": 2160,
			"time": 2.454543,
			"velocity": 1
		  },
		  {
			"duration": 0.24545430000000001,
			"durationTicks": 216,
			"midi": 69,
			"name": "A4",
			"ticks": 2400,
			"time": 2.72727,
			"velocity": 1
		  },
		  {
			"duration": 0.24545430000000001,
			"durationTicks": 216,
			"midi": 66,
			"name": "F#4",
			"ticks": 2640,
			"time": 2.999997,
			"velocity": 1
		  },
		  {
			"duration": 0.24545430000000001,
			"durationTicks": 216,
			"midi": 64,
			"name": "E4",
			"ticks": 2880,
			"time": 3.272724,
			"velocity": 1
		  },
		  {
			"duration": 0.24545430000000001,
			"durationTicks": 216,
			"midi": 69,
			"name": "A4",
			"ticks": 3120,
			"time": 3.545451,
			"velocity": 1
		  },
		  {
			"duration": 0.24545430000000001,
			"durationTicks": 216,
			"midi": 68,
			"name": "G#4",
			"ticks": 3360,
			"time": 3.818178,
			"velocity": 1
		  },
		  {
			"duration": 0.24545429999999957,
			"durationTicks": 216,
			"midi": 71,
			"name": "B4",
			"ticks": 3600,
			"time": 4.090905,
			"velocity": 1
		  },
		  {
			"duration": 0.7363628999999996,
			"durationTicks": 648,
			"midi": 69,
			"name": "A4",
			"ticks": 3840,
			"time": 4.363632,
			"velocity": 1
		  }
		]
	  },
	  {
		"channel": 10,
		"controlChanges": {
		  "7": [
			{
			  "number": 7,
			  "ticks": 620,
			  "time": 0.70454475,
			  "value": 1
			}
		  ],
		  "10": [
			{
			  "number": 10,
			  "ticks": 625,
			  "time": 0.7102265624999999,
			  "value": 0.49606299212598426
			}
		  ],
		  "91": [
			{
			  "number": 91,
			  "ticks": 960,
			  "time": 1.090908,
			  "value": 0.07874015748031496
			}
		  ]
		},
		"pitchBends": [
		  {
			"ticks": 960,
			"time": 1.090908,
			"value": -0.0155029296875
		  },
		  {
			"ticks": 2880,
			"time": 3.272724,
			"value": -0.0155029296875
		  },
		  {
			"ticks": 3840,
			"time": 4.363632,
			"value": -0.0155029296875
		  },
		  {
			"ticks": 4800,
			"time": 5.45454,
			"value": -0.0155029296875
		  },
		  {
			"ticks": 6720,
			"time": 7.636356,
			"value": -0.0155029296875
		  },
		  {
			"ticks": 8640,
			"time": 9.818172,
			"value": -0.0155029296875
		  },
		  {
			"ticks": 10560,
			"time": 11.999988,
			"value": -0.0155029296875
		  },
		  {
			"ticks": 12480,
			"time": 14.181804,
			"value": -0.0155029296875
		  },
		  {
			"ticks": 14400,
			"time": 16.36362,
			"value": -0.0155029296875
		  },
		  {
			"ticks": 16320,
			"time": 18.545436,
			"value": -0.0155029296875
		  },
		  {
			"ticks": 18240,
			"time": 20.727252,
			"value": -0.0155029296875
		  },
		  {
			"ticks": 20160,
			"time": 22.909068,
			"value": -0.0155029296875
		  },
		  {
			"ticks": 22080,
			"time": 25.090884,
			"value": -0.0155029296875
		  },
		  {
			"ticks": 24000,
			"time": 27.2727,
			"value": -0.0155029296875
		  },
		  {
			"ticks": 25920,
			"time": 29.454515999999998,
			"value": -0.0155029296875
		  },
		  {
			"ticks": 27840,
			"time": 31.636332,
			"value": -0.0155029296875
		  },
		  {
			"ticks": 29760,
			"time": 33.818148,
			"value": -0.0155029296875
		  },
		  {
			"ticks": 31680,
			"time": 35.999964,
			"value": -0.0155029296875
		  },
		  {
			"ticks": 33600,
			"time": 38.181779999999996,
			"value": -0.0155029296875
		  },
		  {
			"ticks": 35520,
			"time": 40.363596,
			"value": -0.0155029296875
		  },
		  {
			"ticks": 37440,
			"time": 42.545412,
			"value": -0.0155029296875
		  },
		  {
			"ticks": 39360,
			"time": 44.727228,
			"value": -0.0155029296875
		  },
		  {
			"ticks": 41280,
			"time": 46.909044,
			"value": -0.0155029296875
		  },
		  {
			"ticks": 43200,
			"time": 49.09086,
			"value": -0.0155029296875
		  },
		  {
			"ticks": 45120,
			"time": 51.272676,
			"value": -0.0155029296875
		  },
		  {
			"ticks": 47040,
			"time": 53.454492,
			"value": -0.0155029296875
		  },
		  {
			"ticks": 48960,
			"time": 55.636308,
			"value": -0.0155029296875
		  },
		  {
			"ticks": 50880,
			"time": 57.818124,
			"value": -0.0155029296875
		  },
		  {
			"ticks": 52800,
			"time": 59.99994,
			"value": -0.0155029296875
		  },
		  {
			"ticks": 54720,
			"time": 62.181756,
			"value": -0.0155029296875
		  },
		  {
			"ticks": 56640,
			"time": 64.363572,
			"value": -0.0155029296875
		  },
		  {
			"ticks": 58560,
			"time": 66.545388,
			"value": -0.0155029296875
		  },
		  {
			"ticks": 60480,
			"time": 68.727204,
			"value": -0.0155029296875
		  },
		  {
			"ticks": 62400,
			"time": 70.90902,
			"value": -0.0155029296875
		  },
		  {
			"ticks": 64320,
			"time": 73.090836,
			"value": -0.0155029296875
		  },
		  {
			"ticks": 66240,
			"time": 75.272652,
			"value": -0.0155029296875
		  },
		  {
			"ticks": 68160,
			"time": 77.454468,
			"value": -0.0155029296875
		  },
		  {
			"ticks": 70080,
			"time": 79.636284,
			"value": -0.0155029296875
		  },
		  {
			"ticks": 72000,
			"time": 81.8181,
			"value": -0.0155029296875
		  },
		  {
			"ticks": 73920,
			"time": 83.999916,
			"value": -0.0155029296875
		  },
		  {
			"ticks": 75840,
			"time": 86.181732,
			"value": -0.0155029296875
		  },
		  {
			"ticks": 77760,
			"time": 88.363548,
			"value": -0.0155029296875
		  },
		  {
			"ticks": 79680,
			"time": 90.54536399999999,
			"value": -0.0155029296875
		  },
		  {
			"ticks": 81600,
			"time": 92.72718,
			"value": -0.0155029296875
		  }
		],
		"instrument": {
		  "family": "bass",
		  "name": "acoustic bass",
		  "number": 32
		},
		"name": "",
		"notes": [
		  {
			"duration": 0.27272699999999994,
			"durationTicks": 240,
			"midi": 38,
			"name": "D2",
			"ticks": 960,
			"time": 1.090908,
			"velocity": 0.6141732283464567
		  },
		  {
			"duration": 0.27272699999999994,
			"durationTicks": 240,
			"midi": 33,
			"name": "A1",
			"ticks": 1440,
			"time": 1.636362,
			"velocity": 0.6141732283464567
		  },
		  {
			"duration": 0.27272700000000016,
			"durationTicks": 240,
			"midi": 38,
			"name": "D2",
			"ticks": 1920,
			"time": 2.181816,
			"velocity": 0.6141732283464567
		  },
		  {
			"duration": 0.27272700000000016,
			"durationTicks": 240,
			"midi": 33,
			"name": "A1",
			"ticks": 2400,
			"time": 2.72727,
			"velocity": 0.6141732283464567
		  },
		  {
			"duration": 0.2727269999999997,
			"durationTicks": 240,
			"midi": 33,
			"name": "A1",
			"ticks": 2880,
			"time": 3.272724,
			"velocity": 0.6141732283464567
		  },
		  {
			"duration": 0.27272700000000016,
			"durationTicks": 240,
			"midi": 28,
			"name": "E1",
			"ticks": 3360,
			"time": 3.818178,
			"velocity": 0.6141732283464567
		  },
		  {
			"duration": 0.2727269999999997,
			"durationTicks": 240,
			"midi": 33,
			"name": "A1",
			"ticks": 3840,
			"time": 4.363632,
			"velocity": 0.6141732283464567
		  },
		  {
			"duration": 0.2727269999999997,
			"durationTicks": 240,
			"midi": 28,
			"name": "E1",
			"ticks": 4320,
			"time": 4.909086,
			"velocity": 0.6141732283464567
		  },
		  {
			"duration": 0.2727270000000006,
			"durationTicks": 240,
			"midi": 33,
			"name": "A1",
			"ticks": 4800,
			"time": 5.45454,
			"velocity": 0.6141732283464567
		  },
		  {
			"duration": 0.2727269999999997,
			"durationTicks": 240,
			"midi": 28,
			"name": "E1",
			"ticks": 5280,
			"time": 5.999994,
			"velocity": 0.6141732283464567
		  },
		  {
			"duration": 0.2727269999999997,
			"durationTicks": 240,
			"midi": 33,
			"name": "A1",
			"ticks": 5760,
			"time": 6.545448,
			"velocity": 0.6141732283464567
		  },
		  {
			"duration": 0.2727269999999997,
			"durationTicks": 240,
			"midi": 28,
			"name": "E1",
			"ticks": 6240,
			"time": 7.090902,
			"velocity": 0.6141732283464567
		  },
		  {
			"duration": 0.2727269999999997,
			"durationTicks": 240,
			"midi": 33,
			"name": "A1",
			"ticks": 6720,
			"time": 7.636356,
			"velocity": 0.6141732283464567
		  },
		  {
			"duration": 0.2727269999999997,
			"durationTicks": 240,
			"midi": 28,
			"name": "E1",
			"ticks": 7200,
			"time": 8.18181,
			"velocity": 0.6141732283464567
		  },
		  {
			"duration": 0.2727269999999997,
			"durationTicks": 240,
			"midi": 33,
			"name": "A1",
			"ticks": 7680,
			"time": 8.727264,
			"velocity": 0.6141732283464567
		  },
		  {
			"duration": 0.2727269999999997,
			"durationTicks": 240,
			"midi": 28,
			"name": "E1",
			"ticks": 8160,
			"time": 9.272718,
			"velocity": 0.6141732283464567
		  },
		  {
			"duration": 0.2727269999999997,
			"durationTicks": 240,
			"midi": 33,
			"name": "A1",
			"ticks": 8640,
			"time": 9.818172,
			"velocity": 0.6141732283464567
		  },
		  {
			"duration": 0.2727269999999997,
			"durationTicks": 240,
			"midi": 28,
			"name": "E1",
			"ticks": 9120,
			"time": 10.363626,
			"velocity": 0.6141732283464567
		  },
		  {
			"duration": 0.2727269999999997,
			"durationTicks": 240,
			"midi": 38,
			"name": "D2",
			"ticks": 9600,
			"time": 10.90908,
			"velocity": 0.6141732283464567
		  },
		  {
			"duration": 0.2727269999999997,
			"durationTicks": 240,
			"midi": 33,
			"name": "A1",
			"ticks": 10080,
			"time": 11.454534,
			"velocity": 0.6141732283464567
		  },
		  {
			"duration": 0.2727269999999997,
			"durationTicks": 240,
			"midi": 28,
			"name": "E1",
			"ticks": 10560,
			"time": 11.999988,
			"velocity": 0.6141732283464567
		  },
		  {
			"duration": 0.2727269999999997,
			"durationTicks": 240,
			"midi": 35,
			"name": "B1",
			"ticks": 11040,
			"time": 12.545442,
			"velocity": 0.6141732283464567
		  },
		  {
			"duration": 0.2727269999999997,
			"durationTicks": 240,
			"midi": 33,
			"name": "A1",
			"ticks": 11520,
			"time": 13.090896,
			"velocity": 0.6141732283464567
		  },
		  {
			"duration": 0.2727269999999997,
			"durationTicks": 240,
			"midi": 28,
			"name": "E1",
			"ticks": 12000,
			"time": 13.63635,
			"velocity": 0.6141732283464567
		  },
		  {
			"duration": 0.2727269999999997,
			"durationTicks": 240,
			"midi": 38,
			"name": "D2",
			"ticks": 12480,
			"time": 14.181804,
			"velocity": 0.6141732283464567
		  },
		  {
			"duration": 0.2727270000000015,
			"durationTicks": 240,
			"midi": 33,
			"name": "A1",
			"ticks": 12960,
			"time": 14.727257999999999,
			"velocity": 0.6141732283464567
		  },
		  {
			"duration": 0.2727269999999997,
			"durationTicks": 240,
			"midi": 38,
			"name": "D2",
			"ticks": 13440,
			"time": 15.272712,
			"velocity": 0.6141732283464567
		  },
		  {
			"duration": 0.2727270000000015,
			"durationTicks": 240,
			"midi": 33,
			"name": "A1",
			"ticks": 13920,
			"time": 15.818166,
			"velocity": 0.6141732283464567
		  },
		  {
			"duration": 0.2727269999999997,
			"durationTicks": 240,
			"midi": 33,
			"name": "A1",
			"ticks": 14400,
			"time": 16.36362,
			"velocity": 0.6141732283464567
		  },
		  {
			"duration": 0.2727269999999997,
			"durationTicks": 240,
			"midi": 28,
			"name": "E1",
			"ticks": 14880,
			"time": 16.909074,
			"velocity": 0.6141732283464567
		  },
		  {
			"duration": 0.2727269999999997,
			"durationTicks": 240,
			"midi": 33,
			"name": "A1",
			"ticks": 15360,
			"time": 17.454528,
			"velocity": 0.6141732283464567
		  },
		  {
			"duration": 0.2727269999999997,
			"durationTicks": 240,
			"midi": 28,
			"name": "E1",
			"ticks": 15840,
			"time": 17.999982,
			"velocity": 0.6141732283464567
		  },
		  {
			"duration": 0.2727269999999997,
			"durationTicks": 240,
			"midi": 38,
			"name": "D2",
			"ticks": 16320,
			"time": 18.545436,
			"velocity": 0.6141732283464567
		  },
		  {
			"duration": 0.2727270000000033,
			"durationTicks": 240,
			"midi": 33,
			"name": "A1",
			"ticks": 16800,
			"time": 19.090889999999998,
			"velocity": 0.6141732283464567
		  },
		  {
			"duration": 0.2727269999999997,
			"durationTicks": 240,
			"midi": 38,
			"name": "D2",
			"ticks": 17280,
			"time": 19.636344,
			"velocity": 0.6141732283464567
		  },
		  {
			"duration": 0.2727269999999997,
			"durationTicks": 240,
			"midi": 33,
			"name": "A1",
			"ticks": 17760,
			"time": 20.181798,
			"velocity": 0.6141732283464567
		  },
		  {
			"duration": 0.2727269999999997,
			"durationTicks": 240,
			"midi": 33,
			"name": "A1",
			"ticks": 18240,
			"time": 20.727252,
			"velocity": 0.6141732283464567
		  },
		  {
			"duration": 0.2727269999999997,
			"durationTicks": 240,
			"midi": 28,
			"name": "E1",
			"ticks": 18720,
			"time": 21.272706,
			"velocity": 0.6141732283464567
		  },
		  {
			"duration": 0.2727269999999997,
			"durationTicks": 240,
			"midi": 33,
			"name": "A1",
			"ticks": 19200,
			"time": 21.81816,
			"velocity": 0.6141732283464567
		  },
		  {
			"duration": 0.2727269999999997,
			"durationTicks": 240,
			"midi": 28,
			"name": "E1",
			"ticks": 19680,
			"time": 22.363614,
			"velocity": 0.6141732283464567
		  },
		  {
			"duration": 0.2727269999999997,
			"durationTicks": 240,
			"midi": 33,
			"name": "A1",
			"ticks": 20160,
			"time": 22.909068,
			"velocity": 0.6141732283464567
		  },
		  {
			"duration": 0.2727269999999997,
			"durationTicks": 240,
			"midi": 28,
			"name": "E1",
			"ticks": 20640,
			"time": 23.454522,
			"velocity": 0.6141732283464567
		  },
		  {
			"duration": 0.2727269999999997,
			"durationTicks": 240,
			"midi": 33,
			"name": "A1",
			"ticks": 21120,
			"time": 23.999976,
			"velocity": 0.6141732283464567
		  },
		  {
			"duration": 0.2727269999999997,
			"durationTicks": 240,
			"midi": 28,
			"name": "E1",
			"ticks": 21600,
			"time": 24.54543,
			"velocity": 0.6141732283464567
		  },
		  {
			"duration": 0.2727269999999997,
			"durationTicks": 240,
			"midi": 33,
			"name": "A1",
			"ticks": 22080,
			"time": 25.090884,
			"velocity": 0.6141732283464567
		  },
		  {
			"duration": 0.2727269999999997,
			"durationTicks": 240,
			"midi": 28,
			"name": "E1",
			"ticks": 22560,
			"time": 25.636338,
			"velocity": 0.6141732283464567
		  },
		  {
			"duration": 0.2727269999999997,
			"durationTicks": 240,
			"midi": 33,
			"name": "A1",
			"ticks": 23040,
			"time": 26.181792,
			"velocity": 0.6141732283464567
		  },
		  {
			"duration": 0.2727269999999997,
			"durationTicks": 240,
			"midi": 28,
			"name": "E1",
			"ticks": 23520,
			"time": 26.727246,
			"velocity": 0.6141732283464567
		  },
		  {
			"duration": 0.2727269999999997,
			"durationTicks": 240,
			"midi": 33,
			"name": "A1",
			"ticks": 24000,
			"time": 27.2727,
			"velocity": 0.6141732283464567
		  },
		  {
			"duration": 0.2727269999999997,
			"durationTicks": 240,
			"midi": 28,
			"name": "E1",
			"ticks": 24480,
			"time": 27.818154,
			"velocity": 0.6141732283464567
		  },
		  {
			"duration": 0.2727269999999997,
			"durationTicks": 240,
			"midi": 38,
			"name": "D2",
			"ticks": 24960,
			"time": 28.363608,
			"velocity": 0.6141732283464567
		  },
		  {
			"duration": 0.2727269999999997,
			"durationTicks": 240,
			"midi": 33,
			"name": "A1",
			"ticks": 25440,
			"time": 28.909062,
			"velocity": 0.6141732283464567
		  },
		  {
			"duration": 0.2727270000000033,
			"durationTicks": 240,
			"midi": 28,
			"name": "E1",
			"ticks": 25920,
			"time": 29.454515999999998,
			"velocity": 0.6141732283464567
		  },
		  {
			"duration": 0.2727269999999997,
			"durationTicks": 240,
			"midi": 35,
			"name": "B1",
			"ticks": 26400,
			"time": 29.99997,
			"velocity": 0.6141732283464567
		  },
		  {
			"duration": 0.2727269999999997,
			"durationTicks": 240,
			"midi": 33,
			"name": "A1",
			"ticks": 26880,
			"time": 30.545424,
			"velocity": 0.6141732283464567
		  },
		  {
			"duration": 0.2727269999999997,
			"durationTicks": 240,
			"midi": 28,
			"name": "E1",
			"ticks": 27360,
			"time": 31.090878,
			"velocity": 0.6141732283464567
		  },
		  {
			"duration": 0.2727269999999997,
			"durationTicks": 240,
			"midi": 38,
			"name": "D2",
			"ticks": 27840,
			"time": 31.636332,
			"velocity": 0.6141732283464567
		  },
		  {
			"duration": 0.27272699999999617,
			"durationTicks": 240,
			"midi": 33,
			"name": "A1",
			"ticks": 28320,
			"time": 32.181786,
			"velocity": 0.6141732283464567
		  },
		  {
			"duration": 0.27272699999999617,
			"durationTicks": 240,
			"midi": 38,
			"name": "D2",
			"ticks": 28800,
			"time": 32.72724,
			"velocity": 0.6141732283464567
		  },
		  {
			"duration": 0.27272699999999617,
			"durationTicks": 240,
			"midi": 33,
			"name": "A1",
			"ticks": 29280,
			"time": 33.272694,
			"velocity": 0.6141732283464567
		  },
		  {
			"duration": 0.27272699999999617,
			"durationTicks": 240,
			"midi": 33,
			"name": "A1",
			"ticks": 29760,
			"time": 33.818148,
			"velocity": 0.6141732283464567
		  },
		  {
			"duration": 0.27272699999999617,
			"durationTicks": 240,
			"midi": 28,
			"name": "E1",
			"ticks": 30240,
			"time": 34.363602,
			"velocity": 0.6141732283464567
		  },
		  {
			"duration": 0.2727270000000033,
			"durationTicks": 240,
			"midi": 33,
			"name": "A1",
			"ticks": 30720,
			"time": 34.909056,
			"velocity": 0.6141732283464567
		  },
		  {
			"duration": 0.2727270000000033,
			"durationTicks": 240,
			"midi": 28,
			"name": "E1",
			"ticks": 31200,
			"time": 35.45451,
			"velocity": 0.6141732283464567
		  },
		  {
			"duration": 0.2727270000000033,
			"durationTicks": 240,
			"midi": 38,
			"name": "D2",
			"ticks": 31680,
			"time": 35.999964,
			"velocity": 0.6141732283464567
		  },
		  {
			"duration": 0.2727270000000033,
			"durationTicks": 240,
			"midi": 33,
			"name": "A1",
			"ticks": 32160,
			"time": 36.545418,
			"velocity": 0.6141732283464567
		  },
		  {
			"duration": 0.2727270000000033,
			"durationTicks": 240,
			"midi": 38,
			"name": "D2",
			"ticks": 32640,
			"time": 37.090872,
			"velocity": 0.6141732283464567
		  },
		  {
			"duration": 0.2727270000000033,
			"durationTicks": 240,
			"midi": 33,
			"name": "A1",
			"ticks": 33120,
			"time": 37.636326,
			"velocity": 0.6141732283464567
		  },
		  {
			"duration": 0.2727270000000033,
			"durationTicks": 240,
			"midi": 33,
			"name": "A1",
			"ticks": 33600,
			"time": 38.181779999999996,
			"velocity": 0.6141732283464567
		  },
		  {
			"duration": 0.27272699999999617,
			"durationTicks": 240,
			"midi": 28,
			"name": "E1",
			"ticks": 34080,
			"time": 38.727234,
			"velocity": 0.6141732283464567
		  },
		  {
			"duration": 0.27272699999999617,
			"durationTicks": 240,
			"midi": 33,
			"name": "A1",
			"ticks": 34560,
			"time": 39.272688,
			"velocity": 0.6141732283464567
		  },
		  {
			"duration": 0.27272699999999617,
			"durationTicks": 240,
			"midi": 28,
			"name": "E1",
			"ticks": 35040,
			"time": 39.818142,
			"velocity": 0.6141732283464567
		  },
		  {
			"duration": 0.27272699999999617,
			"durationTicks": 240,
			"midi": 33,
			"name": "A1",
			"ticks": 35520,
			"time": 40.363596,
			"velocity": 0.6141732283464567
		  },
		  {
			"duration": 0.27272699999999617,
			"durationTicks": 240,
			"midi": 28,
			"name": "E1",
			"ticks": 36000,
			"time": 40.90905,
			"velocity": 0.6141732283464567
		  },
		  {
			"duration": 0.27272699999999617,
			"durationTicks": 240,
			"midi": 33,
			"name": "A1",
			"ticks": 36480,
			"time": 41.454504,
			"velocity": 0.6141732283464567
		  },
		  {
			"duration": 0.2727270000000033,
			"durationTicks": 240,
			"midi": 28,
			"name": "E1",
			"ticks": 36960,
			"time": 41.999958,
			"velocity": 0.6141732283464567
		  },
		  {
			"duration": 0.2727270000000033,
			"durationTicks": 240,
			"midi": 33,
			"name": "A1",
			"ticks": 37440,
			"time": 42.545412,
			"velocity": 0.6141732283464567
		  },
		  {
			"duration": 0.2727270000000033,
			"durationTicks": 240,
			"midi": 28,
			"name": "E1",
			"ticks": 37920,
			"time": 43.090866,
			"velocity": 0.6141732283464567
		  },
		  {
			"duration": 0.2727270000000033,
			"durationTicks": 240,
			"midi": 33,
			"name": "A1",
			"ticks": 38400,
			"time": 43.63632,
			"velocity": 0.6141732283464567
		  },
		  {
			"duration": 0.2727270000000033,
			"durationTicks": 240,
			"midi": 28,
			"name": "E1",
			"ticks": 38880,
			"time": 44.181774,
			"velocity": 0.6141732283464567
		  },
		  {
			"duration": 0.2727270000000033,
			"durationTicks": 240,
			"midi": 33,
			"name": "A1",
			"ticks": 39360,
			"time": 44.727228,
			"velocity": 0.6141732283464567
		  },
		  {
			"duration": 0.2727270000000033,
			"durationTicks": 240,
			"midi": 28,
			"name": "E1",
			"ticks": 39840,
			"time": 45.272681999999996,
			"velocity": 0.6141732283464567
		  },
		  {
			"duration": 0.27272699999999617,
			"durationTicks": 240,
			"midi": 38,
			"name": "D2",
			"ticks": 40320,
			"time": 45.818136,
			"velocity": 0.6141732283464567
		  },
		  {
			"duration": 0.27272699999999617,
			"durationTicks": 240,
			"midi": 33,
			"name": "A1",
			"ticks": 40800,
			"time": 46.36359,
			"velocity": 0.6141732283464567
		  },
		  {
			"duration": 0.27272699999999617,
			"durationTicks": 240,
			"midi": 28,
			"name": "E1",
			"ticks": 41280,
			"time": 46.909044,
			"velocity": 0.6141732283464567
		  },
		  {
			"duration": 0.27272699999999617,
			"durationTicks": 240,
			"midi": 35,
			"name": "B1",
			"ticks": 41760,
			"time": 47.454498,
			"velocity": 0.6141732283464567
		  },
		  {
			"duration": 0.27272699999999617,
			"durationTicks": 240,
			"midi": 33,
			"name": "A1",
			"ticks": 42240,
			"time": 47.999952,
			"velocity": 0.6141732283464567
		  },
		  {
			"duration": 0.27272699999999617,
			"durationTicks": 240,
			"midi": 28,
			"name": "E1",
			"ticks": 42720,
			"time": 48.545406,
			"velocity": 0.6141732283464567
		  },
		  {
			"duration": 0.2727270000000033,
			"durationTicks": 240,
			"midi": 38,
			"name": "D2",
			"ticks": 43200,
			"time": 49.09086,
			"velocity": 0.6141732283464567
		  },
		  {
			"duration": 0.2727270000000033,
			"durationTicks": 240,
			"midi": 33,
			"name": "A1",
			"ticks": 43680,
			"time": 49.636314,
			"velocity": 0.6141732283464567
		  },
		  {
			"duration": 0.2727270000000033,
			"durationTicks": 240,
			"midi": 38,
			"name": "D2",
			"ticks": 44160,
			"time": 50.181768,
			"velocity": 0.6141732283464567
		  },
		  {
			"duration": 0.2727270000000033,
			"durationTicks": 240,
			"midi": 33,
			"name": "A1",
			"ticks": 44640,
			"time": 50.727222,
			"velocity": 0.6141732283464567
		  },
		  {
			"duration": 0.2727270000000033,
			"durationTicks": 240,
			"midi": 33,
			"name": "A1",
			"ticks": 45120,
			"time": 51.272676,
			"velocity": 0.6141732283464567
		  },
		  {
			"duration": 0.2727270000000033,
			"durationTicks": 240,
			"midi": 28,
			"name": "E1",
			"ticks": 45600,
			"time": 51.81813,
			"velocity": 0.6141732283464567
		  },
		  {
			"duration": 0.27272699999999617,
			"durationTicks": 240,
			"midi": 33,
			"name": "A1",
			"ticks": 46080,
			"time": 52.363584,
			"velocity": 0.6141732283464567
		  },
		  {
			"duration": 0.27272699999999617,
			"durationTicks": 240,
			"midi": 28,
			"name": "E1",
			"ticks": 46560,
			"time": 52.909038,
			"velocity": 0.6141732283464567
		  },
		  {
			"duration": 0.27272699999999617,
			"durationTicks": 240,
			"midi": 38,
			"name": "D2",
			"ticks": 47040,
			"time": 53.454492,
			"velocity": 0.6141732283464567
		  },
		  {
			"duration": 0.27272699999999617,
			"durationTicks": 240,
			"midi": 33,
			"name": "A1",
			"ticks": 47520,
			"time": 53.999946,
			"velocity": 0.6141732283464567
		  },
		  {
			"duration": 0.27272699999999617,
			"durationTicks": 240,
			"midi": 38,
			"name": "D2",
			"ticks": 48000,
			"time": 54.5454,
			"velocity": 0.6141732283464567
		  },
		  {
			"duration": 0.27272699999999617,
			"durationTicks": 240,
			"midi": 33,
			"name": "A1",
			"ticks": 48480,
			"time": 55.090854,
			"velocity": 0.6141732283464567
		  },
		  {
			"duration": 0.2727270000000033,
			"durationTicks": 240,
			"midi": 33,
			"name": "A1",
			"ticks": 48960,
			"time": 55.636308,
			"velocity": 0.6141732283464567
		  },
		  {
			"duration": 0.2727270000000033,
			"durationTicks": 240,
			"midi": 28,
			"name": "E1",
			"ticks": 49440,
			"time": 56.181762,
			"velocity": 0.6141732283464567
		  },
		  {
			"duration": 0.2727270000000033,
			"durationTicks": 240,
			"midi": 33,
			"name": "A1",
			"ticks": 49920,
			"time": 56.727216,
			"velocity": 0.6141732283464567
		  },
		  {
			"duration": 0.2727270000000033,
			"durationTicks": 240,
			"midi": 28,
			"name": "E1",
			"ticks": 50400,
			"time": 57.27267,
			"velocity": 0.6141732283464567
		  },
		  {
			"duration": 0.2727270000000033,
			"durationTicks": 240,
			"midi": 33,
			"name": "A1",
			"ticks": 50880,
			"time": 57.818124,
			"velocity": 0.6141732283464567
		  },
		  {
			"duration": 0.2727270000000033,
			"durationTicks": 240,
			"midi": 28,
			"name": "E1",
			"ticks": 51360,
			"time": 58.363578,
			"velocity": 0.6141732283464567
		  },
		  {
			"duration": 0.2727270000000033,
			"durationTicks": 240,
			"midi": 33,
			"name": "A1",
			"ticks": 51840,
			"time": 58.909031999999996,
			"velocity": 0.6141732283464567
		  },
		  {
			"duration": 0.27272699999999617,
			"durationTicks": 240,
			"midi": 28,
			"name": "E1",
			"ticks": 52320,
			"time": 59.454486,
			"velocity": 0.6141732283464567
		  },
		  {
			"duration": 0.27272699999999617,
			"durationTicks": 240,
			"midi": 33,
			"name": "A1",
			"ticks": 52800,
			"time": 59.99994,
			"velocity": 0.6141732283464567
		  },
		  {
			"duration": 0.27272699999999617,
			"durationTicks": 240,
			"midi": 28,
			"name": "E1",
			"ticks": 53280,
			"time": 60.545394,
			"velocity": 0.6141732283464567
		  },
		  {
			"duration": 0.27272699999999617,
			"durationTicks": 240,
			"midi": 33,
			"name": "A1",
			"ticks": 53760,
			"time": 61.090848,
			"velocity": 0.6141732283464567
		  },
		  {
			"duration": 0.27272699999999617,
			"durationTicks": 240,
			"midi": 28,
			"name": "E1",
			"ticks": 54240,
			"time": 61.636302,
			"velocity": 0.6141732283464567
		  },
		  {
			"duration": 0.27272699999999617,
			"durationTicks": 240,
			"midi": 33,
			"name": "A1",
			"ticks": 54720,
			"time": 62.181756,
			"velocity": 0.6141732283464567
		  },
		  {
			"duration": 0.2727270000000033,
			"durationTicks": 240,
			"midi": 28,
			"name": "E1",
			"ticks": 55200,
			"time": 62.72721,
			"velocity": 0.6141732283464567
		  },
		  {
			"duration": 0.2727270000000033,
			"durationTicks": 240,
			"midi": 38,
			"name": "D2",
			"ticks": 55680,
			"time": 63.272664,
			"velocity": 0.6141732283464567
		  },
		  {
			"duration": 0.2727270000000033,
			"durationTicks": 240,
			"midi": 33,
			"name": "A1",
			"ticks": 56160,
			"time": 63.818118,
			"velocity": 0.6141732283464567
		  },
		  {
			"duration": 0.27272699999998906,
			"durationTicks": 240,
			"midi": 28,
			"name": "E1",
			"ticks": 56640,
			"time": 64.363572,
			"velocity": 0.6141732283464567
		  },
		  {
			"duration": 0.2727270000000033,
			"durationTicks": 240,
			"midi": 35,
			"name": "B1",
			"ticks": 57120,
			"time": 64.909026,
			"velocity": 0.6141732283464567
		  },
		  {
			"duration": 0.27272699999998906,
			"durationTicks": 240,
			"midi": 33,
			"name": "A1",
			"ticks": 57600,
			"time": 65.45448,
			"velocity": 0.6141732283464567
		  },
		  {
			"duration": 0.2727270000000033,
			"durationTicks": 240,
			"midi": 28,
			"name": "E1",
			"ticks": 58080,
			"time": 65.999934,
			"velocity": 0.6141732283464567
		  },
		  {
			"duration": 0.2727270000000033,
			"durationTicks": 240,
			"midi": 38,
			"name": "D2",
			"ticks": 58560,
			"time": 66.545388,
			"velocity": 0.6141732283464567
		  },
		  {
			"duration": 0.2727270000000033,
			"durationTicks": 240,
			"midi": 33,
			"name": "A1",
			"ticks": 59040,
			"time": 67.090842,
			"velocity": 0.6141732283464567
		  },
		  {
			"duration": 0.2727270000000033,
			"durationTicks": 240,
			"midi": 38,
			"name": "D2",
			"ticks": 59520,
			"time": 67.636296,
			"velocity": 0.6141732283464567
		  },
		  {
			"duration": 0.2727270000000033,
			"durationTicks": 240,
			"midi": 33,
			"name": "A1",
			"ticks": 60000,
			"time": 68.18175,
			"velocity": 0.6141732283464567
		  },
		  {
			"duration": 0.2727270000000033,
			"durationTicks": 240,
			"midi": 33,
			"name": "A1",
			"ticks": 60480,
			"time": 68.727204,
			"velocity": 0.6141732283464567
		  },
		  {
			"duration": 0.2727270000000033,
			"durationTicks": 240,
			"midi": 28,
			"name": "E1",
			"ticks": 60960,
			"time": 69.27265799999999,
			"velocity": 0.6141732283464567
		  },
		  {
			"duration": 0.2727270000000033,
			"durationTicks": 240,
			"midi": 33,
			"name": "A1",
			"ticks": 61440,
			"time": 69.818112,
			"velocity": 0.6141732283464567
		  },
		  {
			"duration": 0.27272699999998906,
			"durationTicks": 240,
			"midi": 28,
			"name": "E1",
			"ticks": 61920,
			"time": 70.363566,
			"velocity": 0.6141732283464567
		  },
		  {
			"duration": 0.2727270000000033,
			"durationTicks": 240,
			"midi": 38,
			"name": "D2",
			"ticks": 62400,
			"time": 70.90902,
			"velocity": 0.6141732283464567
		  },
		  {
			"duration": 0.27272699999998906,
			"durationTicks": 240,
			"midi": 33,
			"name": "A1",
			"ticks": 62880,
			"time": 71.454474,
			"velocity": 0.6141732283464567
		  },
		  {
			"duration": 0.2727270000000033,
			"durationTicks": 240,
			"midi": 38,
			"name": "D2",
			"ticks": 63360,
			"time": 71.999928,
			"velocity": 0.6141732283464567
		  },
		  {
			"duration": 0.27272699999998906,
			"durationTicks": 240,
			"midi": 33,
			"name": "A1",
			"ticks": 63840,
			"time": 72.545382,
			"velocity": 0.6141732283464567
		  },
		  {
			"duration": 0.2727270000000033,
			"durationTicks": 240,
			"midi": 33,
			"name": "A1",
			"ticks": 64320,
			"time": 73.090836,
			"velocity": 0.6141732283464567
		  },
		  {
			"duration": 0.2727270000000033,
			"durationTicks": 240,
			"midi": 28,
			"name": "E1",
			"ticks": 64800,
			"time": 73.63629,
			"velocity": 0.6141732283464567
		  },
		  {
			"duration": 0.2727270000000033,
			"durationTicks": 240,
			"midi": 33,
			"name": "A1",
			"ticks": 65280,
			"time": 74.181744,
			"velocity": 0.6141732283464567
		  },
		  {
			"duration": 0.2727270000000033,
			"durationTicks": 240,
			"midi": 28,
			"name": "E1",
			"ticks": 65760,
			"time": 74.727198,
			"velocity": 0.6141732283464567
		  },
		  {
			"duration": 0.2727270000000033,
			"durationTicks": 240,
			"midi": 33,
			"name": "A1",
			"ticks": 66240,
			"time": 75.272652,
			"velocity": 0.6141732283464567
		  },
		  {
			"duration": 0.2727270000000033,
			"durationTicks": 240,
			"midi": 28,
			"name": "E1",
			"ticks": 66720,
			"time": 75.818106,
			"velocity": 0.6141732283464567
		  },
		  {
			"duration": 0.2727270000000033,
			"durationTicks": 240,
			"midi": 33,
			"name": "A1",
			"ticks": 67200,
			"time": 76.36355999999999,
			"velocity": 0.6141732283464567
		  },
		  {
			"duration": 0.2727270000000033,
			"durationTicks": 240,
			"midi": 28,
			"name": "E1",
			"ticks": 67680,
			"time": 76.909014,
			"velocity": 0.6141732283464567
		  },
		  {
			"duration": 0.27272699999998906,
			"durationTicks": 240,
			"midi": 33,
			"name": "A1",
			"ticks": 68160,
			"time": 77.454468,
			"velocity": 0.6141732283464567
		  },
		  {
			"duration": 0.2727270000000033,
			"durationTicks": 240,
			"midi": 28,
			"name": "E1",
			"ticks": 68640,
			"time": 77.999922,
			"velocity": 0.6141732283464567
		  },
		  {
			"duration": 0.27272699999998906,
			"durationTicks": 240,
			"midi": 33,
			"name": "A1",
			"ticks": 69120,
			"time": 78.545376,
			"velocity": 0.6141732283464567
		  },
		  {
			"duration": 0.2727270000000033,
			"durationTicks": 240,
			"midi": 28,
			"name": "E1",
			"ticks": 69600,
			"time": 79.09083,
			"velocity": 0.6141732283464567
		  },
		  {
			"duration": 0.27272699999998906,
			"durationTicks": 240,
			"midi": 33,
			"name": "A1",
			"ticks": 70080,
			"time": 79.636284,
			"velocity": 0.6141732283464567
		  },
		  {
			"duration": 0.2727270000000033,
			"durationTicks": 240,
			"midi": 28,
			"name": "E1",
			"ticks": 70560,
			"time": 80.181738,
			"velocity": 0.6141732283464567
		  },
		  {
			"duration": 0.2727270000000033,
			"durationTicks": 240,
			"midi": 38,
			"name": "D2",
			"ticks": 71040,
			"time": 80.727192,
			"velocity": 0.6141732283464567
		  },
		  {
			"duration": 0.2727270000000033,
			"durationTicks": 240,
			"midi": 33,
			"name": "A1",
			"ticks": 71520,
			"time": 81.272646,
			"velocity": 0.6141732283464567
		  },
		  {
			"duration": 0.2727270000000033,
			"durationTicks": 240,
			"midi": 28,
			"name": "E1",
			"ticks": 72000,
			"time": 81.8181,
			"velocity": 0.6141732283464567
		  },
		  {
			"duration": 0.2727270000000033,
			"durationTicks": 240,
			"midi": 35,
			"name": "B1",
			"ticks": 72480,
			"time": 82.363554,
			"velocity": 0.6141732283464567
		  },
		  {
			"duration": 0.2727270000000033,
			"durationTicks": 240,
			"midi": 33,
			"name": "A1",
			"ticks": 72960,
			"time": 82.909008,
			"velocity": 0.6141732283464567
		  },
		  {
			"duration": 0.2727270000000033,
			"durationTicks": 240,
			"midi": 28,
			"name": "E1",
			"ticks": 73440,
			"time": 83.45446199999999,
			"velocity": 0.6141732283464567
		  },
		  {
			"duration": 0.2727270000000033,
			"durationTicks": 240,
			"midi": 38,
			"name": "D2",
			"ticks": 73920,
			"time": 83.999916,
			"velocity": 0.6141732283464567
		  },
		  {
			"duration": 0.27272699999998906,
			"durationTicks": 240,
			"midi": 33,
			"name": "A1",
			"ticks": 74400,
			"time": 84.54537,
			"velocity": 0.6141732283464567
		  },
		  {
			"duration": 0.2727270000000033,
			"durationTicks": 240,
			"midi": 38,
			"name": "D2",
			"ticks": 74880,
			"time": 85.090824,
			"velocity": 0.6141732283464567
		  },
		  {
			"duration": 0.27272699999998906,
			"durationTicks": 240,
			"midi": 33,
			"name": "A1",
			"ticks": 75360,
			"time": 85.636278,
			"velocity": 0.6141732283464567
		  },
		  {
			"duration": 0.2727270000000033,
			"durationTicks": 240,
			"midi": 33,
			"name": "A1",
			"ticks": 75840,
			"time": 86.181732,
			"velocity": 0.6141732283464567
		  },
		  {
			"duration": 0.27272699999998906,
			"durationTicks": 240,
			"midi": 28,
			"name": "E1",
			"ticks": 76320,
			"time": 86.727186,
			"velocity": 0.6141732283464567
		  },
		  {
			"duration": 0.2727270000000033,
			"durationTicks": 240,
			"midi": 33,
			"name": "A1",
			"ticks": 76800,
			"time": 87.27264,
			"velocity": 0.6141732283464567
		  },
		  {
			"duration": 0.2727270000000033,
			"durationTicks": 240,
			"midi": 28,
			"name": "E1",
			"ticks": 77280,
			"time": 87.818094,
			"velocity": 0.6141732283464567
		  },
		  {
			"duration": 0.2727270000000033,
			"durationTicks": 240,
			"midi": 38,
			"name": "D2",
			"ticks": 77760,
			"time": 88.363548,
			"velocity": 0.6141732283464567
		  },
		  {
			"duration": 0.2727270000000033,
			"durationTicks": 240,
			"midi": 33,
			"name": "A1",
			"ticks": 78240,
			"time": 88.909002,
			"velocity": 0.6141732283464567
		  },
		  {
			"duration": 0.2727270000000033,
			"durationTicks": 240,
			"midi": 38,
			"name": "D2",
			"ticks": 78720,
			"time": 89.454456,
			"velocity": 0.6141732283464567
		  },
		  {
			"duration": 0.2727270000000033,
			"durationTicks": 240,
			"midi": 33,
			"name": "A1",
			"ticks": 79200,
			"time": 89.99991,
			"velocity": 0.6141732283464567
		  },
		  {
			"duration": 0.2727270000000033,
			"durationTicks": 240,
			"midi": 33,
			"name": "A1",
			"ticks": 79680,
			"time": 90.54536399999999,
			"velocity": 0.6141732283464567
		  },
		  {
			"duration": 0.2727270000000033,
			"durationTicks": 240,
			"midi": 28,
			"name": "E1",
			"ticks": 80160,
			"time": 91.090818,
			"velocity": 0.6141732283464567
		  },
		  {
			"duration": 0.27272699999998906,
			"durationTicks": 240,
			"midi": 33,
			"name": "A1",
			"ticks": 80640,
			"time": 91.636272,
			"velocity": 0.6141732283464567
		  },
		  {
			"duration": 0.2727270000000033,
			"durationTicks": 240,
			"midi": 28,
			"name": "E1",
			"ticks": 81120,
			"time": 92.181726,
			"velocity": 0.6141732283464567
		  },
		  {
			"duration": 0.27272699999998906,
			"durationTicks": 240,
			"midi": 33,
			"name": "A1",
			"ticks": 81600,
			"time": 92.72718,
			"velocity": 0.6141732283464567
		  },
		  {
			"duration": 0.2727270000000033,
			"durationTicks": 240,
			"midi": 28,
			"name": "E1",
			"ticks": 82080,
			"time": 93.272634,
			"velocity": 0.6141732283464567
		  },
		  {
			"duration": 0.27272699999998906,
			"durationTicks": 240,
			"midi": 33,
			"name": "A1",
			"ticks": 82560,
			"time": 93.818088,
			"velocity": 0.6141732283464567
		  },
		  {
			"duration": 0.2727270000000033,
			"durationTicks": 240,
			"midi": 28,
			"name": "E1",
			"ticks": 83040,
			"time": 94.363542,
			"velocity": 0.6141732283464567
		  }
		]
	  },
	  {
		"channel": 11,
		"controlChanges": {
		  "7": [
			{
			  "number": 7,
			  "ticks": 620,
			  "time": 0.70454475,
			  "value": 0.7874015748031497
			}
		  ],
		  "10": [
			{
			  "number": 10,
			  "ticks": 625,
			  "time": 0.7102265624999999,
			  "value": 0.6456692913385826
			}
		  ],
		  "74": [
			{
			  "number": 74,
			  "ticks": 960,
			  "time": 1.090908,
			  "value": 0.5511811023622047
			},
			{
			  "number": 74,
			  "ticks": 2880,
			  "time": 3.272724,
			  "value": 0.5511811023622047
			},
			{
			  "number": 74,
			  "ticks": 3840,
			  "time": 4.363632,
			  "value": 0.5511811023622047
			},
			{
			  "number": 74,
			  "ticks": 4800,
			  "time": 5.45454,
			  "value": 0.5511811023622047
			},
			{
			  "number": 74,
			  "ticks": 6720,
			  "time": 7.636356,
			  "value": 0.5511811023622047
			},
			{
			  "number": 74,
			  "ticks": 8640,
			  "time": 9.818172,
			  "value": 0.5511811023622047
			},
			{
			  "number": 74,
			  "ticks": 10560,
			  "time": 11.999988,
			  "value": 0.5511811023622047
			},
			{
			  "number": 74,
			  "ticks": 12480,
			  "time": 14.181804,
			  "value": 0.5511811023622047
			},
			{
			  "number": 74,
			  "ticks": 14400,
			  "time": 16.36362,
			  "value": 0.5511811023622047
			},
			{
			  "number": 74,
			  "ticks": 16320,
			  "time": 18.545436,
			  "value": 0.5511811023622047
			},
			{
			  "number": 74,
			  "ticks": 18240,
			  "time": 20.727252,
			  "value": 0.5511811023622047
			},
			{
			  "number": 74,
			  "ticks": 20160,
			  "time": 22.909068,
			  "value": 0.5511811023622047
			},
			{
			  "number": 74,
			  "ticks": 22080,
			  "time": 25.090884,
			  "value": 0.5511811023622047
			},
			{
			  "number": 74,
			  "ticks": 24000,
			  "time": 27.2727,
			  "value": 0.5511811023622047
			},
			{
			  "number": 74,
			  "ticks": 25920,
			  "time": 29.454515999999998,
			  "value": 0.5511811023622047
			},
			{
			  "number": 74,
			  "ticks": 27840,
			  "time": 31.636332,
			  "value": 0.5511811023622047
			},
			{
			  "number": 74,
			  "ticks": 29760,
			  "time": 33.818148,
			  "value": 0.5511811023622047
			},
			{
			  "number": 74,
			  "ticks": 31680,
			  "time": 35.999964,
			  "value": 0.5511811023622047
			},
			{
			  "number": 74,
			  "ticks": 33600,
			  "time": 38.181779999999996,
			  "value": 0.5511811023622047
			},
			{
			  "number": 74,
			  "ticks": 35520,
			  "time": 40.363596,
			  "value": 0.5511811023622047
			},
			{
			  "number": 74,
			  "ticks": 37440,
			  "time": 42.545412,
			  "value": 0.5511811023622047
			},
			{
			  "number": 74,
			  "ticks": 39360,
			  "time": 44.727228,
			  "value": 0.5511811023622047
			},
			{
			  "number": 74,
			  "ticks": 41280,
			  "time": 46.909044,
			  "value": 0.5511811023622047
			},
			{
			  "number": 74,
			  "ticks": 43200,
			  "time": 49.09086,
			  "value": 0.5511811023622047
			},
			{
			  "number": 74,
			  "ticks": 45120,
			  "time": 51.272676,
			  "value": 0.5511811023622047
			},
			{
			  "number": 74,
			  "ticks": 47040,
			  "time": 53.454492,
			  "value": 0.5511811023622047
			},
			{
			  "number": 74,
			  "ticks": 48960,
			  "time": 55.636308,
			  "value": 0.5511811023622047
			},
			{
			  "number": 74,
			  "ticks": 50880,
			  "time": 57.818124,
			  "value": 0.5511811023622047
			},
			{
			  "number": 74,
			  "ticks": 52800,
			  "time": 59.99994,
			  "value": 0.5511811023622047
			},
			{
			  "number": 74,
			  "ticks": 54720,
			  "time": 62.181756,
			  "value": 0.5511811023622047
			},
			{
			  "number": 74,
			  "ticks": 56640,
			  "time": 64.363572,
			  "value": 0.5511811023622047
			},
			{
			  "number": 74,
			  "ticks": 58560,
			  "time": 66.545388,
			  "value": 0.5511811023622047
			},
			{
			  "number": 74,
			  "ticks": 60480,
			  "time": 68.727204,
			  "value": 0.5511811023622047
			},
			{
			  "number": 74,
			  "ticks": 62400,
			  "time": 70.90902,
			  "value": 0.5511811023622047
			},
			{
			  "number": 74,
			  "ticks": 64320,
			  "time": 73.090836,
			  "value": 0.5511811023622047
			},
			{
			  "number": 74,
			  "ticks": 66240,
			  "time": 75.272652,
			  "value": 0.5511811023622047
			},
			{
			  "number": 74,
			  "ticks": 68160,
			  "time": 77.454468,
			  "value": 0.5511811023622047
			},
			{
			  "number": 74,
			  "ticks": 70080,
			  "time": 79.636284,
			  "value": 0.5511811023622047
			},
			{
			  "number": 74,
			  "ticks": 72000,
			  "time": 81.8181,
			  "value": 0.5511811023622047
			},
			{
			  "number": 74,
			  "ticks": 73920,
			  "time": 83.999916,
			  "value": 0.5511811023622047
			},
			{
			  "number": 74,
			  "ticks": 75840,
			  "time": 86.181732,
			  "value": 0.5511811023622047
			},
			{
			  "number": 74,
			  "ticks": 77760,
			  "time": 88.363548,
			  "value": 0.5511811023622047
			},
			{
			  "number": 74,
			  "ticks": 79680,
			  "time": 90.54536399999999,
			  "value": 0.5511811023622047
			},
			{
			  "number": 74,
			  "ticks": 81600,
			  "time": 92.72718,
			  "value": 0.5511811023622047
			}
		  ],
		  "91": [
			{
			  "number": 91,
			  "ticks": 960,
			  "time": 1.090908,
			  "value": 0.31496062992125984
			}
		  ]
		},
		"pitchBends": [],
		"instrument": {
		  "family": "bass",
		  "name": "acoustic bass",
		  "number": 32
		},
		"name": "",
		"notes": [
		  {
			"duration": 0.0909089999999999,
			"durationTicks": 80,
			"midi": 62,
			"name": "D4",
			"ticks": 1200,
			"time": 1.363635,
			"velocity": 0.5748031496062992
		  },
		  {
			"duration": 0.0909089999999999,
			"durationTicks": 80,
			"midi": 66,
			"name": "F#4",
			"ticks": 1200,
			"time": 1.363635,
			"velocity": 0.5433070866141733
		  },
		  {
			"duration": 0.0909089999999999,
			"durationTicks": 80,
			"midi": 69,
			"name": "A4",
			"ticks": 1200,
			"time": 1.363635,
			"velocity": 0.5039370078740157
		  },
		  {
			"duration": 0.0909089999999999,
			"durationTicks": 80,
			"midi": 62,
			"name": "D4",
			"ticks": 1680,
			"time": 1.909089,
			"velocity": 0.5826771653543307
		  },
		  {
			"duration": 0.0909089999999999,
			"durationTicks": 80,
			"midi": 66,
			"name": "F#4",
			"ticks": 1680,
			"time": 1.909089,
			"velocity": 0.5826771653543307
		  },
		  {
			"duration": 0.0909089999999999,
			"durationTicks": 80,
			"midi": 69,
			"name": "A4",
			"ticks": 1680,
			"time": 1.909089,
			"velocity": 0.5826771653543307
		  },
		  {
			"duration": 0.0909089999999999,
			"durationTicks": 80,
			"midi": 62,
			"name": "D4",
			"ticks": 2160,
			"time": 2.454543,
			"velocity": 0.6220472440944882
		  },
		  {
			"duration": 0.0909089999999999,
			"durationTicks": 80,
			"midi": 66,
			"name": "F#4",
			"ticks": 2160,
			"time": 2.454543,
			"velocity": 0.6377952755905512
		  },
		  {
			"duration": 0.0909089999999999,
			"durationTicks": 80,
			"midi": 69,
			"name": "A4",
			"ticks": 2160,
			"time": 2.454543,
			"velocity": 0.6141732283464567
		  },
		  {
			"duration": 0.0909089999999999,
			"durationTicks": 80,
			"midi": 62,
			"name": "D4",
			"ticks": 2640,
			"time": 2.999997,
			"velocity": 0.6377952755905512
		  },
		  {
			"duration": 0.0909089999999999,
			"durationTicks": 80,
			"midi": 66,
			"name": "F#4",
			"ticks": 2640,
			"time": 2.999997,
			"velocity": 0.6141732283464567
		  },
		  {
			"duration": 0.0909089999999999,
			"durationTicks": 80,
			"midi": 69,
			"name": "A4",
			"ticks": 2640,
			"time": 2.999997,
			"velocity": 0.6299212598425197
		  },
		  {
			"duration": 0.09090900000000035,
			"durationTicks": 80,
			"midi": 61,
			"name": "C#4",
			"ticks": 3120,
			"time": 3.545451,
			"velocity": 0.5748031496062992
		  },
		  {
			"duration": 0.09090900000000035,
			"durationTicks": 80,
			"midi": 64,
			"name": "E4",
			"ticks": 3120,
			"time": 3.545451,
			"velocity": 0.5433070866141733
		  },
		  {
			"duration": 0.09090900000000035,
			"durationTicks": 80,
			"midi": 69,
			"name": "A4",
			"ticks": 3120,
			"time": 3.545451,
			"velocity": 0.5039370078740157
		  },
		  {
			"duration": 0.0909089999999999,
			"durationTicks": 80,
			"midi": 59,
			"name": "B3",
			"ticks": 3600,
			"time": 4.090905,
			"velocity": 0.5826771653543307
		  },
		  {
			"duration": 0.0909089999999999,
			"durationTicks": 80,
			"midi": 62,
			"name": "D4",
			"ticks": 3600,
			"time": 4.090905,
			"velocity": 0.5826771653543307
		  },
		  {
			"duration": 0.0909089999999999,
			"durationTicks": 80,
			"midi": 68,
			"name": "G#4",
			"ticks": 3600,
			"time": 4.090905,
			"velocity": 0.5826771653543307
		  },
		  {
			"duration": 0.0909089999999999,
			"durationTicks": 80,
			"midi": 61,
			"name": "C#4",
			"ticks": 4080,
			"time": 4.636359,
			"velocity": 0.5748031496062992
		  },
		  {
			"duration": 0.0909089999999999,
			"durationTicks": 80,
			"midi": 64,
			"name": "E4",
			"ticks": 4080,
			"time": 4.636359,
			"velocity": 0.5433070866141733
		  },
		  {
			"duration": 0.0909089999999999,
			"durationTicks": 80,
			"midi": 69,
			"name": "A4",
			"ticks": 4080,
			"time": 4.636359,
			"velocity": 0.5039370078740157
		  },
		  {
			"duration": 0.0909089999999999,
			"durationTicks": 80,
			"midi": 61,
			"name": "C#4",
			"ticks": 4560,
			"time": 5.181813,
			"velocity": 0.5826771653543307
		  },
		  {
			"duration": 0.0909089999999999,
			"durationTicks": 80,
			"midi": 64,
			"name": "E4",
			"ticks": 4560,
			"time": 5.181813,
			"velocity": 0.5826771653543307
		  },
		  {
			"duration": 0.0909089999999999,
			"durationTicks": 80,
			"midi": 69,
			"name": "A4",
			"ticks": 4560,
			"time": 5.181813,
			"velocity": 0.5826771653543307
		  },
		  {
			"duration": 0.09090899999999902,
			"durationTicks": 80,
			"midi": 61,
			"name": "C#4",
			"ticks": 5040,
			"time": 5.727267,
			"velocity": 0.5748031496062992
		  },
		  {
			"duration": 0.09090899999999902,
			"durationTicks": 80,
			"midi": 64,
			"name": "E4",
			"ticks": 5040,
			"time": 5.727267,
			"velocity": 0.5433070866141733
		  },
		  {
			"duration": 0.09090899999999902,
			"durationTicks": 80,
			"midi": 69,
			"name": "A4",
			"ticks": 5040,
			"time": 5.727267,
			"velocity": 0.5039370078740157
		  },
		  {
			"duration": 0.0909089999999999,
			"durationTicks": 80,
			"midi": 61,
			"name": "C#4",
			"ticks": 5520,
			"time": 6.272721,
			"velocity": 0.5826771653543307
		  },
		  {
			"duration": 0.0909089999999999,
			"durationTicks": 80,
			"midi": 64,
			"name": "E4",
			"ticks": 5520,
			"time": 6.272721,
			"velocity": 0.5826771653543307
		  },
		  {
			"duration": 0.0909089999999999,
			"durationTicks": 80,
			"midi": 69,
			"name": "A4",
			"ticks": 5520,
			"time": 6.272721,
			"velocity": 0.5826771653543307
		  },
		  {
			"duration": 0.0909089999999999,
			"durationTicks": 80,
			"midi": 61,
			"name": "C#4",
			"ticks": 6000,
			"time": 6.818175,
			"velocity": 0.6220472440944882
		  },
		  {
			"duration": 0.0909089999999999,
			"durationTicks": 80,
			"midi": 64,
			"name": "E4",
			"ticks": 6000,
			"time": 6.818175,
			"velocity": 0.6377952755905512
		  },
		  {
			"duration": 0.0909089999999999,
			"durationTicks": 80,
			"midi": 69,
			"name": "A4",
			"ticks": 6000,
			"time": 6.818175,
			"velocity": 0.6141732283464567
		  },
		  {
			"duration": 0.0909089999999999,
			"durationTicks": 80,
			"midi": 59,
			"name": "B3",
			"ticks": 6480,
			"time": 7.3636289999999995,
			"velocity": 0.6377952755905512
		  },
		  {
			"duration": 0.0909089999999999,
			"durationTicks": 80,
			"midi": 62,
			"name": "D4",
			"ticks": 6480,
			"time": 7.3636289999999995,
			"velocity": 0.6141732283464567
		  },
		  {
			"duration": 0.0909089999999999,
			"durationTicks": 80,
			"midi": 68,
			"name": "G#4",
			"ticks": 6480,
			"time": 7.3636289999999995,
			"velocity": 0.6299212598425197
		  },
		  {
			"duration": 0.0909089999999999,
			"durationTicks": 80,
			"midi": 61,
			"name": "C#4",
			"ticks": 6960,
			"time": 7.909083,
			"velocity": 0.5748031496062992
		  },
		  {
			"duration": 0.0909089999999999,
			"durationTicks": 80,
			"midi": 64,
			"name": "E4",
			"ticks": 6960,
			"time": 7.909083,
			"velocity": 0.5433070866141733
		  },
		  {
			"duration": 0.0909089999999999,
			"durationTicks": 80,
			"midi": 69,
			"name": "A4",
			"ticks": 6960,
			"time": 7.909083,
			"velocity": 0.5039370078740157
		  },
		  {
			"duration": 0.0909089999999999,
			"durationTicks": 80,
			"midi": 61,
			"name": "C#4",
			"ticks": 7440,
			"time": 8.454537,
			"velocity": 0.5826771653543307
		  },
		  {
			"duration": 0.0909089999999999,
			"durationTicks": 80,
			"midi": 64,
			"name": "E4",
			"ticks": 7440,
			"time": 8.454537,
			"velocity": 0.5826771653543307
		  },
		  {
			"duration": 0.0909089999999999,
			"durationTicks": 80,
			"midi": 69,
			"name": "A4",
			"ticks": 7440,
			"time": 8.454537,
			"velocity": 0.5826771653543307
		  },
		  {
			"duration": 0.09090900000000168,
			"durationTicks": 80,
			"midi": 61,
			"name": "C#4",
			"ticks": 7920,
			"time": 8.999991,
			"velocity": 0.6220472440944882
		  },
		  {
			"duration": 0.09090900000000168,
			"durationTicks": 80,
			"midi": 64,
			"name": "E4",
			"ticks": 7920,
			"time": 8.999991,
			"velocity": 0.6377952755905512
		  },
		  {
			"duration": 0.09090900000000168,
			"durationTicks": 80,
			"midi": 69,
			"name": "A4",
			"ticks": 7920,
			"time": 8.999991,
			"velocity": 0.6141732283464567
		  },
		  {
			"duration": 0.09090900000000168,
			"durationTicks": 80,
			"midi": 59,
			"name": "B3",
			"ticks": 8400,
			"time": 9.545444999999999,
			"velocity": 0.6377952755905512
		  },
		  {
			"duration": 0.09090900000000168,
			"durationTicks": 80,
			"midi": 62,
			"name": "D4",
			"ticks": 8400,
			"time": 9.545444999999999,
			"velocity": 0.6141732283464567
		  },
		  {
			"duration": 0.09090900000000168,
			"durationTicks": 80,
			"midi": 68,
			"name": "G#4",
			"ticks": 8400,
			"time": 9.545444999999999,
			"velocity": 0.6299212598425197
		  },
		  {
			"duration": 0.0909089999999999,
			"durationTicks": 80,
			"midi": 61,
			"name": "C#4",
			"ticks": 8880,
			"time": 10.090899,
			"velocity": 0.5748031496062992
		  },
		  {
			"duration": 0.0909089999999999,
			"durationTicks": 80,
			"midi": 64,
			"name": "E4",
			"ticks": 8880,
			"time": 10.090899,
			"velocity": 0.5433070866141733
		  },
		  {
			"duration": 0.0909089999999999,
			"durationTicks": 80,
			"midi": 69,
			"name": "A4",
			"ticks": 8880,
			"time": 10.090899,
			"velocity": 0.5039370078740157
		  },
		  {
			"duration": 0.09090900000000168,
			"durationTicks": 80,
			"midi": 61,
			"name": "C#4",
			"ticks": 9360,
			"time": 10.636353,
			"velocity": 0.5826771653543307
		  },
		  {
			"duration": 0.09090900000000168,
			"durationTicks": 80,
			"midi": 64,
			"name": "E4",
			"ticks": 9360,
			"time": 10.636353,
			"velocity": 0.5826771653543307
		  },
		  {
			"duration": 0.09090900000000168,
			"durationTicks": 80,
			"midi": 69,
			"name": "A4",
			"ticks": 9360,
			"time": 10.636353,
			"velocity": 0.5826771653543307
		  },
		  {
			"duration": 0.09090900000000168,
			"durationTicks": 80,
			"midi": 62,
			"name": "D4",
			"ticks": 9840,
			"time": 11.181807,
			"velocity": 0.6220472440944882
		  },
		  {
			"duration": 0.09090900000000168,
			"durationTicks": 80,
			"midi": 66,
			"name": "F#4",
			"ticks": 9840,
			"time": 11.181807,
			"velocity": 0.6377952755905512
		  },
		  {
			"duration": 0.09090900000000168,
			"durationTicks": 80,
			"midi": 69,
			"name": "A4",
			"ticks": 9840,
			"time": 11.181807,
			"velocity": 0.6141732283464567
		  },
		  {
			"duration": 0.0909089999999999,
			"durationTicks": 80,
			"midi": 62,
			"name": "D4",
			"ticks": 10320,
			"time": 11.727261,
			"velocity": 0.6377952755905512
		  },
		  {
			"duration": 0.0909089999999999,
			"durationTicks": 80,
			"midi": 66,
			"name": "F#4",
			"ticks": 10320,
			"time": 11.727261,
			"velocity": 0.6141732283464567
		  },
		  {
			"duration": 0.0909089999999999,
			"durationTicks": 80,
			"midi": 69,
			"name": "A4",
			"ticks": 10320,
			"time": 11.727261,
			"velocity": 0.6299212598425197
		  },
		  {
			"duration": 0.0909089999999999,
			"durationTicks": 80,
			"midi": 59,
			"name": "B3",
			"ticks": 10800,
			"time": 12.272715,
			"velocity": 0.5748031496062992
		  },
		  {
			"duration": 0.0909089999999999,
			"durationTicks": 80,
			"midi": 62,
			"name": "D4",
			"ticks": 10800,
			"time": 12.272715,
			"velocity": 0.5433070866141733
		  },
		  {
			"duration": 0.0909089999999999,
			"durationTicks": 80,
			"midi": 68,
			"name": "G#4",
			"ticks": 10800,
			"time": 12.272715,
			"velocity": 0.5039370078740157
		  },
		  {
			"duration": 0.09090900000000168,
			"durationTicks": 80,
			"midi": 59,
			"name": "B3",
			"ticks": 11280,
			"time": 12.818169,
			"velocity": 0.5826771653543307
		  },
		  {
			"duration": 0.09090900000000168,
			"durationTicks": 80,
			"midi": 62,
			"name": "D4",
			"ticks": 11280,
			"time": 12.818169,
			"velocity": 0.5826771653543307
		  },
		  {
			"duration": 0.09090900000000168,
			"durationTicks": 80,
			"midi": 68,
			"name": "G#4",
			"ticks": 11280,
			"time": 12.818169,
			"velocity": 0.5826771653543307
		  },
		  {
			"duration": 0.0909089999999999,
			"durationTicks": 80,
			"midi": 61,
			"name": "C#4",
			"ticks": 11760,
			"time": 13.363623,
			"velocity": 0.6220472440944882
		  },
		  {
			"duration": 0.0909089999999999,
			"durationTicks": 80,
			"midi": 64,
			"name": "E4",
			"ticks": 11760,
			"time": 13.363623,
			"velocity": 0.6377952755905512
		  },
		  {
			"duration": 0.0909089999999999,
			"durationTicks": 80,
			"midi": 69,
			"name": "A4",
			"ticks": 11760,
			"time": 13.363623,
			"velocity": 0.6141732283464567
		  },
		  {
			"duration": 0.0909089999999999,
			"durationTicks": 80,
			"midi": 61,
			"name": "C#4",
			"ticks": 12240,
			"time": 13.909077,
			"velocity": 0.6377952755905512
		  },
		  {
			"duration": 0.0909089999999999,
			"durationTicks": 80,
			"midi": 64,
			"name": "E4",
			"ticks": 12240,
			"time": 13.909077,
			"velocity": 0.6141732283464567
		  },
		  {
			"duration": 0.0909089999999999,
			"durationTicks": 80,
			"midi": 69,
			"name": "A4",
			"ticks": 12240,
			"time": 13.909077,
			"velocity": 0.6299212598425197
		  },
		  {
			"duration": 0.09090900000000168,
			"durationTicks": 80,
			"midi": 62,
			"name": "D4",
			"ticks": 12720,
			"time": 14.454531,
			"velocity": 0.5748031496062992
		  },
		  {
			"duration": 0.09090900000000168,
			"durationTicks": 80,
			"midi": 66,
			"name": "F#4",
			"ticks": 12720,
			"time": 14.454531,
			"velocity": 0.5433070866141733
		  },
		  {
			"duration": 0.09090900000000168,
			"durationTicks": 80,
			"midi": 69,
			"name": "A4",
			"ticks": 12720,
			"time": 14.454531,
			"velocity": 0.5039370078740157
		  },
		  {
			"duration": 0.0909089999999999,
			"durationTicks": 80,
			"midi": 62,
			"name": "D4",
			"ticks": 13200,
			"time": 14.999985,
			"velocity": 0.5826771653543307
		  },
		  {
			"duration": 0.0909089999999999,
			"durationTicks": 80,
			"midi": 66,
			"name": "F#4",
			"ticks": 13200,
			"time": 14.999985,
			"velocity": 0.5826771653543307
		  },
		  {
			"duration": 0.0909089999999999,
			"durationTicks": 80,
			"midi": 69,
			"name": "A4",
			"ticks": 13200,
			"time": 14.999985,
			"velocity": 0.5826771653543307
		  },
		  {
			"duration": 0.0909089999999999,
			"durationTicks": 80,
			"midi": 62,
			"name": "D4",
			"ticks": 13680,
			"time": 15.545439,
			"velocity": 0.6220472440944882
		  },
		  {
			"duration": 0.0909089999999999,
			"durationTicks": 80,
			"midi": 66,
			"name": "F#4",
			"ticks": 13680,
			"time": 15.545439,
			"velocity": 0.6377952755905512
		  },
		  {
			"duration": 0.0909089999999999,
			"durationTicks": 80,
			"midi": 69,
			"name": "A4",
			"ticks": 13680,
			"time": 15.545439,
			"velocity": 0.6141732283464567
		  },
		  {
			"duration": 0.0909089999999999,
			"durationTicks": 80,
			"midi": 62,
			"name": "D4",
			"ticks": 14160,
			"time": 16.090893,
			"velocity": 0.6377952755905512
		  },
		  {
			"duration": 0.0909089999999999,
			"durationTicks": 80,
			"midi": 66,
			"name": "F#4",
			"ticks": 14160,
			"time": 16.090893,
			"velocity": 0.6141732283464567
		  },
		  {
			"duration": 0.0909089999999999,
			"durationTicks": 80,
			"midi": 69,
			"name": "A4",
			"ticks": 14160,
			"time": 16.090893,
			"velocity": 0.6299212598425197
		  },
		  {
			"duration": 0.0909089999999999,
			"durationTicks": 80,
			"midi": 61,
			"name": "C#4",
			"ticks": 14640,
			"time": 16.636347,
			"velocity": 0.5748031496062992
		  },
		  {
			"duration": 0.0909089999999999,
			"durationTicks": 80,
			"midi": 64,
			"name": "E4",
			"ticks": 14640,
			"time": 16.636347,
			"velocity": 0.5433070866141733
		  },
		  {
			"duration": 0.0909089999999999,
			"durationTicks": 80,
			"midi": 69,
			"name": "A4",
			"ticks": 14640,
			"time": 16.636347,
			"velocity": 0.5039370078740157
		  },
		  {
			"duration": 0.0909089999999999,
			"durationTicks": 80,
			"midi": 61,
			"name": "C#4",
			"ticks": 15120,
			"time": 17.181801,
			"velocity": 0.5826771653543307
		  },
		  {
			"duration": 0.0909089999999999,
			"durationTicks": 80,
			"midi": 64,
			"name": "E4",
			"ticks": 15120,
			"time": 17.181801,
			"velocity": 0.5826771653543307
		  },
		  {
			"duration": 0.0909089999999999,
			"durationTicks": 80,
			"midi": 69,
			"name": "A4",
			"ticks": 15120,
			"time": 17.181801,
			"velocity": 0.5826771653543307
		  },
		  {
			"duration": 0.0909089999999999,
			"durationTicks": 80,
			"midi": 61,
			"name": "C#4",
			"ticks": 15600,
			"time": 17.727255,
			"velocity": 0.6220472440944882
		  },
		  {
			"duration": 0.0909089999999999,
			"durationTicks": 80,
			"midi": 64,
			"name": "E4",
			"ticks": 15600,
			"time": 17.727255,
			"velocity": 0.6377952755905512
		  },
		  {
			"duration": 0.0909089999999999,
			"durationTicks": 80,
			"midi": 69,
			"name": "A4",
			"ticks": 15600,
			"time": 17.727255,
			"velocity": 0.6141732283464567
		  },
		  {
			"duration": 0.0909089999999999,
			"durationTicks": 80,
			"midi": 61,
			"name": "C#4",
			"ticks": 16080,
			"time": 18.272709,
			"velocity": 0.6377952755905512
		  },
		  {
			"duration": 0.0909089999999999,
			"durationTicks": 80,
			"midi": 64,
			"name": "E4",
			"ticks": 16080,
			"time": 18.272709,
			"velocity": 0.6141732283464567
		  },
		  {
			"duration": 0.0909089999999999,
			"durationTicks": 80,
			"midi": 69,
			"name": "A4",
			"ticks": 16080,
			"time": 18.272709,
			"velocity": 0.6299212598425197
		  },
		  {
			"duration": 0.0909089999999999,
			"durationTicks": 80,
			"midi": 62,
			"name": "D4",
			"ticks": 16560,
			"time": 18.818163,
			"velocity": 0.5748031496062992
		  },
		  {
			"duration": 0.0909089999999999,
			"durationTicks": 80,
			"midi": 66,
			"name": "F#4",
			"ticks": 16560,
			"time": 18.818163,
			"velocity": 0.5433070866141733
		  },
		  {
			"duration": 0.0909089999999999,
			"durationTicks": 80,
			"midi": 69,
			"name": "A4",
			"ticks": 16560,
			"time": 18.818163,
			"velocity": 0.5039370078740157
		  },
		  {
			"duration": 0.09090899999999635,
			"durationTicks": 80,
			"midi": 62,
			"name": "D4",
			"ticks": 17040,
			"time": 19.363617,
			"velocity": 0.5826771653543307
		  },
		  {
			"duration": 0.09090899999999635,
			"durationTicks": 80,
			"midi": 66,
			"name": "F#4",
			"ticks": 17040,
			"time": 19.363617,
			"velocity": 0.5826771653543307
		  },
		  {
			"duration": 0.09090899999999635,
			"durationTicks": 80,
			"midi": 69,
			"name": "A4",
			"ticks": 17040,
			"time": 19.363617,
			"velocity": 0.5826771653543307
		  },
		  {
			"duration": 0.09090899999999635,
			"durationTicks": 80,
			"midi": 62,
			"name": "D4",
			"ticks": 17520,
			"time": 19.909071,
			"velocity": 0.6220472440944882
		  },
		  {
			"duration": 0.09090899999999635,
			"durationTicks": 80,
			"midi": 66,
			"name": "F#4",
			"ticks": 17520,
			"time": 19.909071,
			"velocity": 0.6377952755905512
		  },
		  {
			"duration": 0.09090899999999635,
			"durationTicks": 80,
			"midi": 69,
			"name": "A4",
			"ticks": 17520,
			"time": 19.909071,
			"velocity": 0.6141732283464567
		  },
		  {
			"duration": 0.0909089999999999,
			"durationTicks": 80,
			"midi": 62,
			"name": "D4",
			"ticks": 18000,
			"time": 20.454525,
			"velocity": 0.6377952755905512
		  },
		  {
			"duration": 0.0909089999999999,
			"durationTicks": 80,
			"midi": 66,
			"name": "F#4",
			"ticks": 18000,
			"time": 20.454525,
			"velocity": 0.6141732283464567
		  },
		  {
			"duration": 0.0909089999999999,
			"durationTicks": 80,
			"midi": 69,
			"name": "A4",
			"ticks": 18000,
			"time": 20.454525,
			"velocity": 0.6299212598425197
		  },
		  {
			"duration": 0.0909089999999999,
			"durationTicks": 80,
			"midi": 61,
			"name": "C#4",
			"ticks": 18480,
			"time": 20.999979,
			"velocity": 0.5748031496062992
		  },
		  {
			"duration": 0.0909089999999999,
			"durationTicks": 80,
			"midi": 64,
			"name": "E4",
			"ticks": 18480,
			"time": 20.999979,
			"velocity": 0.5433070866141733
		  },
		  {
			"duration": 0.0909089999999999,
			"durationTicks": 80,
			"midi": 69,
			"name": "A4",
			"ticks": 18480,
			"time": 20.999979,
			"velocity": 0.5039370078740157
		  },
		  {
			"duration": 0.0909089999999999,
			"durationTicks": 80,
			"midi": 59,
			"name": "B3",
			"ticks": 18960,
			"time": 21.545433,
			"velocity": 0.5826771653543307
		  },
		  {
			"duration": 0.0909089999999999,
			"durationTicks": 80,
			"midi": 62,
			"name": "D4",
			"ticks": 18960,
			"time": 21.545433,
			"velocity": 0.5826771653543307
		  },
		  {
			"duration": 0.0909089999999999,
			"durationTicks": 80,
			"midi": 68,
			"name": "G#4",
			"ticks": 18960,
			"time": 21.545433,
			"velocity": 0.5826771653543307
		  },
		  {
			"duration": 0.0909089999999999,
			"durationTicks": 80,
			"midi": 61,
			"name": "C#4",
			"ticks": 19440,
			"time": 22.090887,
			"velocity": 0.6220472440944882
		  },
		  {
			"duration": 0.0909089999999999,
			"durationTicks": 80,
			"midi": 64,
			"name": "E4",
			"ticks": 19440,
			"time": 22.090887,
			"velocity": 0.6377952755905512
		  },
		  {
			"duration": 0.0909089999999999,
			"durationTicks": 80,
			"midi": 69,
			"name": "A4",
			"ticks": 19440,
			"time": 22.090887,
			"velocity": 0.6141732283464567
		  },
		  {
			"duration": 0.0909089999999999,
			"durationTicks": 80,
			"midi": 61,
			"name": "C#4",
			"ticks": 19920,
			"time": 22.636340999999998,
			"velocity": 0.6377952755905512
		  },
		  {
			"duration": 0.0909089999999999,
			"durationTicks": 80,
			"midi": 64,
			"name": "E4",
			"ticks": 19920,
			"time": 22.636340999999998,
			"velocity": 0.6141732283464567
		  },
		  {
			"duration": 0.0909089999999999,
			"durationTicks": 80,
			"midi": 69,
			"name": "A4",
			"ticks": 19920,
			"time": 22.636340999999998,
			"velocity": 0.6299212598425197
		  },
		  {
			"duration": 0.09090899999999635,
			"durationTicks": 80,
			"midi": 61,
			"name": "C#4",
			"ticks": 20400,
			"time": 23.181795,
			"velocity": 0.5748031496062992
		  },
		  {
			"duration": 0.09090899999999635,
			"durationTicks": 80,
			"midi": 64,
			"name": "E4",
			"ticks": 20400,
			"time": 23.181795,
			"velocity": 0.5433070866141733
		  },
		  {
			"duration": 0.09090899999999635,
			"durationTicks": 80,
			"midi": 69,
			"name": "A4",
			"ticks": 20400,
			"time": 23.181795,
			"velocity": 0.5039370078740157
		  },
		  {
			"duration": 0.09090899999999635,
			"durationTicks": 80,
			"midi": 61,
			"name": "C#4",
			"ticks": 20880,
			"time": 23.727249,
			"velocity": 0.5826771653543307
		  },
		  {
			"duration": 0.09090899999999635,
			"durationTicks": 80,
			"midi": 64,
			"name": "E4",
			"ticks": 20880,
			"time": 23.727249,
			"velocity": 0.5826771653543307
		  },
		  {
			"duration": 0.09090899999999635,
			"durationTicks": 80,
			"midi": 69,
			"name": "A4",
			"ticks": 20880,
			"time": 23.727249,
			"velocity": 0.5826771653543307
		  },
		  {
			"duration": 0.0909089999999999,
			"durationTicks": 80,
			"midi": 61,
			"name": "C#4",
			"ticks": 21360,
			"time": 24.272703,
			"velocity": 0.6220472440944882
		  },
		  {
			"duration": 0.0909089999999999,
			"durationTicks": 80,
			"midi": 64,
			"name": "E4",
			"ticks": 21360,
			"time": 24.272703,
			"velocity": 0.6377952755905512
		  },
		  {
			"duration": 0.0909089999999999,
			"durationTicks": 80,
			"midi": 69,
			"name": "A4",
			"ticks": 21360,
			"time": 24.272703,
			"velocity": 0.6141732283464567
		  },
		  {
			"duration": 0.0909089999999999,
			"durationTicks": 80,
			"midi": 59,
			"name": "B3",
			"ticks": 21840,
			"time": 24.818157,
			"velocity": 0.6377952755905512
		  },
		  {
			"duration": 0.0909089999999999,
			"durationTicks": 80,
			"midi": 62,
			"name": "D4",
			"ticks": 21840,
			"time": 24.818157,
			"velocity": 0.6141732283464567
		  },
		  {
			"duration": 0.0909089999999999,
			"durationTicks": 80,
			"midi": 68,
			"name": "G#4",
			"ticks": 21840,
			"time": 24.818157,
			"velocity": 0.6299212598425197
		  },
		  {
			"duration": 0.0909089999999999,
			"durationTicks": 80,
			"midi": 61,
			"name": "C#4",
			"ticks": 22320,
			"time": 25.363611,
			"velocity": 0.5748031496062992
		  },
		  {
			"duration": 0.0909089999999999,
			"durationTicks": 80,
			"midi": 64,
			"name": "E4",
			"ticks": 22320,
			"time": 25.363611,
			"velocity": 0.5433070866141733
		  },
		  {
			"duration": 0.0909089999999999,
			"durationTicks": 80,
			"midi": 69,
			"name": "A4",
			"ticks": 22320,
			"time": 25.363611,
			"velocity": 0.5039370078740157
		  },
		  {
			"duration": 0.0909089999999999,
			"durationTicks": 80,
			"midi": 61,
			"name": "C#4",
			"ticks": 22800,
			"time": 25.909065,
			"velocity": 0.5826771653543307
		  },
		  {
			"duration": 0.0909089999999999,
			"durationTicks": 80,
			"midi": 64,
			"name": "E4",
			"ticks": 22800,
			"time": 25.909065,
			"velocity": 0.5826771653543307
		  },
		  {
			"duration": 0.0909089999999999,
			"durationTicks": 80,
			"midi": 69,
			"name": "A4",
			"ticks": 22800,
			"time": 25.909065,
			"velocity": 0.5826771653543307
		  },
		  {
			"duration": 0.09090899999999635,
			"durationTicks": 80,
			"midi": 61,
			"name": "C#4",
			"ticks": 23280,
			"time": 26.454519,
			"velocity": 0.6220472440944882
		  },
		  {
			"duration": 0.09090899999999635,
			"durationTicks": 80,
			"midi": 64,
			"name": "E4",
			"ticks": 23280,
			"time": 26.454519,
			"velocity": 0.6377952755905512
		  },
		  {
			"duration": 0.09090899999999635,
			"durationTicks": 80,
			"midi": 69,
			"name": "A4",
			"ticks": 23280,
			"time": 26.454519,
			"velocity": 0.6141732283464567
		  },
		  {
			"duration": 0.09090899999999635,
			"durationTicks": 80,
			"midi": 59,
			"name": "B3",
			"ticks": 23760,
			"time": 26.999973,
			"velocity": 0.6377952755905512
		  },
		  {
			"duration": 0.09090899999999635,
			"durationTicks": 80,
			"midi": 62,
			"name": "D4",
			"ticks": 23760,
			"time": 26.999973,
			"velocity": 0.6141732283464567
		  },
		  {
			"duration": 0.09090899999999635,
			"durationTicks": 80,
			"midi": 68,
			"name": "G#4",
			"ticks": 23760,
			"time": 26.999973,
			"velocity": 0.6299212598425197
		  },
		  {
			"duration": 0.0909089999999999,
			"durationTicks": 80,
			"midi": 61,
			"name": "C#4",
			"ticks": 24240,
			"time": 27.545427,
			"velocity": 0.5748031496062992
		  },
		  {
			"duration": 0.0909089999999999,
			"durationTicks": 80,
			"midi": 64,
			"name": "E4",
			"ticks": 24240,
			"time": 27.545427,
			"velocity": 0.5433070866141733
		  },
		  {
			"duration": 0.0909089999999999,
			"durationTicks": 80,
			"midi": 69,
			"name": "A4",
			"ticks": 24240,
			"time": 27.545427,
			"velocity": 0.5039370078740157
		  },
		  {
			"duration": 0.0909089999999999,
			"durationTicks": 80,
			"midi": 61,
			"name": "C#4",
			"ticks": 24720,
			"time": 28.090881,
			"velocity": 0.5826771653543307
		  },
		  {
			"duration": 0.0909089999999999,
			"durationTicks": 80,
			"midi": 64,
			"name": "E4",
			"ticks": 24720,
			"time": 28.090881,
			"velocity": 0.5826771653543307
		  },
		  {
			"duration": 0.0909089999999999,
			"durationTicks": 80,
			"midi": 69,
			"name": "A4",
			"ticks": 24720,
			"time": 28.090881,
			"velocity": 0.5826771653543307
		  },
		  {
			"duration": 0.0909089999999999,
			"durationTicks": 80,
			"midi": 62,
			"name": "D4",
			"ticks": 25200,
			"time": 28.636335,
			"velocity": 0.6220472440944882
		  },
		  {
			"duration": 0.0909089999999999,
			"durationTicks": 80,
			"midi": 66,
			"name": "F#4",
			"ticks": 25200,
			"time": 28.636335,
			"velocity": 0.6377952755905512
		  },
		  {
			"duration": 0.0909089999999999,
			"durationTicks": 80,
			"midi": 69,
			"name": "A4",
			"ticks": 25200,
			"time": 28.636335,
			"velocity": 0.6141732283464567
		  },
		  {
			"duration": 0.0909089999999999,
			"durationTicks": 80,
			"midi": 62,
			"name": "D4",
			"ticks": 25680,
			"time": 29.181789,
			"velocity": 0.6377952755905512
		  },
		  {
			"duration": 0.0909089999999999,
			"durationTicks": 80,
			"midi": 66,
			"name": "F#4",
			"ticks": 25680,
			"time": 29.181789,
			"velocity": 0.6141732283464567
		  },
		  {
			"duration": 0.0909089999999999,
			"durationTicks": 80,
			"midi": 69,
			"name": "A4",
			"ticks": 25680,
			"time": 29.181789,
			"velocity": 0.6299212598425197
		  },
		  {
			"duration": 0.09090899999999635,
			"durationTicks": 80,
			"midi": 59,
			"name": "B3",
			"ticks": 26160,
			"time": 29.727243,
			"velocity": 0.5748031496062992
		  },
		  {
			"duration": 0.09090899999999635,
			"durationTicks": 80,
			"midi": 62,
			"name": "D4",
			"ticks": 26160,
			"time": 29.727243,
			"velocity": 0.5433070866141733
		  },
		  {
			"duration": 0.09090899999999635,
			"durationTicks": 80,
			"midi": 68,
			"name": "G#4",
			"ticks": 26160,
			"time": 29.727243,
			"velocity": 0.5039370078740157
		  },
		  {
			"duration": 0.09090899999999635,
			"durationTicks": 80,
			"midi": 59,
			"name": "B3",
			"ticks": 26640,
			"time": 30.272697,
			"velocity": 0.5826771653543307
		  },
		  {
			"duration": 0.09090899999999635,
			"durationTicks": 80,
			"midi": 62,
			"name": "D4",
			"ticks": 26640,
			"time": 30.272697,
			"velocity": 0.5826771653543307
		  },
		  {
			"duration": 0.09090899999999635,
			"durationTicks": 80,
			"midi": 68,
			"name": "G#4",
			"ticks": 26640,
			"time": 30.272697,
			"velocity": 0.5826771653543307
		  },
		  {
			"duration": 0.09090899999999635,
			"durationTicks": 80,
			"midi": 61,
			"name": "C#4",
			"ticks": 27120,
			"time": 30.818151,
			"velocity": 0.6220472440944882
		  },
		  {
			"duration": 0.09090899999999635,
			"durationTicks": 80,
			"midi": 64,
			"name": "E4",
			"ticks": 27120,
			"time": 30.818151,
			"velocity": 0.6377952755905512
		  },
		  {
			"duration": 0.09090899999999635,
			"durationTicks": 80,
			"midi": 69,
			"name": "A4",
			"ticks": 27120,
			"time": 30.818151,
			"velocity": 0.6141732283464567
		  },
		  {
			"duration": 0.0909089999999999,
			"durationTicks": 80,
			"midi": 61,
			"name": "C#4",
			"ticks": 27600,
			"time": 31.363605,
			"velocity": 0.6377952755905512
		  },
		  {
			"duration": 0.0909089999999999,
			"durationTicks": 80,
			"midi": 64,
			"name": "E4",
			"ticks": 27600,
			"time": 31.363605,
			"velocity": 0.6141732283464567
		  },
		  {
			"duration": 0.0909089999999999,
			"durationTicks": 80,
			"midi": 69,
			"name": "A4",
			"ticks": 27600,
			"time": 31.363605,
			"velocity": 0.6299212598425197
		  },
		  {
			"duration": 0.0909089999999999,
			"durationTicks": 80,
			"midi": 62,
			"name": "D4",
			"ticks": 28080,
			"time": 31.909059,
			"velocity": 0.5748031496062992
		  },
		  {
			"duration": 0.0909089999999999,
			"durationTicks": 80,
			"midi": 66,
			"name": "F#4",
			"ticks": 28080,
			"time": 31.909059,
			"velocity": 0.5433070866141733
		  },
		  {
			"duration": 0.0909089999999999,
			"durationTicks": 80,
			"midi": 69,
			"name": "A4",
			"ticks": 28080,
			"time": 31.909059,
			"velocity": 0.5039370078740157
		  },
		  {
			"duration": 0.09090899999999635,
			"durationTicks": 80,
			"midi": 62,
			"name": "D4",
			"ticks": 28560,
			"time": 32.454513,
			"velocity": 0.5826771653543307
		  },
		  {
			"duration": 0.09090899999999635,
			"durationTicks": 80,
			"midi": 66,
			"name": "F#4",
			"ticks": 28560,
			"time": 32.454513,
			"velocity": 0.5826771653543307
		  },
		  {
			"duration": 0.09090899999999635,
			"durationTicks": 80,
			"midi": 69,
			"name": "A4",
			"ticks": 28560,
			"time": 32.454513,
			"velocity": 0.5826771653543307
		  },
		  {
			"duration": 0.09090900000000346,
			"durationTicks": 80,
			"midi": 62,
			"name": "D4",
			"ticks": 29040,
			"time": 32.999967,
			"velocity": 0.6220472440944882
		  },
		  {
			"duration": 0.09090900000000346,
			"durationTicks": 80,
			"midi": 66,
			"name": "F#4",
			"ticks": 29040,
			"time": 32.999967,
			"velocity": 0.6377952755905512
		  },
		  {
			"duration": 0.09090900000000346,
			"durationTicks": 80,
			"midi": 69,
			"name": "A4",
			"ticks": 29040,
			"time": 32.999967,
			"velocity": 0.6141732283464567
		  },
		  {
			"duration": 0.09090900000000346,
			"durationTicks": 80,
			"midi": 62,
			"name": "D4",
			"ticks": 29520,
			"time": 33.545421,
			"velocity": 0.6377952755905512
		  },
		  {
			"duration": 0.09090900000000346,
			"durationTicks": 80,
			"midi": 66,
			"name": "F#4",
			"ticks": 29520,
			"time": 33.545421,
			"velocity": 0.6141732283464567
		  },
		  {
			"duration": 0.09090900000000346,
			"durationTicks": 80,
			"midi": 69,
			"name": "A4",
			"ticks": 29520,
			"time": 33.545421,
			"velocity": 0.6299212598425197
		  },
		  {
			"duration": 0.09090900000000346,
			"durationTicks": 80,
			"midi": 61,
			"name": "C#4",
			"ticks": 30000,
			"time": 34.090875,
			"velocity": 0.5748031496062992
		  },
		  {
			"duration": 0.09090900000000346,
			"durationTicks": 80,
			"midi": 64,
			"name": "E4",
			"ticks": 30000,
			"time": 34.090875,
			"velocity": 0.5433070866141733
		  },
		  {
			"duration": 0.09090900000000346,
			"durationTicks": 80,
			"midi": 69,
			"name": "A4",
			"ticks": 30000,
			"time": 34.090875,
			"velocity": 0.5039370078740157
		  },
		  {
			"duration": 0.09090900000000346,
			"durationTicks": 80,
			"midi": 61,
			"name": "C#4",
			"ticks": 30480,
			"time": 34.636328999999996,
			"velocity": 0.5826771653543307
		  },
		  {
			"duration": 0.09090900000000346,
			"durationTicks": 80,
			"midi": 64,
			"name": "E4",
			"ticks": 30480,
			"time": 34.636328999999996,
			"velocity": 0.5826771653543307
		  },
		  {
			"duration": 0.09090900000000346,
			"durationTicks": 80,
			"midi": 69,
			"name": "A4",
			"ticks": 30480,
			"time": 34.636328999999996,
			"velocity": 0.5826771653543307
		  },
		  {
			"duration": 0.09090899999999635,
			"durationTicks": 80,
			"midi": 61,
			"name": "C#4",
			"ticks": 30960,
			"time": 35.181783,
			"velocity": 0.6220472440944882
		  },
		  {
			"duration": 0.09090899999999635,
			"durationTicks": 80,
			"midi": 64,
			"name": "E4",
			"ticks": 30960,
			"time": 35.181783,
			"velocity": 0.6377952755905512
		  },
		  {
			"duration": 0.09090899999999635,
			"durationTicks": 80,
			"midi": 69,
			"name": "A4",
			"ticks": 30960,
			"time": 35.181783,
			"velocity": 0.6141732283464567
		  },
		  {
			"duration": 0.09090899999999635,
			"durationTicks": 80,
			"midi": 61,
			"name": "C#4",
			"ticks": 31440,
			"time": 35.727237,
			"velocity": 0.6377952755905512
		  },
		  {
			"duration": 0.09090899999999635,
			"durationTicks": 80,
			"midi": 64,
			"name": "E4",
			"ticks": 31440,
			"time": 35.727237,
			"velocity": 0.6141732283464567
		  },
		  {
			"duration": 0.09090899999999635,
			"durationTicks": 80,
			"midi": 69,
			"name": "A4",
			"ticks": 31440,
			"time": 35.727237,
			"velocity": 0.6299212598425197
		  },
		  {
			"duration": 0.09090900000000346,
			"durationTicks": 80,
			"midi": 62,
			"name": "D4",
			"ticks": 31920,
			"time": 36.272691,
			"velocity": 0.5748031496062992
		  },
		  {
			"duration": 0.09090900000000346,
			"durationTicks": 80,
			"midi": 66,
			"name": "F#4",
			"ticks": 31920,
			"time": 36.272691,
			"velocity": 0.5433070866141733
		  },
		  {
			"duration": 0.09090900000000346,
			"durationTicks": 80,
			"midi": 69,
			"name": "A4",
			"ticks": 31920,
			"time": 36.272691,
			"velocity": 0.5039370078740157
		  },
		  {
			"duration": 0.09090900000000346,
			"durationTicks": 80,
			"midi": 62,
			"name": "D4",
			"ticks": 32400,
			"time": 36.818145,
			"velocity": 0.5826771653543307
		  },
		  {
			"duration": 0.09090900000000346,
			"durationTicks": 80,
			"midi": 66,
			"name": "F#4",
			"ticks": 32400,
			"time": 36.818145,
			"velocity": 0.5826771653543307
		  },
		  {
			"duration": 0.09090900000000346,
			"durationTicks": 80,
			"midi": 69,
			"name": "A4",
			"ticks": 32400,
			"time": 36.818145,
			"velocity": 0.5826771653543307
		  },
		  {
			"duration": 0.09090900000000346,
			"durationTicks": 80,
			"midi": 62,
			"name": "D4",
			"ticks": 32880,
			"time": 37.363599,
			"velocity": 0.6220472440944882
		  },
		  {
			"duration": 0.09090900000000346,
			"durationTicks": 80,
			"midi": 66,
			"name": "F#4",
			"ticks": 32880,
			"time": 37.363599,
			"velocity": 0.6377952755905512
		  },
		  {
			"duration": 0.09090900000000346,
			"durationTicks": 80,
			"midi": 69,
			"name": "A4",
			"ticks": 32880,
			"time": 37.363599,
			"velocity": 0.6141732283464567
		  },
		  {
			"duration": 0.09090900000000346,
			"durationTicks": 80,
			"midi": 62,
			"name": "D4",
			"ticks": 33360,
			"time": 37.909053,
			"velocity": 0.6377952755905512
		  },
		  {
			"duration": 0.09090900000000346,
			"durationTicks": 80,
			"midi": 66,
			"name": "F#4",
			"ticks": 33360,
			"time": 37.909053,
			"velocity": 0.6141732283464567
		  },
		  {
			"duration": 0.09090900000000346,
			"durationTicks": 80,
			"midi": 69,
			"name": "A4",
			"ticks": 33360,
			"time": 37.909053,
			"velocity": 0.6299212598425197
		  },
		  {
			"duration": 0.09090900000000346,
			"durationTicks": 80,
			"midi": 61,
			"name": "C#4",
			"ticks": 33840,
			"time": 38.454507,
			"velocity": 0.5748031496062992
		  },
		  {
			"duration": 0.09090900000000346,
			"durationTicks": 80,
			"midi": 64,
			"name": "E4",
			"ticks": 33840,
			"time": 38.454507,
			"velocity": 0.5433070866141733
		  },
		  {
			"duration": 0.09090900000000346,
			"durationTicks": 80,
			"midi": 69,
			"name": "A4",
			"ticks": 33840,
			"time": 38.454507,
			"velocity": 0.5039370078740157
		  },
		  {
			"duration": 0.09090900000000346,
			"durationTicks": 80,
			"midi": 59,
			"name": "B3",
			"ticks": 34320,
			"time": 38.999961,
			"velocity": 0.5826771653543307
		  },
		  {
			"duration": 0.09090900000000346,
			"durationTicks": 80,
			"midi": 62,
			"name": "D4",
			"ticks": 34320,
			"time": 38.999961,
			"velocity": 0.5826771653543307
		  },
		  {
			"duration": 0.09090900000000346,
			"durationTicks": 80,
			"midi": 68,
			"name": "G#4",
			"ticks": 34320,
			"time": 38.999961,
			"velocity": 0.5826771653543307
		  },
		  {
			"duration": 0.09090900000000346,
			"durationTicks": 80,
			"midi": 61,
			"name": "C#4",
			"ticks": 34800,
			"time": 39.545415,
			"velocity": 0.6220472440944882
		  },
		  {
			"duration": 0.09090900000000346,
			"durationTicks": 80,
			"midi": 64,
			"name": "E4",
			"ticks": 34800,
			"time": 39.545415,
			"velocity": 0.6377952755905512
		  },
		  {
			"duration": 0.09090900000000346,
			"durationTicks": 80,
			"midi": 69,
			"name": "A4",
			"ticks": 34800,
			"time": 39.545415,
			"velocity": 0.6141732283464567
		  },
		  {
			"duration": 0.09090900000000346,
			"durationTicks": 80,
			"midi": 61,
			"name": "C#4",
			"ticks": 35280,
			"time": 40.090869,
			"velocity": 0.6377952755905512
		  },
		  {
			"duration": 0.09090900000000346,
			"durationTicks": 80,
			"midi": 64,
			"name": "E4",
			"ticks": 35280,
			"time": 40.090869,
			"velocity": 0.6141732283464567
		  },
		  {
			"duration": 0.09090900000000346,
			"durationTicks": 80,
			"midi": 69,
			"name": "A4",
			"ticks": 35280,
			"time": 40.090869,
			"velocity": 0.6299212598425197
		  },
		  {
			"duration": 0.09090900000000346,
			"durationTicks": 80,
			"midi": 61,
			"name": "C#4",
			"ticks": 35760,
			"time": 40.636323,
			"velocity": 0.5748031496062992
		  },
		  {
			"duration": 0.09090900000000346,
			"durationTicks": 80,
			"midi": 64,
			"name": "E4",
			"ticks": 35760,
			"time": 40.636323,
			"velocity": 0.5433070866141733
		  },
		  {
			"duration": 0.09090900000000346,
			"durationTicks": 80,
			"midi": 69,
			"name": "A4",
			"ticks": 35760,
			"time": 40.636323,
			"velocity": 0.5039370078740157
		  },
		  {
			"duration": 0.09090900000000346,
			"durationTicks": 80,
			"midi": 61,
			"name": "C#4",
			"ticks": 36240,
			"time": 41.181777,
			"velocity": 0.5826771653543307
		  },
		  {
			"duration": 0.09090900000000346,
			"durationTicks": 80,
			"midi": 64,
			"name": "E4",
			"ticks": 36240,
			"time": 41.181777,
			"velocity": 0.5826771653543307
		  },
		  {
			"duration": 0.09090900000000346,
			"durationTicks": 80,
			"midi": 69,
			"name": "A4",
			"ticks": 36240,
			"time": 41.181777,
			"velocity": 0.5826771653543307
		  },
		  {
			"duration": 0.09090900000000346,
			"durationTicks": 80,
			"midi": 61,
			"name": "C#4",
			"ticks": 36720,
			"time": 41.727230999999996,
			"velocity": 0.6220472440944882
		  },
		  {
			"duration": 0.09090900000000346,
			"durationTicks": 80,
			"midi": 64,
			"name": "E4",
			"ticks": 36720,
			"time": 41.727230999999996,
			"velocity": 0.6377952755905512
		  },
		  {
			"duration": 0.09090900000000346,
			"durationTicks": 80,
			"midi": 69,
			"name": "A4",
			"ticks": 36720,
			"time": 41.727230999999996,
			"velocity": 0.6141732283464567
		  },
		  {
			"duration": 0.09090899999999635,
			"durationTicks": 80,
			"midi": 59,
			"name": "B3",
			"ticks": 37200,
			"time": 42.272685,
			"velocity": 0.6377952755905512
		  },
		  {
			"duration": 0.09090899999999635,
			"durationTicks": 80,
			"midi": 62,
			"name": "D4",
			"ticks": 37200,
			"time": 42.272685,
			"velocity": 0.6141732283464567
		  },
		  {
			"duration": 0.09090899999999635,
			"durationTicks": 80,
			"midi": 68,
			"name": "G#4",
			"ticks": 37200,
			"time": 42.272685,
			"velocity": 0.6299212598425197
		  },
		  {
			"duration": 0.09090900000000346,
			"durationTicks": 80,
			"midi": 61,
			"name": "C#4",
			"ticks": 37680,
			"time": 42.818139,
			"velocity": 0.5748031496062992
		  },
		  {
			"duration": 0.09090900000000346,
			"durationTicks": 80,
			"midi": 64,
			"name": "E4",
			"ticks": 37680,
			"time": 42.818139,
			"velocity": 0.5433070866141733
		  },
		  {
			"duration": 0.09090900000000346,
			"durationTicks": 80,
			"midi": 69,
			"name": "A4",
			"ticks": 37680,
			"time": 42.818139,
			"velocity": 0.5039370078740157
		  },
		  {
			"duration": 0.09090900000000346,
			"durationTicks": 80,
			"midi": 61,
			"name": "C#4",
			"ticks": 38160,
			"time": 43.363593,
			"velocity": 0.5826771653543307
		  },
		  {
			"duration": 0.09090900000000346,
			"durationTicks": 80,
			"midi": 64,
			"name": "E4",
			"ticks": 38160,
			"time": 43.363593,
			"velocity": 0.5826771653543307
		  },
		  {
			"duration": 0.09090900000000346,
			"durationTicks": 80,
			"midi": 69,
			"name": "A4",
			"ticks": 38160,
			"time": 43.363593,
			"velocity": 0.5826771653543307
		  },
		  {
			"duration": 0.09090900000000346,
			"durationTicks": 80,
			"midi": 61,
			"name": "C#4",
			"ticks": 38640,
			"time": 43.909047,
			"velocity": 0.6220472440944882
		  },
		  {
			"duration": 0.09090900000000346,
			"durationTicks": 80,
			"midi": 64,
			"name": "E4",
			"ticks": 38640,
			"time": 43.909047,
			"velocity": 0.6377952755905512
		  },
		  {
			"duration": 0.09090900000000346,
			"durationTicks": 80,
			"midi": 69,
			"name": "A4",
			"ticks": 38640,
			"time": 43.909047,
			"velocity": 0.6141732283464567
		  },
		  {
			"duration": 0.09090900000000346,
			"durationTicks": 80,
			"midi": 59,
			"name": "B3",
			"ticks": 39120,
			"time": 44.454501,
			"velocity": 0.6377952755905512
		  },
		  {
			"duration": 0.09090900000000346,
			"durationTicks": 80,
			"midi": 62,
			"name": "D4",
			"ticks": 39120,
			"time": 44.454501,
			"velocity": 0.6141732283464567
		  },
		  {
			"duration": 0.09090900000000346,
			"durationTicks": 80,
			"midi": 68,
			"name": "G#4",
			"ticks": 39120,
			"time": 44.454501,
			"velocity": 0.6299212598425197
		  },
		  {
			"duration": 0.09090900000000346,
			"durationTicks": 80,
			"midi": 61,
			"name": "C#4",
			"ticks": 39600,
			"time": 44.999955,
			"velocity": 0.5748031496062992
		  },
		  {
			"duration": 0.09090900000000346,
			"durationTicks": 80,
			"midi": 64,
			"name": "E4",
			"ticks": 39600,
			"time": 44.999955,
			"velocity": 0.5433070866141733
		  },
		  {
			"duration": 0.09090900000000346,
			"durationTicks": 80,
			"midi": 69,
			"name": "A4",
			"ticks": 39600,
			"time": 44.999955,
			"velocity": 0.5039370078740157
		  },
		  {
			"duration": 0.09090900000000346,
			"durationTicks": 80,
			"midi": 61,
			"name": "C#4",
			"ticks": 40080,
			"time": 45.545409,
			"velocity": 0.5826771653543307
		  },
		  {
			"duration": 0.09090900000000346,
			"durationTicks": 80,
			"midi": 64,
			"name": "E4",
			"ticks": 40080,
			"time": 45.545409,
			"velocity": 0.5826771653543307
		  },
		  {
			"duration": 0.09090900000000346,
			"durationTicks": 80,
			"midi": 69,
			"name": "A4",
			"ticks": 40080,
			"time": 45.545409,
			"velocity": 0.5826771653543307
		  },
		  {
			"duration": 0.09090900000000346,
			"durationTicks": 80,
			"midi": 62,
			"name": "D4",
			"ticks": 40560,
			"time": 46.090863,
			"velocity": 0.6220472440944882
		  },
		  {
			"duration": 0.09090900000000346,
			"durationTicks": 80,
			"midi": 66,
			"name": "F#4",
			"ticks": 40560,
			"time": 46.090863,
			"velocity": 0.6377952755905512
		  },
		  {
			"duration": 0.09090900000000346,
			"durationTicks": 80,
			"midi": 69,
			"name": "A4",
			"ticks": 40560,
			"time": 46.090863,
			"velocity": 0.6141732283464567
		  },
		  {
			"duration": 0.09090900000000346,
			"durationTicks": 80,
			"midi": 62,
			"name": "D4",
			"ticks": 41040,
			"time": 46.636317,
			"velocity": 0.6377952755905512
		  },
		  {
			"duration": 0.09090900000000346,
			"durationTicks": 80,
			"midi": 66,
			"name": "F#4",
			"ticks": 41040,
			"time": 46.636317,
			"velocity": 0.6141732283464567
		  },
		  {
			"duration": 0.09090900000000346,
			"durationTicks": 80,
			"midi": 69,
			"name": "A4",
			"ticks": 41040,
			"time": 46.636317,
			"velocity": 0.6299212598425197
		  },
		  {
			"duration": 0.09090900000000346,
			"durationTicks": 80,
			"midi": 59,
			"name": "B3",
			"ticks": 41520,
			"time": 47.181771,
			"velocity": 0.5748031496062992
		  },
		  {
			"duration": 0.09090900000000346,
			"durationTicks": 80,
			"midi": 62,
			"name": "D4",
			"ticks": 41520,
			"time": 47.181771,
			"velocity": 0.5433070866141733
		  },
		  {
			"duration": 0.09090900000000346,
			"durationTicks": 80,
			"midi": 68,
			"name": "G#4",
			"ticks": 41520,
			"time": 47.181771,
			"velocity": 0.5039370078740157
		  },
		  {
			"duration": 0.09090900000000346,
			"durationTicks": 80,
			"midi": 59,
			"name": "B3",
			"ticks": 42000,
			"time": 47.727225,
			"velocity": 0.5826771653543307
		  },
		  {
			"duration": 0.09090900000000346,
			"durationTicks": 80,
			"midi": 62,
			"name": "D4",
			"ticks": 42000,
			"time": 47.727225,
			"velocity": 0.5826771653543307
		  },
		  {
			"duration": 0.09090900000000346,
			"durationTicks": 80,
			"midi": 68,
			"name": "G#4",
			"ticks": 42000,
			"time": 47.727225,
			"velocity": 0.5826771653543307
		  },
		  {
			"duration": 0.09090900000000346,
			"durationTicks": 80,
			"midi": 61,
			"name": "C#4",
			"ticks": 42480,
			"time": 48.272679,
			"velocity": 0.6220472440944882
		  },
		  {
			"duration": 0.09090900000000346,
			"durationTicks": 80,
			"midi": 64,
			"name": "E4",
			"ticks": 42480,
			"time": 48.272679,
			"velocity": 0.6377952755905512
		  },
		  {
			"duration": 0.09090900000000346,
			"durationTicks": 80,
			"midi": 69,
			"name": "A4",
			"ticks": 42480,
			"time": 48.272679,
			"velocity": 0.6141732283464567
		  },
		  {
			"duration": 0.09090900000000346,
			"durationTicks": 80,
			"midi": 61,
			"name": "C#4",
			"ticks": 42960,
			"time": 48.818132999999996,
			"velocity": 0.6377952755905512
		  },
		  {
			"duration": 0.09090900000000346,
			"durationTicks": 80,
			"midi": 64,
			"name": "E4",
			"ticks": 42960,
			"time": 48.818132999999996,
			"velocity": 0.6141732283464567
		  },
		  {
			"duration": 0.09090900000000346,
			"durationTicks": 80,
			"midi": 69,
			"name": "A4",
			"ticks": 42960,
			"time": 48.818132999999996,
			"velocity": 0.6299212598425197
		  },
		  {
			"duration": 0.09090899999999635,
			"durationTicks": 80,
			"midi": 62,
			"name": "D4",
			"ticks": 43440,
			"time": 49.363587,
			"velocity": 0.5748031496062992
		  },
		  {
			"duration": 0.09090899999999635,
			"durationTicks": 80,
			"midi": 66,
			"name": "F#4",
			"ticks": 43440,
			"time": 49.363587,
			"velocity": 0.5433070866141733
		  },
		  {
			"duration": 0.09090899999999635,
			"durationTicks": 80,
			"midi": 69,
			"name": "A4",
			"ticks": 43440,
			"time": 49.363587,
			"velocity": 0.5039370078740157
		  },
		  {
			"duration": 0.09090900000000346,
			"durationTicks": 80,
			"midi": 62,
			"name": "D4",
			"ticks": 43920,
			"time": 49.909041,
			"velocity": 0.5826771653543307
		  },
		  {
			"duration": 0.09090900000000346,
			"durationTicks": 80,
			"midi": 66,
			"name": "F#4",
			"ticks": 43920,
			"time": 49.909041,
			"velocity": 0.5826771653543307
		  },
		  {
			"duration": 0.09090900000000346,
			"durationTicks": 80,
			"midi": 69,
			"name": "A4",
			"ticks": 43920,
			"time": 49.909041,
			"velocity": 0.5826771653543307
		  },
		  {
			"duration": 0.09090900000000346,
			"durationTicks": 80,
			"midi": 62,
			"name": "D4",
			"ticks": 44400,
			"time": 50.454495,
			"velocity": 0.6220472440944882
		  },
		  {
			"duration": 0.09090900000000346,
			"durationTicks": 80,
			"midi": 66,
			"name": "F#4",
			"ticks": 44400,
			"time": 50.454495,
			"velocity": 0.6377952755905512
		  },
		  {
			"duration": 0.09090900000000346,
			"durationTicks": 80,
			"midi": 69,
			"name": "A4",
			"ticks": 44400,
			"time": 50.454495,
			"velocity": 0.6141732283464567
		  },
		  {
			"duration": 0.09090900000000346,
			"durationTicks": 80,
			"midi": 62,
			"name": "D4",
			"ticks": 44880,
			"time": 50.999949,
			"velocity": 0.6377952755905512
		  },
		  {
			"duration": 0.09090900000000346,
			"durationTicks": 80,
			"midi": 66,
			"name": "F#4",
			"ticks": 44880,
			"time": 50.999949,
			"velocity": 0.6141732283464567
		  },
		  {
			"duration": 0.09090900000000346,
			"durationTicks": 80,
			"midi": 69,
			"name": "A4",
			"ticks": 44880,
			"time": 50.999949,
			"velocity": 0.6299212598425197
		  },
		  {
			"duration": 0.09090900000000346,
			"durationTicks": 80,
			"midi": 61,
			"name": "C#4",
			"ticks": 45360,
			"time": 51.545403,
			"velocity": 0.5748031496062992
		  },
		  {
			"duration": 0.09090900000000346,
			"durationTicks": 80,
			"midi": 64,
			"name": "E4",
			"ticks": 45360,
			"time": 51.545403,
			"velocity": 0.5433070866141733
		  },
		  {
			"duration": 0.09090900000000346,
			"durationTicks": 80,
			"midi": 69,
			"name": "A4",
			"ticks": 45360,
			"time": 51.545403,
			"velocity": 0.5039370078740157
		  },
		  {
			"duration": 0.09090900000000346,
			"durationTicks": 80,
			"midi": 61,
			"name": "C#4",
			"ticks": 45840,
			"time": 52.090857,
			"velocity": 0.5826771653543307
		  },
		  {
			"duration": 0.09090900000000346,
			"durationTicks": 80,
			"midi": 64,
			"name": "E4",
			"ticks": 45840,
			"time": 52.090857,
			"velocity": 0.5826771653543307
		  },
		  {
			"duration": 0.09090900000000346,
			"durationTicks": 80,
			"midi": 69,
			"name": "A4",
			"ticks": 45840,
			"time": 52.090857,
			"velocity": 0.5826771653543307
		  },
		  {
			"duration": 0.09090900000000346,
			"durationTicks": 80,
			"midi": 61,
			"name": "C#4",
			"ticks": 46320,
			"time": 52.636311,
			"velocity": 0.6220472440944882
		  },
		  {
			"duration": 0.09090900000000346,
			"durationTicks": 80,
			"midi": 64,
			"name": "E4",
			"ticks": 46320,
			"time": 52.636311,
			"velocity": 0.6377952755905512
		  },
		  {
			"duration": 0.09090900000000346,
			"durationTicks": 80,
			"midi": 69,
			"name": "A4",
			"ticks": 46320,
			"time": 52.636311,
			"velocity": 0.6141732283464567
		  },
		  {
			"duration": 0.09090900000000346,
			"durationTicks": 80,
			"midi": 61,
			"name": "C#4",
			"ticks": 46800,
			"time": 53.181765,
			"velocity": 0.6377952755905512
		  },
		  {
			"duration": 0.09090900000000346,
			"durationTicks": 80,
			"midi": 64,
			"name": "E4",
			"ticks": 46800,
			"time": 53.181765,
			"velocity": 0.6141732283464567
		  },
		  {
			"duration": 0.09090900000000346,
			"durationTicks": 80,
			"midi": 69,
			"name": "A4",
			"ticks": 46800,
			"time": 53.181765,
			"velocity": 0.6299212598425197
		  },
		  {
			"duration": 0.09090900000000346,
			"durationTicks": 80,
			"midi": 62,
			"name": "D4",
			"ticks": 47280,
			"time": 53.727219,
			"velocity": 0.5748031496062992
		  },
		  {
			"duration": 0.09090900000000346,
			"durationTicks": 80,
			"midi": 66,
			"name": "F#4",
			"ticks": 47280,
			"time": 53.727219,
			"velocity": 0.5433070866141733
		  },
		  {
			"duration": 0.09090900000000346,
			"durationTicks": 80,
			"midi": 69,
			"name": "A4",
			"ticks": 47280,
			"time": 53.727219,
			"velocity": 0.5039370078740157
		  },
		  {
			"duration": 0.09090900000000346,
			"durationTicks": 80,
			"midi": 62,
			"name": "D4",
			"ticks": 47760,
			"time": 54.272673,
			"velocity": 0.5826771653543307
		  },
		  {
			"duration": 0.09090900000000346,
			"durationTicks": 80,
			"midi": 66,
			"name": "F#4",
			"ticks": 47760,
			"time": 54.272673,
			"velocity": 0.5826771653543307
		  },
		  {
			"duration": 0.09090900000000346,
			"durationTicks": 80,
			"midi": 69,
			"name": "A4",
			"ticks": 47760,
			"time": 54.272673,
			"velocity": 0.5826771653543307
		  },
		  {
			"duration": 0.09090900000000346,
			"durationTicks": 80,
			"midi": 62,
			"name": "D4",
			"ticks": 48240,
			"time": 54.818127,
			"velocity": 0.6220472440944882
		  },
		  {
			"duration": 0.09090900000000346,
			"durationTicks": 80,
			"midi": 66,
			"name": "F#4",
			"ticks": 48240,
			"time": 54.818127,
			"velocity": 0.6377952755905512
		  },
		  {
			"duration": 0.09090900000000346,
			"durationTicks": 80,
			"midi": 69,
			"name": "A4",
			"ticks": 48240,
			"time": 54.818127,
			"velocity": 0.6141732283464567
		  },
		  {
			"duration": 0.09090900000000346,
			"durationTicks": 80,
			"midi": 62,
			"name": "D4",
			"ticks": 48720,
			"time": 55.363580999999996,
			"velocity": 0.6377952755905512
		  },
		  {
			"duration": 0.09090900000000346,
			"durationTicks": 80,
			"midi": 66,
			"name": "F#4",
			"ticks": 48720,
			"time": 55.363580999999996,
			"velocity": 0.6141732283464567
		  },
		  {
			"duration": 0.09090900000000346,
			"durationTicks": 80,
			"midi": 69,
			"name": "A4",
			"ticks": 48720,
			"time": 55.363580999999996,
			"velocity": 0.6299212598425197
		  },
		  {
			"duration": 0.09090899999999635,
			"durationTicks": 80,
			"midi": 61,
			"name": "C#4",
			"ticks": 49200,
			"time": 55.909035,
			"velocity": 0.5748031496062992
		  },
		  {
			"duration": 0.09090899999999635,
			"durationTicks": 80,
			"midi": 64,
			"name": "E4",
			"ticks": 49200,
			"time": 55.909035,
			"velocity": 0.5433070866141733
		  },
		  {
			"duration": 0.09090899999999635,
			"durationTicks": 80,
			"midi": 69,
			"name": "A4",
			"ticks": 49200,
			"time": 55.909035,
			"velocity": 0.5039370078740157
		  },
		  {
			"duration": 0.09090899999999635,
			"durationTicks": 80,
			"midi": 59,
			"name": "B3",
			"ticks": 49680,
			"time": 56.454489,
			"velocity": 0.5826771653543307
		  },
		  {
			"duration": 0.09090899999999635,
			"durationTicks": 80,
			"midi": 62,
			"name": "D4",
			"ticks": 49680,
			"time": 56.454489,
			"velocity": 0.5826771653543307
		  },
		  {
			"duration": 0.09090899999999635,
			"durationTicks": 80,
			"midi": 68,
			"name": "G#4",
			"ticks": 49680,
			"time": 56.454489,
			"velocity": 0.5826771653543307
		  },
		  {
			"duration": 0.09090900000000346,
			"durationTicks": 80,
			"midi": 61,
			"name": "C#4",
			"ticks": 50160,
			"time": 56.999943,
			"velocity": 0.6220472440944882
		  },
		  {
			"duration": 0.09090900000000346,
			"durationTicks": 80,
			"midi": 64,
			"name": "E4",
			"ticks": 50160,
			"time": 56.999943,
			"velocity": 0.6377952755905512
		  },
		  {
			"duration": 0.09090900000000346,
			"durationTicks": 80,
			"midi": 69,
			"name": "A4",
			"ticks": 50160,
			"time": 56.999943,
			"velocity": 0.6141732283464567
		  },
		  {
			"duration": 0.09090900000000346,
			"durationTicks": 80,
			"midi": 61,
			"name": "C#4",
			"ticks": 50640,
			"time": 57.545397,
			"velocity": 0.6377952755905512
		  },
		  {
			"duration": 0.09090900000000346,
			"durationTicks": 80,
			"midi": 64,
			"name": "E4",
			"ticks": 50640,
			"time": 57.545397,
			"velocity": 0.6141732283464567
		  },
		  {
			"duration": 0.09090900000000346,
			"durationTicks": 80,
			"midi": 69,
			"name": "A4",
			"ticks": 50640,
			"time": 57.545397,
			"velocity": 0.6299212598425197
		  },
		  {
			"duration": 0.09090900000000346,
			"durationTicks": 80,
			"midi": 61,
			"name": "C#4",
			"ticks": 51120,
			"time": 58.090851,
			"velocity": 0.5748031496062992
		  },
		  {
			"duration": 0.09090900000000346,
			"durationTicks": 80,
			"midi": 64,
			"name": "E4",
			"ticks": 51120,
			"time": 58.090851,
			"velocity": 0.5433070866141733
		  },
		  {
			"duration": 0.09090900000000346,
			"durationTicks": 80,
			"midi": 69,
			"name": "A4",
			"ticks": 51120,
			"time": 58.090851,
			"velocity": 0.5039370078740157
		  },
		  {
			"duration": 0.09090900000000346,
			"durationTicks": 80,
			"midi": 61,
			"name": "C#4",
			"ticks": 51600,
			"time": 58.636305,
			"velocity": 0.5826771653543307
		  },
		  {
			"duration": 0.09090900000000346,
			"durationTicks": 80,
			"midi": 64,
			"name": "E4",
			"ticks": 51600,
			"time": 58.636305,
			"velocity": 0.5826771653543307
		  },
		  {
			"duration": 0.09090900000000346,
			"durationTicks": 80,
			"midi": 69,
			"name": "A4",
			"ticks": 51600,
			"time": 58.636305,
			"velocity": 0.5826771653543307
		  },
		  {
			"duration": 0.09090900000000346,
			"durationTicks": 80,
			"midi": 61,
			"name": "C#4",
			"ticks": 52080,
			"time": 59.181759,
			"velocity": 0.6220472440944882
		  },
		  {
			"duration": 0.09090900000000346,
			"durationTicks": 80,
			"midi": 64,
			"name": "E4",
			"ticks": 52080,
			"time": 59.181759,
			"velocity": 0.6377952755905512
		  },
		  {
			"duration": 0.09090900000000346,
			"durationTicks": 80,
			"midi": 69,
			"name": "A4",
			"ticks": 52080,
			"time": 59.181759,
			"velocity": 0.6141732283464567
		  },
		  {
			"duration": 0.09090900000000346,
			"durationTicks": 80,
			"midi": 59,
			"name": "B3",
			"ticks": 52560,
			"time": 59.727213,
			"velocity": 0.6377952755905512
		  },
		  {
			"duration": 0.09090900000000346,
			"durationTicks": 80,
			"midi": 62,
			"name": "D4",
			"ticks": 52560,
			"time": 59.727213,
			"velocity": 0.6141732283464567
		  },
		  {
			"duration": 0.09090900000000346,
			"durationTicks": 80,
			"midi": 68,
			"name": "G#4",
			"ticks": 52560,
			"time": 59.727213,
			"velocity": 0.6299212598425197
		  },
		  {
			"duration": 0.09090900000000346,
			"durationTicks": 80,
			"midi": 61,
			"name": "C#4",
			"ticks": 53040,
			"time": 60.272667,
			"velocity": 0.5748031496062992
		  },
		  {
			"duration": 0.09090900000000346,
			"durationTicks": 80,
			"midi": 64,
			"name": "E4",
			"ticks": 53040,
			"time": 60.272667,
			"velocity": 0.5433070866141733
		  },
		  {
			"duration": 0.09090900000000346,
			"durationTicks": 80,
			"midi": 69,
			"name": "A4",
			"ticks": 53040,
			"time": 60.272667,
			"velocity": 0.5039370078740157
		  },
		  {
			"duration": 0.09090900000000346,
			"durationTicks": 80,
			"midi": 61,
			"name": "C#4",
			"ticks": 53520,
			"time": 60.818121,
			"velocity": 0.5826771653543307
		  },
		  {
			"duration": 0.09090900000000346,
			"durationTicks": 80,
			"midi": 64,
			"name": "E4",
			"ticks": 53520,
			"time": 60.818121,
			"velocity": 0.5826771653543307
		  },
		  {
			"duration": 0.09090900000000346,
			"durationTicks": 80,
			"midi": 69,
			"name": "A4",
			"ticks": 53520,
			"time": 60.818121,
			"velocity": 0.5826771653543307
		  },
		  {
			"duration": 0.09090900000000346,
			"durationTicks": 80,
			"midi": 61,
			"name": "C#4",
			"ticks": 54000,
			"time": 61.363575,
			"velocity": 0.6220472440944882
		  },
		  {
			"duration": 0.09090900000000346,
			"durationTicks": 80,
			"midi": 64,
			"name": "E4",
			"ticks": 54000,
			"time": 61.363575,
			"velocity": 0.6377952755905512
		  },
		  {
			"duration": 0.09090900000000346,
			"durationTicks": 80,
			"midi": 69,
			"name": "A4",
			"ticks": 54000,
			"time": 61.363575,
			"velocity": 0.6141732283464567
		  },
		  {
			"duration": 0.09090900000000346,
			"durationTicks": 80,
			"midi": 59,
			"name": "B3",
			"ticks": 54480,
			"time": 61.909029,
			"velocity": 0.6377952755905512
		  },
		  {
			"duration": 0.09090900000000346,
			"durationTicks": 80,
			"midi": 62,
			"name": "D4",
			"ticks": 54480,
			"time": 61.909029,
			"velocity": 0.6141732283464567
		  },
		  {
			"duration": 0.09090900000000346,
			"durationTicks": 80,
			"midi": 68,
			"name": "G#4",
			"ticks": 54480,
			"time": 61.909029,
			"velocity": 0.6299212598425197
		  },
		  {
			"duration": 0.09090900000000346,
			"durationTicks": 80,
			"midi": 61,
			"name": "C#4",
			"ticks": 54960,
			"time": 62.454482999999996,
			"velocity": 0.5748031496062992
		  },
		  {
			"duration": 0.09090900000000346,
			"durationTicks": 80,
			"midi": 64,
			"name": "E4",
			"ticks": 54960,
			"time": 62.454482999999996,
			"velocity": 0.5433070866141733
		  },
		  {
			"duration": 0.09090900000000346,
			"durationTicks": 80,
			"midi": 69,
			"name": "A4",
			"ticks": 54960,
			"time": 62.454482999999996,
			"velocity": 0.5039370078740157
		  },
		  {
			"duration": 0.09090899999999635,
			"durationTicks": 80,
			"midi": 61,
			"name": "C#4",
			"ticks": 55440,
			"time": 62.999937,
			"velocity": 0.5826771653543307
		  },
		  {
			"duration": 0.09090899999999635,
			"durationTicks": 80,
			"midi": 64,
			"name": "E4",
			"ticks": 55440,
			"time": 62.999937,
			"velocity": 0.5826771653543307
		  },
		  {
			"duration": 0.09090899999999635,
			"durationTicks": 80,
			"midi": 69,
			"name": "A4",
			"ticks": 55440,
			"time": 62.999937,
			"velocity": 0.5826771653543307
		  },
		  {
			"duration": 0.09090899999999635,
			"durationTicks": 80,
			"midi": 62,
			"name": "D4",
			"ticks": 55920,
			"time": 63.545391,
			"velocity": 0.6220472440944882
		  },
		  {
			"duration": 0.09090899999999635,
			"durationTicks": 80,
			"midi": 66,
			"name": "F#4",
			"ticks": 55920,
			"time": 63.545391,
			"velocity": 0.6377952755905512
		  },
		  {
			"duration": 0.09090899999999635,
			"durationTicks": 80,
			"midi": 69,
			"name": "A4",
			"ticks": 55920,
			"time": 63.545391,
			"velocity": 0.6141732283464567
		  },
		  {
			"duration": 0.09090899999999635,
			"durationTicks": 80,
			"midi": 62,
			"name": "D4",
			"ticks": 56400,
			"time": 64.090845,
			"velocity": 0.6377952755905512
		  },
		  {
			"duration": 0.09090899999999635,
			"durationTicks": 80,
			"midi": 66,
			"name": "F#4",
			"ticks": 56400,
			"time": 64.090845,
			"velocity": 0.6141732283464567
		  },
		  {
			"duration": 0.09090899999999635,
			"durationTicks": 80,
			"midi": 69,
			"name": "A4",
			"ticks": 56400,
			"time": 64.090845,
			"velocity": 0.6299212598425197
		  },
		  {
			"duration": 0.09090900000001056,
			"durationTicks": 80,
			"midi": 59,
			"name": "B3",
			"ticks": 56880,
			"time": 64.636299,
			"velocity": 0.5748031496062992
		  },
		  {
			"duration": 0.09090900000001056,
			"durationTicks": 80,
			"midi": 62,
			"name": "D4",
			"ticks": 56880,
			"time": 64.636299,
			"velocity": 0.5433070866141733
		  },
		  {
			"duration": 0.09090900000001056,
			"durationTicks": 80,
			"midi": 68,
			"name": "G#4",
			"ticks": 56880,
			"time": 64.636299,
			"velocity": 0.5039370078740157
		  },
		  {
			"duration": 0.09090899999999635,
			"durationTicks": 80,
			"midi": 59,
			"name": "B3",
			"ticks": 57360,
			"time": 65.181753,
			"velocity": 0.5826771653543307
		  },
		  {
			"duration": 0.09090899999999635,
			"durationTicks": 80,
			"midi": 62,
			"name": "D4",
			"ticks": 57360,
			"time": 65.181753,
			"velocity": 0.5826771653543307
		  },
		  {
			"duration": 0.09090899999999635,
			"durationTicks": 80,
			"midi": 68,
			"name": "G#4",
			"ticks": 57360,
			"time": 65.181753,
			"velocity": 0.5826771653543307
		  },
		  {
			"duration": 0.09090900000001056,
			"durationTicks": 80,
			"midi": 61,
			"name": "C#4",
			"ticks": 57840,
			"time": 65.72720699999999,
			"velocity": 0.6220472440944882
		  },
		  {
			"duration": 0.09090900000001056,
			"durationTicks": 80,
			"midi": 64,
			"name": "E4",
			"ticks": 57840,
			"time": 65.72720699999999,
			"velocity": 0.6377952755905512
		  },
		  {
			"duration": 0.09090900000001056,
			"durationTicks": 80,
			"midi": 69,
			"name": "A4",
			"ticks": 57840,
			"time": 65.72720699999999,
			"velocity": 0.6141732283464567
		  },
		  {
			"duration": 0.09090899999999635,
			"durationTicks": 80,
			"midi": 61,
			"name": "C#4",
			"ticks": 58320,
			"time": 66.272661,
			"velocity": 0.6377952755905512
		  },
		  {
			"duration": 0.09090899999999635,
			"durationTicks": 80,
			"midi": 64,
			"name": "E4",
			"ticks": 58320,
			"time": 66.272661,
			"velocity": 0.6141732283464567
		  },
		  {
			"duration": 0.09090899999999635,
			"durationTicks": 80,
			"midi": 69,
			"name": "A4",
			"ticks": 58320,
			"time": 66.272661,
			"velocity": 0.6299212598425197
		  },
		  {
			"duration": 0.09090899999999635,
			"durationTicks": 80,
			"midi": 62,
			"name": "D4",
			"ticks": 58800,
			"time": 66.818115,
			"velocity": 0.5748031496062992
		  },
		  {
			"duration": 0.09090899999999635,
			"durationTicks": 80,
			"midi": 66,
			"name": "F#4",
			"ticks": 58800,
			"time": 66.818115,
			"velocity": 0.5433070866141733
		  },
		  {
			"duration": 0.09090899999999635,
			"durationTicks": 80,
			"midi": 69,
			"name": "A4",
			"ticks": 58800,
			"time": 66.818115,
			"velocity": 0.5039370078740157
		  },
		  {
			"duration": 0.09090900000001056,
			"durationTicks": 80,
			"midi": 62,
			"name": "D4",
			"ticks": 59280,
			"time": 67.363569,
			"velocity": 0.5826771653543307
		  },
		  {
			"duration": 0.09090900000001056,
			"durationTicks": 80,
			"midi": 66,
			"name": "F#4",
			"ticks": 59280,
			"time": 67.363569,
			"velocity": 0.5826771653543307
		  },
		  {
			"duration": 0.09090900000001056,
			"durationTicks": 80,
			"midi": 69,
			"name": "A4",
			"ticks": 59280,
			"time": 67.363569,
			"velocity": 0.5826771653543307
		  },
		  {
			"duration": 0.09090899999999635,
			"durationTicks": 80,
			"midi": 62,
			"name": "D4",
			"ticks": 59760,
			"time": 67.909023,
			"velocity": 0.6220472440944882
		  },
		  {
			"duration": 0.09090899999999635,
			"durationTicks": 80,
			"midi": 66,
			"name": "F#4",
			"ticks": 59760,
			"time": 67.909023,
			"velocity": 0.6377952755905512
		  },
		  {
			"duration": 0.09090899999999635,
			"durationTicks": 80,
			"midi": 69,
			"name": "A4",
			"ticks": 59760,
			"time": 67.909023,
			"velocity": 0.6141732283464567
		  },
		  {
			"duration": 0.09090900000001056,
			"durationTicks": 80,
			"midi": 62,
			"name": "D4",
			"ticks": 60240,
			"time": 68.454477,
			"velocity": 0.6377952755905512
		  },
		  {
			"duration": 0.09090900000001056,
			"durationTicks": 80,
			"midi": 66,
			"name": "F#4",
			"ticks": 60240,
			"time": 68.454477,
			"velocity": 0.6141732283464567
		  },
		  {
			"duration": 0.09090900000001056,
			"durationTicks": 80,
			"midi": 69,
			"name": "A4",
			"ticks": 60240,
			"time": 68.454477,
			"velocity": 0.6299212598425197
		  },
		  {
			"duration": 0.09090899999999635,
			"durationTicks": 80,
			"midi": 61,
			"name": "C#4",
			"ticks": 60720,
			"time": 68.999931,
			"velocity": 0.5748031496062992
		  },
		  {
			"duration": 0.09090899999999635,
			"durationTicks": 80,
			"midi": 64,
			"name": "E4",
			"ticks": 60720,
			"time": 68.999931,
			"velocity": 0.5433070866141733
		  },
		  {
			"duration": 0.09090899999999635,
			"durationTicks": 80,
			"midi": 69,
			"name": "A4",
			"ticks": 60720,
			"time": 68.999931,
			"velocity": 0.5039370078740157
		  },
		  {
			"duration": 0.09090900000001056,
			"durationTicks": 80,
			"midi": 61,
			"name": "C#4",
			"ticks": 61200,
			"time": 69.545385,
			"velocity": 0.5826771653543307
		  },
		  {
			"duration": 0.09090900000001056,
			"durationTicks": 80,
			"midi": 64,
			"name": "E4",
			"ticks": 61200,
			"time": 69.545385,
			"velocity": 0.5826771653543307
		  },
		  {
			"duration": 0.09090900000001056,
			"durationTicks": 80,
			"midi": 69,
			"name": "A4",
			"ticks": 61200,
			"time": 69.545385,
			"velocity": 0.5826771653543307
		  },
		  {
			"duration": 0.09090899999999635,
			"durationTicks": 80,
			"midi": 61,
			"name": "C#4",
			"ticks": 61680,
			"time": 70.090839,
			"velocity": 0.6220472440944882
		  },
		  {
			"duration": 0.09090899999999635,
			"durationTicks": 80,
			"midi": 64,
			"name": "E4",
			"ticks": 61680,
			"time": 70.090839,
			"velocity": 0.6377952755905512
		  },
		  {
			"duration": 0.09090899999999635,
			"durationTicks": 80,
			"midi": 69,
			"name": "A4",
			"ticks": 61680,
			"time": 70.090839,
			"velocity": 0.6141732283464567
		  },
		  {
			"duration": 0.09090899999999635,
			"durationTicks": 80,
			"midi": 61,
			"name": "C#4",
			"ticks": 62160,
			"time": 70.636293,
			"velocity": 0.6377952755905512
		  },
		  {
			"duration": 0.09090899999999635,
			"durationTicks": 80,
			"midi": 64,
			"name": "E4",
			"ticks": 62160,
			"time": 70.636293,
			"velocity": 0.6141732283464567
		  },
		  {
			"duration": 0.09090899999999635,
			"durationTicks": 80,
			"midi": 69,
			"name": "A4",
			"ticks": 62160,
			"time": 70.636293,
			"velocity": 0.6299212598425197
		  },
		  {
			"duration": 0.09090899999999635,
			"durationTicks": 80,
			"midi": 62,
			"name": "D4",
			"ticks": 62640,
			"time": 71.181747,
			"velocity": 0.5748031496062992
		  },
		  {
			"duration": 0.09090899999999635,
			"durationTicks": 80,
			"midi": 66,
			"name": "F#4",
			"ticks": 62640,
			"time": 71.181747,
			"velocity": 0.5433070866141733
		  },
		  {
			"duration": 0.09090899999999635,
			"durationTicks": 80,
			"midi": 69,
			"name": "A4",
			"ticks": 62640,
			"time": 71.181747,
			"velocity": 0.5039370078740157
		  },
		  {
			"duration": 0.09090899999999635,
			"durationTicks": 80,
			"midi": 62,
			"name": "D4",
			"ticks": 63120,
			"time": 71.727201,
			"velocity": 0.5826771653543307
		  },
		  {
			"duration": 0.09090899999999635,
			"durationTicks": 80,
			"midi": 66,
			"name": "F#4",
			"ticks": 63120,
			"time": 71.727201,
			"velocity": 0.5826771653543307
		  },
		  {
			"duration": 0.09090899999999635,
			"durationTicks": 80,
			"midi": 69,
			"name": "A4",
			"ticks": 63120,
			"time": 71.727201,
			"velocity": 0.5826771653543307
		  },
		  {
			"duration": 0.09090899999999635,
			"durationTicks": 80,
			"midi": 62,
			"name": "D4",
			"ticks": 63600,
			"time": 72.272655,
			"velocity": 0.6220472440944882
		  },
		  {
			"duration": 0.09090899999999635,
			"durationTicks": 80,
			"midi": 66,
			"name": "F#4",
			"ticks": 63600,
			"time": 72.272655,
			"velocity": 0.6377952755905512
		  },
		  {
			"duration": 0.09090899999999635,
			"durationTicks": 80,
			"midi": 69,
			"name": "A4",
			"ticks": 63600,
			"time": 72.272655,
			"velocity": 0.6141732283464567
		  },
		  {
			"duration": 0.09090899999999635,
			"durationTicks": 80,
			"midi": 62,
			"name": "D4",
			"ticks": 64080,
			"time": 72.81810899999999,
			"velocity": 0.6377952755905512
		  },
		  {
			"duration": 0.09090899999999635,
			"durationTicks": 80,
			"midi": 66,
			"name": "F#4",
			"ticks": 64080,
			"time": 72.81810899999999,
			"velocity": 0.6141732283464567
		  },
		  {
			"duration": 0.09090899999999635,
			"durationTicks": 80,
			"midi": 69,
			"name": "A4",
			"ticks": 64080,
			"time": 72.81810899999999,
			"velocity": 0.6299212598425197
		  },
		  {
			"duration": 0.09090899999999635,
			"durationTicks": 80,
			"midi": 61,
			"name": "C#4",
			"ticks": 64560,
			"time": 73.363563,
			"velocity": 0.5748031496062992
		  },
		  {
			"duration": 0.09090899999999635,
			"durationTicks": 80,
			"midi": 64,
			"name": "E4",
			"ticks": 64560,
			"time": 73.363563,
			"velocity": 0.5433070866141733
		  },
		  {
			"duration": 0.09090899999999635,
			"durationTicks": 80,
			"midi": 69,
			"name": "A4",
			"ticks": 64560,
			"time": 73.363563,
			"velocity": 0.5039370078740157
		  },
		  {
			"duration": 0.09090899999998214,
			"durationTicks": 80,
			"midi": 59,
			"name": "B3",
			"ticks": 65040,
			"time": 73.909017,
			"velocity": 0.5826771653543307
		  },
		  {
			"duration": 0.09090899999998214,
			"durationTicks": 80,
			"midi": 62,
			"name": "D4",
			"ticks": 65040,
			"time": 73.909017,
			"velocity": 0.5826771653543307
		  },
		  {
			"duration": 0.09090899999998214,
			"durationTicks": 80,
			"midi": 68,
			"name": "G#4",
			"ticks": 65040,
			"time": 73.909017,
			"velocity": 0.5826771653543307
		  },
		  {
			"duration": 0.09090899999999635,
			"durationTicks": 80,
			"midi": 61,
			"name": "C#4",
			"ticks": 65520,
			"time": 74.454471,
			"velocity": 0.6220472440944882
		  },
		  {
			"duration": 0.09090899999999635,
			"durationTicks": 80,
			"midi": 64,
			"name": "E4",
			"ticks": 65520,
			"time": 74.454471,
			"velocity": 0.6377952755905512
		  },
		  {
			"duration": 0.09090899999999635,
			"durationTicks": 80,
			"midi": 69,
			"name": "A4",
			"ticks": 65520,
			"time": 74.454471,
			"velocity": 0.6141732283464567
		  },
		  {
			"duration": 0.09090899999999635,
			"durationTicks": 80,
			"midi": 61,
			"name": "C#4",
			"ticks": 66000,
			"time": 74.999925,
			"velocity": 0.6377952755905512
		  },
		  {
			"duration": 0.09090899999999635,
			"durationTicks": 80,
			"midi": 64,
			"name": "E4",
			"ticks": 66000,
			"time": 74.999925,
			"velocity": 0.6141732283464567
		  },
		  {
			"duration": 0.09090899999999635,
			"durationTicks": 80,
			"midi": 69,
			"name": "A4",
			"ticks": 66000,
			"time": 74.999925,
			"velocity": 0.6299212598425197
		  },
		  {
			"duration": 0.09090899999999635,
			"durationTicks": 80,
			"midi": 61,
			"name": "C#4",
			"ticks": 66480,
			"time": 75.545379,
			"velocity": 0.5748031496062992
		  },
		  {
			"duration": 0.09090899999999635,
			"durationTicks": 80,
			"midi": 64,
			"name": "E4",
			"ticks": 66480,
			"time": 75.545379,
			"velocity": 0.5433070866141733
		  },
		  {
			"duration": 0.09090899999999635,
			"durationTicks": 80,
			"midi": 69,
			"name": "A4",
			"ticks": 66480,
			"time": 75.545379,
			"velocity": 0.5039370078740157
		  },
		  {
			"duration": 0.09090899999999635,
			"durationTicks": 80,
			"midi": 61,
			"name": "C#4",
			"ticks": 66960,
			"time": 76.090833,
			"velocity": 0.5826771653543307
		  },
		  {
			"duration": 0.09090899999999635,
			"durationTicks": 80,
			"midi": 64,
			"name": "E4",
			"ticks": 66960,
			"time": 76.090833,
			"velocity": 0.5826771653543307
		  },
		  {
			"duration": 0.09090899999999635,
			"durationTicks": 80,
			"midi": 69,
			"name": "A4",
			"ticks": 66960,
			"time": 76.090833,
			"velocity": 0.5826771653543307
		  },
		  {
			"duration": 0.09090899999999635,
			"durationTicks": 80,
			"midi": 61,
			"name": "C#4",
			"ticks": 67440,
			"time": 76.636287,
			"velocity": 0.6220472440944882
		  },
		  {
			"duration": 0.09090899999999635,
			"durationTicks": 80,
			"midi": 64,
			"name": "E4",
			"ticks": 67440,
			"time": 76.636287,
			"velocity": 0.6377952755905512
		  },
		  {
			"duration": 0.09090899999999635,
			"durationTicks": 80,
			"midi": 69,
			"name": "A4",
			"ticks": 67440,
			"time": 76.636287,
			"velocity": 0.6141732283464567
		  },
		  {
			"duration": 0.09090899999999635,
			"durationTicks": 80,
			"midi": 59,
			"name": "B3",
			"ticks": 67920,
			"time": 77.181741,
			"velocity": 0.6377952755905512
		  },
		  {
			"duration": 0.09090899999999635,
			"durationTicks": 80,
			"midi": 62,
			"name": "D4",
			"ticks": 67920,
			"time": 77.181741,
			"velocity": 0.6141732283464567
		  },
		  {
			"duration": 0.09090899999999635,
			"durationTicks": 80,
			"midi": 68,
			"name": "G#4",
			"ticks": 67920,
			"time": 77.181741,
			"velocity": 0.6299212598425197
		  },
		  {
			"duration": 0.09090899999999635,
			"durationTicks": 80,
			"midi": 61,
			"name": "C#4",
			"ticks": 68400,
			"time": 77.727195,
			"velocity": 0.5748031496062992
		  },
		  {
			"duration": 0.09090899999999635,
			"durationTicks": 80,
			"midi": 64,
			"name": "E4",
			"ticks": 68400,
			"time": 77.727195,
			"velocity": 0.5433070866141733
		  },
		  {
			"duration": 0.09090899999999635,
			"durationTicks": 80,
			"midi": 69,
			"name": "A4",
			"ticks": 68400,
			"time": 77.727195,
			"velocity": 0.5039370078740157
		  },
		  {
			"duration": 0.09090899999999635,
			"durationTicks": 80,
			"midi": 61,
			"name": "C#4",
			"ticks": 68880,
			"time": 78.272649,
			"velocity": 0.5826771653543307
		  },
		  {
			"duration": 0.09090899999999635,
			"durationTicks": 80,
			"midi": 64,
			"name": "E4",
			"ticks": 68880,
			"time": 78.272649,
			"velocity": 0.5826771653543307
		  },
		  {
			"duration": 0.09090899999999635,
			"durationTicks": 80,
			"midi": 69,
			"name": "A4",
			"ticks": 68880,
			"time": 78.272649,
			"velocity": 0.5826771653543307
		  },
		  {
			"duration": 0.09090899999999635,
			"durationTicks": 80,
			"midi": 61,
			"name": "C#4",
			"ticks": 69360,
			"time": 78.818103,
			"velocity": 0.6220472440944882
		  },
		  {
			"duration": 0.09090899999999635,
			"durationTicks": 80,
			"midi": 64,
			"name": "E4",
			"ticks": 69360,
			"time": 78.818103,
			"velocity": 0.6377952755905512
		  },
		  {
			"duration": 0.09090899999999635,
			"durationTicks": 80,
			"midi": 69,
			"name": "A4",
			"ticks": 69360,
			"time": 78.818103,
			"velocity": 0.6141732283464567
		  },
		  {
			"duration": 0.09090899999999635,
			"durationTicks": 80,
			"midi": 59,
			"name": "B3",
			"ticks": 69840,
			"time": 79.363557,
			"velocity": 0.6377952755905512
		  },
		  {
			"duration": 0.09090899999999635,
			"durationTicks": 80,
			"midi": 62,
			"name": "D4",
			"ticks": 69840,
			"time": 79.363557,
			"velocity": 0.6141732283464567
		  },
		  {
			"duration": 0.09090899999999635,
			"durationTicks": 80,
			"midi": 68,
			"name": "G#4",
			"ticks": 69840,
			"time": 79.363557,
			"velocity": 0.6299212598425197
		  },
		  {
			"duration": 0.09090899999999635,
			"durationTicks": 80,
			"midi": 61,
			"name": "C#4",
			"ticks": 70320,
			"time": 79.90901099999999,
			"velocity": 0.5748031496062992
		  },
		  {
			"duration": 0.09090899999999635,
			"durationTicks": 80,
			"midi": 64,
			"name": "E4",
			"ticks": 70320,
			"time": 79.90901099999999,
			"velocity": 0.5433070866141733
		  },
		  {
			"duration": 0.09090899999999635,
			"durationTicks": 80,
			"midi": 69,
			"name": "A4",
			"ticks": 70320,
			"time": 79.90901099999999,
			"velocity": 0.5039370078740157
		  },
		  {
			"duration": 0.09090899999999635,
			"durationTicks": 80,
			"midi": 61,
			"name": "C#4",
			"ticks": 70800,
			"time": 80.454465,
			"velocity": 0.5826771653543307
		  },
		  {
			"duration": 0.09090899999999635,
			"durationTicks": 80,
			"midi": 64,
			"name": "E4",
			"ticks": 70800,
			"time": 80.454465,
			"velocity": 0.5826771653543307
		  },
		  {
			"duration": 0.09090899999999635,
			"durationTicks": 80,
			"midi": 69,
			"name": "A4",
			"ticks": 70800,
			"time": 80.454465,
			"velocity": 0.5826771653543307
		  },
		  {
			"duration": 0.09090899999998214,
			"durationTicks": 80,
			"midi": 62,
			"name": "D4",
			"ticks": 71280,
			"time": 80.999919,
			"velocity": 0.6220472440944882
		  },
		  {
			"duration": 0.09090899999998214,
			"durationTicks": 80,
			"midi": 66,
			"name": "F#4",
			"ticks": 71280,
			"time": 80.999919,
			"velocity": 0.6377952755905512
		  },
		  {
			"duration": 0.09090899999998214,
			"durationTicks": 80,
			"midi": 69,
			"name": "A4",
			"ticks": 71280,
			"time": 80.999919,
			"velocity": 0.6141732283464567
		  },
		  {
			"duration": 0.09090899999999635,
			"durationTicks": 80,
			"midi": 62,
			"name": "D4",
			"ticks": 71760,
			"time": 81.545373,
			"velocity": 0.6377952755905512
		  },
		  {
			"duration": 0.09090899999999635,
			"durationTicks": 80,
			"midi": 66,
			"name": "F#4",
			"ticks": 71760,
			"time": 81.545373,
			"velocity": 0.6141732283464567
		  },
		  {
			"duration": 0.09090899999999635,
			"durationTicks": 80,
			"midi": 69,
			"name": "A4",
			"ticks": 71760,
			"time": 81.545373,
			"velocity": 0.6299212598425197
		  },
		  {
			"duration": 0.09090899999999635,
			"durationTicks": 80,
			"midi": 59,
			"name": "B3",
			"ticks": 72240,
			"time": 82.090827,
			"velocity": 0.5748031496062992
		  },
		  {
			"duration": 0.09090899999999635,
			"durationTicks": 80,
			"midi": 62,
			"name": "D4",
			"ticks": 72240,
			"time": 82.090827,
			"velocity": 0.5433070866141733
		  },
		  {
			"duration": 0.09090899999999635,
			"durationTicks": 80,
			"midi": 68,
			"name": "G#4",
			"ticks": 72240,
			"time": 82.090827,
			"velocity": 0.5039370078740157
		  },
		  {
			"duration": 0.09090899999999635,
			"durationTicks": 80,
			"midi": 59,
			"name": "B3",
			"ticks": 72720,
			"time": 82.636281,
			"velocity": 0.5826771653543307
		  },
		  {
			"duration": 0.09090899999999635,
			"durationTicks": 80,
			"midi": 62,
			"name": "D4",
			"ticks": 72720,
			"time": 82.636281,
			"velocity": 0.5826771653543307
		  },
		  {
			"duration": 0.09090899999999635,
			"durationTicks": 80,
			"midi": 68,
			"name": "G#4",
			"ticks": 72720,
			"time": 82.636281,
			"velocity": 0.5826771653543307
		  },
		  {
			"duration": 0.09090899999999635,
			"durationTicks": 80,
			"midi": 61,
			"name": "C#4",
			"ticks": 73200,
			"time": 83.181735,
			"velocity": 0.6220472440944882
		  },
		  {
			"duration": 0.09090899999999635,
			"durationTicks": 80,
			"midi": 64,
			"name": "E4",
			"ticks": 73200,
			"time": 83.181735,
			"velocity": 0.6377952755905512
		  },
		  {
			"duration": 0.09090899999999635,
			"durationTicks": 80,
			"midi": 69,
			"name": "A4",
			"ticks": 73200,
			"time": 83.181735,
			"velocity": 0.6141732283464567
		  },
		  {
			"duration": 0.09090899999999635,
			"durationTicks": 80,
			"midi": 61,
			"name": "C#4",
			"ticks": 73680,
			"time": 83.727189,
			"velocity": 0.6377952755905512
		  },
		  {
			"duration": 0.09090899999999635,
			"durationTicks": 80,
			"midi": 64,
			"name": "E4",
			"ticks": 73680,
			"time": 83.727189,
			"velocity": 0.6141732283464567
		  },
		  {
			"duration": 0.09090899999999635,
			"durationTicks": 80,
			"midi": 69,
			"name": "A4",
			"ticks": 73680,
			"time": 83.727189,
			"velocity": 0.6299212598425197
		  },
		  {
			"duration": 0.09090899999999635,
			"durationTicks": 80,
			"midi": 62,
			"name": "D4",
			"ticks": 74160,
			"time": 84.272643,
			"velocity": 0.5748031496062992
		  },
		  {
			"duration": 0.09090899999999635,
			"durationTicks": 80,
			"midi": 66,
			"name": "F#4",
			"ticks": 74160,
			"time": 84.272643,
			"velocity": 0.5433070866141733
		  },
		  {
			"duration": 0.09090899999999635,
			"durationTicks": 80,
			"midi": 69,
			"name": "A4",
			"ticks": 74160,
			"time": 84.272643,
			"velocity": 0.5039370078740157
		  },
		  {
			"duration": 0.09090899999999635,
			"durationTicks": 80,
			"midi": 62,
			"name": "D4",
			"ticks": 74640,
			"time": 84.818097,
			"velocity": 0.5826771653543307
		  },
		  {
			"duration": 0.09090899999999635,
			"durationTicks": 80,
			"midi": 66,
			"name": "F#4",
			"ticks": 74640,
			"time": 84.818097,
			"velocity": 0.5826771653543307
		  },
		  {
			"duration": 0.09090899999999635,
			"durationTicks": 80,
			"midi": 69,
			"name": "A4",
			"ticks": 74640,
			"time": 84.818097,
			"velocity": 0.5826771653543307
		  },
		  {
			"duration": 0.09090899999999635,
			"durationTicks": 80,
			"midi": 62,
			"name": "D4",
			"ticks": 75120,
			"time": 85.363551,
			"velocity": 0.6220472440944882
		  },
		  {
			"duration": 0.09090899999999635,
			"durationTicks": 80,
			"midi": 66,
			"name": "F#4",
			"ticks": 75120,
			"time": 85.363551,
			"velocity": 0.6377952755905512
		  },
		  {
			"duration": 0.09090899999999635,
			"durationTicks": 80,
			"midi": 69,
			"name": "A4",
			"ticks": 75120,
			"time": 85.363551,
			"velocity": 0.6141732283464567
		  },
		  {
			"duration": 0.09090899999999635,
			"durationTicks": 80,
			"midi": 62,
			"name": "D4",
			"ticks": 75600,
			"time": 85.909005,
			"velocity": 0.6377952755905512
		  },
		  {
			"duration": 0.09090899999999635,
			"durationTicks": 80,
			"midi": 66,
			"name": "F#4",
			"ticks": 75600,
			"time": 85.909005,
			"velocity": 0.6141732283464567
		  },
		  {
			"duration": 0.09090899999999635,
			"durationTicks": 80,
			"midi": 69,
			"name": "A4",
			"ticks": 75600,
			"time": 85.909005,
			"velocity": 0.6299212598425197
		  },
		  {
			"duration": 0.09090899999999635,
			"durationTicks": 80,
			"midi": 61,
			"name": "C#4",
			"ticks": 76080,
			"time": 86.454459,
			"velocity": 0.5748031496062992
		  },
		  {
			"duration": 0.09090899999999635,
			"durationTicks": 80,
			"midi": 64,
			"name": "E4",
			"ticks": 76080,
			"time": 86.454459,
			"velocity": 0.5433070866141733
		  },
		  {
			"duration": 0.09090899999999635,
			"durationTicks": 80,
			"midi": 69,
			"name": "A4",
			"ticks": 76080,
			"time": 86.454459,
			"velocity": 0.5039370078740157
		  },
		  {
			"duration": 0.09090899999999635,
			"durationTicks": 80,
			"midi": 61,
			"name": "C#4",
			"ticks": 76560,
			"time": 86.99991299999999,
			"velocity": 0.5826771653543307
		  },
		  {
			"duration": 0.09090899999999635,
			"durationTicks": 80,
			"midi": 64,
			"name": "E4",
			"ticks": 76560,
			"time": 86.99991299999999,
			"velocity": 0.5826771653543307
		  },
		  {
			"duration": 0.09090899999999635,
			"durationTicks": 80,
			"midi": 69,
			"name": "A4",
			"ticks": 76560,
			"time": 86.99991299999999,
			"velocity": 0.5826771653543307
		  },
		  {
			"duration": 0.09090899999999635,
			"durationTicks": 80,
			"midi": 61,
			"name": "C#4",
			"ticks": 77040,
			"time": 87.545367,
			"velocity": 0.6220472440944882
		  },
		  {
			"duration": 0.09090899999999635,
			"durationTicks": 80,
			"midi": 64,
			"name": "E4",
			"ticks": 77040,
			"time": 87.545367,
			"velocity": 0.6377952755905512
		  },
		  {
			"duration": 0.09090899999999635,
			"durationTicks": 80,
			"midi": 69,
			"name": "A4",
			"ticks": 77040,
			"time": 87.545367,
			"velocity": 0.6141732283464567
		  },
		  {
			"duration": 0.09090899999998214,
			"durationTicks": 80,
			"midi": 61,
			"name": "C#4",
			"ticks": 77520,
			"time": 88.090821,
			"velocity": 0.6377952755905512
		  },
		  {
			"duration": 0.09090899999998214,
			"durationTicks": 80,
			"midi": 64,
			"name": "E4",
			"ticks": 77520,
			"time": 88.090821,
			"velocity": 0.6141732283464567
		  },
		  {
			"duration": 0.09090899999998214,
			"durationTicks": 80,
			"midi": 69,
			"name": "A4",
			"ticks": 77520,
			"time": 88.090821,
			"velocity": 0.6299212598425197
		  },
		  {
			"duration": 0.09090899999999635,
			"durationTicks": 80,
			"midi": 62,
			"name": "D4",
			"ticks": 78000,
			"time": 88.636275,
			"velocity": 0.5748031496062992
		  },
		  {
			"duration": 0.09090899999999635,
			"durationTicks": 80,
			"midi": 66,
			"name": "F#4",
			"ticks": 78000,
			"time": 88.636275,
			"velocity": 0.5433070866141733
		  },
		  {
			"duration": 0.09090899999999635,
			"durationTicks": 80,
			"midi": 69,
			"name": "A4",
			"ticks": 78000,
			"time": 88.636275,
			"velocity": 0.5039370078740157
		  },
		  {
			"duration": 0.09090899999999635,
			"durationTicks": 80,
			"midi": 62,
			"name": "D4",
			"ticks": 78480,
			"time": 89.181729,
			"velocity": 0.5826771653543307
		  },
		  {
			"duration": 0.09090899999999635,
			"durationTicks": 80,
			"midi": 66,
			"name": "F#4",
			"ticks": 78480,
			"time": 89.181729,
			"velocity": 0.5826771653543307
		  },
		  {
			"duration": 0.09090899999999635,
			"durationTicks": 80,
			"midi": 69,
			"name": "A4",
			"ticks": 78480,
			"time": 89.181729,
			"velocity": 0.5826771653543307
		  },
		  {
			"duration": 0.09090899999999635,
			"durationTicks": 80,
			"midi": 62,
			"name": "D4",
			"ticks": 78960,
			"time": 89.727183,
			"velocity": 0.6220472440944882
		  },
		  {
			"duration": 0.09090899999999635,
			"durationTicks": 80,
			"midi": 66,
			"name": "F#4",
			"ticks": 78960,
			"time": 89.727183,
			"velocity": 0.6377952755905512
		  },
		  {
			"duration": 0.09090899999999635,
			"durationTicks": 80,
			"midi": 69,
			"name": "A4",
			"ticks": 78960,
			"time": 89.727183,
			"velocity": 0.6141732283464567
		  },
		  {
			"duration": 0.09090899999999635,
			"durationTicks": 80,
			"midi": 62,
			"name": "D4",
			"ticks": 79440,
			"time": 90.272637,
			"velocity": 0.6377952755905512
		  },
		  {
			"duration": 0.09090899999999635,
			"durationTicks": 80,
			"midi": 66,
			"name": "F#4",
			"ticks": 79440,
			"time": 90.272637,
			"velocity": 0.6141732283464567
		  },
		  {
			"duration": 0.09090899999999635,
			"durationTicks": 80,
			"midi": 69,
			"name": "A4",
			"ticks": 79440,
			"time": 90.272637,
			"velocity": 0.6299212598425197
		  },
		  {
			"duration": 0.09090899999999635,
			"durationTicks": 80,
			"midi": 61,
			"name": "C#4",
			"ticks": 79920,
			"time": 90.818091,
			"velocity": 0.5748031496062992
		  },
		  {
			"duration": 0.09090899999999635,
			"durationTicks": 80,
			"midi": 64,
			"name": "E4",
			"ticks": 79920,
			"time": 90.818091,
			"velocity": 0.5433070866141733
		  },
		  {
			"duration": 0.09090899999999635,
			"durationTicks": 80,
			"midi": 69,
			"name": "A4",
			"ticks": 79920,
			"time": 90.818091,
			"velocity": 0.5039370078740157
		  },
		  {
			"duration": 0.09090899999999635,
			"durationTicks": 80,
			"midi": 59,
			"name": "B3",
			"ticks": 80400,
			"time": 91.363545,
			"velocity": 0.5826771653543307
		  },
		  {
			"duration": 0.09090899999999635,
			"durationTicks": 80,
			"midi": 62,
			"name": "D4",
			"ticks": 80400,
			"time": 91.363545,
			"velocity": 0.5826771653543307
		  },
		  {
			"duration": 0.09090899999999635,
			"durationTicks": 80,
			"midi": 68,
			"name": "G#4",
			"ticks": 80400,
			"time": 91.363545,
			"velocity": 0.5826771653543307
		  },
		  {
			"duration": 0.09090899999999635,
			"durationTicks": 80,
			"midi": 61,
			"name": "C#4",
			"ticks": 80880,
			"time": 91.908999,
			"velocity": 0.6220472440944882
		  },
		  {
			"duration": 0.09090899999999635,
			"durationTicks": 80,
			"midi": 64,
			"name": "E4",
			"ticks": 80880,
			"time": 91.908999,
			"velocity": 0.6377952755905512
		  },
		  {
			"duration": 0.09090899999999635,
			"durationTicks": 80,
			"midi": 69,
			"name": "A4",
			"ticks": 80880,
			"time": 91.908999,
			"velocity": 0.6141732283464567
		  },
		  {
			"duration": 0.09090899999999635,
			"durationTicks": 80,
			"midi": 61,
			"name": "C#4",
			"ticks": 81360,
			"time": 92.454453,
			"velocity": 0.6377952755905512
		  },
		  {
			"duration": 0.09090899999999635,
			"durationTicks": 80,
			"midi": 64,
			"name": "E4",
			"ticks": 81360,
			"time": 92.454453,
			"velocity": 0.6141732283464567
		  },
		  {
			"duration": 0.09090899999999635,
			"durationTicks": 80,
			"midi": 69,
			"name": "A4",
			"ticks": 81360,
			"time": 92.454453,
			"velocity": 0.6299212598425197
		  },
		  {
			"duration": 0.09090899999999635,
			"durationTicks": 80,
			"midi": 61,
			"name": "C#4",
			"ticks": 81840,
			"time": 92.999907,
			"velocity": 0.5748031496062992
		  },
		  {
			"duration": 0.09090899999999635,
			"durationTicks": 80,
			"midi": 64,
			"name": "E4",
			"ticks": 81840,
			"time": 92.999907,
			"velocity": 0.5433070866141733
		  },
		  {
			"duration": 0.09090899999999635,
			"durationTicks": 80,
			"midi": 69,
			"name": "A4",
			"ticks": 81840,
			"time": 92.999907,
			"velocity": 0.5039370078740157
		  },
		  {
			"duration": 0.09090899999999635,
			"durationTicks": 80,
			"midi": 61,
			"name": "C#4",
			"ticks": 82320,
			"time": 93.545361,
			"velocity": 0.5826771653543307
		  },
		  {
			"duration": 0.09090899999999635,
			"durationTicks": 80,
			"midi": 64,
			"name": "E4",
			"ticks": 82320,
			"time": 93.545361,
			"velocity": 0.5826771653543307
		  },
		  {
			"duration": 0.09090899999999635,
			"durationTicks": 80,
			"midi": 69,
			"name": "A4",
			"ticks": 82320,
			"time": 93.545361,
			"velocity": 0.5826771653543307
		  },
		  {
			"duration": 0.09090899999999635,
			"durationTicks": 80,
			"midi": 61,
			"name": "C#4",
			"ticks": 82800,
			"time": 94.09081499999999,
			"velocity": 0.6220472440944882
		  },
		  {
			"duration": 0.09090899999999635,
			"durationTicks": 80,
			"midi": 64,
			"name": "E4",
			"ticks": 82800,
			"time": 94.09081499999999,
			"velocity": 0.6377952755905512
		  },
		  {
			"duration": 0.09090899999999635,
			"durationTicks": 80,
			"midi": 69,
			"name": "A4",
			"ticks": 82800,
			"time": 94.09081499999999,
			"velocity": 0.6141732283464567
		  },
		  {
			"duration": 0.09090899999999635,
			"durationTicks": 80,
			"midi": 61,
			"name": "C#4",
			"ticks": 83280,
			"time": 94.636269,
			"velocity": 0.6377952755905512
		  },
		  {
			"duration": 0.09090899999999635,
			"durationTicks": 80,
			"midi": 64,
			"name": "E4",
			"ticks": 83280,
			"time": 94.636269,
			"velocity": 0.6141732283464567
		  },
		  {
			"duration": 0.09090899999999635,
			"durationTicks": 80,
			"midi": 69,
			"name": "A4",
			"ticks": 83280,
			"time": 94.636269,
			"velocity": 0.6299212598425197
		  }
		]
	  },
	  {
		"channel": 12,
		"controlChanges": {
		  "7": [
			{
			  "number": 7,
			  "ticks": 620,
			  "time": 0.70454475,
			  "value": 0.5511811023622047
			}
		  ],
		  "10": [
			{
			  "number": 10,
			  "ticks": 625,
			  "time": 0.7102265624999999,
			  "value": 0.3700787401574803
			}
		  ],
		  "74": [
			{
			  "number": 74,
			  "ticks": 960,
			  "time": 1.090908,
			  "value": 0.5196850393700787
			},
			{
			  "number": 74,
			  "ticks": 2880,
			  "time": 3.272724,
			  "value": 0.5196850393700787
			},
			{
			  "number": 74,
			  "ticks": 3840,
			  "time": 4.363632,
			  "value": 0.5196850393700787
			},
			{
			  "number": 74,
			  "ticks": 4800,
			  "time": 5.45454,
			  "value": 0.5196850393700787
			},
			{
			  "number": 74,
			  "ticks": 6720,
			  "time": 7.636356,
			  "value": 0.5196850393700787
			},
			{
			  "number": 74,
			  "ticks": 8640,
			  "time": 9.818172,
			  "value": 0.5196850393700787
			},
			{
			  "number": 74,
			  "ticks": 10560,
			  "time": 11.999988,
			  "value": 0.5196850393700787
			},
			{
			  "number": 74,
			  "ticks": 12480,
			  "time": 14.181804,
			  "value": 0.5196850393700787
			},
			{
			  "number": 74,
			  "ticks": 14400,
			  "time": 16.36362,
			  "value": 0.5196850393700787
			},
			{
			  "number": 74,
			  "ticks": 16320,
			  "time": 18.545436,
			  "value": 0.5196850393700787
			},
			{
			  "number": 74,
			  "ticks": 18240,
			  "time": 20.727252,
			  "value": 0.5196850393700787
			},
			{
			  "number": 74,
			  "ticks": 20160,
			  "time": 22.909068,
			  "value": 0.5196850393700787
			},
			{
			  "number": 74,
			  "ticks": 22080,
			  "time": 25.090884,
			  "value": 0.5196850393700787
			},
			{
			  "number": 74,
			  "ticks": 24000,
			  "time": 27.2727,
			  "value": 0.5196850393700787
			},
			{
			  "number": 74,
			  "ticks": 25920,
			  "time": 29.454515999999998,
			  "value": 0.5196850393700787
			},
			{
			  "number": 74,
			  "ticks": 27840,
			  "time": 31.636332,
			  "value": 0.5196850393700787
			},
			{
			  "number": 74,
			  "ticks": 29760,
			  "time": 33.818148,
			  "value": 0.5196850393700787
			},
			{
			  "number": 74,
			  "ticks": 31680,
			  "time": 35.999964,
			  "value": 0.5196850393700787
			},
			{
			  "number": 74,
			  "ticks": 33600,
			  "time": 38.181779999999996,
			  "value": 0.5196850393700787
			},
			{
			  "number": 74,
			  "ticks": 35520,
			  "time": 40.363596,
			  "value": 0.5196850393700787
			},
			{
			  "number": 74,
			  "ticks": 37440,
			  "time": 42.545412,
			  "value": 0.5196850393700787
			},
			{
			  "number": 74,
			  "ticks": 39360,
			  "time": 44.727228,
			  "value": 0.5196850393700787
			},
			{
			  "number": 74,
			  "ticks": 41280,
			  "time": 46.909044,
			  "value": 0.5196850393700787
			},
			{
			  "number": 74,
			  "ticks": 43200,
			  "time": 49.09086,
			  "value": 0.5196850393700787
			},
			{
			  "number": 74,
			  "ticks": 45120,
			  "time": 51.272676,
			  "value": 0.5196850393700787
			},
			{
			  "number": 74,
			  "ticks": 47040,
			  "time": 53.454492,
			  "value": 0.5196850393700787
			},
			{
			  "number": 74,
			  "ticks": 48960,
			  "time": 55.636308,
			  "value": 0.5196850393700787
			},
			{
			  "number": 74,
			  "ticks": 50880,
			  "time": 57.818124,
			  "value": 0.5196850393700787
			},
			{
			  "number": 74,
			  "ticks": 52800,
			  "time": 59.99994,
			  "value": 0.5196850393700787
			},
			{
			  "number": 74,
			  "ticks": 54720,
			  "time": 62.181756,
			  "value": 0.5196850393700787
			},
			{
			  "number": 74,
			  "ticks": 56640,
			  "time": 64.363572,
			  "value": 0.5196850393700787
			},
			{
			  "number": 74,
			  "ticks": 58560,
			  "time": 66.545388,
			  "value": 0.5196850393700787
			},
			{
			  "number": 74,
			  "ticks": 60480,
			  "time": 68.727204,
			  "value": 0.5196850393700787
			},
			{
			  "number": 74,
			  "ticks": 62400,
			  "time": 70.90902,
			  "value": 0.5196850393700787
			},
			{
			  "number": 74,
			  "ticks": 64320,
			  "time": 73.090836,
			  "value": 0.5196850393700787
			},
			{
			  "number": 74,
			  "ticks": 66240,
			  "time": 75.272652,
			  "value": 0.5196850393700787
			},
			{
			  "number": 74,
			  "ticks": 68160,
			  "time": 77.454468,
			  "value": 0.5196850393700787
			},
			{
			  "number": 74,
			  "ticks": 70080,
			  "time": 79.636284,
			  "value": 0.5196850393700787
			},
			{
			  "number": 74,
			  "ticks": 72000,
			  "time": 81.8181,
			  "value": 0.5196850393700787
			},
			{
			  "number": 74,
			  "ticks": 73920,
			  "time": 83.999916,
			  "value": 0.5196850393700787
			},
			{
			  "number": 74,
			  "ticks": 75840,
			  "time": 86.181732,
			  "value": 0.5196850393700787
			},
			{
			  "number": 74,
			  "ticks": 77760,
			  "time": 88.363548,
			  "value": 0.5196850393700787
			},
			{
			  "number": 74,
			  "ticks": 79680,
			  "time": 90.54536399999999,
			  "value": 0.5196850393700787
			},
			{
			  "number": 74,
			  "ticks": 81600,
			  "time": 92.72718,
			  "value": 0.5196850393700787
			}
		  ],
		  "91": [
			{
			  "number": 91,
			  "ticks": 960,
			  "time": 1.090908,
			  "value": 0.2992125984251969
			}
		  ]
		},
		"pitchBends": [],
		"instrument": {
		  "family": "bass",
		  "name": "electric bass (pick)",
		  "number": 34
		},
		"name": "",
		"notes": [
		  {
			"duration": 0.27272699999999994,
			"durationTicks": 240,
			"midi": 26,
			"name": "D1",
			"ticks": 960,
			"time": 1.090908,
			"velocity": 0.5826771653543307
		  },
		  {
			"duration": 0.27272699999999994,
			"durationTicks": 240,
			"midi": 38,
			"name": "D2",
			"ticks": 960,
			"time": 1.090908,
			"velocity": 0.5826771653543307
		  },
		  {
			"duration": 0.27272699999999994,
			"durationTicks": 240,
			"midi": 21,
			"name": "A0",
			"ticks": 1440,
			"time": 1.636362,
			"velocity": 0.5669291338582677
		  },
		  {
			"duration": 0.27272699999999994,
			"durationTicks": 240,
			"midi": 33,
			"name": "A1",
			"ticks": 1440,
			"time": 1.636362,
			"velocity": 0.5118110236220472
		  },
		  {
			"duration": 0.27272700000000016,
			"durationTicks": 240,
			"midi": 26,
			"name": "D1",
			"ticks": 1920,
			"time": 2.181816,
			"velocity": 0.6220472440944882
		  },
		  {
			"duration": 0.27272700000000016,
			"durationTicks": 240,
			"midi": 38,
			"name": "D2",
			"ticks": 1920,
			"time": 2.181816,
			"velocity": 0.6614173228346457
		  },
		  {
			"duration": 0.27272700000000016,
			"durationTicks": 240,
			"midi": 21,
			"name": "A0",
			"ticks": 2400,
			"time": 2.72727,
			"velocity": 0.6535433070866141
		  },
		  {
			"duration": 0.27272700000000016,
			"durationTicks": 240,
			"midi": 33,
			"name": "A1",
			"ticks": 2400,
			"time": 2.72727,
			"velocity": 0.6220472440944882
		  },
		  {
			"duration": 0.2727269999999997,
			"durationTicks": 240,
			"midi": 33,
			"name": "A1",
			"ticks": 2880,
			"time": 3.272724,
			"velocity": 0.5826771653543307
		  },
		  {
			"duration": 0.2727269999999997,
			"durationTicks": 240,
			"midi": 45,
			"name": "A2",
			"ticks": 2880,
			"time": 3.272724,
			"velocity": 0.5826771653543307
		  },
		  {
			"duration": 0.27272700000000016,
			"durationTicks": 240,
			"midi": 28,
			"name": "E1",
			"ticks": 3360,
			"time": 3.818178,
			"velocity": 0.5118110236220472
		  },
		  {
			"duration": 0.2727269999999997,
			"durationTicks": 240,
			"midi": 33,
			"name": "A1",
			"ticks": 3840,
			"time": 4.363632,
			"velocity": 0.5826771653543307
		  },
		  {
			"duration": 0.2727269999999997,
			"durationTicks": 240,
			"midi": 45,
			"name": "A2",
			"ticks": 3840,
			"time": 4.363632,
			"velocity": 0.5826771653543307
		  },
		  {
			"duration": 0.2727269999999997,
			"durationTicks": 240,
			"midi": 28,
			"name": "E1",
			"ticks": 4320,
			"time": 4.909086,
			"velocity": 0.5669291338582677
		  },
		  {
			"duration": 0.2727269999999997,
			"durationTicks": 240,
			"midi": 40,
			"name": "E2",
			"ticks": 4320,
			"time": 4.909086,
			"velocity": 0.5118110236220472
		  },
		  {
			"duration": 0.2727270000000006,
			"durationTicks": 240,
			"midi": 33,
			"name": "A1",
			"ticks": 4800,
			"time": 5.45454,
			"velocity": 0.5826771653543307
		  },
		  {
			"duration": 0.2727270000000006,
			"durationTicks": 240,
			"midi": 45,
			"name": "A2",
			"ticks": 4800,
			"time": 5.45454,
			"velocity": 0.5826771653543307
		  },
		  {
			"duration": 0.2727269999999997,
			"durationTicks": 240,
			"midi": 28,
			"name": "E1",
			"ticks": 5280,
			"time": 5.999994,
			"velocity": 0.5669291338582677
		  },
		  {
			"duration": 0.2727269999999997,
			"durationTicks": 240,
			"midi": 40,
			"name": "E2",
			"ticks": 5280,
			"time": 5.999994,
			"velocity": 0.5118110236220472
		  },
		  {
			"duration": 0.2727269999999997,
			"durationTicks": 240,
			"midi": 33,
			"name": "A1",
			"ticks": 5760,
			"time": 6.545448,
			"velocity": 0.6220472440944882
		  },
		  {
			"duration": 0.2727269999999997,
			"durationTicks": 240,
			"midi": 45,
			"name": "A2",
			"ticks": 5760,
			"time": 6.545448,
			"velocity": 0.6614173228346457
		  },
		  {
			"duration": 0.2727269999999997,
			"durationTicks": 240,
			"midi": 28,
			"name": "E1",
			"ticks": 6240,
			"time": 7.090902,
			"velocity": 0.6220472440944882
		  },
		  {
			"duration": 0.2727269999999997,
			"durationTicks": 240,
			"midi": 33,
			"name": "A1",
			"ticks": 6720,
			"time": 7.636356,
			"velocity": 0.5826771653543307
		  },
		  {
			"duration": 0.2727269999999997,
			"durationTicks": 240,
			"midi": 45,
			"name": "A2",
			"ticks": 6720,
			"time": 7.636356,
			"velocity": 0.5826771653543307
		  },
		  {
			"duration": 0.2727269999999997,
			"durationTicks": 240,
			"midi": 28,
			"name": "E1",
			"ticks": 7200,
			"time": 8.18181,
			"velocity": 0.5669291338582677
		  },
		  {
			"duration": 0.2727269999999997,
			"durationTicks": 240,
			"midi": 40,
			"name": "E2",
			"ticks": 7200,
			"time": 8.18181,
			"velocity": 0.5118110236220472
		  },
		  {
			"duration": 0.2727269999999997,
			"durationTicks": 240,
			"midi": 33,
			"name": "A1",
			"ticks": 7680,
			"time": 8.727264,
			"velocity": 0.6220472440944882
		  },
		  {
			"duration": 0.2727269999999997,
			"durationTicks": 240,
			"midi": 45,
			"name": "A2",
			"ticks": 7680,
			"time": 8.727264,
			"velocity": 0.6614173228346457
		  },
		  {
			"duration": 0.2727269999999997,
			"durationTicks": 240,
			"midi": 28,
			"name": "E1",
			"ticks": 8160,
			"time": 9.272718,
			"velocity": 0.6220472440944882
		  },
		  {
			"duration": 0.2727269999999997,
			"durationTicks": 240,
			"midi": 33,
			"name": "A1",
			"ticks": 8640,
			"time": 9.818172,
			"velocity": 0.5826771653543307
		  },
		  {
			"duration": 0.2727269999999997,
			"durationTicks": 240,
			"midi": 45,
			"name": "A2",
			"ticks": 8640,
			"time": 9.818172,
			"velocity": 0.5826771653543307
		  },
		  {
			"duration": 0.2727269999999997,
			"durationTicks": 240,
			"midi": 28,
			"name": "E1",
			"ticks": 9120,
			"time": 10.363626,
			"velocity": 0.5669291338582677
		  },
		  {
			"duration": 0.2727269999999997,
			"durationTicks": 240,
			"midi": 40,
			"name": "E2",
			"ticks": 9120,
			"time": 10.363626,
			"velocity": 0.5118110236220472
		  },
		  {
			"duration": 0.2727269999999997,
			"durationTicks": 240,
			"midi": 26,
			"name": "D1",
			"ticks": 9600,
			"time": 10.90908,
			"velocity": 0.6220472440944882
		  },
		  {
			"duration": 0.2727269999999997,
			"durationTicks": 240,
			"midi": 38,
			"name": "D2",
			"ticks": 9600,
			"time": 10.90908,
			"velocity": 0.6614173228346457
		  },
		  {
			"duration": 0.2727269999999997,
			"durationTicks": 240,
			"midi": 21,
			"name": "A0",
			"ticks": 10080,
			"time": 11.454534,
			"velocity": 0.6535433070866141
		  },
		  {
			"duration": 0.2727269999999997,
			"durationTicks": 240,
			"midi": 33,
			"name": "A1",
			"ticks": 10080,
			"time": 11.454534,
			"velocity": 0.6220472440944882
		  },
		  {
			"duration": 0.2727269999999997,
			"durationTicks": 240,
			"midi": 28,
			"name": "E1",
			"ticks": 10560,
			"time": 11.999988,
			"velocity": 0.5826771653543307
		  },
		  {
			"duration": 0.2727269999999997,
			"durationTicks": 240,
			"midi": 40,
			"name": "E2",
			"ticks": 10560,
			"time": 11.999988,
			"velocity": 0.5826771653543307
		  },
		  {
			"duration": 0.2727269999999997,
			"durationTicks": 240,
			"midi": 23,
			"name": "B0",
			"ticks": 11040,
			"time": 12.545442,
			"velocity": 0.5669291338582677
		  },
		  {
			"duration": 0.2727269999999997,
			"durationTicks": 240,
			"midi": 35,
			"name": "B1",
			"ticks": 11040,
			"time": 12.545442,
			"velocity": 0.5118110236220472
		  },
		  {
			"duration": 0.2727269999999997,
			"durationTicks": 240,
			"midi": 33,
			"name": "A1",
			"ticks": 11520,
			"time": 13.090896,
			"velocity": 0.6220472440944882
		  },
		  {
			"duration": 0.2727269999999997,
			"durationTicks": 240,
			"midi": 45,
			"name": "A2",
			"ticks": 11520,
			"time": 13.090896,
			"velocity": 0.6614173228346457
		  },
		  {
			"duration": 0.2727269999999997,
			"durationTicks": 240,
			"midi": 28,
			"name": "E1",
			"ticks": 12000,
			"time": 13.63635,
			"velocity": 0.6535433070866141
		  },
		  {
			"duration": 0.2727269999999997,
			"durationTicks": 240,
			"midi": 40,
			"name": "E2",
			"ticks": 12000,
			"time": 13.63635,
			"velocity": 0.6220472440944882
		  },
		  {
			"duration": 0.2727269999999997,
			"durationTicks": 240,
			"midi": 26,
			"name": "D1",
			"ticks": 12480,
			"time": 14.181804,
			"velocity": 0.5826771653543307
		  },
		  {
			"duration": 0.2727269999999997,
			"durationTicks": 240,
			"midi": 38,
			"name": "D2",
			"ticks": 12480,
			"time": 14.181804,
			"velocity": 0.5826771653543307
		  },
		  {
			"duration": 0.2727270000000015,
			"durationTicks": 240,
			"midi": 21,
			"name": "A0",
			"ticks": 12960,
			"time": 14.727257999999999,
			"velocity": 0.5669291338582677
		  },
		  {
			"duration": 0.2727270000000015,
			"durationTicks": 240,
			"midi": 33,
			"name": "A1",
			"ticks": 12960,
			"time": 14.727257999999999,
			"velocity": 0.5118110236220472
		  },
		  {
			"duration": 0.2727269999999997,
			"durationTicks": 240,
			"midi": 26,
			"name": "D1",
			"ticks": 13440,
			"time": 15.272712,
			"velocity": 0.6220472440944882
		  },
		  {
			"duration": 0.2727269999999997,
			"durationTicks": 240,
			"midi": 38,
			"name": "D2",
			"ticks": 13440,
			"time": 15.272712,
			"velocity": 0.6614173228346457
		  },
		  {
			"duration": 0.2727270000000015,
			"durationTicks": 240,
			"midi": 21,
			"name": "A0",
			"ticks": 13920,
			"time": 15.818166,
			"velocity": 0.6535433070866141
		  },
		  {
			"duration": 0.2727270000000015,
			"durationTicks": 240,
			"midi": 33,
			"name": "A1",
			"ticks": 13920,
			"time": 15.818166,
			"velocity": 0.6220472440944882
		  },
		  {
			"duration": 0.2727269999999997,
			"durationTicks": 240,
			"midi": 33,
			"name": "A1",
			"ticks": 14400,
			"time": 16.36362,
			"velocity": 0.5826771653543307
		  },
		  {
			"duration": 0.2727269999999997,
			"durationTicks": 240,
			"midi": 45,
			"name": "A2",
			"ticks": 14400,
			"time": 16.36362,
			"velocity": 0.5826771653543307
		  },
		  {
			"duration": 0.2727269999999997,
			"durationTicks": 240,
			"midi": 28,
			"name": "E1",
			"ticks": 14880,
			"time": 16.909074,
			"velocity": 0.5669291338582677
		  },
		  {
			"duration": 0.2727269999999997,
			"durationTicks": 240,
			"midi": 40,
			"name": "E2",
			"ticks": 14880,
			"time": 16.909074,
			"velocity": 0.5118110236220472
		  },
		  {
			"duration": 0.2727269999999997,
			"durationTicks": 240,
			"midi": 33,
			"name": "A1",
			"ticks": 15360,
			"time": 17.454528,
			"velocity": 0.6220472440944882
		  },
		  {
			"duration": 0.2727269999999997,
			"durationTicks": 240,
			"midi": 45,
			"name": "A2",
			"ticks": 15360,
			"time": 17.454528,
			"velocity": 0.6614173228346457
		  },
		  {
			"duration": 0.2727269999999997,
			"durationTicks": 240,
			"midi": 28,
			"name": "E1",
			"ticks": 15840,
			"time": 17.999982,
			"velocity": 0.6535433070866141
		  },
		  {
			"duration": 0.2727269999999997,
			"durationTicks": 240,
			"midi": 40,
			"name": "E2",
			"ticks": 15840,
			"time": 17.999982,
			"velocity": 0.6220472440944882
		  },
		  {
			"duration": 0.2727269999999997,
			"durationTicks": 240,
			"midi": 26,
			"name": "D1",
			"ticks": 16320,
			"time": 18.545436,
			"velocity": 0.5826771653543307
		  },
		  {
			"duration": 0.2727269999999997,
			"durationTicks": 240,
			"midi": 38,
			"name": "D2",
			"ticks": 16320,
			"time": 18.545436,
			"velocity": 0.5826771653543307
		  },
		  {
			"duration": 0.2727270000000033,
			"durationTicks": 240,
			"midi": 21,
			"name": "A0",
			"ticks": 16800,
			"time": 19.090889999999998,
			"velocity": 0.5669291338582677
		  },
		  {
			"duration": 0.2727270000000033,
			"durationTicks": 240,
			"midi": 33,
			"name": "A1",
			"ticks": 16800,
			"time": 19.090889999999998,
			"velocity": 0.5118110236220472
		  },
		  {
			"duration": 0.2727269999999997,
			"durationTicks": 240,
			"midi": 26,
			"name": "D1",
			"ticks": 17280,
			"time": 19.636344,
			"velocity": 0.6220472440944882
		  },
		  {
			"duration": 0.2727269999999997,
			"durationTicks": 240,
			"midi": 38,
			"name": "D2",
			"ticks": 17280,
			"time": 19.636344,
			"velocity": 0.6614173228346457
		  },
		  {
			"duration": 0.2727269999999997,
			"durationTicks": 240,
			"midi": 21,
			"name": "A0",
			"ticks": 17760,
			"time": 20.181798,
			"velocity": 0.6535433070866141
		  },
		  {
			"duration": 0.2727269999999997,
			"durationTicks": 240,
			"midi": 33,
			"name": "A1",
			"ticks": 17760,
			"time": 20.181798,
			"velocity": 0.6220472440944882
		  },
		  {
			"duration": 0.2727269999999997,
			"durationTicks": 240,
			"midi": 33,
			"name": "A1",
			"ticks": 18240,
			"time": 20.727252,
			"velocity": 0.5826771653543307
		  },
		  {
			"duration": 0.2727269999999997,
			"durationTicks": 240,
			"midi": 45,
			"name": "A2",
			"ticks": 18240,
			"time": 20.727252,
			"velocity": 0.5826771653543307
		  },
		  {
			"duration": 0.2727269999999997,
			"durationTicks": 240,
			"midi": 28,
			"name": "E1",
			"ticks": 18720,
			"time": 21.272706,
			"velocity": 0.5118110236220472
		  },
		  {
			"duration": 0.2727269999999997,
			"durationTicks": 240,
			"midi": 33,
			"name": "A1",
			"ticks": 19200,
			"time": 21.81816,
			"velocity": 0.6220472440944882
		  },
		  {
			"duration": 0.2727269999999997,
			"durationTicks": 240,
			"midi": 45,
			"name": "A2",
			"ticks": 19200,
			"time": 21.81816,
			"velocity": 0.6614173228346457
		  },
		  {
			"duration": 0.2727269999999997,
			"durationTicks": 240,
			"midi": 28,
			"name": "E1",
			"ticks": 19680,
			"time": 22.363614,
			"velocity": 0.6535433070866141
		  },
		  {
			"duration": 0.2727269999999997,
			"durationTicks": 240,
			"midi": 40,
			"name": "E2",
			"ticks": 19680,
			"time": 22.363614,
			"velocity": 0.6220472440944882
		  },
		  {
			"duration": 0.2727269999999997,
			"durationTicks": 240,
			"midi": 33,
			"name": "A1",
			"ticks": 20160,
			"time": 22.909068,
			"velocity": 0.5826771653543307
		  },
		  {
			"duration": 0.2727269999999997,
			"durationTicks": 240,
			"midi": 45,
			"name": "A2",
			"ticks": 20160,
			"time": 22.909068,
			"velocity": 0.5826771653543307
		  },
		  {
			"duration": 0.2727269999999997,
			"durationTicks": 240,
			"midi": 28,
			"name": "E1",
			"ticks": 20640,
			"time": 23.454522,
			"velocity": 0.5669291338582677
		  },
		  {
			"duration": 0.2727269999999997,
			"durationTicks": 240,
			"midi": 40,
			"name": "E2",
			"ticks": 20640,
			"time": 23.454522,
			"velocity": 0.5118110236220472
		  },
		  {
			"duration": 0.2727269999999997,
			"durationTicks": 240,
			"midi": 33,
			"name": "A1",
			"ticks": 21120,
			"time": 23.999976,
			"velocity": 0.6220472440944882
		  },
		  {
			"duration": 0.2727269999999997,
			"durationTicks": 240,
			"midi": 45,
			"name": "A2",
			"ticks": 21120,
			"time": 23.999976,
			"velocity": 0.6614173228346457
		  },
		  {
			"duration": 0.2727269999999997,
			"durationTicks": 240,
			"midi": 28,
			"name": "E1",
			"ticks": 21600,
			"time": 24.54543,
			"velocity": 0.6220472440944882
		  },
		  {
			"duration": 0.2727269999999997,
			"durationTicks": 240,
			"midi": 33,
			"name": "A1",
			"ticks": 22080,
			"time": 25.090884,
			"velocity": 0.5826771653543307
		  },
		  {
			"duration": 0.2727269999999997,
			"durationTicks": 240,
			"midi": 45,
			"name": "A2",
			"ticks": 22080,
			"time": 25.090884,
			"velocity": 0.5826771653543307
		  },
		  {
			"duration": 0.2727269999999997,
			"durationTicks": 240,
			"midi": 28,
			"name": "E1",
			"ticks": 22560,
			"time": 25.636338,
			"velocity": 0.5669291338582677
		  },
		  {
			"duration": 0.2727269999999997,
			"durationTicks": 240,
			"midi": 40,
			"name": "E2",
			"ticks": 22560,
			"time": 25.636338,
			"velocity": 0.5118110236220472
		  },
		  {
			"duration": 0.2727269999999997,
			"durationTicks": 240,
			"midi": 33,
			"name": "A1",
			"ticks": 23040,
			"time": 26.181792,
			"velocity": 0.6220472440944882
		  },
		  {
			"duration": 0.2727269999999997,
			"durationTicks": 240,
			"midi": 45,
			"name": "A2",
			"ticks": 23040,
			"time": 26.181792,
			"velocity": 0.6614173228346457
		  },
		  {
			"duration": 0.2727269999999997,
			"durationTicks": 240,
			"midi": 28,
			"name": "E1",
			"ticks": 23520,
			"time": 26.727246,
			"velocity": 0.6220472440944882
		  },
		  {
			"duration": 0.2727269999999997,
			"durationTicks": 240,
			"midi": 33,
			"name": "A1",
			"ticks": 24000,
			"time": 27.2727,
			"velocity": 0.5826771653543307
		  },
		  {
			"duration": 0.2727269999999997,
			"durationTicks": 240,
			"midi": 45,
			"name": "A2",
			"ticks": 24000,
			"time": 27.2727,
			"velocity": 0.5826771653543307
		  },
		  {
			"duration": 0.2727269999999997,
			"durationTicks": 240,
			"midi": 28,
			"name": "E1",
			"ticks": 24480,
			"time": 27.818154,
			"velocity": 0.5669291338582677
		  },
		  {
			"duration": 0.2727269999999997,
			"durationTicks": 240,
			"midi": 40,
			"name": "E2",
			"ticks": 24480,
			"time": 27.818154,
			"velocity": 0.5118110236220472
		  },
		  {
			"duration": 0.2727269999999997,
			"durationTicks": 240,
			"midi": 26,
			"name": "D1",
			"ticks": 24960,
			"time": 28.363608,
			"velocity": 0.6220472440944882
		  },
		  {
			"duration": 0.2727269999999997,
			"durationTicks": 240,
			"midi": 38,
			"name": "D2",
			"ticks": 24960,
			"time": 28.363608,
			"velocity": 0.6614173228346457
		  },
		  {
			"duration": 0.2727269999999997,
			"durationTicks": 240,
			"midi": 21,
			"name": "A0",
			"ticks": 25440,
			"time": 28.909062,
			"velocity": 0.6535433070866141
		  },
		  {
			"duration": 0.2727269999999997,
			"durationTicks": 240,
			"midi": 33,
			"name": "A1",
			"ticks": 25440,
			"time": 28.909062,
			"velocity": 0.6220472440944882
		  },
		  {
			"duration": 0.2727270000000033,
			"durationTicks": 240,
			"midi": 28,
			"name": "E1",
			"ticks": 25920,
			"time": 29.454515999999998,
			"velocity": 0.5826771653543307
		  },
		  {
			"duration": 0.2727270000000033,
			"durationTicks": 240,
			"midi": 40,
			"name": "E2",
			"ticks": 25920,
			"time": 29.454515999999998,
			"velocity": 0.5826771653543307
		  },
		  {
			"duration": 0.2727269999999997,
			"durationTicks": 240,
			"midi": 23,
			"name": "B0",
			"ticks": 26400,
			"time": 29.99997,
			"velocity": 0.5669291338582677
		  },
		  {
			"duration": 0.2727269999999997,
			"durationTicks": 240,
			"midi": 35,
			"name": "B1",
			"ticks": 26400,
			"time": 29.99997,
			"velocity": 0.5118110236220472
		  },
		  {
			"duration": 0.2727269999999997,
			"durationTicks": 240,
			"midi": 33,
			"name": "A1",
			"ticks": 26880,
			"time": 30.545424,
			"velocity": 0.6220472440944882
		  },
		  {
			"duration": 0.2727269999999997,
			"durationTicks": 240,
			"midi": 45,
			"name": "A2",
			"ticks": 26880,
			"time": 30.545424,
			"velocity": 0.6614173228346457
		  },
		  {
			"duration": 0.2727269999999997,
			"durationTicks": 240,
			"midi": 28,
			"name": "E1",
			"ticks": 27360,
			"time": 31.090878,
			"velocity": 0.6535433070866141
		  },
		  {
			"duration": 0.2727269999999997,
			"durationTicks": 240,
			"midi": 40,
			"name": "E2",
			"ticks": 27360,
			"time": 31.090878,
			"velocity": 0.6220472440944882
		  },
		  {
			"duration": 0.2727269999999997,
			"durationTicks": 240,
			"midi": 26,
			"name": "D1",
			"ticks": 27840,
			"time": 31.636332,
			"velocity": 0.5826771653543307
		  },
		  {
			"duration": 0.2727269999999997,
			"durationTicks": 240,
			"midi": 38,
			"name": "D2",
			"ticks": 27840,
			"time": 31.636332,
			"velocity": 0.5826771653543307
		  },
		  {
			"duration": 0.27272699999999617,
			"durationTicks": 240,
			"midi": 21,
			"name": "A0",
			"ticks": 28320,
			"time": 32.181786,
			"velocity": 0.5669291338582677
		  },
		  {
			"duration": 0.27272699999999617,
			"durationTicks": 240,
			"midi": 33,
			"name": "A1",
			"ticks": 28320,
			"time": 32.181786,
			"velocity": 0.5118110236220472
		  },
		  {
			"duration": 0.27272699999999617,
			"durationTicks": 240,
			"midi": 26,
			"name": "D1",
			"ticks": 28800,
			"time": 32.72724,
			"velocity": 0.6220472440944882
		  },
		  {
			"duration": 0.27272699999999617,
			"durationTicks": 240,
			"midi": 38,
			"name": "D2",
			"ticks": 28800,
			"time": 32.72724,
			"velocity": 0.6614173228346457
		  },
		  {
			"duration": 0.27272699999999617,
			"durationTicks": 240,
			"midi": 21,
			"name": "A0",
			"ticks": 29280,
			"time": 33.272694,
			"velocity": 0.6535433070866141
		  },
		  {
			"duration": 0.27272699999999617,
			"durationTicks": 240,
			"midi": 33,
			"name": "A1",
			"ticks": 29280,
			"time": 33.272694,
			"velocity": 0.6220472440944882
		  },
		  {
			"duration": 0.27272699999999617,
			"durationTicks": 240,
			"midi": 33,
			"name": "A1",
			"ticks": 29760,
			"time": 33.818148,
			"velocity": 0.5826771653543307
		  },
		  {
			"duration": 0.27272699999999617,
			"durationTicks": 240,
			"midi": 45,
			"name": "A2",
			"ticks": 29760,
			"time": 33.818148,
			"velocity": 0.5826771653543307
		  },
		  {
			"duration": 0.27272699999999617,
			"durationTicks": 240,
			"midi": 28,
			"name": "E1",
			"ticks": 30240,
			"time": 34.363602,
			"velocity": 0.5669291338582677
		  },
		  {
			"duration": 0.27272699999999617,
			"durationTicks": 240,
			"midi": 40,
			"name": "E2",
			"ticks": 30240,
			"time": 34.363602,
			"velocity": 0.5118110236220472
		  },
		  {
			"duration": 0.2727270000000033,
			"durationTicks": 240,
			"midi": 33,
			"name": "A1",
			"ticks": 30720,
			"time": 34.909056,
			"velocity": 0.6220472440944882
		  },
		  {
			"duration": 0.2727270000000033,
			"durationTicks": 240,
			"midi": 45,
			"name": "A2",
			"ticks": 30720,
			"time": 34.909056,
			"velocity": 0.6614173228346457
		  },
		  {
			"duration": 0.2727270000000033,
			"durationTicks": 240,
			"midi": 28,
			"name": "E1",
			"ticks": 31200,
			"time": 35.45451,
			"velocity": 0.6535433070866141
		  },
		  {
			"duration": 0.2727270000000033,
			"durationTicks": 240,
			"midi": 40,
			"name": "E2",
			"ticks": 31200,
			"time": 35.45451,
			"velocity": 0.6220472440944882
		  },
		  {
			"duration": 0.2727270000000033,
			"durationTicks": 240,
			"midi": 26,
			"name": "D1",
			"ticks": 31680,
			"time": 35.999964,
			"velocity": 0.5826771653543307
		  },
		  {
			"duration": 0.2727270000000033,
			"durationTicks": 240,
			"midi": 38,
			"name": "D2",
			"ticks": 31680,
			"time": 35.999964,
			"velocity": 0.5826771653543307
		  },
		  {
			"duration": 0.2727270000000033,
			"durationTicks": 240,
			"midi": 21,
			"name": "A0",
			"ticks": 32160,
			"time": 36.545418,
			"velocity": 0.5669291338582677
		  },
		  {
			"duration": 0.2727270000000033,
			"durationTicks": 240,
			"midi": 33,
			"name": "A1",
			"ticks": 32160,
			"time": 36.545418,
			"velocity": 0.5118110236220472
		  },
		  {
			"duration": 0.2727270000000033,
			"durationTicks": 240,
			"midi": 26,
			"name": "D1",
			"ticks": 32640,
			"time": 37.090872,
			"velocity": 0.6220472440944882
		  },
		  {
			"duration": 0.2727270000000033,
			"durationTicks": 240,
			"midi": 38,
			"name": "D2",
			"ticks": 32640,
			"time": 37.090872,
			"velocity": 0.6614173228346457
		  },
		  {
			"duration": 0.2727270000000033,
			"durationTicks": 240,
			"midi": 21,
			"name": "A0",
			"ticks": 33120,
			"time": 37.636326,
			"velocity": 0.6535433070866141
		  },
		  {
			"duration": 0.2727270000000033,
			"durationTicks": 240,
			"midi": 33,
			"name": "A1",
			"ticks": 33120,
			"time": 37.636326,
			"velocity": 0.6220472440944882
		  },
		  {
			"duration": 0.2727270000000033,
			"durationTicks": 240,
			"midi": 33,
			"name": "A1",
			"ticks": 33600,
			"time": 38.181779999999996,
			"velocity": 0.5826771653543307
		  },
		  {
			"duration": 0.2727270000000033,
			"durationTicks": 240,
			"midi": 45,
			"name": "A2",
			"ticks": 33600,
			"time": 38.181779999999996,
			"velocity": 0.5826771653543307
		  },
		  {
			"duration": 0.27272699999999617,
			"durationTicks": 240,
			"midi": 28,
			"name": "E1",
			"ticks": 34080,
			"time": 38.727234,
			"velocity": 0.5118110236220472
		  },
		  {
			"duration": 0.27272699999999617,
			"durationTicks": 240,
			"midi": 33,
			"name": "A1",
			"ticks": 34560,
			"time": 39.272688,
			"velocity": 0.6220472440944882
		  },
		  {
			"duration": 0.27272699999999617,
			"durationTicks": 240,
			"midi": 45,
			"name": "A2",
			"ticks": 34560,
			"time": 39.272688,
			"velocity": 0.6614173228346457
		  },
		  {
			"duration": 0.27272699999999617,
			"durationTicks": 240,
			"midi": 28,
			"name": "E1",
			"ticks": 35040,
			"time": 39.818142,
			"velocity": 0.6535433070866141
		  },
		  {
			"duration": 0.27272699999999617,
			"durationTicks": 240,
			"midi": 40,
			"name": "E2",
			"ticks": 35040,
			"time": 39.818142,
			"velocity": 0.6220472440944882
		  },
		  {
			"duration": 0.27272699999999617,
			"durationTicks": 240,
			"midi": 33,
			"name": "A1",
			"ticks": 35520,
			"time": 40.363596,
			"velocity": 0.5826771653543307
		  },
		  {
			"duration": 0.27272699999999617,
			"durationTicks": 240,
			"midi": 45,
			"name": "A2",
			"ticks": 35520,
			"time": 40.363596,
			"velocity": 0.5826771653543307
		  },
		  {
			"duration": 0.27272699999999617,
			"durationTicks": 240,
			"midi": 28,
			"name": "E1",
			"ticks": 36000,
			"time": 40.90905,
			"velocity": 0.5669291338582677
		  },
		  {
			"duration": 0.27272699999999617,
			"durationTicks": 240,
			"midi": 40,
			"name": "E2",
			"ticks": 36000,
			"time": 40.90905,
			"velocity": 0.5118110236220472
		  },
		  {
			"duration": 0.27272699999999617,
			"durationTicks": 240,
			"midi": 33,
			"name": "A1",
			"ticks": 36480,
			"time": 41.454504,
			"velocity": 0.6220472440944882
		  },
		  {
			"duration": 0.27272699999999617,
			"durationTicks": 240,
			"midi": 45,
			"name": "A2",
			"ticks": 36480,
			"time": 41.454504,
			"velocity": 0.6614173228346457
		  },
		  {
			"duration": 0.2727270000000033,
			"durationTicks": 240,
			"midi": 28,
			"name": "E1",
			"ticks": 36960,
			"time": 41.999958,
			"velocity": 0.6220472440944882
		  },
		  {
			"duration": 0.2727270000000033,
			"durationTicks": 240,
			"midi": 33,
			"name": "A1",
			"ticks": 37440,
			"time": 42.545412,
			"velocity": 0.5826771653543307
		  },
		  {
			"duration": 0.2727270000000033,
			"durationTicks": 240,
			"midi": 45,
			"name": "A2",
			"ticks": 37440,
			"time": 42.545412,
			"velocity": 0.5826771653543307
		  },
		  {
			"duration": 0.2727270000000033,
			"durationTicks": 240,
			"midi": 28,
			"name": "E1",
			"ticks": 37920,
			"time": 43.090866,
			"velocity": 0.5669291338582677
		  },
		  {
			"duration": 0.2727270000000033,
			"durationTicks": 240,
			"midi": 40,
			"name": "E2",
			"ticks": 37920,
			"time": 43.090866,
			"velocity": 0.5118110236220472
		  },
		  {
			"duration": 0.2727270000000033,
			"durationTicks": 240,
			"midi": 33,
			"name": "A1",
			"ticks": 38400,
			"time": 43.63632,
			"velocity": 0.6220472440944882
		  },
		  {
			"duration": 0.2727270000000033,
			"durationTicks": 240,
			"midi": 45,
			"name": "A2",
			"ticks": 38400,
			"time": 43.63632,
			"velocity": 0.6614173228346457
		  },
		  {
			"duration": 0.2727270000000033,
			"durationTicks": 240,
			"midi": 28,
			"name": "E1",
			"ticks": 38880,
			"time": 44.181774,
			"velocity": 0.6220472440944882
		  },
		  {
			"duration": 0.2727270000000033,
			"durationTicks": 240,
			"midi": 33,
			"name": "A1",
			"ticks": 39360,
			"time": 44.727228,
			"velocity": 0.5826771653543307
		  },
		  {
			"duration": 0.2727270000000033,
			"durationTicks": 240,
			"midi": 45,
			"name": "A2",
			"ticks": 39360,
			"time": 44.727228,
			"velocity": 0.5826771653543307
		  },
		  {
			"duration": 0.2727270000000033,
			"durationTicks": 240,
			"midi": 28,
			"name": "E1",
			"ticks": 39840,
			"time": 45.272681999999996,
			"velocity": 0.5669291338582677
		  },
		  {
			"duration": 0.2727270000000033,
			"durationTicks": 240,
			"midi": 40,
			"name": "E2",
			"ticks": 39840,
			"time": 45.272681999999996,
			"velocity": 0.5118110236220472
		  },
		  {
			"duration": 0.27272699999999617,
			"durationTicks": 240,
			"midi": 26,
			"name": "D1",
			"ticks": 40320,
			"time": 45.818136,
			"velocity": 0.6220472440944882
		  },
		  {
			"duration": 0.27272699999999617,
			"durationTicks": 240,
			"midi": 38,
			"name": "D2",
			"ticks": 40320,
			"time": 45.818136,
			"velocity": 0.6614173228346457
		  },
		  {
			"duration": 0.27272699999999617,
			"durationTicks": 240,
			"midi": 21,
			"name": "A0",
			"ticks": 40800,
			"time": 46.36359,
			"velocity": 0.6535433070866141
		  },
		  {
			"duration": 0.27272699999999617,
			"durationTicks": 240,
			"midi": 33,
			"name": "A1",
			"ticks": 40800,
			"time": 46.36359,
			"velocity": 0.6220472440944882
		  },
		  {
			"duration": 0.27272699999999617,
			"durationTicks": 240,
			"midi": 28,
			"name": "E1",
			"ticks": 41280,
			"time": 46.909044,
			"velocity": 0.5826771653543307
		  },
		  {
			"duration": 0.27272699999999617,
			"durationTicks": 240,
			"midi": 40,
			"name": "E2",
			"ticks": 41280,
			"time": 46.909044,
			"velocity": 0.5826771653543307
		  },
		  {
			"duration": 0.27272699999999617,
			"durationTicks": 240,
			"midi": 23,
			"name": "B0",
			"ticks": 41760,
			"time": 47.454498,
			"velocity": 0.5669291338582677
		  },
		  {
			"duration": 0.27272699999999617,
			"durationTicks": 240,
			"midi": 35,
			"name": "B1",
			"ticks": 41760,
			"time": 47.454498,
			"velocity": 0.5118110236220472
		  },
		  {
			"duration": 0.27272699999999617,
			"durationTicks": 240,
			"midi": 33,
			"name": "A1",
			"ticks": 42240,
			"time": 47.999952,
			"velocity": 0.6220472440944882
		  },
		  {
			"duration": 0.27272699999999617,
			"durationTicks": 240,
			"midi": 45,
			"name": "A2",
			"ticks": 42240,
			"time": 47.999952,
			"velocity": 0.6614173228346457
		  },
		  {
			"duration": 0.27272699999999617,
			"durationTicks": 240,
			"midi": 28,
			"name": "E1",
			"ticks": 42720,
			"time": 48.545406,
			"velocity": 0.6535433070866141
		  },
		  {
			"duration": 0.27272699999999617,
			"durationTicks": 240,
			"midi": 40,
			"name": "E2",
			"ticks": 42720,
			"time": 48.545406,
			"velocity": 0.6220472440944882
		  },
		  {
			"duration": 0.2727270000000033,
			"durationTicks": 240,
			"midi": 26,
			"name": "D1",
			"ticks": 43200,
			"time": 49.09086,
			"velocity": 0.5826771653543307
		  },
		  {
			"duration": 0.2727270000000033,
			"durationTicks": 240,
			"midi": 38,
			"name": "D2",
			"ticks": 43200,
			"time": 49.09086,
			"velocity": 0.5826771653543307
		  },
		  {
			"duration": 0.2727270000000033,
			"durationTicks": 240,
			"midi": 21,
			"name": "A0",
			"ticks": 43680,
			"time": 49.636314,
			"velocity": 0.5669291338582677
		  },
		  {
			"duration": 0.2727270000000033,
			"durationTicks": 240,
			"midi": 33,
			"name": "A1",
			"ticks": 43680,
			"time": 49.636314,
			"velocity": 0.5118110236220472
		  },
		  {
			"duration": 0.2727270000000033,
			"durationTicks": 240,
			"midi": 26,
			"name": "D1",
			"ticks": 44160,
			"time": 50.181768,
			"velocity": 0.6220472440944882
		  },
		  {
			"duration": 0.2727270000000033,
			"durationTicks": 240,
			"midi": 38,
			"name": "D2",
			"ticks": 44160,
			"time": 50.181768,
			"velocity": 0.6614173228346457
		  },
		  {
			"duration": 0.2727270000000033,
			"durationTicks": 240,
			"midi": 21,
			"name": "A0",
			"ticks": 44640,
			"time": 50.727222,
			"velocity": 0.6535433070866141
		  },
		  {
			"duration": 0.2727270000000033,
			"durationTicks": 240,
			"midi": 33,
			"name": "A1",
			"ticks": 44640,
			"time": 50.727222,
			"velocity": 0.6220472440944882
		  },
		  {
			"duration": 0.2727270000000033,
			"durationTicks": 240,
			"midi": 33,
			"name": "A1",
			"ticks": 45120,
			"time": 51.272676,
			"velocity": 0.5826771653543307
		  },
		  {
			"duration": 0.2727270000000033,
			"durationTicks": 240,
			"midi": 45,
			"name": "A2",
			"ticks": 45120,
			"time": 51.272676,
			"velocity": 0.5826771653543307
		  },
		  {
			"duration": 0.2727270000000033,
			"durationTicks": 240,
			"midi": 28,
			"name": "E1",
			"ticks": 45600,
			"time": 51.81813,
			"velocity": 0.5669291338582677
		  },
		  {
			"duration": 0.2727270000000033,
			"durationTicks": 240,
			"midi": 40,
			"name": "E2",
			"ticks": 45600,
			"time": 51.81813,
			"velocity": 0.5118110236220472
		  },
		  {
			"duration": 0.27272699999999617,
			"durationTicks": 240,
			"midi": 33,
			"name": "A1",
			"ticks": 46080,
			"time": 52.363584,
			"velocity": 0.6220472440944882
		  },
		  {
			"duration": 0.27272699999999617,
			"durationTicks": 240,
			"midi": 45,
			"name": "A2",
			"ticks": 46080,
			"time": 52.363584,
			"velocity": 0.6614173228346457
		  },
		  {
			"duration": 0.27272699999999617,
			"durationTicks": 240,
			"midi": 28,
			"name": "E1",
			"ticks": 46560,
			"time": 52.909038,
			"velocity": 0.6535433070866141
		  },
		  {
			"duration": 0.27272699999999617,
			"durationTicks": 240,
			"midi": 40,
			"name": "E2",
			"ticks": 46560,
			"time": 52.909038,
			"velocity": 0.6220472440944882
		  },
		  {
			"duration": 0.27272699999999617,
			"durationTicks": 240,
			"midi": 26,
			"name": "D1",
			"ticks": 47040,
			"time": 53.454492,
			"velocity": 0.5826771653543307
		  },
		  {
			"duration": 0.27272699999999617,
			"durationTicks": 240,
			"midi": 38,
			"name": "D2",
			"ticks": 47040,
			"time": 53.454492,
			"velocity": 0.5826771653543307
		  },
		  {
			"duration": 0.27272699999999617,
			"durationTicks": 240,
			"midi": 21,
			"name": "A0",
			"ticks": 47520,
			"time": 53.999946,
			"velocity": 0.5669291338582677
		  },
		  {
			"duration": 0.27272699999999617,
			"durationTicks": 240,
			"midi": 33,
			"name": "A1",
			"ticks": 47520,
			"time": 53.999946,
			"velocity": 0.5118110236220472
		  },
		  {
			"duration": 0.27272699999999617,
			"durationTicks": 240,
			"midi": 26,
			"name": "D1",
			"ticks": 48000,
			"time": 54.5454,
			"velocity": 0.6220472440944882
		  },
		  {
			"duration": 0.27272699999999617,
			"durationTicks": 240,
			"midi": 38,
			"name": "D2",
			"ticks": 48000,
			"time": 54.5454,
			"velocity": 0.6614173228346457
		  },
		  {
			"duration": 0.27272699999999617,
			"durationTicks": 240,
			"midi": 21,
			"name": "A0",
			"ticks": 48480,
			"time": 55.090854,
			"velocity": 0.6535433070866141
		  },
		  {
			"duration": 0.27272699999999617,
			"durationTicks": 240,
			"midi": 33,
			"name": "A1",
			"ticks": 48480,
			"time": 55.090854,
			"velocity": 0.6220472440944882
		  },
		  {
			"duration": 0.2727270000000033,
			"durationTicks": 240,
			"midi": 33,
			"name": "A1",
			"ticks": 48960,
			"time": 55.636308,
			"velocity": 0.5826771653543307
		  },
		  {
			"duration": 0.2727270000000033,
			"durationTicks": 240,
			"midi": 45,
			"name": "A2",
			"ticks": 48960,
			"time": 55.636308,
			"velocity": 0.5826771653543307
		  },
		  {
			"duration": 0.2727270000000033,
			"durationTicks": 240,
			"midi": 28,
			"name": "E1",
			"ticks": 49440,
			"time": 56.181762,
			"velocity": 0.5118110236220472
		  },
		  {
			"duration": 0.2727270000000033,
			"durationTicks": 240,
			"midi": 33,
			"name": "A1",
			"ticks": 49920,
			"time": 56.727216,
			"velocity": 0.6220472440944882
		  },
		  {
			"duration": 0.2727270000000033,
			"durationTicks": 240,
			"midi": 45,
			"name": "A2",
			"ticks": 49920,
			"time": 56.727216,
			"velocity": 0.6614173228346457
		  },
		  {
			"duration": 0.2727270000000033,
			"durationTicks": 240,
			"midi": 28,
			"name": "E1",
			"ticks": 50400,
			"time": 57.27267,
			"velocity": 0.6535433070866141
		  },
		  {
			"duration": 0.2727270000000033,
			"durationTicks": 240,
			"midi": 40,
			"name": "E2",
			"ticks": 50400,
			"time": 57.27267,
			"velocity": 0.6220472440944882
		  },
		  {
			"duration": 0.2727270000000033,
			"durationTicks": 240,
			"midi": 33,
			"name": "A1",
			"ticks": 50880,
			"time": 57.818124,
			"velocity": 0.5826771653543307
		  },
		  {
			"duration": 0.2727270000000033,
			"durationTicks": 240,
			"midi": 45,
			"name": "A2",
			"ticks": 50880,
			"time": 57.818124,
			"velocity": 0.5826771653543307
		  },
		  {
			"duration": 0.2727270000000033,
			"durationTicks": 240,
			"midi": 28,
			"name": "E1",
			"ticks": 51360,
			"time": 58.363578,
			"velocity": 0.5669291338582677
		  },
		  {
			"duration": 0.2727270000000033,
			"durationTicks": 240,
			"midi": 40,
			"name": "E2",
			"ticks": 51360,
			"time": 58.363578,
			"velocity": 0.5118110236220472
		  },
		  {
			"duration": 0.2727270000000033,
			"durationTicks": 240,
			"midi": 33,
			"name": "A1",
			"ticks": 51840,
			"time": 58.909031999999996,
			"velocity": 0.6220472440944882
		  },
		  {
			"duration": 0.2727270000000033,
			"durationTicks": 240,
			"midi": 45,
			"name": "A2",
			"ticks": 51840,
			"time": 58.909031999999996,
			"velocity": 0.6614173228346457
		  },
		  {
			"duration": 0.27272699999999617,
			"durationTicks": 240,
			"midi": 28,
			"name": "E1",
			"ticks": 52320,
			"time": 59.454486,
			"velocity": 0.6220472440944882
		  },
		  {
			"duration": 0.27272699999999617,
			"durationTicks": 240,
			"midi": 33,
			"name": "A1",
			"ticks": 52800,
			"time": 59.99994,
			"velocity": 0.5826771653543307
		  },
		  {
			"duration": 0.27272699999999617,
			"durationTicks": 240,
			"midi": 45,
			"name": "A2",
			"ticks": 52800,
			"time": 59.99994,
			"velocity": 0.5826771653543307
		  },
		  {
			"duration": 0.27272699999999617,
			"durationTicks": 240,
			"midi": 28,
			"name": "E1",
			"ticks": 53280,
			"time": 60.545394,
			"velocity": 0.5669291338582677
		  },
		  {
			"duration": 0.27272699999999617,
			"durationTicks": 240,
			"midi": 40,
			"name": "E2",
			"ticks": 53280,
			"time": 60.545394,
			"velocity": 0.5118110236220472
		  },
		  {
			"duration": 0.27272699999999617,
			"durationTicks": 240,
			"midi": 33,
			"name": "A1",
			"ticks": 53760,
			"time": 61.090848,
			"velocity": 0.6220472440944882
		  },
		  {
			"duration": 0.27272699999999617,
			"durationTicks": 240,
			"midi": 45,
			"name": "A2",
			"ticks": 53760,
			"time": 61.090848,
			"velocity": 0.6614173228346457
		  },
		  {
			"duration": 0.27272699999999617,
			"durationTicks": 240,
			"midi": 28,
			"name": "E1",
			"ticks": 54240,
			"time": 61.636302,
			"velocity": 0.6220472440944882
		  },
		  {
			"duration": 0.27272699999999617,
			"durationTicks": 240,
			"midi": 33,
			"name": "A1",
			"ticks": 54720,
			"time": 62.181756,
			"velocity": 0.5826771653543307
		  },
		  {
			"duration": 0.27272699999999617,
			"durationTicks": 240,
			"midi": 45,
			"name": "A2",
			"ticks": 54720,
			"time": 62.181756,
			"velocity": 0.5826771653543307
		  },
		  {
			"duration": 0.2727270000000033,
			"durationTicks": 240,
			"midi": 28,
			"name": "E1",
			"ticks": 55200,
			"time": 62.72721,
			"velocity": 0.5669291338582677
		  },
		  {
			"duration": 0.2727270000000033,
			"durationTicks": 240,
			"midi": 40,
			"name": "E2",
			"ticks": 55200,
			"time": 62.72721,
			"velocity": 0.5118110236220472
		  },
		  {
			"duration": 0.2727270000000033,
			"durationTicks": 240,
			"midi": 26,
			"name": "D1",
			"ticks": 55680,
			"time": 63.272664,
			"velocity": 0.6220472440944882
		  },
		  {
			"duration": 0.2727270000000033,
			"durationTicks": 240,
			"midi": 38,
			"name": "D2",
			"ticks": 55680,
			"time": 63.272664,
			"velocity": 0.6614173228346457
		  },
		  {
			"duration": 0.2727270000000033,
			"durationTicks": 240,
			"midi": 21,
			"name": "A0",
			"ticks": 56160,
			"time": 63.818118,
			"velocity": 0.6535433070866141
		  },
		  {
			"duration": 0.2727270000000033,
			"durationTicks": 240,
			"midi": 33,
			"name": "A1",
			"ticks": 56160,
			"time": 63.818118,
			"velocity": 0.6220472440944882
		  },
		  {
			"duration": 0.27272699999998906,
			"durationTicks": 240,
			"midi": 28,
			"name": "E1",
			"ticks": 56640,
			"time": 64.363572,
			"velocity": 0.5826771653543307
		  },
		  {
			"duration": 0.27272699999998906,
			"durationTicks": 240,
			"midi": 40,
			"name": "E2",
			"ticks": 56640,
			"time": 64.363572,
			"velocity": 0.5826771653543307
		  },
		  {
			"duration": 0.2727270000000033,
			"durationTicks": 240,
			"midi": 23,
			"name": "B0",
			"ticks": 57120,
			"time": 64.909026,
			"velocity": 0.5669291338582677
		  },
		  {
			"duration": 0.2727270000000033,
			"durationTicks": 240,
			"midi": 35,
			"name": "B1",
			"ticks": 57120,
			"time": 64.909026,
			"velocity": 0.5118110236220472
		  },
		  {
			"duration": 0.27272699999998906,
			"durationTicks": 240,
			"midi": 33,
			"name": "A1",
			"ticks": 57600,
			"time": 65.45448,
			"velocity": 0.6220472440944882
		  },
		  {
			"duration": 0.27272699999998906,
			"durationTicks": 240,
			"midi": 45,
			"name": "A2",
			"ticks": 57600,
			"time": 65.45448,
			"velocity": 0.6614173228346457
		  },
		  {
			"duration": 0.2727270000000033,
			"durationTicks": 240,
			"midi": 28,
			"name": "E1",
			"ticks": 58080,
			"time": 65.999934,
			"velocity": 0.6535433070866141
		  },
		  {
			"duration": 0.2727270000000033,
			"durationTicks": 240,
			"midi": 40,
			"name": "E2",
			"ticks": 58080,
			"time": 65.999934,
			"velocity": 0.6220472440944882
		  },
		  {
			"duration": 0.2727270000000033,
			"durationTicks": 240,
			"midi": 26,
			"name": "D1",
			"ticks": 58560,
			"time": 66.545388,
			"velocity": 0.5826771653543307
		  },
		  {
			"duration": 0.2727270000000033,
			"durationTicks": 240,
			"midi": 38,
			"name": "D2",
			"ticks": 58560,
			"time": 66.545388,
			"velocity": 0.5826771653543307
		  },
		  {
			"duration": 0.2727270000000033,
			"durationTicks": 240,
			"midi": 21,
			"name": "A0",
			"ticks": 59040,
			"time": 67.090842,
			"velocity": 0.5669291338582677
		  },
		  {
			"duration": 0.2727270000000033,
			"durationTicks": 240,
			"midi": 33,
			"name": "A1",
			"ticks": 59040,
			"time": 67.090842,
			"velocity": 0.5118110236220472
		  },
		  {
			"duration": 0.2727270000000033,
			"durationTicks": 240,
			"midi": 26,
			"name": "D1",
			"ticks": 59520,
			"time": 67.636296,
			"velocity": 0.6220472440944882
		  },
		  {
			"duration": 0.2727270000000033,
			"durationTicks": 240,
			"midi": 38,
			"name": "D2",
			"ticks": 59520,
			"time": 67.636296,
			"velocity": 0.6614173228346457
		  },
		  {
			"duration": 0.2727270000000033,
			"durationTicks": 240,
			"midi": 21,
			"name": "A0",
			"ticks": 60000,
			"time": 68.18175,
			"velocity": 0.6535433070866141
		  },
		  {
			"duration": 0.2727270000000033,
			"durationTicks": 240,
			"midi": 33,
			"name": "A1",
			"ticks": 60000,
			"time": 68.18175,
			"velocity": 0.6220472440944882
		  },
		  {
			"duration": 0.2727270000000033,
			"durationTicks": 240,
			"midi": 33,
			"name": "A1",
			"ticks": 60480,
			"time": 68.727204,
			"velocity": 0.5826771653543307
		  },
		  {
			"duration": 0.2727270000000033,
			"durationTicks": 240,
			"midi": 45,
			"name": "A2",
			"ticks": 60480,
			"time": 68.727204,
			"velocity": 0.5826771653543307
		  },
		  {
			"duration": 0.2727270000000033,
			"durationTicks": 240,
			"midi": 28,
			"name": "E1",
			"ticks": 60960,
			"time": 69.27265799999999,
			"velocity": 0.5669291338582677
		  },
		  {
			"duration": 0.2727270000000033,
			"durationTicks": 240,
			"midi": 40,
			"name": "E2",
			"ticks": 60960,
			"time": 69.27265799999999,
			"velocity": 0.5118110236220472
		  },
		  {
			"duration": 0.2727270000000033,
			"durationTicks": 240,
			"midi": 33,
			"name": "A1",
			"ticks": 61440,
			"time": 69.818112,
			"velocity": 0.6220472440944882
		  },
		  {
			"duration": 0.2727270000000033,
			"durationTicks": 240,
			"midi": 45,
			"name": "A2",
			"ticks": 61440,
			"time": 69.818112,
			"velocity": 0.6614173228346457
		  },
		  {
			"duration": 0.27272699999998906,
			"durationTicks": 240,
			"midi": 28,
			"name": "E1",
			"ticks": 61920,
			"time": 70.363566,
			"velocity": 0.6535433070866141
		  },
		  {
			"duration": 0.27272699999998906,
			"durationTicks": 240,
			"midi": 40,
			"name": "E2",
			"ticks": 61920,
			"time": 70.363566,
			"velocity": 0.6220472440944882
		  },
		  {
			"duration": 0.2727270000000033,
			"durationTicks": 240,
			"midi": 26,
			"name": "D1",
			"ticks": 62400,
			"time": 70.90902,
			"velocity": 0.5826771653543307
		  },
		  {
			"duration": 0.2727270000000033,
			"durationTicks": 240,
			"midi": 38,
			"name": "D2",
			"ticks": 62400,
			"time": 70.90902,
			"velocity": 0.5826771653543307
		  },
		  {
			"duration": 0.27272699999998906,
			"durationTicks": 240,
			"midi": 21,
			"name": "A0",
			"ticks": 62880,
			"time": 71.454474,
			"velocity": 0.5669291338582677
		  },
		  {
			"duration": 0.27272699999998906,
			"durationTicks": 240,
			"midi": 33,
			"name": "A1",
			"ticks": 62880,
			"time": 71.454474,
			"velocity": 0.5118110236220472
		  },
		  {
			"duration": 0.2727270000000033,
			"durationTicks": 240,
			"midi": 26,
			"name": "D1",
			"ticks": 63360,
			"time": 71.999928,
			"velocity": 0.6220472440944882
		  },
		  {
			"duration": 0.2727270000000033,
			"durationTicks": 240,
			"midi": 38,
			"name": "D2",
			"ticks": 63360,
			"time": 71.999928,
			"velocity": 0.6614173228346457
		  },
		  {
			"duration": 0.27272699999998906,
			"durationTicks": 240,
			"midi": 21,
			"name": "A0",
			"ticks": 63840,
			"time": 72.545382,
			"velocity": 0.6535433070866141
		  },
		  {
			"duration": 0.27272699999998906,
			"durationTicks": 240,
			"midi": 33,
			"name": "A1",
			"ticks": 63840,
			"time": 72.545382,
			"velocity": 0.6220472440944882
		  },
		  {
			"duration": 0.2727270000000033,
			"durationTicks": 240,
			"midi": 33,
			"name": "A1",
			"ticks": 64320,
			"time": 73.090836,
			"velocity": 0.5826771653543307
		  },
		  {
			"duration": 0.2727270000000033,
			"durationTicks": 240,
			"midi": 45,
			"name": "A2",
			"ticks": 64320,
			"time": 73.090836,
			"velocity": 0.5826771653543307
		  },
		  {
			"duration": 0.2727270000000033,
			"durationTicks": 240,
			"midi": 28,
			"name": "E1",
			"ticks": 64800,
			"time": 73.63629,
			"velocity": 0.5118110236220472
		  },
		  {
			"duration": 0.2727270000000033,
			"durationTicks": 240,
			"midi": 33,
			"name": "A1",
			"ticks": 65280,
			"time": 74.181744,
			"velocity": 0.6220472440944882
		  },
		  {
			"duration": 0.2727270000000033,
			"durationTicks": 240,
			"midi": 45,
			"name": "A2",
			"ticks": 65280,
			"time": 74.181744,
			"velocity": 0.6614173228346457
		  },
		  {
			"duration": 0.2727270000000033,
			"durationTicks": 240,
			"midi": 28,
			"name": "E1",
			"ticks": 65760,
			"time": 74.727198,
			"velocity": 0.6535433070866141
		  },
		  {
			"duration": 0.2727270000000033,
			"durationTicks": 240,
			"midi": 40,
			"name": "E2",
			"ticks": 65760,
			"time": 74.727198,
			"velocity": 0.6220472440944882
		  },
		  {
			"duration": 0.2727270000000033,
			"durationTicks": 240,
			"midi": 33,
			"name": "A1",
			"ticks": 66240,
			"time": 75.272652,
			"velocity": 0.5826771653543307
		  },
		  {
			"duration": 0.2727270000000033,
			"durationTicks": 240,
			"midi": 45,
			"name": "A2",
			"ticks": 66240,
			"time": 75.272652,
			"velocity": 0.5826771653543307
		  },
		  {
			"duration": 0.2727270000000033,
			"durationTicks": 240,
			"midi": 28,
			"name": "E1",
			"ticks": 66720,
			"time": 75.818106,
			"velocity": 0.5669291338582677
		  },
		  {
			"duration": 0.2727270000000033,
			"durationTicks": 240,
			"midi": 40,
			"name": "E2",
			"ticks": 66720,
			"time": 75.818106,
			"velocity": 0.5118110236220472
		  },
		  {
			"duration": 0.2727270000000033,
			"durationTicks": 240,
			"midi": 33,
			"name": "A1",
			"ticks": 67200,
			"time": 76.36355999999999,
			"velocity": 0.6220472440944882
		  },
		  {
			"duration": 0.2727270000000033,
			"durationTicks": 240,
			"midi": 45,
			"name": "A2",
			"ticks": 67200,
			"time": 76.36355999999999,
			"velocity": 0.6614173228346457
		  },
		  {
			"duration": 0.2727270000000033,
			"durationTicks": 240,
			"midi": 28,
			"name": "E1",
			"ticks": 67680,
			"time": 76.909014,
			"velocity": 0.6220472440944882
		  },
		  {
			"duration": 0.27272699999998906,
			"durationTicks": 240,
			"midi": 33,
			"name": "A1",
			"ticks": 68160,
			"time": 77.454468,
			"velocity": 0.5826771653543307
		  },
		  {
			"duration": 0.27272699999998906,
			"durationTicks": 240,
			"midi": 45,
			"name": "A2",
			"ticks": 68160,
			"time": 77.454468,
			"velocity": 0.5826771653543307
		  },
		  {
			"duration": 0.2727270000000033,
			"durationTicks": 240,
			"midi": 28,
			"name": "E1",
			"ticks": 68640,
			"time": 77.999922,
			"velocity": 0.5669291338582677
		  },
		  {
			"duration": 0.2727270000000033,
			"durationTicks": 240,
			"midi": 40,
			"name": "E2",
			"ticks": 68640,
			"time": 77.999922,
			"velocity": 0.5118110236220472
		  },
		  {
			"duration": 0.27272699999998906,
			"durationTicks": 240,
			"midi": 33,
			"name": "A1",
			"ticks": 69120,
			"time": 78.545376,
			"velocity": 0.6220472440944882
		  },
		  {
			"duration": 0.27272699999998906,
			"durationTicks": 240,
			"midi": 45,
			"name": "A2",
			"ticks": 69120,
			"time": 78.545376,
			"velocity": 0.6614173228346457
		  },
		  {
			"duration": 0.2727270000000033,
			"durationTicks": 240,
			"midi": 28,
			"name": "E1",
			"ticks": 69600,
			"time": 79.09083,
			"velocity": 0.6220472440944882
		  },
		  {
			"duration": 0.27272699999998906,
			"durationTicks": 240,
			"midi": 33,
			"name": "A1",
			"ticks": 70080,
			"time": 79.636284,
			"velocity": 0.5826771653543307
		  },
		  {
			"duration": 0.27272699999998906,
			"durationTicks": 240,
			"midi": 45,
			"name": "A2",
			"ticks": 70080,
			"time": 79.636284,
			"velocity": 0.5826771653543307
		  },
		  {
			"duration": 0.2727270000000033,
			"durationTicks": 240,
			"midi": 28,
			"name": "E1",
			"ticks": 70560,
			"time": 80.181738,
			"velocity": 0.5669291338582677
		  },
		  {
			"duration": 0.2727270000000033,
			"durationTicks": 240,
			"midi": 40,
			"name": "E2",
			"ticks": 70560,
			"time": 80.181738,
			"velocity": 0.5118110236220472
		  },
		  {
			"duration": 0.2727270000000033,
			"durationTicks": 240,
			"midi": 26,
			"name": "D1",
			"ticks": 71040,
			"time": 80.727192,
			"velocity": 0.6220472440944882
		  },
		  {
			"duration": 0.2727270000000033,
			"durationTicks": 240,
			"midi": 38,
			"name": "D2",
			"ticks": 71040,
			"time": 80.727192,
			"velocity": 0.6614173228346457
		  },
		  {
			"duration": 0.2727270000000033,
			"durationTicks": 240,
			"midi": 21,
			"name": "A0",
			"ticks": 71520,
			"time": 81.272646,
			"velocity": 0.6535433070866141
		  },
		  {
			"duration": 0.2727270000000033,
			"durationTicks": 240,
			"midi": 33,
			"name": "A1",
			"ticks": 71520,
			"time": 81.272646,
			"velocity": 0.6220472440944882
		  },
		  {
			"duration": 0.2727270000000033,
			"durationTicks": 240,
			"midi": 28,
			"name": "E1",
			"ticks": 72000,
			"time": 81.8181,
			"velocity": 0.5826771653543307
		  },
		  {
			"duration": 0.2727270000000033,
			"durationTicks": 240,
			"midi": 40,
			"name": "E2",
			"ticks": 72000,
			"time": 81.8181,
			"velocity": 0.5826771653543307
		  },
		  {
			"duration": 0.2727270000000033,
			"durationTicks": 240,
			"midi": 23,
			"name": "B0",
			"ticks": 72480,
			"time": 82.363554,
			"velocity": 0.5669291338582677
		  },
		  {
			"duration": 0.2727270000000033,
			"durationTicks": 240,
			"midi": 35,
			"name": "B1",
			"ticks": 72480,
			"time": 82.363554,
			"velocity": 0.5118110236220472
		  },
		  {
			"duration": 0.2727270000000033,
			"durationTicks": 240,
			"midi": 33,
			"name": "A1",
			"ticks": 72960,
			"time": 82.909008,
			"velocity": 0.6220472440944882
		  },
		  {
			"duration": 0.2727270000000033,
			"durationTicks": 240,
			"midi": 45,
			"name": "A2",
			"ticks": 72960,
			"time": 82.909008,
			"velocity": 0.6614173228346457
		  },
		  {
			"duration": 0.2727270000000033,
			"durationTicks": 240,
			"midi": 28,
			"name": "E1",
			"ticks": 73440,
			"time": 83.45446199999999,
			"velocity": 0.6535433070866141
		  },
		  {
			"duration": 0.2727270000000033,
			"durationTicks": 240,
			"midi": 40,
			"name": "E2",
			"ticks": 73440,
			"time": 83.45446199999999,
			"velocity": 0.6220472440944882
		  },
		  {
			"duration": 0.2727270000000033,
			"durationTicks": 240,
			"midi": 26,
			"name": "D1",
			"ticks": 73920,
			"time": 83.999916,
			"velocity": 0.5826771653543307
		  },
		  {
			"duration": 0.2727270000000033,
			"durationTicks": 240,
			"midi": 38,
			"name": "D2",
			"ticks": 73920,
			"time": 83.999916,
			"velocity": 0.5826771653543307
		  },
		  {
			"duration": 0.27272699999998906,
			"durationTicks": 240,
			"midi": 21,
			"name": "A0",
			"ticks": 74400,
			"time": 84.54537,
			"velocity": 0.5669291338582677
		  },
		  {
			"duration": 0.27272699999998906,
			"durationTicks": 240,
			"midi": 33,
			"name": "A1",
			"ticks": 74400,
			"time": 84.54537,
			"velocity": 0.5118110236220472
		  },
		  {
			"duration": 0.2727270000000033,
			"durationTicks": 240,
			"midi": 26,
			"name": "D1",
			"ticks": 74880,
			"time": 85.090824,
			"velocity": 0.6220472440944882
		  },
		  {
			"duration": 0.2727270000000033,
			"durationTicks": 240,
			"midi": 38,
			"name": "D2",
			"ticks": 74880,
			"time": 85.090824,
			"velocity": 0.6614173228346457
		  },
		  {
			"duration": 0.27272699999998906,
			"durationTicks": 240,
			"midi": 21,
			"name": "A0",
			"ticks": 75360,
			"time": 85.636278,
			"velocity": 0.6535433070866141
		  },
		  {
			"duration": 0.27272699999998906,
			"durationTicks": 240,
			"midi": 33,
			"name": "A1",
			"ticks": 75360,
			"time": 85.636278,
			"velocity": 0.6220472440944882
		  },
		  {
			"duration": 0.2727270000000033,
			"durationTicks": 240,
			"midi": 33,
			"name": "A1",
			"ticks": 75840,
			"time": 86.181732,
			"velocity": 0.5826771653543307
		  },
		  {
			"duration": 0.2727270000000033,
			"durationTicks": 240,
			"midi": 45,
			"name": "A2",
			"ticks": 75840,
			"time": 86.181732,
			"velocity": 0.5826771653543307
		  },
		  {
			"duration": 0.27272699999998906,
			"durationTicks": 240,
			"midi": 28,
			"name": "E1",
			"ticks": 76320,
			"time": 86.727186,
			"velocity": 0.5669291338582677
		  },
		  {
			"duration": 0.27272699999998906,
			"durationTicks": 240,
			"midi": 40,
			"name": "E2",
			"ticks": 76320,
			"time": 86.727186,
			"velocity": 0.5118110236220472
		  },
		  {
			"duration": 0.2727270000000033,
			"durationTicks": 240,
			"midi": 33,
			"name": "A1",
			"ticks": 76800,
			"time": 87.27264,
			"velocity": 0.6220472440944882
		  },
		  {
			"duration": 0.2727270000000033,
			"durationTicks": 240,
			"midi": 45,
			"name": "A2",
			"ticks": 76800,
			"time": 87.27264,
			"velocity": 0.6614173228346457
		  },
		  {
			"duration": 0.2727270000000033,
			"durationTicks": 240,
			"midi": 28,
			"name": "E1",
			"ticks": 77280,
			"time": 87.818094,
			"velocity": 0.6535433070866141
		  },
		  {
			"duration": 0.2727270000000033,
			"durationTicks": 240,
			"midi": 40,
			"name": "E2",
			"ticks": 77280,
			"time": 87.818094,
			"velocity": 0.6220472440944882
		  },
		  {
			"duration": 0.2727270000000033,
			"durationTicks": 240,
			"midi": 26,
			"name": "D1",
			"ticks": 77760,
			"time": 88.363548,
			"velocity": 0.5826771653543307
		  },
		  {
			"duration": 0.2727270000000033,
			"durationTicks": 240,
			"midi": 38,
			"name": "D2",
			"ticks": 77760,
			"time": 88.363548,
			"velocity": 0.5826771653543307
		  },
		  {
			"duration": 0.2727270000000033,
			"durationTicks": 240,
			"midi": 21,
			"name": "A0",
			"ticks": 78240,
			"time": 88.909002,
			"velocity": 0.5669291338582677
		  },
		  {
			"duration": 0.2727270000000033,
			"durationTicks": 240,
			"midi": 33,
			"name": "A1",
			"ticks": 78240,
			"time": 88.909002,
			"velocity": 0.5118110236220472
		  },
		  {
			"duration": 0.2727270000000033,
			"durationTicks": 240,
			"midi": 26,
			"name": "D1",
			"ticks": 78720,
			"time": 89.454456,
			"velocity": 0.6220472440944882
		  },
		  {
			"duration": 0.2727270000000033,
			"durationTicks": 240,
			"midi": 38,
			"name": "D2",
			"ticks": 78720,
			"time": 89.454456,
			"velocity": 0.6614173228346457
		  },
		  {
			"duration": 0.2727270000000033,
			"durationTicks": 240,
			"midi": 21,
			"name": "A0",
			"ticks": 79200,
			"time": 89.99991,
			"velocity": 0.6535433070866141
		  },
		  {
			"duration": 0.2727270000000033,
			"durationTicks": 240,
			"midi": 33,
			"name": "A1",
			"ticks": 79200,
			"time": 89.99991,
			"velocity": 0.6220472440944882
		  },
		  {
			"duration": 0.2727270000000033,
			"durationTicks": 240,
			"midi": 33,
			"name": "A1",
			"ticks": 79680,
			"time": 90.54536399999999,
			"velocity": 0.5826771653543307
		  },
		  {
			"duration": 0.2727270000000033,
			"durationTicks": 240,
			"midi": 45,
			"name": "A2",
			"ticks": 79680,
			"time": 90.54536399999999,
			"velocity": 0.5826771653543307
		  },
		  {
			"duration": 0.2727270000000033,
			"durationTicks": 240,
			"midi": 28,
			"name": "E1",
			"ticks": 80160,
			"time": 91.090818,
			"velocity": 0.5118110236220472
		  },
		  {
			"duration": 0.27272699999998906,
			"durationTicks": 240,
			"midi": 33,
			"name": "A1",
			"ticks": 80640,
			"time": 91.636272,
			"velocity": 0.6220472440944882
		  },
		  {
			"duration": 0.27272699999998906,
			"durationTicks": 240,
			"midi": 45,
			"name": "A2",
			"ticks": 80640,
			"time": 91.636272,
			"velocity": 0.6614173228346457
		  },
		  {
			"duration": 0.2727270000000033,
			"durationTicks": 240,
			"midi": 28,
			"name": "E1",
			"ticks": 81120,
			"time": 92.181726,
			"velocity": 0.6535433070866141
		  },
		  {
			"duration": 0.2727270000000033,
			"durationTicks": 240,
			"midi": 40,
			"name": "E2",
			"ticks": 81120,
			"time": 92.181726,
			"velocity": 0.6220472440944882
		  },
		  {
			"duration": 0.27272699999998906,
			"durationTicks": 240,
			"midi": 33,
			"name": "A1",
			"ticks": 81600,
			"time": 92.72718,
			"velocity": 0.5826771653543307
		  },
		  {
			"duration": 0.27272699999998906,
			"durationTicks": 240,
			"midi": 45,
			"name": "A2",
			"ticks": 81600,
			"time": 92.72718,
			"velocity": 0.5826771653543307
		  },
		  {
			"duration": 0.2727270000000033,
			"durationTicks": 240,
			"midi": 28,
			"name": "E1",
			"ticks": 82080,
			"time": 93.272634,
			"velocity": 0.5669291338582677
		  },
		  {
			"duration": 0.2727270000000033,
			"durationTicks": 240,
			"midi": 40,
			"name": "E2",
			"ticks": 82080,
			"time": 93.272634,
			"velocity": 0.5118110236220472
		  },
		  {
			"duration": 0.27272699999998906,
			"durationTicks": 240,
			"midi": 33,
			"name": "A1",
			"ticks": 82560,
			"time": 93.818088,
			"velocity": 0.6220472440944882
		  },
		  {
			"duration": 0.27272699999998906,
			"durationTicks": 240,
			"midi": 45,
			"name": "A2",
			"ticks": 82560,
			"time": 93.818088,
			"velocity": 0.6614173228346457
		  },
		  {
			"duration": 0.2727270000000033,
			"durationTicks": 240,
			"midi": 28,
			"name": "E1",
			"ticks": 83040,
			"time": 94.363542,
			"velocity": 0.6535433070866141
		  },
		  {
			"duration": 0.2727270000000033,
			"durationTicks": 240,
			"midi": 40,
			"name": "E2",
			"ticks": 83040,
			"time": 94.363542,
			"velocity": 0.6220472440944882
		  }
		]
	  },
	  {
		"channel": 0,
		"controlChanges": {},
		"pitchBends": [],
		"instrument": {
		  "family": "strings",
		  "name": "violin",
		  "number": 40
		},
		"name": "",
		"notes": [
		  {
			"duration": 0.24545429999999957,
			"durationTicks": 216,
			"midi": 69,
			"name": "A4",
			"ticks": 4800,
			"time": 5.45454,
			"velocity": 0.8582677165354331
		  },
		  {
			"duration": 0.24545429999999957,
			"durationTicks": 216,
			"midi": 69,
			"name": "A4",
			"ticks": 5040,
			"time": 5.727267,
			"velocity": 0.8582677165354331
		  },
		  {
			"duration": 0.24545429999999957,
			"durationTicks": 216,
			"midi": 71,
			"name": "B4",
			"ticks": 5280,
			"time": 5.999994,
			"velocity": 0.8582677165354331
		  },
		  {
			"duration": 0.24545429999999957,
			"durationTicks": 216,
			"midi": 73,
			"name": "C#5",
			"ticks": 5520,
			"time": 6.272721,
			"velocity": 0.8582677165354331
		  },
		  {
			"duration": 0.24545429999999957,
			"durationTicks": 216,
			"midi": 69,
			"name": "A4",
			"ticks": 5760,
			"time": 6.545448,
			"velocity": 0.8582677165354331
		  },
		  {
			"duration": 0.24545429999999957,
			"durationTicks": 216,
			"midi": 73,
			"name": "C#5",
			"ticks": 6000,
			"time": 6.818175,
			"velocity": 0.8582677165354331
		  },
		  {
			"duration": 0.24545429999999957,
			"durationTicks": 216,
			"midi": 71,
			"name": "B4",
			"ticks": 6240,
			"time": 7.090902,
			"velocity": 0.8582677165354331
		  },
		  {
			"duration": 0.24545429999999957,
			"durationTicks": 216,
			"midi": 64,
			"name": "E4",
			"ticks": 6480,
			"time": 7.3636289999999995,
			"velocity": 0.8582677165354331
		  },
		  {
			"duration": 0.24545429999999957,
			"durationTicks": 216,
			"midi": 69,
			"name": "A4",
			"ticks": 6720,
			"time": 7.636356,
			"velocity": 0.8582677165354331
		  },
		  {
			"duration": 0.24545429999999957,
			"durationTicks": 216,
			"midi": 69,
			"name": "A4",
			"ticks": 6960,
			"time": 7.909083,
			"velocity": 0.8582677165354331
		  },
		  {
			"duration": 0.24545429999999868,
			"durationTicks": 216,
			"midi": 71,
			"name": "B4",
			"ticks": 7200,
			"time": 8.18181,
			"velocity": 0.8582677165354331
		  },
		  {
			"duration": 0.24545429999999868,
			"durationTicks": 216,
			"midi": 73,
			"name": "C#5",
			"ticks": 7440,
			"time": 8.454537,
			"velocity": 0.8582677165354331
		  },
		  {
			"duration": 0.49090859999999914,
			"durationTicks": 432,
			"midi": 69,
			"name": "A4",
			"ticks": 7680,
			"time": 8.727264,
			"velocity": 0.8582677165354331
		  },
		  {
			"duration": 0.24545430000000046,
			"durationTicks": 216,
			"midi": 68,
			"name": "G#4",
			"ticks": 8160,
			"time": 9.272718,
			"velocity": 0.8582677165354331
		  },
		  {
			"duration": 0.24545430000000046,
			"durationTicks": 216,
			"midi": 64,
			"name": "E4",
			"ticks": 8400,
			"time": 9.545444999999999,
			"velocity": 0.8582677165354331
		  },
		  {
			"duration": 0.24545429999999868,
			"durationTicks": 216,
			"midi": 69,
			"name": "A4",
			"ticks": 8640,
			"time": 9.818172,
			"velocity": 0.8582677165354331
		  },
		  {
			"duration": 0.24545429999999868,
			"durationTicks": 216,
			"midi": 69,
			"name": "A4",
			"ticks": 8880,
			"time": 10.090899,
			"velocity": 0.8582677165354331
		  },
		  {
			"duration": 0.24545429999999868,
			"durationTicks": 216,
			"midi": 71,
			"name": "B4",
			"ticks": 9120,
			"time": 10.363626,
			"velocity": 0.8582677165354331
		  },
		  {
			"duration": 0.24545430000000046,
			"durationTicks": 216,
			"midi": 73,
			"name": "C#5",
			"ticks": 9360,
			"time": 10.636353,
			"velocity": 0.8582677165354331
		  },
		  {
			"duration": 0.24545430000000046,
			"durationTicks": 216,
			"midi": 74,
			"name": "D5",
			"ticks": 9600,
			"time": 10.90908,
			"velocity": 0.8582677165354331
		  },
		  {
			"duration": 0.24545430000000046,
			"durationTicks": 216,
			"midi": 73,
			"name": "C#5",
			"ticks": 9840,
			"time": 11.181807,
			"velocity": 0.8582677165354331
		  },
		  {
			"duration": 0.24545429999999868,
			"durationTicks": 216,
			"midi": 71,
			"name": "B4",
			"ticks": 10080,
			"time": 11.454534,
			"velocity": 0.8582677165354331
		  },
		  {
			"duration": 0.24545429999999868,
			"durationTicks": 216,
			"midi": 69,
			"name": "A4",
			"ticks": 10320,
			"time": 11.727261,
			"velocity": 0.8582677165354331
		  },
		  {
			"duration": 0.24545429999999868,
			"durationTicks": 216,
			"midi": 68,
			"name": "G#4",
			"ticks": 10560,
			"time": 11.999988,
			"velocity": 0.8582677165354331
		  },
		  {
			"duration": 0.24545430000000046,
			"durationTicks": 216,
			"midi": 64,
			"name": "E4",
			"ticks": 10800,
			"time": 12.272715,
			"velocity": 0.8582677165354331
		  },
		  {
			"duration": 0.24545430000000046,
			"durationTicks": 216,
			"midi": 66,
			"name": "F#4",
			"ticks": 11040,
			"time": 12.545442,
			"velocity": 0.8582677165354331
		  },
		  {
			"duration": 0.24545430000000046,
			"durationTicks": 216,
			"midi": 68,
			"name": "G#4",
			"ticks": 11280,
			"time": 12.818169,
			"velocity": 0.8582677165354331
		  },
		  {
			"duration": 0.24545429999999868,
			"durationTicks": 216,
			"midi": 69,
			"name": "A4",
			"ticks": 11520,
			"time": 13.090896,
			"velocity": 0.8582677165354331
		  },
		  {
			"duration": 0.24545429999999868,
			"durationTicks": 216,
			"midi": 69,
			"name": "A4",
			"ticks": 11760,
			"time": 13.363623,
			"velocity": 0.8582677165354331
		  },
		  {
			"duration": 0.24545429999999868,
			"durationTicks": 216,
			"midi": 69,
			"name": "A4",
			"ticks": 12000,
			"time": 13.63635,
			"velocity": 0.8582677165354331
		  },
		  {
			"duration": 0.3681814499999998,
			"durationTicks": 324,
			"midi": 66,
			"name": "F#4",
			"ticks": 12480,
			"time": 14.181804,
			"velocity": 0.8582677165354331
		  },
		  {
			"duration": 0.12272715000000112,
			"durationTicks": 108,
			"midi": 68,
			"name": "G#4",
			"ticks": 12840,
			"time": 14.5908945,
			"velocity": 0.8582677165354331
		  },
		  {
			"duration": 0.24545430000000046,
			"durationTicks": 216,
			"midi": 66,
			"name": "F#4",
			"ticks": 12960,
			"time": 14.727257999999999,
			"velocity": 0.8582677165354331
		  },
		  {
			"duration": 0.24545429999999868,
			"durationTicks": 216,
			"midi": 64,
			"name": "E4",
			"ticks": 13200,
			"time": 14.999985,
			"velocity": 0.8582677165354331
		  },
		  {
			"duration": 0.24545429999999868,
			"durationTicks": 216,
			"midi": 66,
			"name": "F#4",
			"ticks": 13440,
			"time": 15.272712,
			"velocity": 0.8582677165354331
		  },
		  {
			"duration": 0.24545429999999868,
			"durationTicks": 216,
			"midi": 68,
			"name": "G#4",
			"ticks": 13680,
			"time": 15.545439,
			"velocity": 0.8582677165354331
		  },
		  {
			"duration": 0.24545430000000046,
			"durationTicks": 216,
			"midi": 69,
			"name": "A4",
			"ticks": 13920,
			"time": 15.818166,
			"velocity": 0.8582677165354331
		  },
		  {
			"duration": 0.24545429999999868,
			"durationTicks": 216,
			"midi": 66,
			"name": "F#4",
			"ticks": 14160,
			"time": 16.090893,
			"velocity": 0.8582677165354331
		  },
		  {
			"duration": 0.368181449999998,
			"durationTicks": 324,
			"midi": 64,
			"name": "E4",
			"ticks": 14400,
			"time": 16.36362,
			"velocity": 0.8582677165354331
		  },
		  {
			"duration": 0.1227271500000029,
			"durationTicks": 108,
			"midi": 66,
			"name": "F#4",
			"ticks": 14760,
			"time": 16.7727105,
			"velocity": 0.8582677165354331
		  },
		  {
			"duration": 0.24545429999999868,
			"durationTicks": 216,
			"midi": 64,
			"name": "E4",
			"ticks": 14880,
			"time": 16.909074,
			"velocity": 0.8582677165354331
		  },
		  {
			"duration": 0.24545429999999868,
			"durationTicks": 216,
			"midi": 62,
			"name": "D4",
			"ticks": 15120,
			"time": 17.181801,
			"velocity": 0.8582677165354331
		  },
		  {
			"duration": 0.24545430000000223,
			"durationTicks": 216,
			"midi": 61,
			"name": "C#4",
			"ticks": 15360,
			"time": 17.454528,
			"velocity": 0.8582677165354331
		  },
		  {
			"duration": 0.24545430000000223,
			"durationTicks": 216,
			"midi": 62,
			"name": "D4",
			"ticks": 15600,
			"time": 17.727255,
			"velocity": 0.8582677165354331
		  },
		  {
			"duration": 0.4909086000000009,
			"durationTicks": 432,
			"midi": 64,
			"name": "E4",
			"ticks": 15840,
			"time": 17.999982,
			"velocity": 0.8582677165354331
		  },
		  {
			"duration": 0.368181449999998,
			"durationTicks": 324,
			"midi": 66,
			"name": "F#4",
			"ticks": 16320,
			"time": 18.545436,
			"velocity": 0.8582677165354331
		  },
		  {
			"duration": 0.12272714999999934,
			"durationTicks": 108,
			"midi": 68,
			"name": "G#4",
			"ticks": 16680,
			"time": 18.9545265,
			"velocity": 0.8582677165354331
		  },
		  {
			"duration": 0.24545430000000223,
			"durationTicks": 216,
			"midi": 66,
			"name": "F#4",
			"ticks": 16800,
			"time": 19.090889999999998,
			"velocity": 0.8582677165354331
		  },
		  {
			"duration": 0.24545429999999868,
			"durationTicks": 216,
			"midi": 64,
			"name": "E4",
			"ticks": 17040,
			"time": 19.363617,
			"velocity": 0.8582677165354331
		  },
		  {
			"duration": 0.24545429999999868,
			"durationTicks": 216,
			"midi": 66,
			"name": "F#4",
			"ticks": 17280,
			"time": 19.636344,
			"velocity": 0.8582677165354331
		  },
		  {
			"duration": 0.24545430000000223,
			"durationTicks": 216,
			"midi": 68,
			"name": "G#4",
			"ticks": 17520,
			"time": 19.909071,
			"velocity": 0.8582677165354331
		  },
		  {
			"duration": 0.24545430000000223,
			"durationTicks": 216,
			"midi": 69,
			"name": "A4",
			"ticks": 17760,
			"time": 20.181798,
			"velocity": 0.8582677165354331
		  },
		  {
			"duration": 0.24545430000000223,
			"durationTicks": 216,
			"midi": 66,
			"name": "F#4",
			"ticks": 18000,
			"time": 20.454525,
			"velocity": 0.8582677165354331
		  },
		  {
			"duration": 0.24545430000000223,
			"durationTicks": 216,
			"midi": 64,
			"name": "E4",
			"ticks": 18240,
			"time": 20.727252,
			"velocity": 0.8582677165354331
		  },
		  {
			"duration": 0.24545430000000223,
			"durationTicks": 216,
			"midi": 69,
			"name": "A4",
			"ticks": 18480,
			"time": 20.999979,
			"velocity": 0.8582677165354331
		  },
		  {
			"duration": 0.24545430000000223,
			"durationTicks": 216,
			"midi": 68,
			"name": "G#4",
			"ticks": 18720,
			"time": 21.272706,
			"velocity": 0.8582677165354331
		  },
		  {
			"duration": 0.24545430000000223,
			"durationTicks": 216,
			"midi": 71,
			"name": "B4",
			"ticks": 18960,
			"time": 21.545433,
			"velocity": 0.8582677165354331
		  },
		  {
			"duration": 0.7363629000000032,
			"durationTicks": 648,
			"midi": 69,
			"name": "A4",
			"ticks": 19200,
			"time": 21.81816,
			"velocity": 0.8582677165354331
		  },
		  {
			"duration": 0.24545429999999868,
			"durationTicks": 216,
			"midi": 69,
			"name": "A4",
			"ticks": 35520,
			"time": 40.363596,
			"velocity": 0.8582677165354331
		  },
		  {
			"duration": 0.2454543000000058,
			"durationTicks": 216,
			"midi": 69,
			"name": "A4",
			"ticks": 35760,
			"time": 40.636323,
			"velocity": 0.8582677165354331
		  },
		  {
			"duration": 0.24545429999999868,
			"durationTicks": 216,
			"midi": 71,
			"name": "B4",
			"ticks": 36000,
			"time": 40.90905,
			"velocity": 0.8582677165354331
		  },
		  {
			"duration": 0.2454543000000058,
			"durationTicks": 216,
			"midi": 73,
			"name": "C#5",
			"ticks": 36240,
			"time": 41.181777,
			"velocity": 0.8582677165354331
		  },
		  {
			"duration": 0.24545429999999868,
			"durationTicks": 216,
			"midi": 69,
			"name": "A4",
			"ticks": 36480,
			"time": 41.454504,
			"velocity": 0.8582677165354331
		  },
		  {
			"duration": 0.2454543000000058,
			"durationTicks": 216,
			"midi": 73,
			"name": "C#5",
			"ticks": 36720,
			"time": 41.727230999999996,
			"velocity": 0.8582677165354331
		  },
		  {
			"duration": 0.24545429999999868,
			"durationTicks": 216,
			"midi": 71,
			"name": "B4",
			"ticks": 36960,
			"time": 41.999958,
			"velocity": 0.8582677165354331
		  },
		  {
			"duration": 0.24545429999999868,
			"durationTicks": 216,
			"midi": 64,
			"name": "E4",
			"ticks": 37200,
			"time": 42.272685,
			"velocity": 0.8582677165354331
		  },
		  {
			"duration": 0.24545429999999868,
			"durationTicks": 216,
			"midi": 69,
			"name": "A4",
			"ticks": 37440,
			"time": 42.545412,
			"velocity": 0.8582677165354331
		  },
		  {
			"duration": 0.24545429999999868,
			"durationTicks": 216,
			"midi": 69,
			"name": "A4",
			"ticks": 37680,
			"time": 42.818139,
			"velocity": 0.8582677165354331
		  },
		  {
			"duration": 0.2454543000000058,
			"durationTicks": 216,
			"midi": 71,
			"name": "B4",
			"ticks": 37920,
			"time": 43.090866,
			"velocity": 0.8582677165354331
		  },
		  {
			"duration": 0.24545429999999868,
			"durationTicks": 216,
			"midi": 73,
			"name": "C#5",
			"ticks": 38160,
			"time": 43.363593,
			"velocity": 0.8582677165354331
		  },
		  {
			"duration": 0.49090860000000447,
			"durationTicks": 432,
			"midi": 69,
			"name": "A4",
			"ticks": 38400,
			"time": 43.63632,
			"velocity": 0.8582677165354331
		  },
		  {
			"duration": 0.2454543000000058,
			"durationTicks": 216,
			"midi": 68,
			"name": "G#4",
			"ticks": 38880,
			"time": 44.181774,
			"velocity": 0.8582677165354331
		  },
		  {
			"duration": 0.24545429999999868,
			"durationTicks": 216,
			"midi": 64,
			"name": "E4",
			"ticks": 39120,
			"time": 44.454501,
			"velocity": 0.8582677165354331
		  },
		  {
			"duration": 0.2454543000000058,
			"durationTicks": 216,
			"midi": 69,
			"name": "A4",
			"ticks": 39360,
			"time": 44.727228,
			"velocity": 0.8582677165354331
		  },
		  {
			"duration": 0.24545429999999868,
			"durationTicks": 216,
			"midi": 69,
			"name": "A4",
			"ticks": 39600,
			"time": 44.999955,
			"velocity": 0.8582677165354331
		  },
		  {
			"duration": 0.2454543000000058,
			"durationTicks": 216,
			"midi": 71,
			"name": "B4",
			"ticks": 39840,
			"time": 45.272681999999996,
			"velocity": 0.8582677165354331
		  },
		  {
			"duration": 0.24545429999999868,
			"durationTicks": 216,
			"midi": 73,
			"name": "C#5",
			"ticks": 40080,
			"time": 45.545409,
			"velocity": 0.8582677165354331
		  },
		  {
			"duration": 0.24545429999999868,
			"durationTicks": 216,
			"midi": 74,
			"name": "D5",
			"ticks": 40320,
			"time": 45.818136,
			"velocity": 0.8582677165354331
		  },
		  {
			"duration": 0.2454543000000058,
			"durationTicks": 216,
			"midi": 73,
			"name": "C#5",
			"ticks": 40560,
			"time": 46.090863,
			"velocity": 0.8582677165354331
		  },
		  {
			"duration": 0.24545429999999868,
			"durationTicks": 216,
			"midi": 71,
			"name": "B4",
			"ticks": 40800,
			"time": 46.36359,
			"velocity": 0.8582677165354331
		  },
		  {
			"duration": 0.2454543000000058,
			"durationTicks": 216,
			"midi": 69,
			"name": "A4",
			"ticks": 41040,
			"time": 46.636317,
			"velocity": 0.8582677165354331
		  },
		  {
			"duration": 0.24545429999999868,
			"durationTicks": 216,
			"midi": 68,
			"name": "G#4",
			"ticks": 41280,
			"time": 46.909044,
			"velocity": 0.8582677165354331
		  },
		  {
			"duration": 0.2454543000000058,
			"durationTicks": 216,
			"midi": 64,
			"name": "E4",
			"ticks": 41520,
			"time": 47.181771,
			"velocity": 0.8582677165354331
		  },
		  {
			"duration": 0.24545429999999868,
			"durationTicks": 216,
			"midi": 66,
			"name": "F#4",
			"ticks": 41760,
			"time": 47.454498,
			"velocity": 0.8582677165354331
		  },
		  {
			"duration": 0.2454543000000058,
			"durationTicks": 216,
			"midi": 68,
			"name": "G#4",
			"ticks": 42000,
			"time": 47.727225,
			"velocity": 0.8582677165354331
		  },
		  {
			"duration": 0.24545429999999868,
			"durationTicks": 216,
			"midi": 69,
			"name": "A4",
			"ticks": 42240,
			"time": 47.999952,
			"velocity": 0.8582677165354331
		  },
		  {
			"duration": 0.2454543000000058,
			"durationTicks": 216,
			"midi": 69,
			"name": "A4",
			"ticks": 42480,
			"time": 48.272679,
			"velocity": 0.8582677165354331
		  },
		  {
			"duration": 0.24545429999999868,
			"durationTicks": 216,
			"midi": 69,
			"name": "A4",
			"ticks": 42720,
			"time": 48.545406,
			"velocity": 0.8582677165354331
		  },
		  {
			"duration": 0.3681814500000016,
			"durationTicks": 324,
			"midi": 66,
			"name": "F#4",
			"ticks": 43200,
			"time": 49.09086,
			"velocity": 0.8582677165354331
		  },
		  {
			"duration": 0.12272714999999579,
			"durationTicks": 108,
			"midi": 68,
			"name": "G#4",
			"ticks": 43560,
			"time": 49.4999505,
			"velocity": 0.8582677165354331
		  },
		  {
			"duration": 0.2454543000000058,
			"durationTicks": 216,
			"midi": 66,
			"name": "F#4",
			"ticks": 43680,
			"time": 49.636314,
			"velocity": 0.8582677165354331
		  },
		  {
			"duration": 0.24545429999999868,
			"durationTicks": 216,
			"midi": 64,
			"name": "E4",
			"ticks": 43920,
			"time": 49.909041,
			"velocity": 0.8582677165354331
		  },
		  {
			"duration": 0.2454543000000058,
			"durationTicks": 216,
			"midi": 66,
			"name": "F#4",
			"ticks": 44160,
			"time": 50.181768,
			"velocity": 0.8582677165354331
		  },
		  {
			"duration": 0.24545429999999868,
			"durationTicks": 216,
			"midi": 68,
			"name": "G#4",
			"ticks": 44400,
			"time": 50.454495,
			"velocity": 0.8582677165354331
		  },
		  {
			"duration": 0.2454543000000058,
			"durationTicks": 216,
			"midi": 69,
			"name": "A4",
			"ticks": 44640,
			"time": 50.727222,
			"velocity": 0.8582677165354331
		  },
		  {
			"duration": 0.24545429999999868,
			"durationTicks": 216,
			"midi": 66,
			"name": "F#4",
			"ticks": 44880,
			"time": 50.999949,
			"velocity": 0.8582677165354331
		  },
		  {
			"duration": 0.3681814500000016,
			"durationTicks": 324,
			"midi": 64,
			"name": "E4",
			"ticks": 45120,
			"time": 51.272676,
			"velocity": 0.8582677165354331
		  },
		  {
			"duration": 0.12272714999999579,
			"durationTicks": 108,
			"midi": 66,
			"name": "F#4",
			"ticks": 45480,
			"time": 51.6817665,
			"velocity": 0.8582677165354331
		  },
		  {
			"duration": 0.2454543000000058,
			"durationTicks": 216,
			"midi": 64,
			"name": "E4",
			"ticks": 45600,
			"time": 51.81813,
			"velocity": 0.8582677165354331
		  },
		  {
			"duration": 0.24545429999999868,
			"durationTicks": 216,
			"midi": 62,
			"name": "D4",
			"ticks": 45840,
			"time": 52.090857,
			"velocity": 0.8582677165354331
		  },
		  {
			"duration": 0.24545429999999868,
			"durationTicks": 216,
			"midi": 61,
			"name": "C#4",
			"ticks": 46080,
			"time": 52.363584,
			"velocity": 0.8582677165354331
		  },
		  {
			"duration": 0.24545429999999868,
			"durationTicks": 216,
			"midi": 62,
			"name": "D4",
			"ticks": 46320,
			"time": 52.636311,
			"velocity": 0.8582677165354331
		  },
		  {
			"duration": 0.49090859999999736,
			"durationTicks": 432,
			"midi": 64,
			"name": "E4",
			"ticks": 46560,
			"time": 52.909038,
			"velocity": 0.8582677165354331
		  },
		  {
			"duration": 0.36818144999999447,
			"durationTicks": 324,
			"midi": 66,
			"name": "F#4",
			"ticks": 47040,
			"time": 53.454492,
			"velocity": 0.8582677165354331
		  },
		  {
			"duration": 0.12272714999999579,
			"durationTicks": 108,
			"midi": 68,
			"name": "G#4",
			"ticks": 47400,
			"time": 53.8635825,
			"velocity": 0.8582677165354331
		  },
		  {
			"duration": 0.24545429999999868,
			"durationTicks": 216,
			"midi": 66,
			"name": "F#4",
			"ticks": 47520,
			"time": 53.999946,
			"velocity": 0.8582677165354331
		  },
		  {
			"duration": 0.2454543000000058,
			"durationTicks": 216,
			"midi": 64,
			"name": "E4",
			"ticks": 47760,
			"time": 54.272673,
			"velocity": 0.8582677165354331
		  },
		  {
			"duration": 0.24545429999999868,
			"durationTicks": 216,
			"midi": 66,
			"name": "F#4",
			"ticks": 48000,
			"time": 54.5454,
			"velocity": 0.8582677165354331
		  },
		  {
			"duration": 0.2454543000000058,
			"durationTicks": 216,
			"midi": 68,
			"name": "G#4",
			"ticks": 48240,
			"time": 54.818127,
			"velocity": 0.8582677165354331
		  },
		  {
			"duration": 0.24545429999999868,
			"durationTicks": 216,
			"midi": 69,
			"name": "A4",
			"ticks": 48480,
			"time": 55.090854,
			"velocity": 0.8582677165354331
		  },
		  {
			"duration": 0.2454543000000058,
			"durationTicks": 216,
			"midi": 66,
			"name": "F#4",
			"ticks": 48720,
			"time": 55.363580999999996,
			"velocity": 0.8582677165354331
		  },
		  {
			"duration": 0.24545429999999868,
			"durationTicks": 216,
			"midi": 64,
			"name": "E4",
			"ticks": 48960,
			"time": 55.636308,
			"velocity": 0.8582677165354331
		  },
		  {
			"duration": 0.24545429999999868,
			"durationTicks": 216,
			"midi": 69,
			"name": "A4",
			"ticks": 49200,
			"time": 55.909035,
			"velocity": 0.8582677165354331
		  },
		  {
			"duration": 0.24545429999999868,
			"durationTicks": 216,
			"midi": 68,
			"name": "G#4",
			"ticks": 49440,
			"time": 56.181762,
			"velocity": 0.8582677165354331
		  },
		  {
			"duration": 0.24545429999999868,
			"durationTicks": 216,
			"midi": 71,
			"name": "B4",
			"ticks": 49680,
			"time": 56.454489,
			"velocity": 0.8582677165354331
		  },
		  {
			"duration": 0.736362899999996,
			"durationTicks": 648,
			"midi": 69,
			"name": "A4",
			"ticks": 49920,
			"time": 56.727216,
			"velocity": 1
		  },
		  {
			"duration": 0.2454543000000058,
			"durationTicks": 216,
			"midi": 69,
			"name": "A4",
			"ticks": 66240,
			"time": 75.272652,
			"velocity": 0.8582677165354331
		  },
		  {
			"duration": 0.24545429999999158,
			"durationTicks": 216,
			"midi": 69,
			"name": "A4",
			"ticks": 66480,
			"time": 75.545379,
			"velocity": 0.8582677165354331
		  },
		  {
			"duration": 0.24545429999999158,
			"durationTicks": 216,
			"midi": 71,
			"name": "B4",
			"ticks": 66720,
			"time": 75.818106,
			"velocity": 0.8582677165354331
		  },
		  {
			"duration": 0.24545429999999158,
			"durationTicks": 216,
			"midi": 73,
			"name": "C#5",
			"ticks": 66960,
			"time": 76.090833,
			"velocity": 0.8582677165354331
		  },
		  {
			"duration": 0.2454543000000058,
			"durationTicks": 216,
			"midi": 69,
			"name": "A4",
			"ticks": 67200,
			"time": 76.36355999999999,
			"velocity": 0.8582677165354331
		  },
		  {
			"duration": 0.24545429999999158,
			"durationTicks": 216,
			"midi": 73,
			"name": "C#5",
			"ticks": 67440,
			"time": 76.636287,
			"velocity": 0.8582677165354331
		  },
		  {
			"duration": 0.24545429999999158,
			"durationTicks": 216,
			"midi": 71,
			"name": "B4",
			"ticks": 67680,
			"time": 76.909014,
			"velocity": 0.8582677165354331
		  },
		  {
			"duration": 0.24545429999999158,
			"durationTicks": 216,
			"midi": 64,
			"name": "E4",
			"ticks": 67920,
			"time": 77.181741,
			"velocity": 0.8582677165354331
		  },
		  {
			"duration": 0.24545429999999158,
			"durationTicks": 216,
			"midi": 69,
			"name": "A4",
			"ticks": 68160,
			"time": 77.454468,
			"velocity": 0.8582677165354331
		  },
		  {
			"duration": 0.24545429999999158,
			"durationTicks": 216,
			"midi": 69,
			"name": "A4",
			"ticks": 68400,
			"time": 77.727195,
			"velocity": 0.8582677165354331
		  },
		  {
			"duration": 0.24545429999999158,
			"durationTicks": 216,
			"midi": 71,
			"name": "B4",
			"ticks": 68640,
			"time": 77.999922,
			"velocity": 0.8582677165354331
		  },
		  {
			"duration": 0.24545429999999158,
			"durationTicks": 216,
			"midi": 73,
			"name": "C#5",
			"ticks": 68880,
			"time": 78.272649,
			"velocity": 0.8582677165354331
		  },
		  {
			"duration": 0.49090859999999736,
			"durationTicks": 432,
			"midi": 69,
			"name": "A4",
			"ticks": 69120,
			"time": 78.545376,
			"velocity": 0.8582677165354331
		  },
		  {
			"duration": 0.24545429999999158,
			"durationTicks": 216,
			"midi": 68,
			"name": "G#4",
			"ticks": 69600,
			"time": 79.09083,
			"velocity": 0.8582677165354331
		  },
		  {
			"duration": 0.24545429999999158,
			"durationTicks": 216,
			"midi": 64,
			"name": "E4",
			"ticks": 69840,
			"time": 79.363557,
			"velocity": 0.8582677165354331
		  },
		  {
			"duration": 0.24545429999999158,
			"durationTicks": 216,
			"midi": 69,
			"name": "A4",
			"ticks": 70080,
			"time": 79.636284,
			"velocity": 0.8582677165354331
		  },
		  {
			"duration": 0.2454543000000058,
			"durationTicks": 216,
			"midi": 69,
			"name": "A4",
			"ticks": 70320,
			"time": 79.90901099999999,
			"velocity": 0.8582677165354331
		  },
		  {
			"duration": 0.24545429999999158,
			"durationTicks": 216,
			"midi": 71,
			"name": "B4",
			"ticks": 70560,
			"time": 80.181738,
			"velocity": 0.8582677165354331
		  },
		  {
			"duration": 0.24545429999999158,
			"durationTicks": 216,
			"midi": 73,
			"name": "C#5",
			"ticks": 70800,
			"time": 80.454465,
			"velocity": 0.8582677165354331
		  },
		  {
			"duration": 0.24545429999999158,
			"durationTicks": 216,
			"midi": 74,
			"name": "D5",
			"ticks": 71040,
			"time": 80.727192,
			"velocity": 0.8582677165354331
		  },
		  {
			"duration": 0.24545429999999158,
			"durationTicks": 216,
			"midi": 73,
			"name": "C#5",
			"ticks": 71280,
			"time": 80.999919,
			"velocity": 0.8582677165354331
		  },
		  {
			"duration": 0.24545429999999158,
			"durationTicks": 216,
			"midi": 71,
			"name": "B4",
			"ticks": 71520,
			"time": 81.272646,
			"velocity": 0.8582677165354331
		  },
		  {
			"duration": 0.24545429999999158,
			"durationTicks": 216,
			"midi": 69,
			"name": "A4",
			"ticks": 71760,
			"time": 81.545373,
			"velocity": 0.8582677165354331
		  },
		  {
			"duration": 0.24545429999999158,
			"durationTicks": 216,
			"midi": 68,
			"name": "G#4",
			"ticks": 72000,
			"time": 81.8181,
			"velocity": 0.8582677165354331
		  },
		  {
			"duration": 0.24545429999999158,
			"durationTicks": 216,
			"midi": 64,
			"name": "E4",
			"ticks": 72240,
			"time": 82.090827,
			"velocity": 0.8582677165354331
		  },
		  {
			"duration": 0.2454543000000058,
			"durationTicks": 216,
			"midi": 66,
			"name": "F#4",
			"ticks": 72480,
			"time": 82.363554,
			"velocity": 0.8582677165354331
		  },
		  {
			"duration": 0.24545429999999158,
			"durationTicks": 216,
			"midi": 68,
			"name": "G#4",
			"ticks": 72720,
			"time": 82.636281,
			"velocity": 0.8582677165354331
		  },
		  {
			"duration": 0.24545429999999158,
			"durationTicks": 216,
			"midi": 69,
			"name": "A4",
			"ticks": 72960,
			"time": 82.909008,
			"velocity": 0.8582677165354331
		  },
		  {
			"duration": 0.24545429999999158,
			"durationTicks": 216,
			"midi": 69,
			"name": "A4",
			"ticks": 73200,
			"time": 83.181735,
			"velocity": 0.8582677165354331
		  },
		  {
			"duration": 0.2454543000000058,
			"durationTicks": 216,
			"midi": 69,
			"name": "A4",
			"ticks": 73440,
			"time": 83.45446199999999,
			"velocity": 0.8582677165354331
		  },
		  {
			"duration": 0.3681814500000087,
			"durationTicks": 324,
			"midi": 66,
			"name": "F#4",
			"ticks": 73920,
			"time": 83.999916,
			"velocity": 0.8582677165354331
		  },
		  {
			"duration": 0.12272714999998868,
			"durationTicks": 108,
			"midi": 68,
			"name": "G#4",
			"ticks": 74280,
			"time": 84.4090065,
			"velocity": 0.8582677165354331
		  },
		  {
			"duration": 0.24545429999999158,
			"durationTicks": 216,
			"midi": 66,
			"name": "F#4",
			"ticks": 74400,
			"time": 84.54537,
			"velocity": 0.8582677165354331
		  },
		  {
			"duration": 0.24545429999999158,
			"durationTicks": 216,
			"midi": 64,
			"name": "E4",
			"ticks": 74640,
			"time": 84.818097,
			"velocity": 0.8582677165354331
		  },
		  {
			"duration": 0.24545429999999158,
			"durationTicks": 216,
			"midi": 66,
			"name": "F#4",
			"ticks": 74880,
			"time": 85.090824,
			"velocity": 0.8582677165354331
		  },
		  {
			"duration": 0.24545429999999158,
			"durationTicks": 216,
			"midi": 68,
			"name": "G#4",
			"ticks": 75120,
			"time": 85.363551,
			"velocity": 0.8582677165354331
		  },
		  {
			"duration": 0.24545429999999158,
			"durationTicks": 216,
			"midi": 69,
			"name": "A4",
			"ticks": 75360,
			"time": 85.636278,
			"velocity": 0.8582677165354331
		  },
		  {
			"duration": 0.2454543000000058,
			"durationTicks": 216,
			"midi": 66,
			"name": "F#4",
			"ticks": 75600,
			"time": 85.909005,
			"velocity": 0.8582677165354331
		  },
		  {
			"duration": 0.3681814500000087,
			"durationTicks": 324,
			"midi": 64,
			"name": "E4",
			"ticks": 75840,
			"time": 86.181732,
			"velocity": 0.8582677165354331
		  },
		  {
			"duration": 0.12272714999998868,
			"durationTicks": 108,
			"midi": 66,
			"name": "F#4",
			"ticks": 76200,
			"time": 86.5908225,
			"velocity": 0.8582677165354331
		  },
		  {
			"duration": 0.24545429999999158,
			"durationTicks": 216,
			"midi": 64,
			"name": "E4",
			"ticks": 76320,
			"time": 86.727186,
			"velocity": 0.8582677165354331
		  },
		  {
			"duration": 0.2454543000000058,
			"durationTicks": 216,
			"midi": 62,
			"name": "D4",
			"ticks": 76560,
			"time": 86.99991299999999,
			"velocity": 0.8582677165354331
		  },
		  {
			"duration": 0.24545429999999158,
			"durationTicks": 216,
			"midi": 61,
			"name": "C#4",
			"ticks": 76800,
			"time": 87.27264,
			"velocity": 0.8582677165354331
		  },
		  {
			"duration": 0.24545429999999158,
			"durationTicks": 216,
			"midi": 62,
			"name": "D4",
			"ticks": 77040,
			"time": 87.545367,
			"velocity": 0.8582677165354331
		  },
		  {
			"duration": 0.49090859999999736,
			"durationTicks": 432,
			"midi": 64,
			"name": "E4",
			"ticks": 77280,
			"time": 87.818094,
			"velocity": 0.8582677165354331
		  },
		  {
			"duration": 0.3681814500000087,
			"durationTicks": 324,
			"midi": 66,
			"name": "F#4",
			"ticks": 77760,
			"time": 88.363548,
			"velocity": 0.8582677165354331
		  },
		  {
			"duration": 0.1227271500000029,
			"durationTicks": 108,
			"midi": 68,
			"name": "G#4",
			"ticks": 78120,
			"time": 88.7726385,
			"velocity": 0.8582677165354331
		  },
		  {
			"duration": 0.24545429999999158,
			"durationTicks": 216,
			"midi": 66,
			"name": "F#4",
			"ticks": 78240,
			"time": 88.909002,
			"velocity": 0.8582677165354331
		  },
		  {
			"duration": 0.24545429999999158,
			"durationTicks": 216,
			"midi": 64,
			"name": "E4",
			"ticks": 78480,
			"time": 89.181729,
			"velocity": 0.8582677165354331
		  },
		  {
			"duration": 0.2454543000000058,
			"durationTicks": 216,
			"midi": 66,
			"name": "F#4",
			"ticks": 78720,
			"time": 89.454456,
			"velocity": 0.8582677165354331
		  },
		  {
			"duration": 0.24545429999999158,
			"durationTicks": 216,
			"midi": 68,
			"name": "G#4",
			"ticks": 78960,
			"time": 89.727183,
			"velocity": 0.8582677165354331
		  },
		  {
			"duration": 0.24545429999999158,
			"durationTicks": 216,
			"midi": 69,
			"name": "A4",
			"ticks": 79200,
			"time": 89.99991,
			"velocity": 0.8582677165354331
		  },
		  {
			"duration": 0.24545429999999158,
			"durationTicks": 216,
			"midi": 66,
			"name": "F#4",
			"ticks": 79440,
			"time": 90.272637,
			"velocity": 0.8582677165354331
		  },
		  {
			"duration": 0.2454543000000058,
			"durationTicks": 216,
			"midi": 64,
			"name": "E4",
			"ticks": 79680,
			"time": 90.54536399999999,
			"velocity": 0.8582677165354331
		  },
		  {
			"duration": 0.24545429999999158,
			"durationTicks": 216,
			"midi": 69,
			"name": "A4",
			"ticks": 79920,
			"time": 90.818091,
			"velocity": 0.8582677165354331
		  },
		  {
			"duration": 0.24545429999999158,
			"durationTicks": 216,
			"midi": 68,
			"name": "G#4",
			"ticks": 80160,
			"time": 91.090818,
			"velocity": 0.8582677165354331
		  },
		  {
			"duration": 0.24545429999999158,
			"durationTicks": 216,
			"midi": 71,
			"name": "B4",
			"ticks": 80400,
			"time": 91.363545,
			"velocity": 0.8582677165354331
		  },
		  {
			"duration": 0.7363628999999889,
			"durationTicks": 648,
			"midi": 69,
			"name": "A4",
			"ticks": 80640,
			"time": 91.636272,
			"velocity": 1
		  }
		]
	  },
	  {
		"channel": 0,
		"controlChanges": {},
		"pitchBends": [],
		"instrument": {
		  "family": "bass",
		  "name": "electric bass (pick)",
		  "number": 34
		},
		"name": "",
		"notes": [
		  {
			"duration": 0.24545429999999868,
			"durationTicks": 216,
			"midi": 69,
			"name": "A4",
			"ticks": 20160,
			"time": 22.909068,
			"velocity": 1
		  },
		  {
			"duration": 0.24545429999999868,
			"durationTicks": 216,
			"midi": 69,
			"name": "A4",
			"ticks": 20400,
			"time": 23.181795,
			"velocity": 1
		  },
		  {
			"duration": 0.24545430000000223,
			"durationTicks": 216,
			"midi": 71,
			"name": "B4",
			"ticks": 20640,
			"time": 23.454522,
			"velocity": 1
		  },
		  {
			"duration": 0.24545430000000223,
			"durationTicks": 216,
			"midi": 73,
			"name": "C#5",
			"ticks": 20880,
			"time": 23.727249,
			"velocity": 1
		  },
		  {
			"duration": 0.24545430000000223,
			"durationTicks": 216,
			"midi": 69,
			"name": "A4",
			"ticks": 21120,
			"time": 23.999976,
			"velocity": 1
		  },
		  {
			"duration": 0.24545430000000223,
			"durationTicks": 216,
			"midi": 73,
			"name": "C#5",
			"ticks": 21360,
			"time": 24.272703,
			"velocity": 1
		  },
		  {
			"duration": 0.24545430000000223,
			"durationTicks": 216,
			"midi": 71,
			"name": "B4",
			"ticks": 21600,
			"time": 24.54543,
			"velocity": 1
		  },
		  {
			"duration": 0.24545430000000223,
			"durationTicks": 216,
			"midi": 64,
			"name": "E4",
			"ticks": 21840,
			"time": 24.818157,
			"velocity": 1
		  },
		  {
			"duration": 0.24545430000000223,
			"durationTicks": 216,
			"midi": 69,
			"name": "A4",
			"ticks": 22080,
			"time": 25.090884,
			"velocity": 1
		  },
		  {
			"duration": 0.24545430000000223,
			"durationTicks": 216,
			"midi": 69,
			"name": "A4",
			"ticks": 22320,
			"time": 25.363611,
			"velocity": 1
		  },
		  {
			"duration": 0.24545430000000223,
			"durationTicks": 216,
			"midi": 71,
			"name": "B4",
			"ticks": 22560,
			"time": 25.636338,
			"velocity": 1
		  },
		  {
			"duration": 0.24545430000000223,
			"durationTicks": 216,
			"midi": 73,
			"name": "C#5",
			"ticks": 22800,
			"time": 25.909065,
			"velocity": 1
		  },
		  {
			"duration": 0.49090859999999736,
			"durationTicks": 432,
			"midi": 69,
			"name": "A4",
			"ticks": 23040,
			"time": 26.181792,
			"velocity": 1
		  },
		  {
			"duration": 0.24545429999999868,
			"durationTicks": 216,
			"midi": 68,
			"name": "G#4",
			"ticks": 23520,
			"time": 26.727246,
			"velocity": 1
		  },
		  {
			"duration": 0.24545430000000223,
			"durationTicks": 216,
			"midi": 64,
			"name": "E4",
			"ticks": 23760,
			"time": 26.999973,
			"velocity": 1
		  },
		  {
			"duration": 0.24545430000000223,
			"durationTicks": 216,
			"midi": 69,
			"name": "A4",
			"ticks": 24000,
			"time": 27.2727,
			"velocity": 1
		  },
		  {
			"duration": 0.24545430000000223,
			"durationTicks": 216,
			"midi": 69,
			"name": "A4",
			"ticks": 24240,
			"time": 27.545427,
			"velocity": 1
		  },
		  {
			"duration": 0.24545430000000223,
			"durationTicks": 216,
			"midi": 71,
			"name": "B4",
			"ticks": 24480,
			"time": 27.818154,
			"velocity": 1
		  },
		  {
			"duration": 0.24545430000000223,
			"durationTicks": 216,
			"midi": 73,
			"name": "C#5",
			"ticks": 24720,
			"time": 28.090881,
			"velocity": 1
		  },
		  {
			"duration": 0.24545430000000223,
			"durationTicks": 216,
			"midi": 74,
			"name": "D5",
			"ticks": 24960,
			"time": 28.363608,
			"velocity": 1
		  },
		  {
			"duration": 0.24545430000000223,
			"durationTicks": 216,
			"midi": 73,
			"name": "C#5",
			"ticks": 25200,
			"time": 28.636335,
			"velocity": 1
		  },
		  {
			"duration": 0.24545430000000223,
			"durationTicks": 216,
			"midi": 71,
			"name": "B4",
			"ticks": 25440,
			"time": 28.909062,
			"velocity": 1
		  },
		  {
			"duration": 0.24545430000000223,
			"durationTicks": 216,
			"midi": 69,
			"name": "A4",
			"ticks": 25680,
			"time": 29.181789,
			"velocity": 1
		  },
		  {
			"duration": 0.24545430000000223,
			"durationTicks": 216,
			"midi": 68,
			"name": "G#4",
			"ticks": 25920,
			"time": 29.454515999999998,
			"velocity": 1
		  },
		  {
			"duration": 0.24545429999999868,
			"durationTicks": 216,
			"midi": 64,
			"name": "E4",
			"ticks": 26160,
			"time": 29.727243,
			"velocity": 1
		  },
		  {
			"duration": 0.24545429999999868,
			"durationTicks": 216,
			"midi": 66,
			"name": "F#4",
			"ticks": 26400,
			"time": 29.99997,
			"velocity": 1
		  },
		  {
			"duration": 0.24545429999999868,
			"durationTicks": 216,
			"midi": 68,
			"name": "G#4",
			"ticks": 26640,
			"time": 30.272697,
			"velocity": 1
		  },
		  {
			"duration": 0.24545430000000223,
			"durationTicks": 216,
			"midi": 69,
			"name": "A4",
			"ticks": 26880,
			"time": 30.545424,
			"velocity": 1
		  },
		  {
			"duration": 0.24545430000000223,
			"durationTicks": 216,
			"midi": 69,
			"name": "A4",
			"ticks": 27120,
			"time": 30.818151,
			"velocity": 1
		  },
		  {
			"duration": 0.24545430000000223,
			"durationTicks": 216,
			"midi": 69,
			"name": "A4",
			"ticks": 27360,
			"time": 31.090878,
			"velocity": 1
		  },
		  {
			"duration": 0.368181449999998,
			"durationTicks": 324,
			"midi": 66,
			"name": "F#4",
			"ticks": 27840,
			"time": 31.636332,
			"velocity": 1
		  },
		  {
			"duration": 0.1227271500000029,
			"durationTicks": 108,
			"midi": 68,
			"name": "G#4",
			"ticks": 28200,
			"time": 32.0454225,
			"velocity": 1
		  },
		  {
			"duration": 0.24545429999999868,
			"durationTicks": 216,
			"midi": 66,
			"name": "F#4",
			"ticks": 28320,
			"time": 32.181786,
			"velocity": 1
		  },
		  {
			"duration": 0.2454543000000058,
			"durationTicks": 216,
			"midi": 64,
			"name": "E4",
			"ticks": 28560,
			"time": 32.454513,
			"velocity": 1
		  },
		  {
			"duration": 0.24545429999999868,
			"durationTicks": 216,
			"midi": 66,
			"name": "F#4",
			"ticks": 28800,
			"time": 32.72724,
			"velocity": 1
		  },
		  {
			"duration": 0.2454543000000058,
			"durationTicks": 216,
			"midi": 68,
			"name": "G#4",
			"ticks": 29040,
			"time": 32.999967,
			"velocity": 1
		  },
		  {
			"duration": 0.24545429999999868,
			"durationTicks": 216,
			"midi": 69,
			"name": "A4",
			"ticks": 29280,
			"time": 33.272694,
			"velocity": 1
		  },
		  {
			"duration": 0.2454543000000058,
			"durationTicks": 216,
			"midi": 66,
			"name": "F#4",
			"ticks": 29520,
			"time": 33.545421,
			"velocity": 1
		  },
		  {
			"duration": 0.36818144999999447,
			"durationTicks": 324,
			"midi": 64,
			"name": "E4",
			"ticks": 29760,
			"time": 33.818148,
			"velocity": 1
		  },
		  {
			"duration": 0.1227271500000029,
			"durationTicks": 108,
			"midi": 66,
			"name": "F#4",
			"ticks": 30120,
			"time": 34.2272385,
			"velocity": 1
		  },
		  {
			"duration": 0.24545429999999868,
			"durationTicks": 216,
			"midi": 64,
			"name": "E4",
			"ticks": 30240,
			"time": 34.363602,
			"velocity": 1
		  },
		  {
			"duration": 0.2454543000000058,
			"durationTicks": 216,
			"midi": 62,
			"name": "D4",
			"ticks": 30480,
			"time": 34.636328999999996,
			"velocity": 1
		  },
		  {
			"duration": 0.24545429999999868,
			"durationTicks": 216,
			"midi": 61,
			"name": "C#4",
			"ticks": 30720,
			"time": 34.909056,
			"velocity": 1
		  },
		  {
			"duration": 0.24545429999999868,
			"durationTicks": 216,
			"midi": 62,
			"name": "D4",
			"ticks": 30960,
			"time": 35.181783,
			"velocity": 1
		  },
		  {
			"duration": 0.49090860000000447,
			"durationTicks": 432,
			"midi": 64,
			"name": "E4",
			"ticks": 31200,
			"time": 35.45451,
			"velocity": 1
		  },
		  {
			"duration": 0.3681814500000016,
			"durationTicks": 324,
			"midi": 66,
			"name": "F#4",
			"ticks": 31680,
			"time": 35.999964,
			"velocity": 1
		  },
		  {
			"duration": 0.1227271500000029,
			"durationTicks": 108,
			"midi": 68,
			"name": "G#4",
			"ticks": 32040,
			"time": 36.409054499999996,
			"velocity": 1
		  },
		  {
			"duration": 0.2454543000000058,
			"durationTicks": 216,
			"midi": 66,
			"name": "F#4",
			"ticks": 32160,
			"time": 36.545418,
			"velocity": 1
		  },
		  {
			"duration": 0.24545429999999868,
			"durationTicks": 216,
			"midi": 64,
			"name": "E4",
			"ticks": 32400,
			"time": 36.818145,
			"velocity": 1
		  },
		  {
			"duration": 0.2454543000000058,
			"durationTicks": 216,
			"midi": 66,
			"name": "F#4",
			"ticks": 32640,
			"time": 37.090872,
			"velocity": 1
		  },
		  {
			"duration": 0.24545429999999868,
			"durationTicks": 216,
			"midi": 68,
			"name": "G#4",
			"ticks": 32880,
			"time": 37.363599,
			"velocity": 1
		  },
		  {
			"duration": 0.2454543000000058,
			"durationTicks": 216,
			"midi": 69,
			"name": "A4",
			"ticks": 33120,
			"time": 37.636326,
			"velocity": 1
		  },
		  {
			"duration": 0.24545429999999868,
			"durationTicks": 216,
			"midi": 66,
			"name": "F#4",
			"ticks": 33360,
			"time": 37.909053,
			"velocity": 1
		  },
		  {
			"duration": 0.2454543000000058,
			"durationTicks": 216,
			"midi": 64,
			"name": "E4",
			"ticks": 33600,
			"time": 38.181779999999996,
			"velocity": 1
		  },
		  {
			"duration": 0.24545429999999868,
			"durationTicks": 216,
			"midi": 69,
			"name": "A4",
			"ticks": 33840,
			"time": 38.454507,
			"velocity": 1
		  },
		  {
			"duration": 0.24545429999999868,
			"durationTicks": 216,
			"midi": 68,
			"name": "G#4",
			"ticks": 34080,
			"time": 38.727234,
			"velocity": 1
		  },
		  {
			"duration": 0.24545429999999868,
			"durationTicks": 216,
			"midi": 71,
			"name": "B4",
			"ticks": 34320,
			"time": 38.999961,
			"velocity": 1
		  },
		  {
			"duration": 0.736362899999996,
			"durationTicks": 648,
			"midi": 69,
			"name": "A4",
			"ticks": 34560,
			"time": 39.272688,
			"velocity": 1
		  },
		  {
			"duration": 0.2454543000000058,
			"durationTicks": 216,
			"midi": 69,
			"name": "A4",
			"ticks": 50880,
			"time": 57.818124,
			"velocity": 1
		  },
		  {
			"duration": 0.24545429999999868,
			"durationTicks": 216,
			"midi": 69,
			"name": "A4",
			"ticks": 51120,
			"time": 58.090851,
			"velocity": 1
		  },
		  {
			"duration": 0.2454543000000058,
			"durationTicks": 216,
			"midi": 71,
			"name": "B4",
			"ticks": 51360,
			"time": 58.363578,
			"velocity": 1
		  },
		  {
			"duration": 0.24545429999999868,
			"durationTicks": 216,
			"midi": 73,
			"name": "C#5",
			"ticks": 51600,
			"time": 58.636305,
			"velocity": 1
		  },
		  {
			"duration": 0.2454543000000058,
			"durationTicks": 216,
			"midi": 69,
			"name": "A4",
			"ticks": 51840,
			"time": 58.909031999999996,
			"velocity": 1
		  },
		  {
			"duration": 0.24545429999999868,
			"durationTicks": 216,
			"midi": 73,
			"name": "C#5",
			"ticks": 52080,
			"time": 59.181759,
			"velocity": 1
		  },
		  {
			"duration": 0.24545429999999868,
			"durationTicks": 216,
			"midi": 71,
			"name": "B4",
			"ticks": 52320,
			"time": 59.454486,
			"velocity": 1
		  },
		  {
			"duration": 0.24545429999999868,
			"durationTicks": 216,
			"midi": 64,
			"name": "E4",
			"ticks": 52560,
			"time": 59.727213,
			"velocity": 1
		  },
		  {
			"duration": 0.24545429999999868,
			"durationTicks": 216,
			"midi": 69,
			"name": "A4",
			"ticks": 52800,
			"time": 59.99994,
			"velocity": 1
		  },
		  {
			"duration": 0.2454543000000058,
			"durationTicks": 216,
			"midi": 69,
			"name": "A4",
			"ticks": 53040,
			"time": 60.272667,
			"velocity": 1
		  },
		  {
			"duration": 0.24545429999999868,
			"durationTicks": 216,
			"midi": 71,
			"name": "B4",
			"ticks": 53280,
			"time": 60.545394,
			"velocity": 1
		  },
		  {
			"duration": 0.2454543000000058,
			"durationTicks": 216,
			"midi": 73,
			"name": "C#5",
			"ticks": 53520,
			"time": 60.818121,
			"velocity": 1
		  },
		  {
			"duration": 0.49090860000000447,
			"durationTicks": 432,
			"midi": 69,
			"name": "A4",
			"ticks": 53760,
			"time": 61.090848,
			"velocity": 1
		  },
		  {
			"duration": 0.24545429999999868,
			"durationTicks": 216,
			"midi": 68,
			"name": "G#4",
			"ticks": 54240,
			"time": 61.636302,
			"velocity": 1
		  },
		  {
			"duration": 0.2454543000000058,
			"durationTicks": 216,
			"midi": 64,
			"name": "E4",
			"ticks": 54480,
			"time": 61.909029,
			"velocity": 1
		  },
		  {
			"duration": 0.24545429999999868,
			"durationTicks": 216,
			"midi": 69,
			"name": "A4",
			"ticks": 54720,
			"time": 62.181756,
			"velocity": 1
		  },
		  {
			"duration": 0.2454543000000058,
			"durationTicks": 216,
			"midi": 69,
			"name": "A4",
			"ticks": 54960,
			"time": 62.454482999999996,
			"velocity": 1
		  },
		  {
			"duration": 0.24545429999999868,
			"durationTicks": 216,
			"midi": 71,
			"name": "B4",
			"ticks": 55200,
			"time": 62.72721,
			"velocity": 1
		  },
		  {
			"duration": 0.24545429999999868,
			"durationTicks": 216,
			"midi": 73,
			"name": "C#5",
			"ticks": 55440,
			"time": 62.999937,
			"velocity": 1
		  },
		  {
			"duration": 0.24545429999999868,
			"durationTicks": 216,
			"midi": 74,
			"name": "D5",
			"ticks": 55680,
			"time": 63.272664,
			"velocity": 1
		  },
		  {
			"duration": 0.24545429999999868,
			"durationTicks": 216,
			"midi": 73,
			"name": "C#5",
			"ticks": 55920,
			"time": 63.545391,
			"velocity": 1
		  },
		  {
			"duration": 0.2454543000000058,
			"durationTicks": 216,
			"midi": 71,
			"name": "B4",
			"ticks": 56160,
			"time": 63.818118,
			"velocity": 1
		  },
		  {
			"duration": 0.2454543000000058,
			"durationTicks": 216,
			"midi": 69,
			"name": "A4",
			"ticks": 56400,
			"time": 64.090845,
			"velocity": 1
		  },
		  {
			"duration": 0.24545429999999158,
			"durationTicks": 216,
			"midi": 68,
			"name": "G#4",
			"ticks": 56640,
			"time": 64.363572,
			"velocity": 1
		  },
		  {
			"duration": 0.2454543000000058,
			"durationTicks": 216,
			"midi": 64,
			"name": "E4",
			"ticks": 56880,
			"time": 64.636299,
			"velocity": 1
		  },
		  {
			"duration": 0.2454543000000058,
			"durationTicks": 216,
			"midi": 66,
			"name": "F#4",
			"ticks": 57120,
			"time": 64.909026,
			"velocity": 1
		  },
		  {
			"duration": 0.2454543000000058,
			"durationTicks": 216,
			"midi": 68,
			"name": "G#4",
			"ticks": 57360,
			"time": 65.181753,
			"velocity": 1
		  },
		  {
			"duration": 0.24545429999999158,
			"durationTicks": 216,
			"midi": 69,
			"name": "A4",
			"ticks": 57600,
			"time": 65.45448,
			"velocity": 1
		  },
		  {
			"duration": 0.2454543000000058,
			"durationTicks": 216,
			"midi": 69,
			"name": "A4",
			"ticks": 57840,
			"time": 65.72720699999999,
			"velocity": 1
		  },
		  {
			"duration": 0.2454543000000058,
			"durationTicks": 216,
			"midi": 69,
			"name": "A4",
			"ticks": 58080,
			"time": 65.999934,
			"velocity": 1
		  },
		  {
			"duration": 0.36818144999999447,
			"durationTicks": 324,
			"midi": 66,
			"name": "F#4",
			"ticks": 58560,
			"time": 66.545388,
			"velocity": 1
		  },
		  {
			"duration": 0.1227271500000029,
			"durationTicks": 108,
			"midi": 68,
			"name": "G#4",
			"ticks": 58920,
			"time": 66.9544785,
			"velocity": 1
		  },
		  {
			"duration": 0.2454543000000058,
			"durationTicks": 216,
			"midi": 66,
			"name": "F#4",
			"ticks": 59040,
			"time": 67.090842,
			"velocity": 1
		  },
		  {
			"duration": 0.2454543000000058,
			"durationTicks": 216,
			"midi": 64,
			"name": "E4",
			"ticks": 59280,
			"time": 67.363569,
			"velocity": 1
		  },
		  {
			"duration": 0.2454543000000058,
			"durationTicks": 216,
			"midi": 66,
			"name": "F#4",
			"ticks": 59520,
			"time": 67.636296,
			"velocity": 1
		  },
		  {
			"duration": 0.24545429999999158,
			"durationTicks": 216,
			"midi": 68,
			"name": "G#4",
			"ticks": 59760,
			"time": 67.909023,
			"velocity": 1
		  },
		  {
			"duration": 0.2454543000000058,
			"durationTicks": 216,
			"midi": 69,
			"name": "A4",
			"ticks": 60000,
			"time": 68.18175,
			"velocity": 1
		  },
		  {
			"duration": 0.2454543000000058,
			"durationTicks": 216,
			"midi": 66,
			"name": "F#4",
			"ticks": 60240,
			"time": 68.454477,
			"velocity": 1
		  },
		  {
			"duration": 0.36818144999999447,
			"durationTicks": 324,
			"midi": 64,
			"name": "E4",
			"ticks": 60480,
			"time": 68.727204,
			"velocity": 1
		  },
		  {
			"duration": 0.12272714999998868,
			"durationTicks": 108,
			"midi": 66,
			"name": "F#4",
			"ticks": 60840,
			"time": 69.1362945,
			"velocity": 1
		  },
		  {
			"duration": 0.2454543000000058,
			"durationTicks": 216,
			"midi": 64,
			"name": "E4",
			"ticks": 60960,
			"time": 69.27265799999999,
			"velocity": 1
		  },
		  {
			"duration": 0.2454543000000058,
			"durationTicks": 216,
			"midi": 62,
			"name": "D4",
			"ticks": 61200,
			"time": 69.545385,
			"velocity": 1
		  },
		  {
			"duration": 0.24545429999999158,
			"durationTicks": 216,
			"midi": 61,
			"name": "C#4",
			"ticks": 61440,
			"time": 69.818112,
			"velocity": 1
		  },
		  {
			"duration": 0.24545429999999158,
			"durationTicks": 216,
			"midi": 62,
			"name": "D4",
			"ticks": 61680,
			"time": 70.090839,
			"velocity": 1
		  },
		  {
			"duration": 0.49090859999999736,
			"durationTicks": 432,
			"midi": 64,
			"name": "E4",
			"ticks": 61920,
			"time": 70.363566,
			"velocity": 1
		  },
		  {
			"duration": 0.3681814500000087,
			"durationTicks": 324,
			"midi": 66,
			"name": "F#4",
			"ticks": 62400,
			"time": 70.90902,
			"velocity": 1
		  },
		  {
			"duration": 0.12272714999998868,
			"durationTicks": 108,
			"midi": 68,
			"name": "G#4",
			"ticks": 62760,
			"time": 71.3181105,
			"velocity": 1
		  },
		  {
			"duration": 0.24545429999999158,
			"durationTicks": 216,
			"midi": 66,
			"name": "F#4",
			"ticks": 62880,
			"time": 71.454474,
			"velocity": 1
		  },
		  {
			"duration": 0.2454543000000058,
			"durationTicks": 216,
			"midi": 64,
			"name": "E4",
			"ticks": 63120,
			"time": 71.727201,
			"velocity": 1
		  },
		  {
			"duration": 0.24545429999999158,
			"durationTicks": 216,
			"midi": 66,
			"name": "F#4",
			"ticks": 63360,
			"time": 71.999928,
			"velocity": 1
		  },
		  {
			"duration": 0.24545429999999158,
			"durationTicks": 216,
			"midi": 68,
			"name": "G#4",
			"ticks": 63600,
			"time": 72.272655,
			"velocity": 1
		  },
		  {
			"duration": 0.24545429999999158,
			"durationTicks": 216,
			"midi": 69,
			"name": "A4",
			"ticks": 63840,
			"time": 72.545382,
			"velocity": 1
		  },
		  {
			"duration": 0.2454543000000058,
			"durationTicks": 216,
			"midi": 66,
			"name": "F#4",
			"ticks": 64080,
			"time": 72.81810899999999,
			"velocity": 1
		  },
		  {
			"duration": 0.24545429999999158,
			"durationTicks": 216,
			"midi": 64,
			"name": "E4",
			"ticks": 64320,
			"time": 73.090836,
			"velocity": 1
		  },
		  {
			"duration": 0.24545429999999158,
			"durationTicks": 216,
			"midi": 69,
			"name": "A4",
			"ticks": 64560,
			"time": 73.363563,
			"velocity": 1
		  },
		  {
			"duration": 0.24545429999999158,
			"durationTicks": 216,
			"midi": 68,
			"name": "G#4",
			"ticks": 64800,
			"time": 73.63629,
			"velocity": 1
		  },
		  {
			"duration": 0.24545429999999158,
			"durationTicks": 216,
			"midi": 71,
			"name": "B4",
			"ticks": 65040,
			"time": 73.909017,
			"velocity": 1
		  },
		  {
			"duration": 0.7363629000000032,
			"durationTicks": 648,
			"midi": 69,
			"name": "A4",
			"ticks": 65280,
			"time": 74.181744,
			"velocity": 1
		  }
		]
	  }
	]
}